/* XPM */
static char *result[] = {
/* columns rows colors chars-per-pixel */
"60 60 124 2 ",
"   c #6D633E",
".  c #7D6F36",
"X  c #71673E",
"o  c #756B3D",
"O  c #796E3D",
"+  c #7D733D",
"@  c #6D6541",
"#  c #87762F",
"$  c #8C7A2E",
"%  c #847533",
"&  c #8A7A32",
"*  c #82763D",
"=  c #83793D",
"-  c #897C3F",
";  c #897C40",
":  c #B49515",
">  c #B89A16",
",  c #B1951B",
"<  c #B99A18",
"1  c #9D8624",
"2  c #9B8529",
"3  c #9F892C",
"4  c #8C833D",
"5  c #94843C",
"6  c #938A3D",
"7  c #9E8C39",
"8  c #99903D",
"9  c #A48C23",
"0  c #A28D2F",
"q  c #A99128",
"w  c #A38E32",
"e  c #A08E3B",
"r  c #AB9533",
"t  c #A3943B",
"y  c #AB973A",
"u  c #A49A3C",
"i  c #AB9A3A",
"p  c #B19E3A",
"a  c #ABA33D",
"s  c #B1A53C",
"d  c #BAA338",
"f  c #B3AB3C",
"g  c #BCA839",
"h  c #BEB53C",
"j  c #BFB93C",
"k  c #C5A30D",
"l  c #CBA60A",
"z  c #CDA90D",
"x  c #D5AE06",
"c  c #D3AE0D",
"v  c #DCB302",
"b  c #DAB30A",
"n  c #C7A71D",
"m  c #D6B213",
"M  c #E1B703",
"N  c #E3BA05",
"B  c #E5BC0B",
"V  c #E2BE1C",
"C  c #C5A723",
"Z  c #C6A822",
"A  c #C8AA22",
"S  c #C9AD2E",
"D  c #DDBB27",
"F  c #D6B62C",
"G  c #C4AB36",
"H  c #C4AB38",
"J  c #C4BC3C",
"K  c #C9BF3B",
"L  c #D9BD37",
"P  c #E6C10B",
"I  c #EBC30E",
"U  c #EAC615",
"Y  c #EBCC14",
"T  c #E6C11C",
"R  c #ECC61B",
"E  c #F5CC16",
"W  c #F0C819",
"Q  c #ECD017",
"!  c #EDD219",
"~  c #CBC43C",
"^  c #DEC236",
"/  c #D3C539",
"(  c #DCCE39",
")  c #DDD63B",
"_  c #DFD83B",
"`  c #EECA22",
"'  c #E0C12F",
"]  c #E8C72C",
"[  c #ECCA2F",
"{  c #F1CB25",
"}  c #F3D326",
"|  c #F1DC21",
" . c #F5D22D",
".. c #F8D32A",
"X. c #F6DB2E",
"o. c #FEDA2D",
"O. c #E6CA36",
"+. c #EACB34",
"@. c #EDD136",
"#. c #E6D739",
"$. c #E4DC3B",
"%. c #EDDD39",
"&. c #F6D433",
"*. c #F8D634",
"=. c #F5DB36",
"-. c #FADB35",
";. c #F1DD38",
":. c #F5E226",
">. c #F6E42B",
",. c #F8E72B",
"<. c #F9EB2F",
"1. c #EDE33A",
"2. c #EFE83B",
"3. c #F6E137",
"4. c #FDE436",
"5. c #FDEB36",
"6. c #F4E438",
"7. c #F8E538",
"8. c #F4EB3A",
"9. c #FCEC38",
"0. c #FDF336",
"q. c #FEF339",
"w. c #FFF93A",
"e. c None",
/* pixels */
"e.e.e.e.e.e.e.e.e.e.e.e.e.e.e.e.e.e.e.e.e.e.e.e.e.e.e.e.e.e.e.e.e.e.e.e.e.e.e.e.e.e.e.e.e.e.e.e.e.e.e.e.e.e.e.e.e.e.e.e.",
"e.e.e.e.e.e.e.e.e.e.e.e.e.e.e.e.e.e.e.e.e.e.e.e.e.e.e.e.e.e.e.e.e.e.e.e.e.e.e.e.e.e.e.e.e.e.e.e.e.e.e.e.e.e.e.e.e.e.e.e.",
"e.e.e.e.e.e.e.e.e.e.e.e.e.e.e.e.e.e.e.e.e.e.e.e.e.e.e.e.e.e.e.e.e.e.e.e.e.e.e.e.e.e.e.e.e.e.e.e.e.e.e.e.e.e.e.e.e.e.e.e.",
"e.e.e.e.e.e.e.e.e.e.e.e.e.e.e.e.e.e.e.e.e.e.e.e.e.e.e.e.e.e.e.e.e.e.e.e.e.e.e.e.e.e.e.e.e.e.e.e.e.e.e.e.e.e.e.e.e.e.e.e.",
"e.e.e.e.e.e.e.e.e.e.e.e.e.e.e.e.e.e.e.e.e.e.e.e.e.e.e.e.e.e.e.e.e.e.e.e.e.e.e.e.e.e.e.e.e.e.e.e.e.e.e.e.e.e.e.e.e.e.e.e.",
"e.e.e.e.e.e.e.e.e.e.e.e.e.e.e.e.e.e.e.e.e.e.e.e.e.e.e.e.e.e.e.e.e.e.e.e.e.e.e.e.e.e.e.e.e.e.e.e.e.e.e.e.e.e.e.e.e.e.e.e.",
"e.e.e.e.e.e.e.e.e.e.e.e.e.e.e.e.e.e.e.e.e.e.e.e.e.e.e.e.e.e.e.e.e.e.e.e.e.e.e.e.e.e.e.e.e.e.e.e.e.e.e.e.e.e.e.e.e.e.e.e.",
"e.e.e.e.e.e.e.e.e.e.e.e.e.e.e.e.e.e.e.e.e.e.e.e.e.e.e.e.e.e.e.e.e.e.e.e.e.e.e.e.e.e.e.e.e.e.e.e.e.e.e.e.e.e.e.e.e.e.e.e.",
"e.e.e.e.e.e.e.e.e.e.e.e.e.e.e.e.e.e.e.e.e.e.e.e.e.e.e.e.e.e.e.e.e.e.e.e.e.e.e.e.e.e.e.e.e.e.e.e.e.e.e.e.e.e.e.e.e.e.e.e.",
"e.e.e.e.e.e.e.e.e.e.e.e.e.e.e.e.e.e.e.e.e.e.e.e.e.e.e.e.e.e.e.e.e.e.e.e.e.e.e.e.e.e.e.e.e.e.e.e.e.e.e.e.e.e.e.e.e.e.e.e.",
"e.e.e.e.e.e.e.e.e.e.e.e.e.e.e.e.e.e.e.e.e.e.e.e.e.e.e.e.e.e.e.e.e.e.e.e.e.e.e.e.e.e.e.e.e.e.e.e.e.e.e.e.e.e.e.e.e.e.e.e.",
"e.e.e.e.e.e.e.e.e.e.e.e.e.e.e.e.e.e.e.e.e.e.e.e.e.e.e.e.e.e.e.e.e.e.e.e.e.e.e.e.e.e.e.e.e.e.e.e.e.e.e.e.e.e.e.e.e.e.e.e.",
"e.e.e.e.e.e.e.e.e.e.e.e.e.e.e.e.e.e.e.e.e.e.e.e.e.e.e.e.e.e.e.e.e.e.e.e.e.e.e.e.e.e.e.e.e.e.e.e.e.e.e.e.e.e.e.e.e.e.e.e.",
"e.e.e.e.e.e.e.e.e.e.e.e.e.e.e.e.e.e.e.e.e.e.e.e.e.          X X       e.e.e.e.e.e.e.e.e.e.e.e.e.e.e.e.e.e.e.e.e.e.e.e.e.",
"e.e.e.e.e.e.e.e.e.e.e.e.e.e.e.e.e.e.e.e.e.e.e.e.4 6 6 6 6 4 o + 4 6 6 4 e.e.e.e.e.e.e.e.e.e.e.e.e.e.e.e.e.e.e.e.e.e.e.e.",
"e.e.e.e.e.e.e.e.e.e.e.e.e.e.e.e.e.e.e.e.e.e.e.o f ) _ _ _ J = 4 ~ $.) f + e.e.e.e.e.e.e.e.e.e.e.e.e.e.e.e.e.e.e.e.e.e.e.",
"e.e.e.e.e.e.e.e.e.e.e.e.e.e.e.e.e.e.e.e.e.e.6 u / 9.w.q.w.$.s a ~ 1.5./ e = e.e.e.e.e.e.e.e.e.e.e.e.e.e.e.e.e.e.e.e.e.e.",
"e.e.e.e.e.e.e.e.e.e.e.e.e.e.e.e.e.e.e.e.e.@ f $.6.-.-.-.-.-.1.~ 8 a @.=.' y @ e.e.e.e.e.e.e.e.e.e.e.e.e.e.e.e.e.e.e.e.e.",
"e.e.e.e.e.e.e.e.e.e.e.e.e.e.e.e.e.e.e.e.4 u / 5.4.*.-.3.3.4.5.#.s i H O.3.L u 4 e.e.e.e.e.e.e.e.e.e.e.e.e.e.e.e.e.e.e.e.",
"e.e.e.e.e.e.e.e.e.e.e.e.e.e.e.e.e.e.e.o a $.6.-.*.-.5.q.w.5.4.3.6.J 4 d 8.w.1.u @ e.e.e.e.e.e.e.e.e.e.e.e.e.e.e.e.e.e.e.",
"e.e.e.e.e.e.e.e.e.e.e.e.e.e.e.e.e.e.e.o a q.9.-.-.4.q.w.w.q.-.4.w.~ + u 3.0.3.i + e.e.e.e.e.e.e.e.e.e.e.e.e.e.e.e.e.e.e.",
"e.e.e.e.e.e.e.e.e.e.e.e.e.e.e.e.e.e.e.o a 8.5.-.7.q.w.w.w.9.-.4.q.~ = t @.4.@.y O e.e.e.e.e.e.e.e.e.e.e.e.e.e.e.e.e.e.e.",
"e.e.e.e.e.e.e.e.e.e.e.e.e.e.e.e.e.e.e.@ a 8.9.-.5.w.w.w.w.9.-.4.q.~ * u 3.0.;.u X e.e.e.e.e.e.e.e.e.e.e.e.e.e.e.e.e.e.e.",
"e.e.e.e.e.e.e.e.e.e.e.e.e.e.e.e.e.e.e.+ f 8.5.-.5.w.w.w.w.q.-.4.0./ 4 a 1.w.8.f + e.e.e.e.e.e.e.e.e.e.e.e.e.e.e.e.e.e.e.",
"e.e.e.e.e.e.e.e.e.e.e.e.e.e.e.e.e.e.6 h ( 6.4.9.q.w.w.w.w.q.5.5.9.#.K f f / ;.^ d 5 e.e.e.e.e.e.e.e.e.e.e.e.e.e.e.e.e.e.",
"e.e.e.e.e.e.e.e.e.e.e.e.e.e.e.e.e.X u 1.5.-.7.w.w.w.q.w.w.q.w.5.-.4.q.h = s &.4.O.e X e.e.e.e.e.e.e.e.e.e.e.e.e.e.e.e.e.",
"e.e.e.e.e.e.e.e.e.e.e.e.e.e.e.e.e.X u 8.q.-.4.w.w.w.w.w.w.w.w.9.-.4.w.J * s 3.w.;.u X e.e.e.e.e.e.e.e.e.e.e.e.e.e.e.e.e.",
"e.e.e.e.e.e.e.e.e.e.e.e.e.e.e.e.e.X u 1.5.*.4.w.w.w.w.w.w.w.w.9.-.-.9.h * f q.w.2.u X e.e.e.e.e.e.e.e.e.e.e.e.e.e.e.e.e.",
"e.e.e.e.e.e.e.e.e.e.e.e.e.e.e.e.e.X u +.-.-.4.w.w.w.w.w.w.w.w.9.-.-.-.g * f q.w.2.u   e.e.e.e.e.e.e.e.e.e.e.e.e.e.e.e.e.",
"e.e.e.e.e.e.e.e.e.e.e.e.e.e.e.e.e.X e O.-.*.4.5.w.w.w.w.w.0.<.4.-.*.&.d * f 8.w.%.u X e.e.e.e.e.e.e.e.e.e.e.e.e.e.e.e.e.",
"e.e.e.e.e.e.e.e.e.e.e.e.e.e.e.e.e.X e O.-.*.-.3.9.w.w.w.w.<.Q U  .*.&.d * s =.4.O.t X e.e.e.e.e.e.e.e.e.e.e.e.e.e.e.e.e.",
"e.e.e.e.e.e.e.e.e.e.e.e.e.e.e.e.e.X e O.-.*.*.&.X.>.0.w.w.<.U U  .-.&.d * p =.5.@.t X e.e.e.e.e.e.e.e.e.e.e.e.e.e.e.e.e.",
"e.e.e.e.e.e.e.e.e.e.e.e.e.e.e.e.e.X e O.-.*.*.*.R I :.w.w.q.X. .&.-.&.d * f 8.w.1.u X e.e.e.e.e.e.e.e.e.e.e.e.e.e.e.e.e.",
"e.e.e.e.e.e.e.e.e.e.e.e.e.e.e.e.e.X e +.-.*.*.*.W R >.w.w.q.7.-.-.-.*.d + s 9.w.%.u X e.e.e.e.e.e.e.e.e.e.e.e.e.e.e.e.e.",
"e.e.e.e.e.e.e.e.e.e.e.e.e.e.e.e.e.o e O.-.&.*.*. .*.7.w.w.w.w.0.-.-.&.d + p &.-.O.7 X e.e.e.e.e.e.e.e.e.e.e.e.e.e.e.e.e.",
"e.e.e.e.e.e.e.e.e.e.e.e.e.e.e.e.e.e.5 d L &.*.*.{ ` ,.w.w.w.w.<.{ D G r 9 n ` F d 5 e.e.e.e.e.e.e.e.e.e.e.e.e.e.e.e.e.e.",
"e.e.e.e.e.e.e.e.e.e.e.e.e.e.e.e.e.e.e.+ p [ -. .R P :.w.w.w.w.,.P < & 3 c M b 9 + e.e.e.e.e.e.e.e.e.e.e.e.e.e.e.e.e.e.e.",
"e.e.e.e.e.e.e.e.e.e.e.e.e.e.e.e.e.e.e.  w V ..&.} | 5.w.w.w.w.,.N : . w T E V 0   e.e.e.e.e.e.e.e.e.e.e.e.e.e.e.e.e.e.e.",
"e.e.e.e.e.e.e.e.e.e.e.e.e.e.e.e.e.e.e.o 9 x W &.7.0.0.0.q.0.0.:.P : % t [ o.[ r o e.e.e.e.e.e.e.e.e.e.e.e.e.e.e.e.e.e.e.",
"e.e.e.e.e.e.e.e.e.e.e.e.e.e.e.e.e.e.e.o 1 v E &.| ! Q Q ! ! ! Y N > . 3 V E U 0 o e.e.e.e.e.e.e.e.e.e.e.e.e.e.e.e.e.e.e.",
"e.e.e.e.e.e.e.e.e.e.e.e.e.e.e.e.e.e.e.o 1 z R  .R N M M N N M v x < & q b M z 1 o e.e.e.e.e.e.e.e.e.e.e.e.e.e.e.e.e.e.e.",
"e.e.e.e.e.e.e.e.e.e.e.e.e.e.e.e.e.e.e.e.% 2 S *...` { ` { W N l 9 w H L ` C 1 % e.e.e.e.e.e.e.e.e.e.e.e.e.e.e.e.e.e.e.e.",
"e.e.e.e.e.e.e.e.e.e.e.e.e.e.e.e.e.e.e.e.e.O y L +....... .` m : $ r ] &.^ y O e.e.e.e.e.e.e.e.e.e.e.e.e.e.e.e.e.e.e.e.e.",
"e.e.e.e.e.e.e.e.e.e.e.e.e.e.e.e.e.e.e.e.e.e.- 7 A B I U I m 9 1 > c B A 7 ; e.e.e.e.e.e.e.e.e.e.e.e.e.e.e.e.e.e.e.e.e.e.",
"e.e.e.e.e.e.e.e.e.e.e.e.e.e.e.e.e.e.e.e.e.e.e.O 9 k k k l , % # > z k 9 o e.e.e.e.e.e.e.e.e.e.e.e.e.e.e.e.e.e.e.e.e.e.e.",
"e.e.e.e.e.e.e.e.e.e.e.e.e.e.e.e.e.e.e.e.e.e.e.e.% & & $ & # o o # & $ % e.e.e.e.e.e.e.e.e.e.e.e.e.e.e.e.e.e.e.e.e.e.e.e.",
"e.e.e.e.e.e.e.e.e.e.e.e.e.e.e.e.e.e.e.e.e.e.e.e.e.@ @ @ @ @ @ X @ @   e.e.e.e.e.e.e.e.e.e.e.e.e.e.e.e.e.e.e.e.e.e.e.e.e.",
"e.e.e.e.e.e.e.e.e.e.e.e.e.e.e.e.e.e.e.e.e.e.e.e.e.e.e.e.e.e.e.e.e.e.e.e.e.e.e.e.e.e.e.e.e.e.e.e.e.e.e.e.e.e.e.e.e.e.e.e.",
"e.e.e.e.e.e.e.e.e.e.e.e.e.e.e.e.e.e.e.e.e.e.e.e.e.e.e.e.e.e.e.e.e.e.e.e.e.e.e.e.e.e.e.e.e.e.e.e.e.e.e.e.e.e.e.e.e.e.e.e.",
"e.e.e.e.e.e.e.e.e.e.e.e.e.e.e.e.e.e.e.e.e.e.e.e.e.e.e.e.e.e.e.e.e.e.e.e.e.e.e.e.e.e.e.e.e.e.e.e.e.e.e.e.e.e.e.e.e.e.e.e.",
"e.e.e.e.e.e.e.e.e.e.e.e.e.e.e.e.e.e.e.e.e.e.e.e.e.e.e.e.e.e.e.e.e.e.e.e.e.e.e.e.e.e.e.e.e.e.e.e.e.e.e.e.e.e.e.e.e.e.e.e.",
"e.e.e.e.e.e.e.e.e.e.e.e.e.e.e.e.e.e.e.e.e.e.e.e.e.e.e.e.e.e.e.e.e.e.e.e.e.e.e.e.e.e.e.e.e.e.e.e.e.e.e.e.e.e.e.e.e.e.e.e.",
"e.e.e.e.e.e.e.e.e.e.e.e.e.e.e.e.e.e.e.e.e.e.e.e.e.e.e.e.e.e.e.e.e.e.e.e.e.e.e.e.e.e.e.e.e.e.e.e.e.e.e.e.e.e.e.e.e.e.e.e.",
"e.e.e.e.e.e.e.e.e.e.e.e.e.e.e.e.e.e.e.e.e.e.e.e.e.e.e.e.e.e.e.e.e.e.e.e.e.e.e.e.e.e.e.e.e.e.e.e.e.e.e.e.e.e.e.e.e.e.e.e.",
"e.e.e.e.e.e.e.e.e.e.e.e.e.e.e.e.e.e.e.e.e.e.e.e.e.e.e.e.e.e.e.e.e.e.e.e.e.e.e.e.e.e.e.e.e.e.e.e.e.e.e.e.e.e.e.e.e.e.e.e.",
"e.e.e.e.e.e.e.e.e.e.e.e.e.e.e.e.e.e.e.e.e.e.e.e.e.e.e.e.e.e.e.e.e.e.e.e.e.e.e.e.e.e.e.e.e.e.e.e.e.e.e.e.e.e.e.e.e.e.e.e.",
"e.e.e.e.e.e.e.e.e.e.e.e.e.e.e.e.e.e.e.e.e.e.e.e.e.e.e.e.e.e.e.e.e.e.e.e.e.e.e.e.e.e.e.e.e.e.e.e.e.e.e.e.e.e.e.e.e.e.e.e.",
"e.e.e.e.e.e.e.e.e.e.e.e.e.e.e.e.e.e.e.e.e.e.e.e.e.e.e.e.e.e.e.e.e.e.e.e.e.e.e.e.e.e.e.e.e.e.e.e.e.e.e.e.e.e.e.e.e.e.e.e.",
"e.e.e.e.e.e.e.e.e.e.e.e.e.e.e.e.e.e.e.e.e.e.e.e.e.e.e.e.e.e.e.e.e.e.e.e.e.e.e.e.e.e.e.e.e.e.e.e.e.e.e.e.e.e.e.e.e.e.e.e.",
"e.e.e.e.e.e.e.e.e.e.e.e.e.e.e.e.e.e.e.e.e.e.e.e.e.e.e.e.e.e.e.e.e.e.e.e.e.e.e.e.e.e.e.e.e.e.e.e.e.e.e.e.e.e.e.e.e.e.e.e."
};
