/* XPM */
static char *result[] = {
/* columns rows colors chars-per-pixel */
"60 60 252 2 ",
"   c #675E3F",
".  c #695F3E",
"X  c #69603E",
"o  c #68603F",
"O  c #69603F",
"+  c #69613F",
"@  c #6A613E",
"#  c #6B613E",
"$  c #6A613F",
"%  c #6B623E",
"&  c #6B623F",
"*  c #6C623E",
"=  c #6D633E",
"-  c #6C633F",
";  c #6D643E",
":  c #71673E",
">  c #72683E",
",  c #776C3E",
"<  c #7E7137",
"1  c #7F7237",
"2  c #7D7039",
"3  c #7F7138",
"4  c #7C703D",
"5  c #7D713D",
"6  c #7F753D",
"7  c #676040",
"8  c #6A6240",
"9  c #6B6340",
"0  c #6B6241",
"q  c #6B6342",
"w  c #6C6341",
"e  c #6D6541",
"r  c #6E6540",
"t  c #6E6541",
"y  c #877731",
"u  c #837434",
"i  c #867735",
"p  c #867736",
"a  c #887731",
"s  c #8A7930",
"d  c #887934",
"f  c #807239",
"g  c #80733A",
"h  c #827439",
"j  c #81743B",
"k  c #84763A",
"l  c #81743C",
"z  c #82753D",
"x  c #82763D",
"c  c #82773D",
"v  c #82783D",
"b  c #83783D",
"n  c #83793D",
"m  c #82793E",
"M  c #83793E",
"N  c #85783C",
"B  c #85793D",
"V  c #86783D",
"C  c #867A3D",
"Z  c #88793B",
"A  c #887A3C",
"S  c #897B3C",
"D  c #887A3D",
"F  c #887B3D",
"G  c #887D3D",
"H  c #897E3D",
"J  c #887F3D",
"K  c #AB901D",
"L  c #B0941A",
"P  c #B89B1B",
"I  c #BA9C1B",
"U  c #89803D",
"Y  c #8B803D",
"T  c #8D823D",
"R  c #8E853D",
"E  c #8F853D",
"W  c #97863B",
"Q  c #97873B",
"!  c #91883D",
"~  c #9C893B",
"^  c #9F8D3B",
"/  c #9E8C3D",
"(  c #BC9F20",
")  c #A08D3A",
"_  c #A08E3A",
"`  c #A18E3A",
"'  c #A08E3B",
"]  c #A18E3B",
"[  c #A28F3A",
"{  c #A3913C",
"}  c #B79F35",
"|  c #B49D39",
" . c #B49E39",
".. c #BFA329",
"X. c #BFA635",
"o. c #B5A03B",
"O. c #B9A439",
"+. c #BEA638",
"@. c #BCB43C",
"#. c #C5A20D",
"$. c #C6A30D",
"%. c #C1A116",
"&. c #C1A118",
"*. c #C5A61D",
"=. c #E3BA05",
"-. c #E3B906",
";. c #E3BA07",
":. c #E4BA05",
">. c #E4BA06",
",. c #E5BB06",
"<. c #C0A323",
"1. c #C0A426",
"2. c #C5A726",
"3. c #C1A62C",
"4. c #C8AC2B",
"5. c #D8B721",
"6. c #DCBB24",
"7. c #C4AA32",
"8. c #C1A937",
"9. c #C5AC35",
"0. c #C1A938",
"q. c #C1AA38",
"w. c #C2AA38",
"e. c #C4AB38",
"r. c #C6AF38",
"t. c #C7AF38",
"y. c #CDB131",
"u. c #CFB737",
"i. c #C7B038",
"p. c #C7B138",
"a. c #C7B139",
"s. c #C7B339",
"d. c #C8B539",
"f. c #C8B639",
"g. c #CFB738",
"h. c #C3BB3C",
"j. c #C9BA3A",
"k. c #CABA3A",
"l. c #C9BC3B",
"z. c #C9BD3B",
"x. c #CBBD3A",
"c. c #CABF3B",
"v. c #CFBD39",
"b. c #CCBD3A",
"n. c #D0B938",
"m. c #D1B938",
"M. c #D0BB38",
"N. c #D0BC39",
"B. c #EBC20E",
"V. c #ECC30D",
"C. c #EDC30D",
"Z. c #ECC30E",
"A. c #EAC316",
"S. c #EBC415",
"D. c #EDC614",
"F. c #EDC615",
"G. c #EDC619",
"H. c #ECC61A",
"J. c #EEC71B",
"K. c #EFC71B",
"L. c #EDC61C",
"P. c #EFC818",
"I. c #EFC819",
"U. c #EFC81B",
"Y. c #CAC03B",
"T. c #CCC13B",
"R. c #CAC33C",
"E. c #CBC33C",
"W. c #D2C33A",
"Q. c #D2C53B",
"!. c #D2C63A",
"~. c #D5C73A",
"^. c #D3C83B",
"/. c #D4CA3B",
"(. c #D5CB3B",
"). c #D4CC3B",
"_. c #D4CD3C",
"`. c #DED73B",
"'. c #DFD83B",
"]. c #F0CB22",
"[. c #F2CC21",
"{. c #F2CD21",
"}. c #F1CC22",
"|. c #F6D22B",
" X c #F7D32B",
".X c #F5D22E",
"XX c #F5D22F",
"oX c #F6D32F",
"OX c #F8D32B",
"+X c #E2C436",
"@X c #E6C735",
"#X c #EFCE32",
"$X c #E9CA35",
"%X c #E4D138",
"&X c #E7D238",
"*X c #E0D83B",
"=X c #F2D030",
"-X c #F1D235",
";X c #F5D635",
":X c #F8D935",
">X c #F9DA34",
",X c #F9DA35",
"<X c #FADB34",
"1X c #FADA35",
"2X c #FADB35",
"3X c #FBDC34",
"4X c #FBDC35",
"5X c #FBDD35",
"6X c #FADE35",
"7X c #FBDF35",
"8X c #FCDD35",
"9X c #FCDE35",
"0X c #FCDF35",
"qX c #FDDF35",
"wX c #FBE036",
"eX c #FBE336",
"rX c #FCE136",
"tX c #FDE236",
"yX c #FCE336",
"uX c #FDE436",
"iX c #FCE536",
"pX c #FDE636",
"aX c #FEE736",
"sX c #FCE837",
"dX c #FDE837",
"fX c #FDEB37",
"gX c #FEEB37",
"hX c #FFEB37",
"jX c #FFEC37",
"kX c #FFEE37",
"lX c #FDEC38",
"zX c #FEED38",
"xX c #FFEE38",
"cX c #FEEF39",
"vX c #FFF039",
"bX c #FEF139",
"nX c #FFF139",
"mX c #FFF238",
"MX c #FFF338",
"NX c #FFF339",
"BX c #FFF438",
"VX c #FFF538",
"CX c #FFF439",
"ZX c #FFF539",
"AX c #FFF639",
"SX c #FFF739",
"DX c #FFF93A",
"FX c #FFFA3A",
"GX c #FFFB3A",
"HX c #FFFC3A",
"JX c #FFFD3A",
"KX c None",
/* pixels */
"KXKXKXKXKXKXKXKXKXKXKXKXKXKXKXKXKXKXKXKXKXKXKXKXKXKXKXKXKXKXKXKXKXKXKXKXKXKXKXKXKXKXKXKXKXKXKXKXKXKXKXKXKXKXKXKXKXKXKXKX",
"KXKXKXKXKXKXKXKXKXKXKXKXKXKXKXKXKXKXKXKXKXKXKXKXKXKXKXKXKXKXKXKXKXKXKXKXKXKXKXKXKXKXKXKXKXKXKXKXKXKXKXKXKXKXKXKXKXKXKXKX",
"KXKXKXKXKXKXKXKXKXKXKXKXKXKXKXKXKXKXKXKXKXKXKXKXKXKXKXKXKXKXKXKXKXKXKXKXKXKXKXKXKXKXKXKXKXKXKXKXKXKXKXKXKXKXKXKXKXKXKXKX",
"KXKXKXKXKXKXKXKXKXKXKXKXKXKXKXKXKXKXKXKXKXKXKXKXKXKXKXKXKXKXKXKXKXKXKXKXKXKXKXKXKXKXKXKXKXKXKXKXKXKXKXKXKXKXKXKXKXKXKXKX",
"KXKXKXKXKXKXKXKXKXKXKXKXKXKXKXKXKXKXKXKXKXKXKXKXKXKXKXKXKXKXKXKXKXKXKXKXKXKXKXKXKXKXKXKXKXKXKXKXKXKXKXKXKXKXKXKXKXKXKXKX",
"KXKXKXKXKXKXKXKXKXKXKXKXKXKXKXKXKXKXKXKXKXKXKXKXKXKXKXKXKXKXKXKXKXKXKXKXKXKXKXKXKXKXKXKXKXKXKXKXKXKXKXKXKXKXKXKXKXKXKXKX",
"KXKXKXKXKXKXKXKXKXKXKXKXKXKXKXKXKXKXKXKXKXKXKXKXKXKXKXKXKXKXKXKXKXKXKXKXKXKXKXKXKXKXKXKXKXKXKXKXKXKXKXKXKXKXKXKXKXKXKXKX",
"KXKXKXKXKXKXKXKXKXKXKXKXKXKXKXKXKXKXKXKXKXKXKXKXKXKXKXKXKXKXKXKXKXKXKXKXKXKXKXKXKXKXKXKXKXKXKXKXKXKXKXKXKXKXKXKXKXKXKXKX",
"KXKXKXKXKXKXKXKXKXKXKXKXKXKXKXKXKXKXKXKXKXKXKXKXKXKXKXKXKXKXKXKXKXKXKXKXKXKXKXKXKXKXKXKXKXKXKXKXKXKXKXKXKXKXKXKXKXKXKXKX",
"KXKXKXKXKXKXKXKXKXKXKXKXKXKXKXKXKXKXKXKXKXKXKXKXKXKXKXKXKXKXKXKXKXKXKXKXKXKXKXKXKXKXKXKXKXKXKXKXKXKXKXKXKXKXKXKXKXKXKXKX",
"KXKXKXKXKXKXKXKXKXKXKXKXKXKXKXKXKXKXKXKXKXKXKXKXKXKXKXKXKXKXKXKXKXKXKXKXKXKXKXKXKXKXKXKXKXKXKXKXKXKXKXKXKXKXKXKXKXKXKXKX",
"KXKXKXKXKXKXKXKXKXKXKXKXKXKXKXKXKXKXKXKXKXKXKXKXKXKXKXKXKXKXKXKXKXKXKXKXKXKXKXKXKXKXKXKXKXKXKXKXKXKXKXKXKXKXKXKXKXKXKXKX",
"KXKXKXKXKXKXKXKXKXKXKXKXKXKXKXKXKXKXKXKXKXKXKXKXKXKXKXKXKXKXKXKXKXKXKXKXKXKXKXKXKXKXKXKXKXKXKXKXKXKXKXKXKXKXKXKXKXKXKXKX",
"KXKXKXKXKXKXKXKXKXKXKXKXKXKXKXKXKXKXKXKXKXKXKXKXKXKXKXKXKX* * * * KXKXKXKXKXKXKXKXKXKXKXKXKXKXKXKXKXKXKXKXKXKXKXKXKXKXKX",
"KXKXKXKXKXKXKXKXKXKXKXKXKXKXKXKXKXKXKXKXKXKXKXKXKXKXKXKXE ! ! ! ! R KXKXKXKXKXKXKXKXKXKXKXKXKXKXKXKXKXKXKXKXKXKXKXKXKXKX",
"KXKXKXKXKXKXKXKXKXKXKXKXKXKXKXKXKXKXKXKXKXKXKXKXKXKXKXJ h.*X'.'.`.@.m KXKXKXKXKXKXKXKXKXKXKXKXKXKXKXKXKXKXKXKXKXKXKXKXKX",
"KXKXKXKXKXKXKXKXKXKXKXKXKXKXKXKXKXKXKXKXKXKXKXKXKXKX@ H ~.VXBXVXMXx.v . KXKXKXKXKXKXKXKXKXKXKXKXKXKXKXKXKXKXKXKXKXKXKXKX",
"KXKXKXKXKXKXKXKXKXKXKXKXKXKXKXKXKXKXKXKXKXKXKXKXKXKX% S m.qX9XqX5Xp.x + KXKXKXKXKXKXKXKXKXKXKXKXKXKXKXKXKXKXKXKXKXKXKXKX",
"KXKXKXKXKXKXKXKXKXKXKXKXKXKXKXKXKXKXKXKXKXKXKXKXKXKX  C N.uXyXuXeXd.x % KXKXKXKXKXKXKXKXKXKXKXKXKXKXKXKXKXKXKXKXKXKXKXKX",
"KXKXKXKXKXKXKXKXKXKXKXKXKXKXKXKXKXKXKXKXKXKXKXKXKXKX* Y /.AXZXAXCXT.v = > KXKXKXKXKXKXKXKXKXKXKXKXKXKXKXKXKXKXKXKXKXKXKX",
"KXKXKXKXKXKXKXKXKXKXKXKXKXKXKXKXKXKXKXKXKXKXKXKXKXKX~ O.%XgXfXkXkXb.6 # > > KXKXKXKXKXKXKXKXKXKXKXKXKXKXKXKXKXKXKXKXKXKX",
"KXKXKXKXKXKXKXKXKXKXKXKXKXKXKXKXKXKXKXKXKXKXKXKX+ z w.-X:X,X,X1X;Xt.V : > > KXKXKXKXKXKXKXKXKXKXKXKXKXKXKXKXKXKXKXKXKXKX",
"KXKXKXKXKXKXKXKXKXKXKXKXKXKXKXKXKXKXKXKXKXKXKXKXX c k.jXhXsXdX&Xq.|  .Q , ; KXKXKXKXKXKXKXKXKXKXKXKXKXKXKXKXKXKXKXKXKXKX",
"KXKXKXKXKXKXKXKXKXKXKXKXKXKXKXKXKXKXKXKXKXKXKXKX. n Y.ZXSXAXSX(.T [ +X+.4 + KXKXKXKXKXKXKXKXKXKXKXKXKXKXKXKXKXKXKXKXKXKX",
"KXKXKXKXKXKXKXKXKXKXKXKXKXKXKXKXKXKXKXKXKXKXKXKXX c f.iXaXpXaXv.B ^ $Xe.5 o KXKXKXKXKXKXKXKXKXKXKXKXKXKXKXKXKXKXKXKXKXKX",
"KXKXKXKXKXKXKXKXKXKXKXKXKXKXKXKXKXKXKXKXKXKXKXKX+ x i.2X8X4X8Xg.D ` @X0.4 O KXKXKXKXKXKXKXKXKXKXKXKXKXKXKXKXKXKXKXKXKXKX",
"KXKXKXKXKXKXKXKXKXKXKXKXKXKXKXKXKXKXKXKXKXKXKXKXX c j.lXxXzXxXW.G _ @X0.4 O KXKXKXKXKXKXKXKXKXKXKXKXKXKXKXKXKXKXKXKXKXKX",
"KXKXKXKXKXKXKXKXKXKXKXKXKXKXKXKXKXKXKXKXKXKXKXKX. M R.DXGXFXGX).U ) @X0.4 O KXKXKXKXKXKXKXKXKXKXKXKXKXKXKXKXKXKXKXKXKXKX",
"KXKXKXKXKXKXKXKXKXKXKXKXKXKXKXKXKXKXKXKXKXKXKXKX. M E.GXJXHXJX_.U ) @X0.4 O KXKXKXKXKXKXKXKXKXKXKXKXKXKXKXKXKXKXKXKXKXKX",
"KXKXKXKXKXKXKXKXKXKXKXKXKXKXKXKXKXKXKXKXKXKXKXKX. v z.bXMXmXMX!.H ) @X0.4 O KXKXKXKXKXKXKXKXKXKXKXKXKXKXKXKXKXKXKXKXKXKX",
"KXKXKXKXKXKXKXKXKXKXKXKXKXKXKXKXKXKXKXKXKXKXKXKX+ x a.6X0X7X0Xn.F ` @X0.4 O KXKXKXKXKXKXKXKXKXKXKXKXKXKXKXKXKXKXKXKXKXKX",
"KXKXKXKXKXKXKXKXKXKXKXKXKXKXKXKXKXKXKXKXKXKXKXKXO x s.wXtXrXtXM.F ` @X0.4 O KXKXKXKXKXKXKXKXKXKXKXKXKXKXKXKXKXKXKXKXKXKX",
"KXKXKXKXKXKXKXKXKXKXKXKXKXKXKXKXKXKXKXKXKXKXKXKX. b c.NXZXCXZX^.H ) @X0.4 O KXKXKXKXKXKXKXKXKXKXKXKXKXKXKXKXKXKXKXKXKXKX",
"KXKXKXKXKXKXKXKXKXKXKXKXKXKXKXKXKXKXKXKXKXKXKXKXX v l.cXvXvXnXQ.H ) @X0.4 O KXKXKXKXKXKXKXKXKXKXKXKXKXKXKXKXKXKXKXKXKXKX",
"KXKXKXKXKXKXKXKXKXKXKXKXKXKXKXKXKXKXKXKXKXKXKXKX+ z r.>X3X<X3Xu.A ] @X0.4 O KXKXKXKXKXKXKXKXKXKXKXKXKXKXKXKXKXKXKXKXKXKX",
"KXKXKXKXKXKXKXKXKXKXKXKXKXKXKXKXKXKXKXKXKXKXKXKX8 g ..L.K.J.U.2.h ' $Xe.5 o KXKXKXKXKXKXKXKXKXKXKXKXKXKXKXKXKXKXKXKXKXKX",
"KXKXKXKXKXKXKXKXKXKXKXKXKXKXKXKXKXKXKXKXKXKXKXKXq 1 P -.:.=.:.%.d { +X+.4 + KXKXKXKXKXKXKXKXKXKXKXKXKXKXKXKXKXKXKXKXKXKX",
"KXKXKXKXKXKXKXKXKXKXKXKXKXKXKXKXKXKXKXKXKXKXKXKX8 g 1.P.I.H.G.6.X.o. .W , ; KXKXKXKXKXKXKXKXKXKXKXKXKXKXKXKXKXKXKXKXKXKX",
"KXKXKXKXKXKXKXKXKXKXKXKXKXKXKXKXKXKXKXKXKXKXKXKX$ z 8.#XXX.X.XoX=X9.N : > > KXKXKXKXKXKXKXKXKXKXKXKXKXKXKXKXKXKXKXKXKXKX",
"KXKXKXKXKXKXKXKXKXKXKXKXKXKXKXKXKXKXKXKXKXKXKXKXKXKX/ } 5.S.A.F.D.<.2 9 > > KXKXKXKXKXKXKXKXKXKXKXKXKXKXKXKXKXKXKXKXKXKX",
"KXKXKXKXKXKXKXKXKXKXKXKXKXKXKXKXKXKXKXKXKXKXKXKXKXKXt i &.,.>.,.;.I 3 r > KXKXKXKXKXKXKXKXKXKXKXKXKXKXKXKXKXKXKXKXKXKXKX",
"KXKXKXKXKXKXKXKXKXKXKXKXKXKXKXKXKXKXKXKXKXKXKXKXKXKX7 k 4.{.}.[.].3.j - KXKXKXKXKXKXKXKXKXKXKXKXKXKXKXKXKXKXKXKXKXKXKXKX",
"KXKXKXKXKXKXKXKXKXKXKXKXKXKXKXKXKXKXKXKXKXKXKXKXKXKX& Z y.OX X X|.7.l $ KXKXKXKXKXKXKXKXKXKXKXKXKXKXKXKXKXKXKXKXKXKXKXKX",
"KXKXKXKXKXKXKXKXKXKXKXKXKXKXKXKXKXKXKXKXKXKXKXKXKXKXw p *.C.Z.V.B.( f 0 KXKXKXKXKXKXKXKXKXKXKXKXKXKXKXKXKXKXKXKXKXKXKXKX",
"KXKXKXKXKXKXKXKXKXKXKXKXKXKXKXKXKXKXKXKXKXKXKXKXKXKXKXu L $.$.$.#.K < KXKXKXKXKXKXKXKXKXKXKXKXKXKXKXKXKXKXKXKXKXKXKXKXKX",
"KXKXKXKXKXKXKXKXKXKXKXKXKXKXKXKXKXKXKXKXKXKXKXKXKXKXKXKXa s s s s y KXKXKXKXKXKXKXKXKXKXKXKXKXKXKXKXKXKXKXKXKXKXKXKXKXKX",
"KXKXKXKXKXKXKXKXKXKXKXKXKXKXKXKXKXKXKXKXKXKXKXKXKXKXKXKXKXe e e e KXKXKXKXKXKXKXKXKXKXKXKXKXKXKXKXKXKXKXKXKXKXKXKXKXKXKX",
"KXKXKXKXKXKXKXKXKXKXKXKXKXKXKXKXKXKXKXKXKXKXKXKXKXKXKXKXKXKXKXKXKXKXKXKXKXKXKXKXKXKXKXKXKXKXKXKXKXKXKXKXKXKXKXKXKXKXKXKX",
"KXKXKXKXKXKXKXKXKXKXKXKXKXKXKXKXKXKXKXKXKXKXKXKXKXKXKXKXKXKXKXKXKXKXKXKXKXKXKXKXKXKXKXKXKXKXKXKXKXKXKXKXKXKXKXKXKXKXKXKX",
"KXKXKXKXKXKXKXKXKXKXKXKXKXKXKXKXKXKXKXKXKXKXKXKXKXKXKXKXKXKXKXKXKXKXKXKXKXKXKXKXKXKXKXKXKXKXKXKXKXKXKXKXKXKXKXKXKXKXKXKX",
"KXKXKXKXKXKXKXKXKXKXKXKXKXKXKXKXKXKXKXKXKXKXKXKXKXKXKXKXKXKXKXKXKXKXKXKXKXKXKXKXKXKXKXKXKXKXKXKXKXKXKXKXKXKXKXKXKXKXKXKX",
"KXKXKXKXKXKXKXKXKXKXKXKXKXKXKXKXKXKXKXKXKXKXKXKXKXKXKXKXKXKXKXKXKXKXKXKXKXKXKXKXKXKXKXKXKXKXKXKXKXKXKXKXKXKXKXKXKXKXKXKX",
"KXKXKXKXKXKXKXKXKXKXKXKXKXKXKXKXKXKXKXKXKXKXKXKXKXKXKXKXKXKXKXKXKXKXKXKXKXKXKXKXKXKXKXKXKXKXKXKXKXKXKXKXKXKXKXKXKXKXKXKX",
"KXKXKXKXKXKXKXKXKXKXKXKXKXKXKXKXKXKXKXKXKXKXKXKXKXKXKXKXKXKXKXKXKXKXKXKXKXKXKXKXKXKXKXKXKXKXKXKXKXKXKXKXKXKXKXKXKXKXKXKX",
"KXKXKXKXKXKXKXKXKXKXKXKXKXKXKXKXKXKXKXKXKXKXKXKXKXKXKXKXKXKXKXKXKXKXKXKXKXKXKXKXKXKXKXKXKXKXKXKXKXKXKXKXKXKXKXKXKXKXKXKX",
"KXKXKXKXKXKXKXKXKXKXKXKXKXKXKXKXKXKXKXKXKXKXKXKXKXKXKXKXKXKXKXKXKXKXKXKXKXKXKXKXKXKXKXKXKXKXKXKXKXKXKXKXKXKXKXKXKXKXKXKX",
"KXKXKXKXKXKXKXKXKXKXKXKXKXKXKXKXKXKXKXKXKXKXKXKXKXKXKXKXKXKXKXKXKXKXKXKXKXKXKXKXKXKXKXKXKXKXKXKXKXKXKXKXKXKXKXKXKXKXKXKX",
"KXKXKXKXKXKXKXKXKXKXKXKXKXKXKXKXKXKXKXKXKXKXKXKXKXKXKXKXKXKXKXKXKXKXKXKXKXKXKXKXKXKXKXKXKXKXKXKXKXKXKXKXKXKXKXKXKXKXKXKX",
"KXKXKXKXKXKXKXKXKXKXKXKXKXKXKXKXKXKXKXKXKXKXKXKXKXKXKXKXKXKXKXKXKXKXKXKXKXKXKXKXKXKXKXKXKXKXKXKXKXKXKXKXKXKXKXKXKXKXKXKX",
"KXKXKXKXKXKXKXKXKXKXKXKXKXKXKXKXKXKXKXKXKXKXKXKXKXKXKXKXKXKXKXKXKXKXKXKXKXKXKXKXKXKXKXKXKXKXKXKXKXKXKXKXKXKXKXKXKXKXKXKX"
};
