/* XPM */
static char *result[] = {
/* columns rows colors chars-per-pixel */
"60 60 126 2 ",
"   c #6D633E",
".  c #7D6F36",
"X  c #71673E",
"o  c #756B3D",
"O  c #796E3D",
"+  c #7D733D",
"@  c #6D6541",
"#  c #87762F",
"$  c #8C7A2E",
"%  c #847533",
"&  c #8A7A32",
"*  c #82763D",
"=  c #83793D",
"-  c #897C3F",
";  c #897C40",
":  c #B49515",
">  c #B89A16",
",  c #B1951B",
"<  c #B99A18",
"1  c #9D8624",
"2  c #9B8529",
"3  c #9F892C",
"4  c #8C833D",
"5  c #94843C",
"6  c #938A3D",
"7  c #9E8C39",
"8  c #99903D",
"9  c #A48C23",
"0  c #A28D2F",
"q  c #A99128",
"w  c #A38E32",
"e  c #A08E3B",
"r  c #AB9533",
"t  c #A3943B",
"y  c #AB973A",
"u  c #A49A3C",
"i  c #AB9A3A",
"p  c #B19E3A",
"a  c #ABA33D",
"s  c #B2A53C",
"d  c #BAA338",
"f  c #B3AB3C",
"g  c #BCA839",
"h  c #BEB53C",
"j  c #BFB93C",
"k  c #C5A30D",
"l  c #CBA60A",
"z  c #CDA90D",
"x  c #D5AE06",
"c  c #D3AE0D",
"v  c #DCB302",
"b  c #DAB30A",
"n  c #C7A71D",
"m  c #D6B213",
"M  c #E1B703",
"N  c #E3BA05",
"B  c #E5BC0B",
"V  c #E2BE1C",
"C  c #C5A723",
"Z  c #C6A822",
"A  c #C8AA22",
"S  c #C9AD2E",
"D  c #DDBB27",
"F  c #D6B62C",
"G  c #C4AB36",
"H  c #C4AB38",
"J  c #C4BB3C",
"K  c #C9BF3B",
"L  c #D9BD37",
"P  c #E6C10B",
"I  c #EBC30E",
"U  c #EAC615",
"Y  c #EBCC14",
"T  c #E6C11C",
"R  c #ECC61B",
"E  c #F5CC16",
"W  c #F0C819",
"Q  c #ECD017",
"!  c #EDD219",
"~  c #C7C03C",
"^  c #CBC33C",
"/  c #DEC236",
"(  c #D3C539",
")  c #DCCE3A",
"_  c #DDD63B",
"`  c #DFD83B",
"'  c #EECA22",
"]  c #E0C12F",
"[  c #E8C72C",
"{  c #ECCA2F",
"}  c #F1CB25",
"|  c #F3D326",
" . c #F1DC21",
".. c #F5D22D",
"X. c #F8D32A",
"o. c #F6DB2E",
"O. c #FEDA2D",
"+. c #E6CA36",
"@. c #EACB34",
"#. c #EDD136",
"$. c #E7D538",
"%. c #E4DC3B",
"&. c #EDDD39",
"*. c #F6D433",
"=. c #F8D634",
"-. c #F5DB36",
";. c #FADA35",
":. c #F1DD38",
">. c #F5E226",
",. c #F6E42B",
"<. c #F8E72B",
"1. c #F9EB2F",
"2. c #E6E03B",
"3. c #EDE33A",
"4. c #EFE83B",
"5. c #F6E137",
"6. c #FDE235",
"7. c #FDEB36",
"8. c #F5E338",
"9. c #F8E538",
"0. c #F4EB3A",
"q. c #FCEC38",
"w. c #FDF336",
"e. c #FEF439",
"r. c #FFF93A",
"t. c None",
/* pixels */
"t.t.t.t.t.t.t.t.t.t.t.t.t.t.t.t.t.t.t.t.t.t.t.t.t.t.t.t.t.t.t.t.t.t.t.t.t.t.t.t.t.t.t.t.t.t.t.t.t.t.t.t.t.t.t.t.t.t.t.t.",
"t.t.t.t.t.t.t.t.t.t.t.t.t.t.t.t.t.t.t.t.t.t.t.t.t.t.t.t.t.t.t.t.t.t.t.t.t.t.t.t.t.t.t.t.t.t.t.t.t.t.t.t.t.t.t.t.t.t.t.t.",
"t.t.t.t.t.t.t.t.t.t.t.t.t.t.t.t.t.t.t.t.t.t.t.t.t.t.t.t.t.t.t.t.t.t.t.t.t.t.t.t.t.t.t.t.t.t.t.t.t.t.t.t.t.t.t.t.t.t.t.t.",
"t.t.t.t.t.t.t.t.t.t.t.t.t.t.t.t.t.t.t.t.t.t.t.t.t.t.t.t.t.t.t.t.t.t.t.t.t.t.t.t.t.t.t.t.t.t.t.t.t.t.t.t.t.t.t.t.t.t.t.t.",
"t.t.t.t.t.t.t.t.t.t.t.t.t.t.t.t.t.t.t.t.t.t.t.t.t.t.t.t.t.t.t.t.t.t.t.t.t.t.t.t.t.t.t.t.t.t.t.t.t.t.t.t.t.t.t.t.t.t.t.t.",
"t.t.t.t.t.t.t.t.t.t.t.t.t.t.t.t.t.t.t.t.t.t.t.t.t.t.t.t.t.t.t.t.t.t.t.t.t.t.t.t.t.t.t.t.t.t.t.t.t.t.t.t.t.t.t.t.t.t.t.t.",
"t.t.t.t.t.t.t.t.t.t.t.t.t.t.t.t.t.t.t.t.t.t.t.t.t.t.t.t.t.t.t.t.t.t.t.t.t.t.t.t.t.t.t.t.t.t.t.t.t.t.t.t.t.t.t.t.t.t.t.t.",
"t.t.t.t.t.t.t.t.t.t.t.t.t.t.t.t.t.t.t.t.t.t.t.t.t.t.t.t.t.t.t.t.t.t.t.t.t.t.t.t.t.t.t.t.t.t.t.t.t.t.t.t.t.t.t.t.t.t.t.t.",
"t.t.t.t.t.t.t.t.t.t.t.t.t.t.t.t.t.t.t.t.t.t.t.t.t.t.t.t.t.t.t.t.t.t.t.t.t.t.t.t.t.t.t.t.t.t.t.t.t.t.t.t.t.t.t.t.t.t.t.t.",
"t.t.t.t.t.t.t.t.t.t.t.t.t.t.t.t.t.t.t.t.t.t.t.t.t.t.t.t.t.t.t.t.t.t.t.t.t.t.t.t.t.t.t.t.t.t.t.t.t.t.t.t.t.t.t.t.t.t.t.t.",
"t.t.t.t.t.t.t.t.t.t.t.t.t.t.t.t.t.t.t.t.t.t.t.t.t.t.t.t.t.t.t.t.t.t.t.t.t.t.t.t.t.t.t.t.t.t.t.t.t.t.t.t.t.t.t.t.t.t.t.t.",
"t.t.t.t.t.t.t.t.t.t.t.t.t.t.t.t.t.t.t.t.t.t.t.t.t.t.t.t.t.t.t.t.t.t.t.t.t.t.t.t.t.t.t.t.t.t.t.t.t.t.t.t.t.t.t.t.t.t.t.t.",
"t.t.t.t.t.t.t.t.t.t.t.t.t.t.t.t.t.t.t.t.t.t.t.t.t.t.t.t.t.t.t.t.t.t.t.t.t.t.t.t.t.t.t.t.t.t.t.t.t.t.t.t.t.t.t.t.t.t.t.t.",
"t.t.t.t.t.t.t.t.t.t.t.t.t.t.t.t.t.t.t.t.t.t.t.t.t.      X X           t.t.t.t.t.t.t.t.t.t.t.t.t.t.t.t.t.t.t.t.t.t.t.t.t.",
"t.t.t.t.t.t.t.t.t.t.t.t.t.t.t.t.t.t.t.t.t.t.t.t.4 6 6 4 O O - 6 6 6 6 4 t.t.t.t.t.t.t.t.t.t.t.t.t.t.t.t.t.t.t.t.t.t.t.t.",
"t.t.t.t.t.t.t.t.t.t.t.t.t.t.t.t.t.t.t.t.t.t.t.+ f _ 2.^ 4 = J %._ _ _ f + t.t.t.t.t.t.t.t.t.t.t.t.t.t.t.t.t.t.t.t.t.t.t.",
"t.t.t.t.t.t.t.t.t.t.t.t.t.t.t.t.t.t.t.t.t.t.- 7 ( q.3.^ a s %.e.e.r.e.( u ; t.t.t.t.t.t.t.t.t.t.t.t.t.t.t.t.t.t.t.t.t.t.",
"t.t.t.t.t.t.t.t.t.t.t.t.t.t.t.t.t.t.t.t.t.O y ] ;.#.s 8 ~ 3.;.;.;.;.;.5.2.a O t.t.t.t.t.t.t.t.t.t.t.t.t.t.t.t.t.t.t.t.t.",
"t.t.t.t.t.t.t.t.t.t.t.t.t.t.t.t.t.t.t.t.4 u ( 5.+.H i a %.r.q.6.5.;.;.6.q.( u 4 t.t.t.t.t.t.t.t.t.t.t.t.t.t.t.t.t.t.t.t.",
"t.t.t.t.t.t.t.t.t.t.t.t.t.t.t.t.t.t.t.o a %.e.0.s 5 J 0.r.r.e.r.q.7.;.*.;.9.2.a O t.t.t.t.t.t.t.t.t.t.t.t.t.t.t.t.t.t.t.",
"t.t.t.t.t.t.t.t.t.t.t.t.t.t.t.t.t.t.t.o i 8.e.:.u * ^ r.r.r.r.r.r.q.;.*.;.q.e.s X t.t.t.t.t.t.t.t.t.t.t.t.t.t.t.t.t.t.t.",
"t.t.t.t.t.t.t.t.t.t.t.t.t.t.t.t.t.t.t.o y #.6.*.t = ^ r.r.r.r.r.e.q.;.;.;.q.0.a o t.t.t.t.t.t.t.t.t.t.t.t.t.t.t.t.t.t.t.",
"t.t.t.t.t.t.t.t.t.t.t.t.t.t.t.t.t.t.t.X i :.w.:.y + K r.r.r.r.r.r.q.;.*.=.7.0.a @ t.t.t.t.t.t.t.t.t.t.t.t.t.t.t.t.t.t.t.",
"t.t.t.t.t.t.t.t.t.t.t.t.t.t.t.t.t.t.t.+ f 0.r.3.a 4 ^ r.r.r.r.r.e.q.;.*.;.7.0.f + t.t.t.t.t.t.t.t.t.t.t.t.t.t.t.t.t.t.t.",
"t.t.t.t.t.t.t.t.t.t.t.t.t.t.t.t.t.t.5 d / :.( f f ^ $.q.r.r.r.r.r.e.7.5.;.;.5.) J 6 t.t.t.t.t.t.t.t.t.t.t.t.t.t.t.t.t.t.",
"t.t.t.t.t.t.t.t.t.t.t.t.t.t.t.t.t.o 8 +.6.=.p = j w.6.;.q.r.r.r.w.r.r.6.;.;.;.q.3.u X t.t.t.t.t.t.t.t.t.t.t.t.t.t.t.t.t.",
"t.t.t.t.t.t.t.t.t.t.t.t.t.t.t.t.t.X u &.w.9.a * j r.6.;.7.r.r.r.r.r.r.q.;.*.;.q.0.u X t.t.t.t.t.t.t.t.t.t.t.t.t.t.t.t.t.",
"t.t.t.t.t.t.t.t.t.t.t.t.t.t.t.t.t.X u 4.r.e.f = h q.6.;.q.r.r.e.r.r.r.q.*.*.*.q.3.u X t.t.t.t.t.t.t.t.t.t.t.t.t.t.t.t.t.",
"t.t.t.t.t.t.t.t.t.t.t.t.t.t.t.t.t.X u 0.r.r.f = g -.;.;.q.r.r.r.r.r.r.6.=.=.;.;.$.t X t.t.t.t.t.t.t.t.t.t.t.t.t.t.t.t.t.",
"t.t.t.t.t.t.t.t.t.t.t.t.t.t.t.t.t.X u %.r.9.f + d *.;.;.<.7.w.r.r.r.r.q.;.=.=.;.+.7 X t.t.t.t.t.t.t.t.t.t.t.t.t.t.t.t.t.",
"t.t.t.t.t.t.t.t.t.t.t.t.t.t.t.t.t.X e @.6.-.p * d *.;...U Y 1.r.r.r.r.q.;.;.*.=.+.e X t.t.t.t.t.t.t.t.t.t.t.t.t.t.t.t.t.",
"t.t.t.t.t.t.t.t.t.t.t.t.t.t.t.t.t.X t #.7.-.p * d *.;...R Y 1.r.r.7.<.o.*.*.;.;.+.e X t.t.t.t.t.t.t.t.t.t.t.t.t.t.t.t.t.",
"t.t.t.t.t.t.t.t.t.t.t.t.t.t.t.t.t.X u 3.r.q.f * d *.;.*...o.q.r.r.,.I R *.=.=.;.@.e X t.t.t.t.t.t.t.t.t.t.t.t.t.t.t.t.t.",
"t.t.t.t.t.t.t.t.t.t.t.t.t.t.t.t.t.X t 3.r.0.s * d ;.;.;.;.9.r.r.r.,.R R *.;.=.;.@.e X t.t.t.t.t.t.t.t.t.t.t.t.t.t.t.t.t.",
"t.t.t.t.t.t.t.t.t.t.t.t.t.t.t.t.t.X e +.6.*.p * d *.=.;.q.r.r.r.r.q.o.*.*.*.*.;.@.e X t.t.t.t.t.t.t.t.t.t.t.t.t.t.t.t.t.",
"t.t.t.t.t.t.t.t.t.t.t.t.t.t.t.t.t.t.5 d F V n 9 q G D } w.r.r.r.r.<.' ' *.;.=.L d 5 t.t.t.t.t.t.t.t.t.t.t.t.t.t.t.t.t.t.",
"t.t.t.t.t.t.t.t.t.t.t.t.t.t.t.t.t.t.t.+ 9 b M c 0 & > P <.r.r.r.r. .U U *.;.@.i * t.t.t.t.t.t.t.t.t.t.t.t.t.t.t.t.t.t.t.",
"t.t.t.t.t.t.t.t.t.t.t.t.t.t.t.t.t.t.t.X w V E T w . : P <.r.r.r.r.7.! | *.| T 0 X t.t.t.t.t.t.t.t.t.t.t.t.t.t.t.t.t.t.t.",
"t.t.t.t.t.t.t.t.t.t.t.t.t.t.t.t.t.t.t.o y { O.[ t % : P >.w.w.w.w.w.w.q.;.W b 1 X t.t.t.t.t.t.t.t.t.t.t.t.t.t.t.t.t.t.t.",
"t.t.t.t.t.t.t.t.t.t.t.t.t.t.t.t.t.t.t.o 0 T E V 0 . : M Y ! ! Q ! ! Q | ..E v 1 o t.t.t.t.t.t.t.t.t.t.t.t.t.t.t.t.t.t.t.",
"t.t.t.t.t.t.t.t.t.t.t.t.t.t.t.t.t.t.t.o 1 z M b q & , x v M N N N M N R *.T l 1 o t.t.t.t.t.t.t.t.t.t.t.t.t.t.t.t.t.t.t.",
"t.t.t.t.t.t.t.t.t.t.t.t.t.t.t.t.t.t.t.t.# 2 C ' ] H w 9 l N U } ' } } X.*.S 2 & t.t.t.t.t.t.t.t.t.t.t.t.t.t.t.t.t.t.t.t.",
"t.t.t.t.t.t.t.t.t.t.t.t.t.t.t.t.t.t.t.t.t.O y / *.[ r $ : m ' ........{ / y O t.t.t.t.t.t.t.t.t.t.t.t.t.t.t.t.t.t.t.t.t.",
"t.t.t.t.t.t.t.t.t.t.t.t.t.t.t.t.t.t.t.t.t.t.; 7 A B c > 9 9 m I I I I Z 7 - t.t.t.t.t.t.t.t.t.t.t.t.t.t.t.t.t.t.t.t.t.t.",
"t.t.t.t.t.t.t.t.t.t.t.t.t.t.t.t.t.t.t.t.t.t.t.O 9 k l > & % , k k k k 9 O t.t.t.t.t.t.t.t.t.t.t.t.t.t.t.t.t.t.t.t.t.t.t.",
"t.t.t.t.t.t.t.t.t.t.t.t.t.t.t.t.t.t.t.t.t.t.t.t.% & # & o O % # $ $ # % t.t.t.t.t.t.t.t.t.t.t.t.t.t.t.t.t.t.t.t.t.t.t.t.",
"t.t.t.t.t.t.t.t.t.t.t.t.t.t.t.t.t.t.t.t.t.t.t.t.t.@ @ @ @ o @ @ @ @   t.t.t.t.t.t.t.t.t.t.t.t.t.t.t.t.t.t.t.t.t.t.t.t.t.",
"t.t.t.t.t.t.t.t.t.t.t.t.t.t.t.t.t.t.t.t.t.t.t.t.t.t.t.t.t.t.t.t.t.t.t.t.t.t.t.t.t.t.t.t.t.t.t.t.t.t.t.t.t.t.t.t.t.t.t.t.",
"t.t.t.t.t.t.t.t.t.t.t.t.t.t.t.t.t.t.t.t.t.t.t.t.t.t.t.t.t.t.t.t.t.t.t.t.t.t.t.t.t.t.t.t.t.t.t.t.t.t.t.t.t.t.t.t.t.t.t.t.",
"t.t.t.t.t.t.t.t.t.t.t.t.t.t.t.t.t.t.t.t.t.t.t.t.t.t.t.t.t.t.t.t.t.t.t.t.t.t.t.t.t.t.t.t.t.t.t.t.t.t.t.t.t.t.t.t.t.t.t.t.",
"t.t.t.t.t.t.t.t.t.t.t.t.t.t.t.t.t.t.t.t.t.t.t.t.t.t.t.t.t.t.t.t.t.t.t.t.t.t.t.t.t.t.t.t.t.t.t.t.t.t.t.t.t.t.t.t.t.t.t.t.",
"t.t.t.t.t.t.t.t.t.t.t.t.t.t.t.t.t.t.t.t.t.t.t.t.t.t.t.t.t.t.t.t.t.t.t.t.t.t.t.t.t.t.t.t.t.t.t.t.t.t.t.t.t.t.t.t.t.t.t.t.",
"t.t.t.t.t.t.t.t.t.t.t.t.t.t.t.t.t.t.t.t.t.t.t.t.t.t.t.t.t.t.t.t.t.t.t.t.t.t.t.t.t.t.t.t.t.t.t.t.t.t.t.t.t.t.t.t.t.t.t.t.",
"t.t.t.t.t.t.t.t.t.t.t.t.t.t.t.t.t.t.t.t.t.t.t.t.t.t.t.t.t.t.t.t.t.t.t.t.t.t.t.t.t.t.t.t.t.t.t.t.t.t.t.t.t.t.t.t.t.t.t.t.",
"t.t.t.t.t.t.t.t.t.t.t.t.t.t.t.t.t.t.t.t.t.t.t.t.t.t.t.t.t.t.t.t.t.t.t.t.t.t.t.t.t.t.t.t.t.t.t.t.t.t.t.t.t.t.t.t.t.t.t.t.",
"t.t.t.t.t.t.t.t.t.t.t.t.t.t.t.t.t.t.t.t.t.t.t.t.t.t.t.t.t.t.t.t.t.t.t.t.t.t.t.t.t.t.t.t.t.t.t.t.t.t.t.t.t.t.t.t.t.t.t.t.",
"t.t.t.t.t.t.t.t.t.t.t.t.t.t.t.t.t.t.t.t.t.t.t.t.t.t.t.t.t.t.t.t.t.t.t.t.t.t.t.t.t.t.t.t.t.t.t.t.t.t.t.t.t.t.t.t.t.t.t.t.",
"t.t.t.t.t.t.t.t.t.t.t.t.t.t.t.t.t.t.t.t.t.t.t.t.t.t.t.t.t.t.t.t.t.t.t.t.t.t.t.t.t.t.t.t.t.t.t.t.t.t.t.t.t.t.t.t.t.t.t.t.",
"t.t.t.t.t.t.t.t.t.t.t.t.t.t.t.t.t.t.t.t.t.t.t.t.t.t.t.t.t.t.t.t.t.t.t.t.t.t.t.t.t.t.t.t.t.t.t.t.t.t.t.t.t.t.t.t.t.t.t.t.",
"t.t.t.t.t.t.t.t.t.t.t.t.t.t.t.t.t.t.t.t.t.t.t.t.t.t.t.t.t.t.t.t.t.t.t.t.t.t.t.t.t.t.t.t.t.t.t.t.t.t.t.t.t.t.t.t.t.t.t.t."
};
