/* XPM */
static char *result[] = {
/* columns rows colors chars-per-pixel */
"60 60 131 2 ",
"   c #6D633E",
".  c #7D6F36",
"X  c #71673E",
"o  c #756B3D",
"O  c #796E3D",
"+  c #7D723D",
"@  c #6D6541",
"#  c #87762F",
"$  c #8C7A2F",
"%  c #907D2C",
"&  c #847533",
"*  c #8A7932",
"=  c #81753D",
"-  c #84793D",
";  c #897C40",
":  c #B49615",
">  c #B89A16",
",  c #B2951A",
"<  c #B99B18",
"1  c #9C8525",
"2  c #9F8823",
"3  c #9A8529",
"4  c #9E892C",
"5  c #8C833D",
"6  c #998737",
"7  c #93833C",
"8  c #938A3D",
"9  c #9C8B3A",
"0  c #99903D",
"q  c #A48C23",
"w  c #A38E2F",
"e  c #A9922C",
"r  c #A38E31",
"t  c #A08F3B",
"y  c #A99435",
"u  c #A3933B",
"i  c #AB973A",
"p  c #A49A3C",
"a  c #AA9B3B",
"s  c #B19B37",
"d  c #B29E3A",
"f  c #ACA33D",
"g  c #BBA233",
"h  c #B2A43B",
"j  c #BAA238",
"k  c #B4AB3C",
"l  c #BEB43C",
"z  c #BFB83C",
"x  c #C5A30E",
"c  c #CAA60C",
"v  c #CDA90D",
"b  c #D3AE0D",
"n  c #DAB203",
"m  c #D6B10D",
"M  c #DAB30A",
"N  c #CEAC16",
"B  c #C7A71D",
"V  c #D2AE14",
"C  c #D4B010",
"Z  c #DBB81C",
"A  c #E1B705",
"S  c #E2B906",
"D  c #E4BC0C",
"F  c #E8BF0C",
"G  c #E4BC14",
"H  c #E2BE1C",
"J  c #C3A522",
"K  c #C8AA22",
"L  c #C1A62D",
"P  c #D4B425",
"I  c #D6B62C",
"U  c #C3AB37",
"Y  c #C4AB38",
"T  c #CCB235",
"R  c #C3BB3C",
"E  c #C8BE3B",
"W  c #D2B633",
"Q  c #DABD33",
"!  c #E7C215",
"~  c #E9C514",
"^  c #EBCC15",
"/  c #E5C11D",
"(  c #E9C41C",
")  c #F6CD15",
"_  c #CCC43B",
"`  c #DEC236",
"'  c #D4C539",
"]  c #D8CA39",
"[  c #DDD63B",
"{  c #DFD83B",
"}  c #E5C221",
"|  c #EAC623",
" . c #EBC825",
".. c #E5C42C",
"X. c #E8C72B",
"o. c #EAC92E",
"O. c #F1CE2D",
"+. c #F1D222",
"@. c #F3D12F",
"#. c #F3DA2D",
"$. c #FEDA2D",
"%. c #E5C631",
"&. c #E8C730",
"*. c #E5CA36",
"=. c #EACB32",
"-. c #F1CE32",
";. c #E1D137",
":. c #EDD234",
">. c #EEDA36",
",. c #E1D439",
"<. c #E4DC3A",
"1. c #EDDF39",
"2. c #F3D233",
"3. c #F4DA35",
"4. c #F9DB35",
"5. c #F1DD38",
"6. c #F7E82D",
"7. c #F9EB2F",
"8. c #EDE33A",
"9. c #EFE83B",
"0. c #F5E236",
"q. c #FBE336",
"w. c #FBEB36",
"e. c #F5E338",
"r. c #FCE538",
"t. c #F4EA3A",
"y. c #FCED38",
"u. c #FFF337",
"i. c #FEF339",
"p. c #FFFB39",
"a. c None",
/* pixels */
"a.a.a.a.a.a.a.a.a.a.a.a.a.a.a.a.a.a.a.a.a.a.a.a.a.a.a.a.a.a.a.a.a.a.a.a.a.a.a.a.a.a.a.a.a.a.a.a.a.a.a.a.a.a.a.a.a.a.a.a.",
"a.a.a.a.a.a.a.a.a.a.a.a.a.a.a.a.a.a.a.a.a.a.a.a.a.a.a.a.a.a.a.a.a.a.a.a.a.a.a.a.a.a.a.a.a.a.a.a.a.a.a.a.a.a.a.a.a.a.a.a.",
"a.a.a.a.a.a.a.a.a.a.a.a.a.a.a.a.a.a.a.a.a.a.a.a.a.a.a.a.a.a.a.a.a.a.a.a.a.a.a.a.a.a.a.a.a.a.a.a.a.a.a.a.a.a.a.a.a.a.a.a.",
"a.a.a.a.a.a.a.a.a.a.a.a.a.a.a.a.a.a.a.a.a.a.a.a.a.a.a.a.a.a.a.a.a.a.a.a.a.a.a.a.a.a.a.a.a.a.a.a.a.a.a.a.a.a.a.a.a.a.a.a.",
"a.a.a.a.a.a.a.a.a.a.a.a.a.a.a.a.a.a.a.a.a.a.a.a.a.a.a.a.a.a.a.a.a.a.a.a.a.a.a.a.a.a.a.a.a.a.a.a.a.a.a.a.a.a.a.a.a.a.a.a.",
"a.a.a.a.a.a.a.a.a.a.a.a.a.a.a.a.a.a.a.a.a.a.a.a.a.a.a.a.a.a.a.a.a.a.a.a.a.a.a.a.a.a.a.a.a.a.a.a.a.a.a.a.a.a.a.a.a.a.a.a.",
"a.a.a.a.a.a.a.a.a.a.a.a.a.a.a.a.a.a.a.a.a.a.a.a.a.a.a.a.a.a.a.a.a.a.a.a.a.a.a.a.a.a.a.a.a.a.a.a.a.a.a.a.a.a.a.a.a.a.a.a.",
"a.a.a.a.a.a.a.a.a.a.a.a.a.a.a.a.a.a.a.a.a.a.a.a.a.a.a.a.a.a.a.a.a.a.a.a.a.a.a.a.a.a.a.a.a.a.a.a.a.a.a.a.a.a.a.a.a.a.a.a.",
"a.a.a.a.a.a.a.a.a.a.a.a.a.a.a.a.a.a.a.a.a.a.a.a.a.a.a.a.a.a.a.a.a.a.a.a.a.a.a.a.a.a.a.a.a.a.a.a.a.a.a.a.a.a.a.a.a.a.a.a.",
"a.a.a.a.a.a.a.a.a.a.a.a.a.a.a.a.a.a.a.a.a.a.a.a.a.a.a.a.a.a.a.a.a.a.a.a.a.a.a.a.a.a.a.a.a.a.a.a.a.a.a.a.a.a.a.a.a.a.a.a.",
"a.a.a.a.a.a.a.a.a.a.a.a.a.a.a.a.a.a.a.a.a.a.a.a.a.a.a.a.a.a.a.a.a.a.a.a.a.a.a.a.a.a.a.a.a.a.a.a.a.a.a.a.a.a.a.a.a.a.a.a.",
"a.a.a.a.a.a.a.a.a.a.a.a.a.a.a.a.a.a.a.a.a.a.a.a.a.a.a.a.a.a.a.a.a.a.a.a.a.a.a.a.a.a.a.a.a.a.a.a.a.a.a.a.a.a.a.a.a.a.a.a.",
"a.a.a.a.a.a.a.a.a.a.a.a.a.a.a.a.a.a.a.a.a.a.a.a.a.a.a.a.a.a.a.a.a.a.a.a.a.a.a.a.a.a.a.a.a.a.a.a.a.a.a.a.a.a.a.a.a.a.a.a.",
"a.a.a.a.a.a.a.a.a.a.a.a.a.a.a.a.a.a.a.a.a.a.a.a.a.          X X       a.a.a.a.a.a.a.a.a.a.a.a.a.a.a.a.a.a.a.a.a.a.a.a.a.",
"a.a.a.a.a.a.a.a.a.a.a.a.a.a.a.a.a.a.a.a.a.a.a.a.5 8 8 8 8 5 o + 5 8 5 5 a.a.a.a.a.a.a.a.a.a.a.a.a.a.a.a.a.a.a.a.a.a.a.a.",
"a.a.a.a.a.a.a.a.a.a.a.a.a.a.a.a.a.a.a.a.a.a.a.o k [ { [ <.R - 5 _ <.[ k + a.a.a.a.a.a.a.a.a.a.a.a.a.a.a.a.a.a.a.a.a.a.a.",
"a.a.a.a.a.a.a.a.a.a.a.a.a.a.a.a.a.a.a.a.a.a.5 p _ u.u.w.u.<.h f _ 8.y.' t - a.a.a.a.a.a.a.a.a.a.a.a.a.a.a.a.a.a.a.a.a.a.",
"a.a.a.a.a.a.a.a.a.a.a.a.a.a.a.a.a.a.a.a.a.o f <.>.:.:.:.:.:.1._ 0 a :.4.` i @ a.a.a.a.a.a.a.a.a.a.a.a.a.a.a.a.a.a.a.a.a.",
"a.a.a.a.a.a.a.a.a.a.a.a.a.a.a.a.a.a.a.a.5 p _ e.3.=.2.:.:.2.0.,.k i Y *.4.' p 5 a.a.a.a.a.a.a.a.a.a.a.a.a.a.a.a.a.a.a.a.",
"a.a.a.a.a.a.a.a.a.a.a.a.a.a.a.a.a.a.a.o f 8.3.:.-.3.w.y.4.2.o.>.8.R 7 k t.i.1.f O a.a.a.a.a.a.a.a.a.a.a.a.a.a.a.a.a.a.a.",
"a.a.a.a.a.a.a.a.a.a.a.a.a.a.a.a.a.a.a.o f i.w.o.-.4.u.i.q.2.&.3.i._ - p 0.u.q.a @ a.a.a.a.a.a.a.a.a.a.a.a.a.a.a.a.a.a.a.",
"a.a.a.a.a.a.a.a.a.a.a.a.a.a.a.a.a.a.a.o f t.e.=.-.4.y.i.q.2.o.3.t._ - u :.q.:.i O a.a.a.a.a.a.a.a.a.a.a.a.a.a.a.a.a.a.a.",
"a.a.a.a.a.a.a.a.a.a.a.a.a.a.a.a.a.a.a.@ f t.e.o.-.4.y.i.q.2.&.2.u._ = u e.u.5.p o a.a.a.a.a.a.a.a.a.a.a.a.a.a.a.a.a.a.a.",
"a.a.a.a.a.a.a.a.a.a.a.a.a.a.a.a.a.a.a.+ k t.e.:.-.4.w.i.q.2.=.>.u._ 5 f 8.p.t.k + a.a.a.a.a.a.a.a.a.a.a.a.a.a.a.a.a.a.a.",
"a.a.a.a.a.a.a.a.a.a.a.a.a.a.a.a.a.a.8 l ] >.0.0.4.4.y.i.4.4.e.e.0.[ E k k ' 5.` j 7 a.a.a.a.a.a.a.a.a.a.a.a.a.a.a.a.a.a.",
"a.a.a.a.a.a.a.a.a.a.a.a.a.a.a.a.a.o p 8.w.o.8.i.4.4.y.i.4.4.y.w.:.3.7.z - d 2.q.=.t X a.a.a.a.a.a.a.a.a.a.a.a.a.a.a.a.a.",
"a.a.a.a.a.a.a.a.a.a.a.a.a.a.a.a.a.o p t.w.&.0.i.r.4.y.u.4.4.u.y.=.4.i.z + h e.p.1.p X a.a.a.a.a.a.a.a.a.a.a.a.a.a.a.a.a.",
"a.a.a.a.a.a.a.a.a.a.a.a.a.a.a.a.a.X p 8.e.=.e.i.w.4.y.u.r.e.u.t.:.3.t.l - k i.p.8.p X a.a.a.a.a.a.a.a.a.a.a.a.a.a.a.a.a.",
"a.a.a.a.a.a.a.a.a.a.a.a.a.a.a.a.a.  9 *.2.=.0.i.i.i.i.p.i.u.i.y.:.=.:.j ; k i.p.9.p @ a.a.a.a.a.a.a.a.a.a.a.a.a.a.a.a.a.",
"a.a.a.a.a.a.a.a.a.a.a.a.a.a.a.a.a.o 9 Q =.&.#.6.w.i.i.i.i.u.6.0.=.=.%.s + k t.p.8.p X a.a.a.a.a.a.a.a.a.a.a.a.a.a.a.a.a.",
"a.a.a.a.a.a.a.a.a.a.a.a.a.a.a.a.a.X 9 Q =.&./ ~ +.q.u.i.r.#.^ ! X.=.%.s + d 3.q.=.t X a.a.a.a.a.a.a.a.a.a.a.a.a.a.a.a.a.",
"a.a.a.a.a.a.a.a.a.a.a.a.a.a.a.a.a.  9 Q =.X./ G  .4.y.i.q.O.G G X.=.%.s = d 3.y.:.u X a.a.a.a.a.a.a.a.a.a.a.a.a.a.a.a.a.",
"a.a.a.a.a.a.a.a.a.a.a.a.a.a.a.a.a.@ t Q =.=.X.X.=.4.y.u.q.2.o...&.=.&.s = k t.p.8.p o a.a.a.a.a.a.a.a.a.a.a.a.a.a.a.a.a.",
"a.a.a.a.a.a.a.a.a.a.a.a.a.a.a.a.a.@ t Q O.&.%.=.-.4.y.i.q.2.-.&.&.=.=.s = h r.p.1.p @ a.a.a.a.a.a.a.a.a.a.a.a.a.a.a.a.a.",
"a.a.a.a.a.a.a.a.a.a.a.a.a.a.a.a.a.@ 9 Q =.&.&.=.-.4.y.i.4.2.=.&.&.O.%.s = s 2.q.%.t @ a.a.a.a.a.a.a.a.a.a.a.a.a.a.a.a.a.",
"a.a.a.a.a.a.a.a.a.a.a.a.a.a.a.a.a.a.* s T %.=.=.-.4.y.u.q.2.=.X./ P s y q B | I j 7 a.a.a.a.a.a.a.a.a.a.a.a.a.a.a.a.a.a.",
"a.a.a.a.a.a.a.a.a.a.a.a.a.a.a.a.a.a.a.+ y %.=.=.-.4.y.i.q.2.=.| D < & q v A M q = a.a.a.a.a.a.a.a.a.a.a.a.a.a.a.a.a.a.a.",
"a.a.a.a.a.a.a.a.a.a.a.a.a.a.a.a.a.a.a.X 4 Z | &.2.4.i.i.r.2.=.} A : & w H ) H r X a.a.a.a.a.a.a.a.a.a.a.a.a.a.a.a.a.a.a.",
"a.a.a.a.a.a.a.a.a.a.a.a.a.a.a.a.a.a.a.o 1 M ! &.-.4.q.w.4.2.=.| S : & u -.$.o.y o a.a.a.a.a.a.a.a.a.a.a.a.a.a.a.a.a.a.a.",
"a.a.a.a.a.a.a.a.a.a.a.a.a.a.a.a.a.a.a.o 1 n ! X.| ! ^ ^ ~ ( o.| S > . 6 H ) G r o a.a.a.a.a.a.a.a.a.a.a.a.a.a.a.a.a.a.a.",
"a.a.a.a.a.a.a.a.a.a.a.a.a.a.a.a.a.a.a.o 1 v H X./ A M A n G } } C , * q M A v 1 o a.a.a.a.a.a.a.a.a.a.a.a.a.a.a.a.a.a.a.",
"a.a.a.a.a.a.a.a.a.a.a.a.a.a.a.a.a.a.a.a.# 3 L o. .} / H / / ! N q y Y %. .J 1 & a.a.a.a.a.a.a.a.a.a.a.a.a.a.a.a.a.a.a.a.",
"a.a.a.a.a.a.a.a.a.a.a.a.a.a.a.a.a.a.a.a.a.o u W ..X.X.X.X.} m : $ y X.2.%.i O a.a.a.a.a.a.a.a.a.a.a.a.a.a.a.a.a.a.a.a.a.",
"a.a.a.a.a.a.a.a.a.a.a.a.a.a.a.a.a.a.a.a.a.a.- 6 < D F F F V q 1 > m F K 9 ; a.a.a.a.a.a.a.a.a.a.a.a.a.a.a.a.a.a.a.a.a.a.",
"a.a.a.a.a.a.a.a.a.a.a.a.a.a.a.a.a.a.a.a.a.a.a.o q x x x c , & & > v x q o a.a.a.a.a.a.a.a.a.a.a.a.a.a.a.a.a.a.a.a.a.a.a.",
"a.a.a.a.a.a.a.a.a.a.a.a.a.a.a.a.a.a.a.a.a.a.a.a.* * * * $ & o o # * $ # a.a.a.a.a.a.a.a.a.a.a.a.a.a.a.a.a.a.a.a.a.a.a.a.",
"a.a.a.a.a.a.a.a.a.a.a.a.a.a.a.a.a.a.a.a.a.a.a.a.a.@ @ @ @ @ @ o @ @ @ a.a.a.a.a.a.a.a.a.a.a.a.a.a.a.a.a.a.a.a.a.a.a.a.a.",
"a.a.a.a.a.a.a.a.a.a.a.a.a.a.a.a.a.a.a.a.a.a.a.a.a.a.a.a.a.a.a.a.a.a.a.a.a.a.a.a.a.a.a.a.a.a.a.a.a.a.a.a.a.a.a.a.a.a.a.a.",
"a.a.a.a.a.a.a.a.a.a.a.a.a.a.a.a.a.a.a.a.a.a.a.a.a.a.a.a.a.a.a.a.a.a.a.a.a.a.a.a.a.a.a.a.a.a.a.a.a.a.a.a.a.a.a.a.a.a.a.a.",
"a.a.a.a.a.a.a.a.a.a.a.a.a.a.a.a.a.a.a.a.a.a.a.a.a.a.a.a.a.a.a.a.a.a.a.a.a.a.a.a.a.a.a.a.a.a.a.a.a.a.a.a.a.a.a.a.a.a.a.a.",
"a.a.a.a.a.a.a.a.a.a.a.a.a.a.a.a.a.a.a.a.a.a.a.a.a.a.a.a.a.a.a.a.a.a.a.a.a.a.a.a.a.a.a.a.a.a.a.a.a.a.a.a.a.a.a.a.a.a.a.a.",
"a.a.a.a.a.a.a.a.a.a.a.a.a.a.a.a.a.a.a.a.a.a.a.a.a.a.a.a.a.a.a.a.a.a.a.a.a.a.a.a.a.a.a.a.a.a.a.a.a.a.a.a.a.a.a.a.a.a.a.a.",
"a.a.a.a.a.a.a.a.a.a.a.a.a.a.a.a.a.a.a.a.a.a.a.a.a.a.a.a.a.a.a.a.a.a.a.a.a.a.a.a.a.a.a.a.a.a.a.a.a.a.a.a.a.a.a.a.a.a.a.a.",
"a.a.a.a.a.a.a.a.a.a.a.a.a.a.a.a.a.a.a.a.a.a.a.a.a.a.a.a.a.a.a.a.a.a.a.a.a.a.a.a.a.a.a.a.a.a.a.a.a.a.a.a.a.a.a.a.a.a.a.a.",
"a.a.a.a.a.a.a.a.a.a.a.a.a.a.a.a.a.a.a.a.a.a.a.a.a.a.a.a.a.a.a.a.a.a.a.a.a.a.a.a.a.a.a.a.a.a.a.a.a.a.a.a.a.a.a.a.a.a.a.a.",
"a.a.a.a.a.a.a.a.a.a.a.a.a.a.a.a.a.a.a.a.a.a.a.a.a.a.a.a.a.a.a.a.a.a.a.a.a.a.a.a.a.a.a.a.a.a.a.a.a.a.a.a.a.a.a.a.a.a.a.a.",
"a.a.a.a.a.a.a.a.a.a.a.a.a.a.a.a.a.a.a.a.a.a.a.a.a.a.a.a.a.a.a.a.a.a.a.a.a.a.a.a.a.a.a.a.a.a.a.a.a.a.a.a.a.a.a.a.a.a.a.a.",
"a.a.a.a.a.a.a.a.a.a.a.a.a.a.a.a.a.a.a.a.a.a.a.a.a.a.a.a.a.a.a.a.a.a.a.a.a.a.a.a.a.a.a.a.a.a.a.a.a.a.a.a.a.a.a.a.a.a.a.a.",
"a.a.a.a.a.a.a.a.a.a.a.a.a.a.a.a.a.a.a.a.a.a.a.a.a.a.a.a.a.a.a.a.a.a.a.a.a.a.a.a.a.a.a.a.a.a.a.a.a.a.a.a.a.a.a.a.a.a.a.a.",
"a.a.a.a.a.a.a.a.a.a.a.a.a.a.a.a.a.a.a.a.a.a.a.a.a.a.a.a.a.a.a.a.a.a.a.a.a.a.a.a.a.a.a.a.a.a.a.a.a.a.a.a.a.a.a.a.a.a.a.a."
};
