/* XPM */
static char *result[] = {
/* columns rows colors chars-per-pixel */
"60 60 239 2 ",
"   c #695F3E",
".  c #6C623E",
"X  c #6D633E",
"o  c #6D643F",
"O  c #6E643E",
"+  c #776B3A",
"@  c #776C3B",
"#  c #73693E",
"$  c #786D3F",
"%  c #796F3E",
"&  c #6B6340",
"*  c #6B6341",
"=  c #6B6342",
"-  c #6D6541",
";  c #6F6640",
":  c #8E7B2B",
">  c #8E7B2C",
",  c #907D2C",
"<  c #907D2D",
"1  c #827333",
"2  c #867531",
"3  c #867632",
"4  c #8A7930",
"5  c #8F7E34",
"6  c #877A3C",
"7  c #8C7D3B",
"8  c #887F3E",
"9  c #A68C1F",
"0  c #B89B1C",
"q  c #B89B1D",
"w  c #9B8425",
"e  c #9B8527",
"r  c #978228",
"t  c #978229",
"y  c #97832C",
"u  c #8E803C",
"i  c #8C833D",
"p  c #998736",
"a  c #91873D",
"s  c #91883D",
"d  c #92893D",
"f  c #978F3D",
"g  c #99903D",
"h  c #A68C20",
"j  c #AA9638",
"k  c #A1983D",
"l  c #A2993D",
"z  c #A79E3D",
"x  c #B5AD3C",
"c  c #C4A20E",
"v  c #C5A20E",
"b  c #C7A40D",
"n  c #C6A40E",
"m  c #C7A40F",
"M  c #C8A50E",
"N  c #CEA808",
"B  c #CEAA0D",
"V  c #C0A11A",
"C  c #DEB915",
"Z  c #D2B11E",
"A  c #DCB91B",
"S  c #E0B805",
"D  c #E0B60B",
"F  c #E0B80B",
"G  c #E7BE0B",
"H  c #E1B80C",
"J  c #E1BA0F",
"K  c #E5BD0C",
"L  c #E4BC0D",
"P  c #E5BD0D",
"I  c #E0BA11",
"U  c #E0BA12",
"Y  c #E3BD13",
"T  c #E6BF12",
"R  c #C1A421",
"E  c #C4A92E",
"W  c #DCBA20",
"Q  c #CBB134",
"!  c #CCB134",
"~  c #CEB334",
"^  c #C8BD3A",
"/  c #D5B831",
"(  c #D1BC36",
")  c #E5C30B",
"_  c #E6C40B",
"`  c #E6C40C",
"'  c #E6C40F",
"]  c #E9C00D",
"[  c #E6C314",
"{  c #EACD14",
"}  c #E4C01F",
"|  c #ECC71F",
" . c #EBCE1F",
".. c #EDD116",
"X. c #DFC02E",
"o. c #D2C63A",
"O. c #DBD13A",
"+. c #DDD63B",
"@. c #DED73B",
"#. c #DFD83B",
"$. c #E5C121",
"%. c #E7C621",
"&. c #E7C423",
"*. c #E5C325",
"=. c #E7C424",
"-. c #EAC620",
";. c #E5C328",
":. c #E6C428",
">. c #E7C528",
",. c #E6C429",
"<. c #E6C529",
"1. c #E7C529",
"2. c #E7C629",
"3. c #E7C52A",
"4. c #E7C62C",
"5. c #E7C62D",
"6. c #E8C628",
"7. c #E8C629",
"8. c #E8C72C",
"9. c #E8C72E",
"0. c #E8C72F",
"q. c #EACD2B",
"w. c #E9CA2D",
"e. c #E9C82F",
"r. c #ECCB2F",
"t. c #EFD62F",
"y. c #E5C330",
"u. c #E6C330",
"i. c #E6C430",
"p. c #E6C530",
"a. c #E7C530",
"s. c #E7C631",
"d. c #E7C731",
"f. c #E8C730",
"g. c #E8C731",
"h. c #E8C732",
"j. c #E8C830",
"k. c #E8C831",
"l. c #E8C931",
"z. c #E9C931",
"x. c #E9CA31",
"c. c #E9CB31",
"v. c #EBCA30",
"b. c #EACA31",
"n. c #EBCA31",
"m. c #EACB31",
"M. c #E8C832",
"N. c #E8C932",
"B. c #E8C933",
"V. c #EACA32",
"C. c #EACA33",
"Z. c #ECCB31",
"A. c #EACD32",
"S. c #EBCD32",
"D. c #EBCE32",
"F. c #EBCF32",
"G. c #EBCE33",
"H. c #EECD31",
"J. c #E8C934",
"K. c #E9C934",
"L. c #EBD033",
"P. c #ECD032",
"I. c #EDD132",
"U. c #ECD033",
"Y. c #ECD133",
"T. c #EDD133",
"R. c #EDD233",
"E. c #EDD333",
"W. c #ECD134",
"Q. c #EAD736",
"!. c #EFD734",
"~. c #E0D93B",
"^. c #E1D93B",
"/. c #E1DB3B",
"(. c #E7DE3A",
"). c #F0D533",
"_. c #F0D633",
"`. c #F5DC33",
"'. c #F0D834",
"]. c #F0D934",
"[. c #F1DC35",
"{. c #F2DC35",
"}. c #F2DD35",
"|. c #F3DE35",
" X c #F3DF35",
".X c #F2DD36",
"XX c #F6E62D",
"oX c #F7E62D",
"OX c #F8E92C",
"+X c #F8E92D",
"@X c #F8EA2C",
"#X c #F9EC2F",
"$X c #EAE33B",
"%X c #F3E035",
"&X c #F1E037",
"*X c #F4E236",
"=X c #F5E236",
"-X c #F7E734",
";X c #F5E436",
":X c #F5E637",
">X c #F6E637",
",X c #F8E935",
"<X c #FAE836",
"1X c #FAE936",
"2X c #F8EA37",
"3X c #FBED37",
"4X c #FCED37",
"5X c #FCEE37",
"6X c #FFEF37",
"7X c #F8EA38",
"8X c #F9EB38",
"9X c #F9EB39",
"0X c #F9EC39",
"qX c #FAED38",
"wX c #FBEF38",
"eX c #FAEE39",
"rX c #FFF037",
"tX c #FFF137",
"yX c #FFF237",
"uX c #FDF436",
"iX c #FDF536",
"pX c #FBF039",
"aX c #FCF339",
"sX c #FCF23A",
"dX c #FDF439",
"fX c #FDF53A",
"gX c #FEF53A",
"hX c #FEF63A",
"jX c #FEF63B",
"kX c #FFF83A",
"lX c #FFF93A",
"zX c #FFFA3A",
"xX c #FFFA3B",
"cX c #FFFB3B",
"vX c #FFFC3B",
"bX c #FFF93C",
"nX c #FFFA3C",
"mX c #FFFC3C",
"MX c None",
/* pixels */
"MXMXMXMXMXMXMXMXMXMXMXMXMXMXMXMXMXMXMXMXMXMXMXMXMXMXMXMXMXMXMXMXMXMXMXMXMXMXMXMXMXMXMXMXMXMXMXMXMXMXMXMXMXMXMXMXMXMXMXMX",
"MXMXMXMXMXMXMXMXMXMXMXMXMXMXMXMXMXMXMXMXMXMXMXMXMXMXMXMXMXMXMXMXMXMXMXMXMXMXMXMXMXMXMXMXMXMXMXMXMXMXMXMXMXMXMXMXMXMXMXMX",
"MXMXMXMXMXMXMXMXMXMXMXMXMXMXMXMXMXMXMXMXMXMXMXMXMXMXMXMXMXMXMXMXMXMXMXMXMXMXMXMXMXMXMXMXMXMXMXMXMXMXMXMXMXMXMXMXMXMXMXMX",
"MXMXMXMXMXMXMXMXMXMXMXMXMXMXMXMXMXMXMXMXMXMXMXMXMXMXMXMXMXMXMXMXMXMXMXMXMXMXMXMXMXMXMXMXMXMXMXMXMXMXMXMXMXMXMXMXMXMXMXMX",
"MXMXMXMXMXMXMXMXMXMXMXMXMXMXMXMXMXMXMXMXMXMXMXMXMXMXMXMXMXMXMXMXMXMXMXMXMXMXMXMXMXMXMXMXMXMXMXMXMXMXMXMXMXMXMXMXMXMXMXMX",
"MXMXMXMXMXMXMXMXMXMXMXMXMXMXMXMXMXMXMXMXMXMXMXMXMXMXMXMXMXMXMXMXMXMXMXMXMXMXMXMXMXMXMXMXMXMXMXMXMXMXMXMXMXMXMXMXMXMXMXMX",
"MXMXMXMXMXMXMXMXMXMXMXMXMXMXMXMXMXMXMXMXMXMXMXMXMXMXMXMXMXMXMXMXMXMXMXMXMXMXMXMXMXMXMXMXMXMXMXMXMXMXMXMXMXMXMXMXMXMXMXMX",
"MXMXMXMXMXMXMXMXMXMXMXMXMXMXMXMXMXMXMXMXMXMXMXMXMXMXMXMXMXMXMXMXMXMXMXMXMXMXMXMXMXMXMXMXMXMXMXMXMXMXMXMXMXMXMXMXMXMXMXMX",
"MXMXMXMXMXMXMXMXMXMXMXMXMXMXMXMXMXMXMXMXMXMXMXMXMXMXMXMXMXMXMXMXMXMXMXMXMXMXMXMXMXMXMXMXMXMXMXMXMXMXMXMXMXMXMXMXMXMXMXMX",
"MXMXMXMXMXMXMXMXMXMXMXMXMXMXMXMXMXMXMXMXMXMXMXMXMXMXMXMXMXMXMXMXMXMXMXMXMXMXMXMXMXMXMXMXMXMXMXMXMXMXMXMXMXMXMXMXMXMXMXMX",
"MXMXMXMXMXMXMXMXMXMXMXMXMXMXMXMXMXMXMXMXMXMXMXMXMXMXMXMXMXMXMXMXMXMXMXMXMXMXMXMXMXMXMXMXMXMXMXMXMXMXMXMXMXMXMXMXMXMXMXMX",
"MXMXMXMXMXMXMXMXMXMXMXMXMXMXMXMXMXMXMXMXMXMXMXMXMXMXMXMXMXMXMXMXMXMXMXMXMXMXMXMXMXMXMXMXMXMXMXMXMXMXMXMXMXMXMXMXMXMXMXMX",
"MXMXMXMXMXMXMXMXMXMXMXMXMXMXMXMXMXMXMXMXMXMXMXMXMXMXMXMXMXMXMXMXMXMXMXMXMXMXMXMXMXMXMXMXMXMXMXMXMXMXMXMXMXMXMXMXMXMXMXMX",
"MXMXMXMXMXMXMXMXMXMXMXMXMXMXMXMXMXMXMXMXMXMXMXMXMX. . . . . . . . . . MXMXMXMXMXMXMXMXMXMXMXMXMXMXMXMXMXMXMXMXMXMXMXMXMX",
"MXMXMXMXMXMXMXMXMXMXMXMXMXMXMXMXMXMXMXMXMXMXMXMXi s d s s s s s s d s i MXMXMXMXMXMXMXMXMXMXMXMXMXMXMXMXMXMXMXMXMXMXMXMX",
"MXMXMXMXMXMXMXMXMXMXMXMXMXMXMXMXMXMXMXMXMXO   % x +.~.@.@.@.@.@.@.~.+.x %   O MXMXMXMXMXMXMXMXMXMXMXMXMXMXMXMXMXMXMXMXMX",
"MXMXMXMXMXMXMXMXMXMXMXMXMXMXMXMXMXMXMXMXi g f k o.3XtX5X5X4X4X5X5XtX3Xo.k f g i MXMXMXMXMXMXMXMXMXMXMXMXMXMXMXMXMXMXMXMX",
"MXMXMXMXMXMXMXMXMXMXMXMXMXMXMXMXMXMXMX# z #.$X(.Q.T.I.I.I.I.I.I.I.I.T.Q.(.$X#.z # MXMXMXMXMXMXMXMXMXMXMXMXMXMXMXMXMXMXMX",
"MXMXMXMXMXMXMXMXMXMXMXMXMXMXMXMXMXMX8 l ^ :X6X<X_.d.p.z.E.'.'.E.z.p.d._.<X6X:X^ l 8 MXMXMXMXMXMXMXMXMXMXMXMXMXMXMXMXMXMX",
"MXMXMXMXMXMXMXMXMXMXMXMXMXMXMXMXMX# l ^.&XL.D.D.c.k.s.F.>XdXdX>XF.s.k.c.D.D.L.&X^.l # MXMXMXMXMXMXMXMXMXMXMXMXMXMXMXMXMX",
"MXMXMXMXMXMXMXMXMXMXMXMXMXMXMXMXi z ^ &X`.x.U.].Y.k.s.U.8XcXcX8XU.s.k.Y.].U.x.`.&X^ z i MXMXMXMXMXMXMXMXMXMXMXMXMXMXMXMX",
"MXMXMXMXMXMXMXMXMXMXMXMXMXMXMXO g #.:XL.g.x.%XwX{.k.a.U.2XzXzX2XU.a.k.{.wX%Xx.g.L.:X#.g O MXMXMXMXMXMXMXMXMXMXMXMXMXMXMX",
"MXMXMXMXMXMXMXMXMXMXMXMXMXMXMX  f $XrXS.y.k.*XdX Xl.a.U.2XzXzX2XU.a.l. XdX*Xk.y.S.rX$Xf   MXMXMXMXMXMXMXMXMXMXMXMXMXMXMX",
"MXMXMXMXMXMXMXMXMXMXMXMXMXMXMX% k (.1XD.d.A.;XaX|.l.a.U.2XzXzX2XU.a.l.|.aX;XA.d.D.1X(.k % MXMXMXMXMXMXMXMXMXMXMXMXMXMXMX",
"MXMXMXMXMXMXMXMXMXMXMXMXMXMXi x o.Q._.c.R.=XpXdX}.l.a.U.2XzXzX2XU.a.l.}.dXpX=XR.c._.Q.o.x i MXMXMXMXMXMXMXMXMXMXMXMXMXMX",
"MXMXMXMXMXMXMXMXMXMXMXMXMX. s +.3XT.s.l.{.dXcXdX{.k.a.P.2XzXzX2XP.a.k.{.dXcXdX{.l.s.T.3X+.s . MXMXMXMXMXMXMXMXMXMXMXMXMX",
"MXMXMXMXMXMXMXMXMXMXMXMXMX. d /.yXI.i.k.}.hXvXdX[.d.u.F.2XzXzX2XF.u.d.[.dXvXhX}.k.i.I.yX/.d . MXMXMXMXMXMXMXMXMXMXMXMXMX",
"MXMXMXMXMXMXMXMXMXMXMXMXMX. a O.<XP.a.l.}.gXvXhX*XY.G.!.qXlXlXqX!.G.Y.*XhXvXgX}.l.a.P.<XO.a . MXMXMXMXMXMXMXMXMXMXMXMXMX",
"MXMXMXMXMXMXMXMXMXMXMXMXMXX u ( ).m.s.l..XjXmXbXsX0X9XeXfXkXkXfXeX9X0XsXbXmXjX.Xl.s.m.).( u X MXMXMXMXMXMXMXMXMXMXMXMXMX",
"MXMXMXMXMXMXMXMXMXMXMXMXMXo 7 ! v.z.g.k.t.oX@XOXOX@XOX#XuXkXkXuX#XOX@XOXOX@XoXt.k.g.z.v.! 7 o MXMXMXMXMXMXMXMXMXMXMXMXMX",
"MXMXMXMXMXMXMXMXMXMXMXMXMXo 7 ! n.z.M.k.%.' _ ` ` ` ) { +XnXnX+X{ ) ` ` ` _ ' %.k.M.z.n.! 7 o MXMXMXMXMXMXMXMXMXMXMXMXMX",
"MXMXMXMXMXMXMXMXMXMXMXMXMXo 7 ! Z.z.M.k.$.J F H H H D [ XXnXnXXX[ D H H H F J $.k.M.z.Z.! 7 o MXMXMXMXMXMXMXMXMXMXMXMXMX",
"MXMXMXMXMXMXMXMXMXMXMXMXMXo 7 ! Z.z.k.k.5.<.:.:.:.:.;.q.,XxXxX,Xq.;.:.:.:.:.<.5.k.k.z.Z.! 7 o MXMXMXMXMXMXMXMXMXMXMXMXMX",
"MXMXMXMXMXMXMXMXMXMXMXMXMXo 7 ~ H.V.M.k.M.B.B.B.B.B.h.W.7XzXzX7XW.h.B.B.B.B.B.M.k.M.V.H.~ 7 o MXMXMXMXMXMXMXMXMXMXMXMXMX",
"MXMXMXMXMXMXMXMXMXMXMXMXMXo 7 Q b.j.k.k.k.k.k.k.k.k.s.U.2XzXzX2XU.s.k.k.k.k.k.k.k.k.j.b.Q 7 o MXMXMXMXMXMXMXMXMXMXMXMXMX",
"MXMXMXMXMXMXMXMXMXMXMXMXMXMX6 j E W &.9.M.k.k.k.k.k.s.U.2XzXzX2XU.s.k.k.k.k.k.M.9.&.W E j 6 MXMXMXMXMXMXMXMXMXMXMXMXMXMX",
"MXMXMXMXMXMXMXMXMXMXMXMXMXMXMX$ y B T 4.B.k.k.k.k.k.s.U.2XzXzX2XU.s.k.k.k.k.k.B.4.T B y $ MXMXMXMXMXMXMXMXMXMXMXMXMXMXMX",
"MXMXMXMXMXMXMXMXMXMXMXMXMXMXMX& : N ] 8.J.k.k.k.k.k.s.U.0XmXmX0XU.s.k.k.k.k.k.J.8.] N : & MXMXMXMXMXMXMXMXMXMXMXMXMXMXMX",
"MXMXMXMXMXMXMXMXMXMXMXMXMXMXMX; , n I ,.j.k.k.k.k.k.s.F.-XiXiX-XF.s.k.k.k.k.k.j.,.I n , ; MXMXMXMXMXMXMXMXMXMXMXMXMXMXMX",
"MXMXMXMXMXMXMXMXMXMXMXMXMXMXMXMX3 e q C -.j.J.B.M.k.M.w. ..... .w.M.k.k.k.B.j.-.C q e 3 MXMXMXMXMXMXMXMXMXMXMXMXMXMXMXMX",
"MXMXMXMXMXMXMXMXMXMXMXMXMXMXMXMXMX# r M C ,.8.4.0.k.B.3.Y S S Y 3.B.k.k.k.e.,.C M r # MXMXMXMXMXMXMXMXMXMXMXMXMXMXMXMXMX",
"MXMXMXMXMXMXMXMXMXMXMXMXMXMXMXMXMXMX1 r q I ] T =.N.K.f.*.} } *.f.B.B.C.r.| U 0 r 1 MXMXMXMXMXMXMXMXMXMXMXMXMXMXMXMXMXMX",
"MXMXMXMXMXMXMXMXMXMXMXMXMXMXMXMXMXMXMX# e n N B A >.7.>.1.2.2.1.>.6.>.X./ Z m w # MXMXMXMXMXMXMXMXMXMXMXMXMXMXMXMXMXMXMX",
"MXMXMXMXMXMXMXMXMXMXMXMXMXMXMXMXMXMXMXMX3 , > t V L G K P P P P K G L R p 5 < 2 MXMXMXMXMXMXMXMXMXMXMXMXMXMXMXMXMXMXMXMX",
"MXMXMXMXMXMXMXMXMXMXMXMXMXMXMXMXMXMXMXMXMX; = @ h c b v v v v v v b c 9 + * ; MXMXMXMXMXMXMXMXMXMXMXMXMXMXMXMXMXMXMXMXMX",
"MXMXMXMXMXMXMXMXMXMXMXMXMXMXMXMXMXMXMXMXMXMXMXMX3 4 4 4 4 4 4 4 4 4 4 3 MXMXMXMXMXMXMXMXMXMXMXMXMXMXMXMXMXMXMXMXMXMXMXMX",
"MXMXMXMXMXMXMXMXMXMXMXMXMXMXMXMXMXMXMXMXMXMXMXMXMX- - - - - - - - - - MXMXMXMXMXMXMXMXMXMXMXMXMXMXMXMXMXMXMXMXMXMXMXMXMX",
"MXMXMXMXMXMXMXMXMXMXMXMXMXMXMXMXMXMXMXMXMXMXMXMXMXMXMXMXMXMXMXMXMXMXMXMXMXMXMXMXMXMXMXMXMXMXMXMXMXMXMXMXMXMXMXMXMXMXMXMX",
"MXMXMXMXMXMXMXMXMXMXMXMXMXMXMXMXMXMXMXMXMXMXMXMXMXMXMXMXMXMXMXMXMXMXMXMXMXMXMXMXMXMXMXMXMXMXMXMXMXMXMXMXMXMXMXMXMXMXMXMX",
"MXMXMXMXMXMXMXMXMXMXMXMXMXMXMXMXMXMXMXMXMXMXMXMXMXMXMXMXMXMXMXMXMXMXMXMXMXMXMXMXMXMXMXMXMXMXMXMXMXMXMXMXMXMXMXMXMXMXMXMX",
"MXMXMXMXMXMXMXMXMXMXMXMXMXMXMXMXMXMXMXMXMXMXMXMXMXMXMXMXMXMXMXMXMXMXMXMXMXMXMXMXMXMXMXMXMXMXMXMXMXMXMXMXMXMXMXMXMXMXMXMX",
"MXMXMXMXMXMXMXMXMXMXMXMXMXMXMXMXMXMXMXMXMXMXMXMXMXMXMXMXMXMXMXMXMXMXMXMXMXMXMXMXMXMXMXMXMXMXMXMXMXMXMXMXMXMXMXMXMXMXMXMX",
"MXMXMXMXMXMXMXMXMXMXMXMXMXMXMXMXMXMXMXMXMXMXMXMXMXMXMXMXMXMXMXMXMXMXMXMXMXMXMXMXMXMXMXMXMXMXMXMXMXMXMXMXMXMXMXMXMXMXMXMX",
"MXMXMXMXMXMXMXMXMXMXMXMXMXMXMXMXMXMXMXMXMXMXMXMXMXMXMXMXMXMXMXMXMXMXMXMXMXMXMXMXMXMXMXMXMXMXMXMXMXMXMXMXMXMXMXMXMXMXMXMX",
"MXMXMXMXMXMXMXMXMXMXMXMXMXMXMXMXMXMXMXMXMXMXMXMXMXMXMXMXMXMXMXMXMXMXMXMXMXMXMXMXMXMXMXMXMXMXMXMXMXMXMXMXMXMXMXMXMXMXMXMX",
"MXMXMXMXMXMXMXMXMXMXMXMXMXMXMXMXMXMXMXMXMXMXMXMXMXMXMXMXMXMXMXMXMXMXMXMXMXMXMXMXMXMXMXMXMXMXMXMXMXMXMXMXMXMXMXMXMXMXMXMX",
"MXMXMXMXMXMXMXMXMXMXMXMXMXMXMXMXMXMXMXMXMXMXMXMXMXMXMXMXMXMXMXMXMXMXMXMXMXMXMXMXMXMXMXMXMXMXMXMXMXMXMXMXMXMXMXMXMXMXMXMX",
"MXMXMXMXMXMXMXMXMXMXMXMXMXMXMXMXMXMXMXMXMXMXMXMXMXMXMXMXMXMXMXMXMXMXMXMXMXMXMXMXMXMXMXMXMXMXMXMXMXMXMXMXMXMXMXMXMXMXMXMX",
"MXMXMXMXMXMXMXMXMXMXMXMXMXMXMXMXMXMXMXMXMXMXMXMXMXMXMXMXMXMXMXMXMXMXMXMXMXMXMXMXMXMXMXMXMXMXMXMXMXMXMXMXMXMXMXMXMXMXMXMX",
"MXMXMXMXMXMXMXMXMXMXMXMXMXMXMXMXMXMXMXMXMXMXMXMXMXMXMXMXMXMXMXMXMXMXMXMXMXMXMXMXMXMXMXMXMXMXMXMXMXMXMXMXMXMXMXMXMXMXMXMX"
};
