/* XPM */
static char *result[] = {
/* columns rows colors chars-per-pixel */
"60 60 131 2 ",
"   c #6D633E",
".  c #7D6F36",
"X  c #71673E",
"o  c #756B3D",
"O  c #796E3D",
"+  c #7D723D",
"@  c #6D6541",
"#  c #87762F",
"$  c #8C7A2F",
"%  c #907D2C",
"&  c #847533",
"*  c #8A7932",
"=  c #81753D",
"-  c #84793D",
";  c #897C40",
":  c #B49615",
">  c #B89A16",
",  c #B2951A",
"<  c #B99B18",
"1  c #9C8525",
"2  c #9F8823",
"3  c #9A8529",
"4  c #9E892C",
"5  c #8C833D",
"6  c #998737",
"7  c #93833C",
"8  c #938A3D",
"9  c #9C8B3A",
"0  c #99903D",
"q  c #A48C23",
"w  c #A38E2F",
"e  c #A9922C",
"r  c #A38E31",
"t  c #A08F3B",
"y  c #A99435",
"u  c #A3933B",
"i  c #AB973A",
"p  c #A49A3C",
"a  c #AA9B3B",
"s  c #B19B37",
"d  c #B29E3A",
"f  c #ACA33D",
"g  c #BBA233",
"h  c #B2A43B",
"j  c #BAA238",
"k  c #B4AB3C",
"l  c #BEB43C",
"z  c #BFB83C",
"x  c #C5A30E",
"c  c #CAA60C",
"v  c #CDA90D",
"b  c #D3AE0D",
"n  c #DAB203",
"m  c #D6B10D",
"M  c #DAB30A",
"N  c #CEAC16",
"B  c #C7A71D",
"V  c #D2AE14",
"C  c #D4B010",
"Z  c #DBB81C",
"A  c #E1B705",
"S  c #E2B906",
"D  c #E4BC0C",
"F  c #E8BF0C",
"G  c #E4BC14",
"H  c #E2BE1C",
"J  c #C3A522",
"K  c #C8AA22",
"L  c #C1A62D",
"P  c #D4B425",
"I  c #D6B62C",
"U  c #C3AB37",
"Y  c #C4AB38",
"T  c #CCB235",
"R  c #C3BB3C",
"E  c #C8BE3B",
"W  c #D2B633",
"Q  c #DABD33",
"!  c #E7C215",
"~  c #E9C514",
"^  c #EBCC15",
"/  c #E5C11D",
"(  c #E9C41C",
")  c #F6CD15",
"_  c #CCC43B",
"`  c #DEC236",
"'  c #D4C539",
"]  c #D8CA39",
"[  c #DDD63B",
"{  c #DFD83B",
"}  c #E5C221",
"|  c #EAC623",
" . c #EBC825",
".. c #E5C42C",
"X. c #E8C72B",
"o. c #EAC92E",
"O. c #F1CE2D",
"+. c #F1D222",
"@. c #F3D12F",
"#. c #F3DA2D",
"$. c #FEDA2D",
"%. c #E5C631",
"&. c #E8C730",
"*. c #E5CA36",
"=. c #EACB32",
"-. c #F1CE32",
";. c #E1D137",
":. c #EDD234",
">. c #EEDA36",
",. c #E1D439",
"<. c #E4DC3A",
"1. c #EDDF39",
"2. c #F3D233",
"3. c #F4DA35",
"4. c #F9DB35",
"5. c #F1DD38",
"6. c #F7E82D",
"7. c #F9EB2F",
"8. c #EDE33A",
"9. c #EFE83B",
"0. c #F5E236",
"q. c #FBE336",
"w. c #FBEB36",
"e. c #F5E338",
"r. c #FCE538",
"t. c #F4EA3A",
"y. c #FCED38",
"u. c #FFF337",
"i. c #FEF339",
"p. c #FFFB39",
"a. c None",
/* pixels */
"a.a.a.a.a.a.a.a.a.a.a.a.a.a.a.a.a.a.a.a.a.a.a.a.a.a.a.a.a.a.a.a.a.a.a.a.a.a.a.a.a.a.a.a.a.a.a.a.a.a.a.a.a.a.a.a.a.a.a.a.",
"a.a.a.a.a.a.a.a.a.a.a.a.a.a.a.a.a.a.a.a.a.a.a.a.a.a.a.a.a.a.a.a.a.a.a.a.a.a.a.a.a.a.a.a.a.a.a.a.a.a.a.a.a.a.a.a.a.a.a.a.",
"a.a.a.a.a.a.a.a.a.a.a.a.a.a.a.a.a.a.a.a.a.a.a.a.a.a.a.a.a.a.a.a.a.a.a.a.a.a.a.a.a.a.a.a.a.a.a.a.a.a.a.a.a.a.a.a.a.a.a.a.",
"a.a.a.a.a.a.a.a.a.a.a.a.a.a.a.a.a.a.a.a.a.a.a.a.a.a.a.a.a.a.a.a.a.a.a.a.a.a.a.a.a.a.a.a.a.a.a.a.a.a.a.a.a.a.a.a.a.a.a.a.",
"a.a.a.a.a.a.a.a.a.a.a.a.a.a.a.a.a.a.a.a.a.a.a.a.a.a.a.a.a.a.a.a.a.a.a.a.a.a.a.a.a.a.a.a.a.a.a.a.a.a.a.a.a.a.a.a.a.a.a.a.",
"a.a.a.a.a.a.a.a.a.a.a.a.a.a.a.a.a.a.a.a.a.a.a.a.a.a.a.a.a.a.a.a.a.a.a.a.a.a.a.a.a.a.a.a.a.a.a.a.a.a.a.a.a.a.a.a.a.a.a.a.",
"a.a.a.a.a.a.a.a.a.a.a.a.a.a.a.a.a.a.a.a.a.a.a.a.a.a.a.a.a.a.a.a.a.a.a.a.a.a.a.a.a.a.a.a.a.a.a.a.a.a.a.a.a.a.a.a.a.a.a.a.",
"a.a.a.a.a.a.a.a.a.a.a.a.a.a.a.a.a.a.a.a.a.a.a.a.a.a.a.a.a.a.a.a.a.a.a.a.a.a.a.a.a.a.a.a.a.a.a.a.a.a.a.a.a.a.a.a.a.a.a.a.",
"a.a.a.a.a.a.a.a.a.a.a.a.a.a.a.a.a.a.a.a.a.a.a.a.a.a.a.a.a.a.a.a.a.a.a.a.a.a.a.a.a.a.a.a.a.a.a.a.a.a.a.a.a.a.a.a.a.a.a.a.",
"a.a.a.a.a.a.a.a.a.a.a.a.a.a.a.a.a.a.a.a.a.a.a.a.a.a.a.a.a.a.a.a.a.a.a.a.a.a.a.a.a.a.a.a.a.a.a.a.a.a.a.a.a.a.a.a.a.a.a.a.",
"a.a.a.a.a.a.a.a.a.a.a.a.a.a.a.a.a.a.a.a.a.a.a.a.a.a.a.a.a.a.a.a.a.a.a.a.a.a.a.a.a.a.a.a.a.a.a.a.a.a.a.a.a.a.a.a.a.a.a.a.",
"a.a.a.a.a.a.a.a.a.a.a.a.a.a.a.a.a.a.a.a.a.a.a.a.a.a.a.a.a.a.a.a.a.a.a.a.a.a.a.a.a.a.a.a.a.a.a.a.a.a.a.a.a.a.a.a.a.a.a.a.",
"a.a.a.a.a.a.a.a.a.a.a.a.a.a.a.a.a.a.a.a.a.a.a.a.a.a.a.a.a.a.a.a.a.a.a.a.a.a.a.a.a.a.a.a.a.a.a.a.a.a.a.a.a.a.a.a.a.a.a.a.",
"a.a.a.a.a.a.a.a.a.a.a.a.a.a.a.a.a.a.a.a.a.a.a.a.a.    @ X X       @   a.a.a.a.a.a.a.a.a.a.a.a.a.a.a.a.a.a.a.a.a.a.a.a.a.",
"a.a.a.a.a.a.a.a.a.a.a.a.a.a.a.a.a.a.a.a.a.a.a.a.5 8 8 5 O + 5 8 8 8 5 5 a.a.a.a.a.a.a.a.a.a.a.a.a.a.a.a.a.a.a.a.a.a.a.a.",
"a.a.a.a.a.a.a.a.a.a.a.a.a.a.a.a.a.a.a.a.a.a.a.O k [ <._ 5 - R ,.[ <.[ k + a.a.a.a.a.a.a.a.a.a.a.a.a.a.a.a.a.a.a.a.a.a.a.",
"a.a.a.a.a.a.a.a.a.a.a.a.a.a.a.a.a.a.a.a.a.a.- t ' y.8._ f h <.i.w.i.w.' p 5 a.a.a.a.a.a.a.a.a.a.a.a.a.a.a.a.a.a.a.a.a.a.",
"a.a.a.a.a.a.a.a.a.a.a.a.a.a.a.a.a.a.a.a.a.@ d %.4.:.d 0 _ <.:.:.=.:.:.>.,.f O a.a.a.a.a.a.a.a.a.a.a.a.a.a.a.a.a.a.a.a.a.",
"a.a.a.a.a.a.a.a.a.a.a.a.a.a.a.a.a.a.a.a.5 p ' 0.*.Y a h ,.w.2.=.2.:.=.3.t._ a 5 a.a.a.a.a.a.a.a.a.a.a.a.a.a.a.a.a.a.a.a.",
"a.a.a.a.a.a.a.a.a.a.a.a.a.a.a.a.a.a.a.o f <.u.t.h 7 R 8.:.=.2.q.y.y.4.-.:.5.8.f o a.a.a.a.a.a.a.a.a.a.a.a.a.a.a.a.a.a.a.",
"a.a.a.a.a.a.a.a.a.a.a.a.a.a.a.a.a.a.a.o a e.u.5.p + _ p.3.=.-.q.i.y.4.-.=.7.i.f X a.a.a.a.a.a.a.a.a.a.a.a.a.a.a.a.a.a.a.",
"a.a.a.a.a.a.a.a.a.a.a.a.a.a.a.a.a.a.a.o i 2.q.2.i - E i.3.=.2.q.u.y.4.-.=.0.t.f o a.a.a.a.a.a.a.a.a.a.a.a.a.a.a.a.a.a.a.",
"a.a.a.a.a.a.a.a.a.a.a.a.a.a.a.a.a.a.a.X p 5.u.5.p = _ i.2.=.-.q.u.y.4.-.&.w.t.f   a.a.a.a.a.a.a.a.a.a.a.a.a.a.a.a.a.a.a.",
"a.a.a.a.a.a.a.a.a.a.a.a.a.a.a.a.a.a.a.+ k t.p.8.f 5 _ y.3.=.2.q.u.y.4.:.=.0.9.k = a.a.a.a.a.a.a.a.a.a.a.a.a.a.a.a.a.a.a.",
"a.a.a.a.a.a.a.a.a.a.a.a.a.a.a.a.a.a.7 j ` 5.] k k E [ 3.0.5.3.4.i.y.4.4.e.5.>.] R 8 a.a.a.a.a.a.a.a.a.a.a.a.a.a.a.a.a.a.",
"a.a.a.a.a.a.a.a.a.a.a.a.a.a.a.a.a.  u *.q.2.d - z y.3.:.w.u.4.q.y.y.4.q.u.0.:.r.8.p X a.a.a.a.a.a.a.a.a.a.a.a.a.a.a.a.a.",
"a.a.a.a.a.a.a.a.a.a.a.a.a.a.a.a.a.X p e.u.w.f + R p.3.=.w.u.4.q.u.y.4.q.p.3.=.w.t.p X a.a.a.a.a.a.a.a.a.a.a.a.a.a.a.a.a.",
"a.a.a.a.a.a.a.a.a.a.a.a.a.a.a.a.a.X 0 9.p.i.k - l t.2.:.t.u.q.q.p.y.4.y.i.5.=.r.8.p X a.a.a.a.a.a.a.a.a.a.a.a.a.a.a.a.a.",
"a.a.a.a.a.a.a.a.a.a.a.a.a.a.a.a.a.X p 9.p.i.k - j :.=.:.y.p.i.i.p.i.i.i.i.0.=.2.` 9 X a.a.a.a.a.a.a.a.a.a.a.a.a.a.a.a.a.",
"a.a.a.a.a.a.a.a.a.a.a.a.a.a.a.a.a.X p 8.p.y.k + s &.=.=.#.w.w.u.i.i.i.w.6.#.&.=.Q 9 X a.a.a.a.a.a.a.a.a.a.a.a.a.a.a.a.a.",
"a.a.a.a.a.a.a.a.a.a.a.a.a.a.a.a.a.X u *.q.3.h = s %.=.X.~ ^ #.r.p.y.0.+.~ / &.=.Q 9 X a.a.a.a.a.a.a.a.a.a.a.a.a.a.a.a.a.",
"a.a.a.a.a.a.a.a.a.a.a.a.a.a.a.a.a.@ u :.q.3.d + s %.=.X.G G O.0.u.y.4.^ Z / =.=.Q 9 X a.a.a.a.a.a.a.a.a.a.a.a.a.a.a.a.a.",
"a.a.a.a.a.a.a.a.a.a.a.a.a.a.a.a.a.X p 8.p.t.k + s &.=.&.X.o.-.q.i.y.4.-.X.X.&.=.Q 9 X a.a.a.a.a.a.a.a.a.a.a.a.a.a.a.a.a.",
"a.a.a.a.a.a.a.a.a.a.a.a.a.a.a.a.a.X u e.p.w.f ; s &.=.=.&.=.2.4.i.y.4.-.*.&.&.-.Q 9 X a.a.a.a.a.a.a.a.a.a.a.a.a.a.a.a.a.",
"a.a.a.a.a.a.a.a.a.a.a.a.a.a.a.a.a.X t *.4.2.d = s %.=.&.&.=.2.q.u.y.4.-.=.&.&.=.Q 9 X a.a.a.a.a.a.a.a.a.a.a.a.a.a.a.a.a.",
"a.a.a.a.a.a.a.a.a.a.a.a.a.a.a.a.a.a.7 j I / B q e j P / X.-.2.q.u.y.4.-.&.=.%.T s 7 a.a.a.a.a.a.a.a.a.a.a.a.a.a.a.a.a.a.",
"a.a.a.a.a.a.a.a.a.a.a.a.a.a.a.a.a.a.a.+ q M A b 4 # < D } =.2.q.i.y.4.-.&.=.Q y + a.a.a.a.a.a.a.a.a.a.a.a.a.a.a.a.a.a.a.",
"a.a.a.a.a.a.a.a.a.a.a.a.a.a.a.a.a.a.a.X r H ) / r . : A } =.2.r.i.y.4.-.=.| Z 4 X a.a.a.a.a.a.a.a.a.a.a.a.a.a.a.a.a.a.a.",
"a.a.a.a.a.a.a.a.a.a.a.a.a.a.a.a.a.a.a.o y o.$.=.u & , S } =.-.4.y.w.4.-.X.G M q X a.a.a.a.a.a.a.a.a.a.a.a.a.a.a.a.a.a.a.",
"a.a.a.a.a.a.a.a.a.a.a.a.a.a.a.a.a.a.a.o w ( ) H w . : S  .o.( ~ ^ ^ ~ | X.( n q o a.a.a.a.a.a.a.a.a.a.a.a.a.a.a.a.a.a.a.",
"a.a.a.a.a.a.a.a.a.a.a.a.a.a.a.a.a.a.a.o 1 v A M e * , m } | D A S n S H ..H v 1 o a.a.a.a.a.a.a.a.a.a.a.a.a.a.a.a.a.a.a.",
"a.a.a.a.a.a.a.a.a.a.a.a.a.a.a.a.a.a.a.a.# 3 J | ..Y r q N G H } } } } | o.L 1 & a.a.a.a.a.a.a.a.a.a.a.a.a.a.a.a.a.a.a.a.",
"a.a.a.a.a.a.a.a.a.a.a.a.a.a.a.a.a.a.a.a.a.O i %.2.X.y % : V } ..X.X.....W u O a.a.a.a.a.a.a.a.a.a.a.a.a.a.a.a.a.a.a.a.a.",
"a.a.a.a.a.a.a.a.a.a.a.a.a.a.a.a.a.a.a.a.a.a.; 9 K F b > 1 q V F F F D J 6 - a.a.a.a.a.a.a.a.a.a.a.a.a.a.a.a.a.a.a.a.a.a.",
"a.a.a.a.a.a.a.a.a.a.a.a.a.a.a.a.a.a.a.a.a.a.a.O q x c > # & , c x x x q o a.a.a.a.a.a.a.a.a.a.a.a.a.a.a.a.a.a.a.a.a.a.a.",
"a.a.a.a.a.a.a.a.a.a.a.a.a.a.a.a.a.a.a.a.a.a.a.a.& $ $ & O O & # # $ $ & a.a.a.a.a.a.a.a.a.a.a.a.a.a.a.a.a.a.a.a.a.a.a.a.",
"a.a.a.a.a.a.a.a.a.a.a.a.a.a.a.a.a.a.a.a.a.a.a.a.a.@ @   X @ @ @ @ @   a.a.a.a.a.a.a.a.a.a.a.a.a.a.a.a.a.a.a.a.a.a.a.a.a.",
"a.a.a.a.a.a.a.a.a.a.a.a.a.a.a.a.a.a.a.a.a.a.a.a.a.a.a.a.a.a.a.a.a.a.a.a.a.a.a.a.a.a.a.a.a.a.a.a.a.a.a.a.a.a.a.a.a.a.a.a.",
"a.a.a.a.a.a.a.a.a.a.a.a.a.a.a.a.a.a.a.a.a.a.a.a.a.a.a.a.a.a.a.a.a.a.a.a.a.a.a.a.a.a.a.a.a.a.a.a.a.a.a.a.a.a.a.a.a.a.a.a.",
"a.a.a.a.a.a.a.a.a.a.a.a.a.a.a.a.a.a.a.a.a.a.a.a.a.a.a.a.a.a.a.a.a.a.a.a.a.a.a.a.a.a.a.a.a.a.a.a.a.a.a.a.a.a.a.a.a.a.a.a.",
"a.a.a.a.a.a.a.a.a.a.a.a.a.a.a.a.a.a.a.a.a.a.a.a.a.a.a.a.a.a.a.a.a.a.a.a.a.a.a.a.a.a.a.a.a.a.a.a.a.a.a.a.a.a.a.a.a.a.a.a.",
"a.a.a.a.a.a.a.a.a.a.a.a.a.a.a.a.a.a.a.a.a.a.a.a.a.a.a.a.a.a.a.a.a.a.a.a.a.a.a.a.a.a.a.a.a.a.a.a.a.a.a.a.a.a.a.a.a.a.a.a.",
"a.a.a.a.a.a.a.a.a.a.a.a.a.a.a.a.a.a.a.a.a.a.a.a.a.a.a.a.a.a.a.a.a.a.a.a.a.a.a.a.a.a.a.a.a.a.a.a.a.a.a.a.a.a.a.a.a.a.a.a.",
"a.a.a.a.a.a.a.a.a.a.a.a.a.a.a.a.a.a.a.a.a.a.a.a.a.a.a.a.a.a.a.a.a.a.a.a.a.a.a.a.a.a.a.a.a.a.a.a.a.a.a.a.a.a.a.a.a.a.a.a.",
"a.a.a.a.a.a.a.a.a.a.a.a.a.a.a.a.a.a.a.a.a.a.a.a.a.a.a.a.a.a.a.a.a.a.a.a.a.a.a.a.a.a.a.a.a.a.a.a.a.a.a.a.a.a.a.a.a.a.a.a.",
"a.a.a.a.a.a.a.a.a.a.a.a.a.a.a.a.a.a.a.a.a.a.a.a.a.a.a.a.a.a.a.a.a.a.a.a.a.a.a.a.a.a.a.a.a.a.a.a.a.a.a.a.a.a.a.a.a.a.a.a.",
"a.a.a.a.a.a.a.a.a.a.a.a.a.a.a.a.a.a.a.a.a.a.a.a.a.a.a.a.a.a.a.a.a.a.a.a.a.a.a.a.a.a.a.a.a.a.a.a.a.a.a.a.a.a.a.a.a.a.a.a.",
"a.a.a.a.a.a.a.a.a.a.a.a.a.a.a.a.a.a.a.a.a.a.a.a.a.a.a.a.a.a.a.a.a.a.a.a.a.a.a.a.a.a.a.a.a.a.a.a.a.a.a.a.a.a.a.a.a.a.a.a.",
"a.a.a.a.a.a.a.a.a.a.a.a.a.a.a.a.a.a.a.a.a.a.a.a.a.a.a.a.a.a.a.a.a.a.a.a.a.a.a.a.a.a.a.a.a.a.a.a.a.a.a.a.a.a.a.a.a.a.a.a.",
"a.a.a.a.a.a.a.a.a.a.a.a.a.a.a.a.a.a.a.a.a.a.a.a.a.a.a.a.a.a.a.a.a.a.a.a.a.a.a.a.a.a.a.a.a.a.a.a.a.a.a.a.a.a.a.a.a.a.a.a."
};
