/* XPM */
static char *pixil_frame_0__3_1677783136[] = {
/* columns rows colors chars-per-pixel */
"60 60 49 1 ",
"  c None",
". c #0E140E",
"X c #0F190F",
"o c #151515",
"O c #141C14",
"+ c #1A1A1A",
"@ c #1C221C",
"# c #1B281B",
"$ c #251525",
"% c #251C25",
"& c #2A1A2A",
"* c #232323",
"= c #242B24",
"- c #2C2C2C",
"; c #2C322C",
": c #343434",
"> c #353C35",
", c #3B3B3B",
"< c #3E413E",
"1 c #434443",
"2 c #434943",
"3 c #4A4B4A",
"4 c #4C544C",
"5 c #545454",
"6 c #535A53",
"7 c #5B5B5B",
"8 c #596159",
"9 c #636363",
"0 c #626A62",
"q c #6B6B6B",
"w c #747474",
"e c #777F77",
"r c #7C7C7C",
"t c #848484",
"y c #898789",
"u c #8C8C8C",
"i c #929292",
"p c #9C9C9C",
"a c #9FA09F",
"s c #A3A3A3",
"d c #A7A8A7",
"f c #ABABAB",
"g c #B4B4B4",
"h c #BBBBBB",
"j c #C4C4C4",
"k c #CCCCCC",
"l c #D3D3D3",
"z c gainsboro",
"x c #E3E3E3",
/* pixels */
"                ++                        +O                ",
"                ++                        ++                ",
"                +                          +                ",
"                +                          +                ",
"                +                          +                ",
"                +++++                  +++++                ",
"                   ++                  ++                   ",
"                    +                 ++                    ",
"                    ++                +                     ",
"                     +               ++                     ",
"         +++++       +%OOO+++O++++++O+        @#+++         ",
"        +re02+       +=+++=,7007>*++@O+      $*20e+         ",
"       +8sdu9-+++++++-,-*+-1qrrq3-+%-,++++++++-9yda++       ",
"      ++8iaiq,@OO+OO=173-++-1553-++-371*O++O+@,qisi7+       ",
"     ++>7rtr9,-%+++-,9r7>-+++1,,++=,7r9,-++o+-19rtr7++&     ",
"     +>797553,-+o+*,7rt9,<7qqqqq53:,7tr9<*+O+-,157777++     ",
"     +2w9,-=---+++-5rtr7,7iffdfauw3,7tyr5-++$-;---,9w2+     ",
"     O<51-++%---++=3wwq519pffdfsit5<5qww3*+$---++++16<+     ",
"     +++++++*--:-++<575339yiiuuuyr733555,*+=-:-++++++++     ",
"     +,>-%++*-::-%+-,<1137qrtyytrw731<1,-++-:>-*++@-:>+     ",
"    +yr93-*+*->:-+++--><3579ruyt9753<,-=+++->:-*++-39ry+    ",
"   ++dst7,*++=---*+++%-,<1<59ww95111,-%++%*----++*,9tsd++   ",
"   +8ppt9,+++%***=*+++*-::--,1<,---,+++++**@%*+++*,9tpi0=   ",
"   +6rtr7+++++++*-:-++%=:-%+++++++---++$-::*+++++%:7ryr6-   ",
"   +2997<++=%+++-353::-,,,:-%++-131,::::173-+++o+@-<5992*   ",
"   +>11>+%*-=++-19r731331331:++,qw9313139wq1-+++++++:13>*   ",
"   +=-+++%*=-+:19rt933333595,++1wr9333339tr93>-+++**++--+   ",
"   +++++*-=@+,5qryr9333339w91++1qr9333339rtrq5,*+=-*+++++   ",
"   +++=---=%+5qtyrw731313qyr1++1wuq311135qrutq5:+*---*+O+   ",
"   ++-:,-*%+19ryr95333313wpy3++3ypw33333359rtr91++*;,:-@+   ",
"   ++333:+++5wtrw53575757tfu3++3uft75557337wttw5:++:321<+   ",
"  ++r973:++,7rrq5357qwwqwufy,++,ufuwqwww95359rr7,*%-37qr++  ",
"++rdpt91-O+39rw7315qtytyuaft,++,tfauttytq5337rr93-+-19tpdr++",
"++wapt6;++,9wtw7115qtyyiaggt:++:tggaiyttq3115wtr9,+@;6tppw;.",
"+-7ttw++++1wytw7335wtyupghht:$+,thhgpuytw7337wtyw1++++wtt7-o",
"+-398++  +4upuw737qypppdgjji,++,ijjgdappyq737wupy4%+ ++895=+",
"+=<3:+   +4pduw75qyagggghkza<++,azkhgfggptq55widp4++  ++3,=+",
"+*,,=+   +6sgiw55qudggghgkzs<++1szkgghhgsuw55wifa6+    +,,*o",
"+*,1=+   ++pfuw75wusghgghkza<++1szkhgghgsuq57wifs6+   +=1,*o",
"+*,1;+   ++sfiw55wpghjhhgklp<++,pkkghjjhgpr55wifp6+   +-1,*+",
"+*,1>+   +5sfiw57yfjzzzjhhhu,++,uhhhklzzjfy75wifp7+  ++,1,*+",
"+%>1<:+  +7pfiw79ihzzxxkhhgt:++,tghhkzxxzhp97wifa5+o++>,1>++",
"+++,1,++.+7sdirwrshlxxxkhhgy,++:thhhkzxxlharwrifs7++O-<1,++X",
"  ++11-+o+5pdittudhlxxxkhhft:++>rgghlxxxlhsutyidp5+o+-1<++  ",
"   ++,-+oO3udsiuudhlxxxkhgaw:o+:wafhlzxxzhsuyissu++++-,++   ",
"    ++++O+++pddiushlxxzkgsu9-o+-9ushkzxxlhsiiddp+   +=++    ",
"     ++    ++dgdafhkllkkhpw5++$+5wphkllljhdpagd++   +++     ",
"     ++     +ihgggghhhhhgu9<+--+19ughhhhhgggghp+     ++     ",
"     +      ++sghhgfddsapw3++,,,+3wissddfhhhgsr+      +     ",
"             +rdhhgsiiur93,+1111,+$9riiipghhsr++            ",
"             ++rpsptrrw9<++><111:-++7wwrtpspt5+             ",
"              ++99q97771++++++++++++17779qq72++             ",
"               +:,11111++*:,,,<,,:*+><1111<:+               ",
"                ++++++++--,379973<-++--===#O+               ",
"                      ++->17rttw71>-*++++++++               ",
"                       ++-,7ruur7,;#O++                     ",
"                        ++:3wttw3+++++                      ",
"                          ++5775++                          ",
"                           +---=+                           ",
"                           ++ooo+                           "
};
