/* XPM */
static char *pixil_frame_01677783175[] = {
/* columns rows colors chars-per-pixel */
"60 60 57 1 ",
"  c None",
". c black",
"X c #0E1B0E",
"o c #141414",
"O c #121D12",
"+ c #1B1B1B",
"@ c #1C221C",
"# c #1E2B1E",
"$ c #241824",
"% c #391739",
"& c #232423",
"* c #232B23",
"= c #2C2C2C",
"- c #263526",
"; c #2D342D",
": c #372137",
"> c #322F32",
", c #3D293D",
"< c #333333",
"1 c #353B35",
"2 c #3B3B3B",
"3 c #374037",
"4 c #3D433D",
"5 c #3E4A3E",
"6 c #413D41",
"7 c #4C344C",
"8 c #434343",
"9 c #454A45",
"0 c #4B4B4B",
"q c #4B554B",
"w c #545454",
"e c #545954",
"r c #5B5B5B",
"t c #5D625D",
"y c #715271",
"u c #636363",
"i c #646F64",
"p c #696369",
"a c #6B6B6B",
"s c #657065",
"d c #747474",
"f c #777877",
"g c #7C7C7C",
"h c #848484",
"j c #8B8B8B",
"k c #939393",
"l c #9C9C9C",
"z c #9FA09F",
"x c #A3A3A3",
"c c #ACACAC",
"v c #B5B5B5",
"b c #BBBBBB",
"n c #C5C5C5",
"m c #CCCCCC",
"M c #D4D4D4",
"N c #DCDCDC",
"B c #E3E3E3",
/* pixels */
"                          ++++++++                          ",
"                          +&*===&+                          ",
"                          +9ruur9+++                        ",
"                    +++++++rfhjfr6=++++++                   ",
"                  +++*;;;<2wgjkgw2;;;=*&++                  ",
"                +++<28www820ahha028www02>++++               ",
"               ++3qeudhjhp88wrrw48ahjhdteq4*+               ",
"              ++8aghhlcvcjr8<<<<8rjcvclhhga8=++             ",
"            +++tdhjkzcvbvxhr<@$<thxbnvczkjhdt1++            ",
"            +4ujxkjlvbvvvbvg2oo1gcvvvvvvxjkxku4++           ",
"           ++thzxzlvmmnnbbbh<oo2hbbvnnmnvxxxlht-+           ",
"           +5jxkkxvmNNNmbvvh2oo<hvbbmNNNmvxkkxh9++          ",
"          ++txvkjxbMBBBmbvvh<oo<hvvbMBBBMbxjkcxp7+          ",
"         ++pjcckkxnMBBBmbvvh2oo2hvbbmBBBMbxjkcchp++         ",
"         +5hzxzjkxvMBBBmbbnj2oo<jbbbMBBBMbxkjxxxh5+         ",
"         +qkxljjkxbMBBBmbmml2oo2lMmbmNBBMbxkjjlxkq+         ",
"         +wzcjhfhzbmNNMmvmNx6oo2xNmbmNNNmbzhfgkcze+         ",
"        ++ezckdualvnnnnbbmNx8oo6xNmvvnnmnvldpdkczr++++      ",
"     +O+++rzckdrrjvvvbvvvmMl2oo2lNmvvvbvvvhtwdkcze++=++++   ",
"    +dse<&wzckdwrglcvvvvbnnk2oo2jmnvvvvvclgwwdkcxw&;widy+   ",
"   +dxzh0&wxckdwwdjxvvvvvvvh<oo<hvvvcvvcxjawrdkclw=0hzxd+   ",
"   +slzhw&wxckdwwdhlllllzcvh2oo<hvxzllllkjdwwdkcxw&whxzi+   ",
"   +ehjf0=wlckdwwahhhjhhhlch2oo2hvzhhhjjhhawrdkclw&0ghhe+   ",
"   +9pu0<&0jlkdr0raghhhfajcj8$+6jcjafhhhgatwrdjlj0&<quu9+   ",
"   +102&++8fjhdr00rahhhpefxk0=*0jxgrahhhar00rdjjf8++&281+   ",
"   +&;&oo+2ufhdw080uadaw0akg0==0hka0wadau088rdhfu2+o+&=*+++ ",
" +++++++o+=0pgfr0800www00pgd8==8dgp00www0000rdfp0>++++$@+$++",
"X+2002&+o+=2rfhaww08080wudha8>=8ahdtw088000ragfr2&+o+&2802@+",
"++akhp2+o+&<wfhhdr80080udhha8==8ahhdu08000wdhhdw<&+o+8phka<+",
"+2gcxhw=+++&8pghgar0000tadaw<==<wadar0000raghga8*+++=wgxcg<+",
"+>akkhu8=++@;0phhhdr000006<=&++&=<880000rdghga0<+++=8uhkka>+",
"+=rffar8<&+$&2qpdfar8861>=&@&@$&+&=<2688rdffa02*$+&<8ragdr=+",
"+&8e0622<==&==>80w082>==>><<<<<<<<>>==>1800w8<=&=&><2260r8&+",
"+&28=+&=====&+$&=><==&+&<8rrrrrrww6<&+$==<<=&+$&;====&+=82&+",
"+&28=o+@&+&&+++@&=>&@++&8alxkkjhfaw2*++$===&+++@$@+@&+o=62&+",
"+&28=+++&&&&@++++==&+++=0hnMbvvckgr0;+++&==++++@&&=&+++=82&+",
"+$28=+o+8uae2&o+++&+++&<0hnmnbbvlhu0<&+++&+++o&2wap4+o+=82&+",
"+&28>+o&rlxhr>o+++++$&<20dxvvvvckgu02<=+++++o+>rjxlr&o+=82&+",
"+&18<&o&rlxka2$+o++&;<220akzzzzlkhu062<=&+o+++2akxlr&o&<82&+",
"+&282<$@0gjhp6*@++&<90000uhjjjhjhgr080001$++@=2phjg0@$=282&+",
"++<882*$2par0<&&++&8pau08wpdhhhhfaw8wrau8&+$&&<9rap4+=284<@+",
"+++<88=&<08=&+&==@=wggfr220ughjgu022rfhgw=+*=&+&=80<+=482=++",
"  +=12=+;82&+++&&+&0ahhu2<10taar0<=2uhha0&+**+++&28=$=62++++",
"  +&=<*+<82<&+++++@=9agu2&$=2882=&=<uga8=&+++++&>88<@*<=+   ",
"  ++@*@+=882=@+++++@=waw<&+=2982=+&<wpw;@++++++=288=++*@+   ",
"   +++++&<48<@+  ++X@<4<&+=8uddu2=+&<8<@++    +<82<&+++++   ",
"    ++++&=282*++  +++++&&&<wgjjfw<&&&=+++    ++392=@++      ",
"    ++++XO;88=:++     +&&<2rgjjgr8>=@++     ++;88;@X+       ",
"       ++%,622=@+     +@=14waffaw2<=@+      +=<46++++       ",
"         +++;21@+     +X@@*;3443;*#@X+      +<4;++          ",
"           ++41++     ++++++++++++++++      +14++           ",
"            +,#+      ++             +      +#++            ",
"            ++++    ++++             +++    +++             ",
"               ..   +                  +    ++              ",
"                +++++                  ++++++               ",
"                +                          +                ",
"                +                          +                ",
"                +                          +                ",
"                ++                        ++                ",
"                +++                      +++                "
};
