/* XPM */
static char *_c8b80cde03d4d63855e923707878a3fBDgX9KBOeSzzgKY5[] = {
/* columns rows colors chars-per-pixel */
"60 60 142 2 ",
"   c None",
".  c #0D1A0D",
"X  c #141414",
"o  c #131C13",
"O  c #1A1A1A",
"+  c #152215",
"@  c #1C241C",
"#  c #1D2A1D",
"$  c #261726",
"%  c #241C24",
"&  c #281728",
"*  c #2A1C2A",
"=  c #242424",
"-  c #252B25",
";  c #2B242B",
":  c #2B2C2B",
">  c #233123",
",  c #2E332E",
"<  c #2F382F",
"1  c #333433",
"2  c #333A33",
"3  c #3B353B",
"4  c #3B3B3B",
"5  c #374037",
"6  c #3C423C",
"7  c #403D40",
"8  c #444444",
"9  c #444D44",
"0  c #4B4C4B",
"q  c #4E524E",
"w  c #535353",
"e  c #555A55",
"r  c #5D565D",
"t  c #5B5B5B",
"y  c #5C615C",
"u  c #605F60",
"i  c #636363",
"p  c #656A65",
"a  c #6C6C6C",
"s  c #6D716D",
"d  c #786878",
"f  c #737373",
"g  c #7C7C7C",
"h  c #7F817F",
"j  c #808080",
"k  c #818181",
"l  c gray51",
"z  c #838383",
"x  c #848484",
"c  c gray52",
"v  c #868686",
"b  c gray53",
"n  c #848484",
"m  c #868A86",
"M  c #858A85",
"N  c #888888",
"B  c #898989",
"V  c gray54",
"C  c #8B8B8B",
"Z  c gray55",
"A  c #8D8D8D",
"S  c #8E8E8E",
"D  c #8F8E8F",
"F  c gray56",
"G  c #8A8A8A",
"H  c #909090",
"J  c gray57",
"K  c #929292",
"L  c #939393",
"P  c gray58",
"I  c #959595",
"U  c gray59",
"Y  c #979797",
"T  c #949494",
"R  c #989898",
"E  c gray60",
"W  c #9A9A9A",
"Q  c #9B9B9B",
"!  c gray61",
"~  c #9D9D9D",
"^  c #9F9F9F",
"/  c gray61",
"(  c #A0A0A0",
")  c gray63",
"_  c #A2A2A2",
"`  c gray64",
"'  c #A4A4A4",
"]  c #A5A5A5",
"[  c gray65",
"{  c #A7A7A7",
"}  c #A5A5A5",
"|  c gray66",
" . c #A9A9A9",
".. c #AAAAAA",
"X. c gray67",
"o. c #ACACAC",
"O. c gray68",
"+. c #AEAEAE",
"@. c #AFAFAF",
"#. c #ABABAB",
"$. c #B1B1B1",
"%. c #B2B2B2",
"&. c gray70",
"*. c #B4B4B4",
"=. c gray71",
"-. c #B6B6B6",
";. c #B7B7B7",
":. c #B4B4B4",
">. c gray72",
",. c #B9B9B9",
"<. c gray73",
"1. c #BBBBBB",
"2. c gray74",
"3. c gray",
"4. c gray75",
"5. c #BBBBBB",
"6. c gray76",
"7. c #C3C3C3",
"8. c gray77",
"9. c #C5C5C5",
"0. c #C6C6C6",
"q. c gray78",
"w. c #C5C5C5",
"e. c #C8C8C8",
"r. c gray79",
"t. c gray80",
"y. c #CDCDCD",
"u. c #CECECE",
"i. c gray81",
"p. c gray82",
"a. c #D2D2D2",
"s. c LightGray",
"d. c #D5D5D5",
"f. c gray84",
"g. c #D7D7D7",
"h. c gray84",
"j. c gray85",
"k. c #DDDDDD",
"l. c gray88",
"z. c #E1E1E1",
"x. c gray90",
"c. c #E6E6E6",
/* pixels */
"                                                              O O O O O O O O O O O                                     ",
"                                                              O O O % = = O O O o O                                     ",
"                                                            O O - , 4 3 4 4 1 ; @ O                                     ",
"                                                          O O : 3 0 t u t i w 4 : O                                     ",
"                                                      * O O : 4 9 p j l l l f w 8 2 O O O                               ",
"                                                    O O O - 1 8 t g U W E E C f p t w 6 O O                             ",
"                                                O O O - , 2 4 w a H [ ....[ _ I D G N s 5 O                             ",
"                                                O * ; 1 6 0 0 t h ~ &.&.-.-.-.&.$.$.&./ e O O O O                       ",
"                                              O + @ ; 1 8 0 t f H ..-.-.1.8.0.0.r.0.8.@.f w 5 > O                       ",
"                                          O O O - = : , 4 w a c ) &.-.-.3.y.g.g.g.f.0.&.W l p 8 O O                     ",
"                                        O O ; : , , , 3 8 r f T @.-.-.-.3.f.z.k.z.k.0.-.&._ c u 1 O                     ",
"                                        O o = : 1 , 1 4 0 p g E &.,.-.&.3.j.c.c.c.z.e.-.1.@.D p 4 # O                   ",
"                                      O O @ - : , 1 1 0 i f c E &.1.-.&.2.j.c.c.c.z.r.-.,.+.J a 8 , O                   ",
"                                    O O % : 1 , , 1 4 0 a c c I @.-.-.-.2.g.z.k.z.k.e.-.-.[ Z a w 4 O O                 ",
"                                    O + - 1 3 1 1 1 4 w f N c J _ @.,.-.2.p.g.s.g.s.q.&.+.~ D f t 0 1 O                 ",
"                                  O O - 3 4 4 1 ; 1 4 w f m C C T [ -.-.,.8.0.0.0.0.2.&.~ J c g f t 4 O                 ",
"                                  O O 4 0 q 0 3 1 1 4 w s n n n c ~ &.&.-.-.-.-.-.-.-.+.I c c c g i 8 O                 ",
"                                  O : 8 u a u 7 , 1 4 0 i f s f l I [ [ [ ) ) [ [ ) [ ) Z l c C c a 8 O O               ",
"                                O # 4 t f D j q 1 1 4 0 r u t a l Z I J J J J J J J J J C l c C c p 0 : O               ",
"                                O = 8 p N [ W u 7 1 7 0 0 0 q u g C C C C C C C C C C C c c c c j i 9 3 - O             ",
"                                O @ 4 p D $...g w 4 7 8 0 0 r a l Z I I J J I J I I I J C c c g s u 0 3 : O             ",
"                              O O O : t D +.&./ f 8 8 0 8 q a f c E [ [ [ [ [ [ [ [ [ ) Z c C f u w 8 3 - O             ",
"                          O O % O O = q c [ -.&.D r 0 0 0 w f l c E +.&.&.&.&.&.&.&.&...J l l a 0 0 8 4 - O             ",
"                        O O # = ; o O 8 f T &.w.[ f w 0 8 q a g c I ..-.,.,.,.,.&.[ [ [ J l f i 0 8 8 1 - O             ",
"                      O O - : 1 1 ; O 1 w j ..i.7.I a 0 8 0 t a l J E +.,.,.,.-.{ E E I Z g p w 0 8 1 1 - O O           ",
"                      O - 2 0 q q 4 O O 7 a / t.p.&.g w 0 0 0 t g l C ~ &.-.-.&.( C c n n f w 0 8 4 1 1 : % O O         ",
"                    O O 2 w p f g t : O , r N ;.y.e.E a t r 0 w a s f l I ) ..[ E n f f f i 8 4 8 4 4 4 1 ; o O         ",
"                    O : 0 f N ( +.h 4 O ; 8 s E 3.p.,.J g p w 0 t t t i f C I I Z l a r t q 4 1 1 4 8 8 4 , @ O         ",
"                  O O 1 t C ) 3.p.) w O O 4 r g ..p.e.+.I g w 0 w q w 0 t g C c C l p q 0 0 4 3 1 8 8 0 8 1 @ O         ",
"                  O @ 4 p Z +.q.f.&.f 4 O 1 0 p J 7.e.,.[ C a t t t t r p g c c c n a u t t q 0 0 0 0 8 4 : @ O         ",
"                  O # 8 a D +.7.q.,.I q O - 8 t g ) -.,.&.~ g f s d s f f n c c c c g d f f a a a t 0 8 1 = O O         ",
"                  O - 0 a D { -.-.-.) t O O 1 8 t l E +.&.[ Z g l l l g g j l c c l h h g g g g g i 8 1 O O O O         ",
"                  O < y g C ~ [ ] ] D r % O - 1 8 t s b ( ] D c N C n s i t a l h f f f p i i p a e 7 1 O 1 1 O         ",
"                  O 5 f j c J I E N s 8 ; O = = - 1 7 w j I D N N D l r 3 1 w g g t t t 8 3 4 7 0 8 1 O O w w 7 O       ",
"                  O 6 g c c C c n s w 4 : O O O O O O : u l c l l c f O O O 8 f a 0 0 8 O O O O 1 1 : O 1 a a 0 O O     ",
"                  O 2 a g N c l f t 0 7 2 O O 1 8 8 O O 0 p s f f a O O 8 4 O t t 0 4 4 O 4 8 O o ; ; O 8 g f 0 O O     ",
"                  O : 0 f N C g u q 0 8 4 O ; w f j w O , 7 r t t 0 O p g a O 7 7 0 1 O q a j t O O O O q g f 4 2 O O   ",
"              O O O O 4 i l l f r q 0 0 7 O , a U ` s O O % 8 0 0 O O g [ Z u O 1 7 O O i D ] f O O O 4 r f p 4 6 8 O O ",
"            O O 9 0 O O 0 a a i u t u 0 1 O 1 f / [ f 3 O O 3 7 4 O - f ..I p O O 1 O 1 a / { f ; O O 4 w p t w t t , O ",
"            O d M l w O 3 0 0 w a f s 0 - O 1 f U U s 7 = O , 1 - O 1 d E D a 1 O O O 0 f T / a : O O 4 0 0 r a f a 1 O ",
"      O O O 3 C :.O.a O O 1 1 0 f N g 0 O O 1 f N j i 8 ; O : : O O 3 u n N a 4 = O 1 w s n l i 4 ; X O 8 2 q f l f 4 O ",
"    O O   O < T 0.2.g , O - , q g n s 7 O O 1 f j a t 0 - O : ; O = 1 0 a l a 4 % O 1 0 t i u t 0 8 4 O 1 1 0 a f t , O ",
"    O     O 2 T 0.2.l 6 O O 3 w j g t 2 O X 1 d f q 0 8 - O : - O = 1 3 0 f s 3 @ O 2 0 7 4 4 q a a t O O : 8 t q 4 O O ",
"O O O     O 1 m -.@.l 0 ; O 4 r g s q : O X 1 s a 4 7 8 : O : - O = , % , a a 7 ; X 3 8 : O O 8 f l f 4 O : 4 0 1 O O $ ",
"          O : s T T f 0 - O 1 w a i 9 : X X 1 f i 1 1 4 - O O ; O ; : O O w p q 1 O 1 4 = O O , y h h 8 O O , 1 @ O     ",
"          O O 9 i a p 0 : O , 8 r t 0 : O O 1 f u ; - 3 1 ; O O O = : = O 7 t p 8 O : 1 O O O O 5 a g 8 = O = @ O O     ",
"            O : 7 0 0 8 - O ; 4 9 0 8 O O O O f u = = 1 1 - @ O O = : = O - q f w O = : O     O O r f 0 : O O O O       ",
"            O O - 1 2 4 ; O @ : 1 2 4 O     O f u = O - 1 : O O O @ ; @ O % 0 g t O @ O O         O i w 6 O O           ",
"              O O @ - - % O O @ # # O       O f i @ O O : : % O O o O O O O 8 f t O O O           O O y e O O           ",
"                O O O O O O O O O O         O s t = O O O : O O O O O O O O 7 f e O O               O i p O             ",
"                      O . O                 O i w = O   O # O O         O O 1 a 0 O O               O p s O             ",
"                      O O O                 O q 8 O O   O O O           O O : w 6 O                 O p s O             ",
"                      O O                   O 8 2 O       O O           O O : 8 2 O                 O i a O             ",
"                      O O                   O 6 < O       O               O - 8 , O                 O e t O             ",
"                      O                     O 8 2 O                       O O 8 < O                 O 9 q O             ",
"O O O O O             O                     O 4 O O                         O 8 , O                 O 4 5 O             ",
"O O O O O           O O                     O 1 O                           O 1 - O                 O O O O             ",
"        O           O                       O O O                           O ; @ o                   O O O             ",
"        O O       O                         O O                             O O O O                     O O             ",
"          . . . O o                         O O                             O O O *                     O O             "
};
