/* XPM */
static char *_e9dd4a7b23b4ad1d9fb4e7a879664f5DtUcDopEDw97a9qg[] = {
/* columns rows colors chars-per-pixel */
"60 60 144 2 ",
"   c None",
".  c #0D130D",
"X  c #0D190D",
"o  c #141514",
"O  c #131A13",
"+  c #1C161C",
"@  c #1A1A1A",
"#  c #142114",
"$  c #1C241C",
"%  c #1D2A1D",
"&  c #261726",
"*  c #221A22",
"=  c #291729",
"-  c #2A1F2A",
";  c #242424",
":  c #252B25",
">  c #2B242B",
",  c #2B2C2B",
"<  c #233123",
"1  c #2D332D",
"2  c #2F382F",
"3  c #342B34",
"4  c #333433",
"5  c #343A34",
"6  c #3A353A",
"7  c #3B3B3B",
"8  c #374037",
"9  c #3C423C",
"0  c #403D40",
"q  c #444444",
"w  c #444D44",
"e  c #4B4C4B",
"r  c #4E524E",
"t  c #535353",
"y  c #555A55",
"u  c #5D565D",
"i  c #5B5B5B",
"p  c #5C615C",
"a  c #605F60",
"s  c #636363",
"d  c #656A65",
"f  c #6C6C6C",
"g  c #6D716D",
"h  c #786878",
"j  c #737373",
"k  c #7C7C7C",
"l  c #7F817F",
"z  c gray51",
"x  c #838383",
"c  c #808080",
"v  c #848484",
"b  c gray52",
"n  c #868686",
"m  c gray53",
"M  c #848484",
"N  c #868A86",
"B  c #858A85",
"V  c #888888",
"C  c #898989",
"Z  c gray54",
"A  c #8B8B8B",
"S  c gray55",
"D  c #8D8D8D",
"F  c #8E8E8E",
"G  c #8F8E8F",
"H  c gray56",
"J  c #8A8A8A",
"K  c #909090",
"L  c gray57",
"P  c #929292",
"I  c #939393",
"U  c gray58",
"Y  c #959595",
"T  c gray59",
"R  c #979797",
"E  c #949494",
"W  c #989898",
"Q  c gray60",
"!  c #9A9A9A",
"~  c #9B9B9B",
"^  c gray61",
"/  c #9D9D9D",
"(  c #9F9F9F",
")  c gray61",
"_  c #A0A0A0",
"`  c gray63",
"'  c #A2A2A2",
"]  c gray64",
"[  c #A4A4A4",
"{  c #A5A5A5",
"}  c gray65",
"|  c #A7A7A7",
" . c #A5A5A5",
".. c gray66",
"X. c #A9A9A9",
"o. c #AAAAAA",
"O. c gray67",
"+. c #ACACAC",
"@. c gray68",
"#. c #AEAEAE",
"$. c #AFAFAF",
"%. c #ABABAB",
"&. c #B1B1B1",
"*. c #B2B2B2",
"=. c gray70",
"-. c #B4B4B4",
";. c gray71",
":. c #B6B6B6",
">. c #B7B7B7",
",. c #B4B4B4",
"<. c gray72",
"1. c #B9B9B9",
"2. c gray73",
"3. c #BBBBBB",
"4. c gray74",
"5. c gray",
"6. c gray75",
"7. c #BBBBBB",
"8. c gray76",
"9. c #C3C3C3",
"0. c gray77",
"q. c #C5C5C5",
"w. c #C6C6C6",
"e. c gray78",
"r. c #C5C5C5",
"t. c #C8C8C8",
"y. c gray79",
"u. c gray80",
"i. c #CDCDCD",
"p. c #CECECE",
"a. c gray81",
"s. c gray82",
"d. c #D2D2D2",
"f. c LightGray",
"g. c #D5D5D5",
"h. c gray84",
"j. c #D7D7D7",
"k. c gray84",
"l. c gray85",
"z. c #DDDDDD",
"x. c gray88",
"c. c #E1E1E1",
"v. c gray90",
"b. c #E6E6E6",
/* pixels */
"                                    @ @ @ o o o o o o o O @                                                             ",
"                                    @ O @ @ * $ $ * * @ O @                                                             ",
"                                    @ $ ; 4 7 7 7 7 3 : $ @                                                             ",
"                                    @ , 7 t s i a i e 4 , @ @ @                                                         ",
"                              @ @ @ 5 q t j x x x x s e 7 , > @ @                                                       ",
"                            @ @ 9 r i d j Z Q Q Q Y k i q 4 : $ @                                                       ",
"                            @ 8 j B A H Y ] | ......G f r 7 5 2 : @ @                                                   ",
"                      @ @ @ @ i ) =.&.*.*.:.:.*.,.*./ c i e e 9 4 > @ @                                                 ",
"                      @ : 8 t j +.w.y.y.e.w.8.3.<.<...K j u e q 4 : $ @ @                                               ",
"                    @ , w d l Q *.w.g.l.g.g.i.6.:.:.*.] m d t 0 4 , : % @                                               ",
"                  @ @ 4 i m ] *.:.w.z.c.c.c.g.6.:.:.:.+.K k i q 4 3 4 , , @ @ @                                         ",
"                  @ : 7 f K +.7.:.y.c.v.v.v.l.6.,.:.3.*.Q k s e 7 4 4 4 , ; # @                                         ",
"                @ @ 1 q f K +.3.3.y.c.v.v.v.l.6.*.:.3.*.Q x j s w 6 4 4 1 , $ @ @                                       ",
"                @ , 7 e f S ..:.:.w.z.c.c.c.g.6.:.:.:.+.Y m x f e 7 4 , 3 4 , @ @ @                                     ",
"                @ 4 e i j Z / +.:.w.d.g.g.g.i.3.:.:.+.| K m Z j t 7 4 4 4 4 4 , # @                                     ",
"                @ 9 i j c m K / *.6.w.w.w.w.8.3.3.:.| Y Z Z Z j r 7 3 1 4 7 7 7 : @                                     ",
"                + 0 a c n M C I ..:.:.:.:.:.:.*.*.*./ Z x x x f e 7 4 1 6 e e e 4 @ +                                   ",
"              @ + q f n C M M S ] | ] ] ] | ] | | | Y x j j j s t 7 4 3 q p f s e , @ @                                 ",
"              @ 4 w d n C M M J K I K K K Y K Y K I G k f i i i e 7 4 4 e k G j i 7 % @                                 ",
"            @ , 4 e s c n M M M Z Z Z G Z Z Z A A Z Z l a t e e e 0 4 0 s Q | Z s q : @                                 ",
"            @ : 7 e i j c C M C K Y I Y K Y K K I I G M f y e e e 7 7 y k ..$.K d 7 % @                                 ",
"            @ : 7 q t i j C M K ] ..| | | | | ] ..| Y M k s e e e 0 q j ! ,.#.S i , @ @                                 ",
"            @ : 7 q e t f M M K ..*.*.*.*.*.*.*.,.+.! M c j t e e e u S ,.<...C y * @ @ @ o @                           ",
"            @ , 4 7 q e a j x K | ....*.<.3.3.3.:...Y M k f t q q y j ..r.,.I g q @ @ ; ; % @ @                         ",
"            @ , 4 6 7 e y s k G Y Y Q ..:.3.3.3.$.Q G x f i e q e s Q 8.d...x y 4 @ , 4 4 1 : @ @                       ",
"        = + @ , 4 4 7 e e t j M m m Z _ *.,.*.*._ C x k a e e e t k *.d.i./ f 7 ; @ 7 e t w 6 : @                       ",
"        @ @ : 4 6 5 7 q 7 q s g g j M R | ..] Y M j g f t e i i f Q e.i.:.Z y , @ @ i k j s t 5 @                       ",
"        @ $ 4 7 q q 7 4 4 7 t i i f x K Y Y Z j s i i u e e f k K 3.f.6.Q f e + @ 7 x +.] Z j e @ @                     ",
"        @ $ 4 q e q q 7 4 7 e t t d x C N Z k i e t t e e u j Y %.y.d...k i 7 @ , t ] d.6.] Z p 4 @ @                   ",
"        @ @ , 7 q e e e e e u i i f M n M m k s i i i i i f A } 3.w.8.K s e 3 @ 7 j *.g.y.+.G s 7 $ @                   ",
"        @ O ; 4 0 e u f g f j j j k n n M m x k j j f j g k / *.6.:.] k y q , @ e Y 3.w.8...K f q % @                   ",
"        @ @ @ @ 7 q a k k k k k k c x x x x k k k k x x x G } *.+.Q k s q 4 @ @ i ] :.:.:.| G f e < @                   ",
"        + 5 4 @ @ 0 y f s a s s j j j k x f a s g m Z m m K { _ m g i q 4 , + ; t K ] | | / Z k p 5 @                   ",
"      @ 0 y i , @ 4 q e q 7 @ q i i a k k t 4 4 u x Z m C S Y c t 7 4 > ; $ @ : e f Z Y Y K C k j 8 @                   ",
"    @ , e f f 4 @ @ 4 4 @ @ @ @ q e t f j q @ @ @ j x x x x M a @ @ @ @ @ @ @ 3 7 t f m C m m M k 9 @                   ",
"    @ 1 q j k q ; @ , @ @ e 7 @ @ 7 e y i @ @ q y @ f j j j s w @ 3 q q 4 @ ; 4 0 e i j k m C k f 5 @                   ",
"@ @ 6 4 9 f k r 1 @ @ @ i c f e @ 4 w q @ @ f k d + e i s y q @ @ t k j y @ @ 7 q q e s k Z C j e @ @ @ @               ",
"@ 3 q 0 0 d j u 6 * @ @ g { K s @ @ q 3 @ s G | k @ @ e t 0 , @ 4 g ] Y f 3 @ q e e t i j M k s 7 @ ; ; @               ",
"@ 1 y i t i s t 7 @ @ @ j X.! g 4 @ 7 o @ s Y ..j , @ 5 7 5 @ + 4 j } / j 4 @ 5 e a i i d f f e @ 7 e w @ @             ",
"@ 5 f j d u e t 7 @ @ 3 f ) I j q @ @ + 4 f K Q j 3 @ @ 4 3 @ ; q f Q Y j 4 @ ; e j j f u e e 4 O t M B h @ @           ",
"@ 6 g c j e 7 q 7 @ @ 4 s x x f t 4 @ @ 7 f C M s 5 ; @ , , @ ; q s x Z j 4 @ @ q k M j e 4 4 + ; f +.:.Z 6 @ @ @ @     ",
"@ 4 i g j e 4 4 @ @ q t i s s i t 4 @ @ 7 f k f e 4 * @ , , @ : e y f k j 4 @ @ 7 j m k e 4 , @ 3 k 6.w.Y 4 @     @     ",
"@ $ 7 t i q , , @ i f f t 7 7 q e 4 @ ; 7 f k e + 4 ; @ > , @ > q e t j j 4 @ o 6 a k k u 4 @ @ 7 M 6.w.Y @ @     @ @ @ ",
"@ + ; 4 q 7 , @ @ j M j q @ @ , q 4 @ ; 7 f f , @ 1 ; @ : , @ , q 7 7 f j 4 o @ 1 e j k y 5 @ , e M +.<.B @       @ @ @ ",
"  @ @ % 4 1 ; @ @ k l p 4 X . $ 7 4 @ 4 t s y ; @ 4 ; @ ; : @ , 0 4 , s j 4 o o , e s f t 4 @ , e k K Y g @             ",
"    @ # $ ; ; @ q k g 7 @ @ @ @ 4 , @ q s i 0 @ @ , ; @ @ @ @ 4 6 , @ s j 4 o X < q i i q 3 @ , e s f s w @             ",
"      @ @ @ @ @ r j i @ @ = & @ @ ; @ t j t , @ @ , ; + @ @ , 3 4 @ @ s j 4 + * 3 e e w 5 , @ , q e e 7 @ @             ",
"          @ @ 7 y s @ @         @ @ @ i k q ; @ @ : $ O @ @ , 1 ; @ @ a j 4 @ @ + @ 5 4 , ; @ : 5 7 1 : @               ",
"            @ y p o @           @ O @ i k q @ o @ $ O O o @ , , $ @ @ s j @ @     @ % % $ O @ ; : : $ @                 ",
"            @ d d @             @ o @ y j 7 o @ @ @ @ @ + $ , , @ @ @ i g @       @ @ @ @ + @ @ @ @ @ @                 ",
"            @ g d @               @ @ r d 5 o o @       @ @ : @ @   @ t s @                 @ X @                       ",
"            @ g d @               @ @ 9 t , O O @         @ @ @     @ q r @                 @ X +                       ",
"            @ f s @                 @ 2 e , + @ @         @ @       @ 5 q @                 @ O &                       ",
"            @ p y @                 @ 2 0 : @ @           @ @       @ 2 9 @                 @ @ &                       ",
"            @ e w @                 @ 4 q @ @                       @ 5 q @                   @ &                       ",
"            @ 8 7 @                 @ 1 9 @                         @ 5 7 @                     @               @ @ @ @ ",
"            @ 1 @ @                 @ : 4 @                           @ 4 @                     @ @           * @       ",
"            @ $ @                   @ $ : @                           @ @ @                       @ @         * @       ",
"            @ @ @                   @ @ @ @                             @ @                         @ @     @ @ @       ",
"            @ @                     & @ @ @                             @ @                         @ @ @ @ @ @         "
};
