/* XPM */
static char *_b40cf35f7bf474180e3dfad8357ecbd49pmQe6wVt91AxES[] = {
/* columns rows colors chars-per-pixel */
"60 60 198 2 ",
"   c None",
".  c #161416",
"X  c #191516",
"o  c #161619",
"O  c #1A1618",
"+  c #1A1A1C",
"@  c #16191B",
"#  c #241C1D",
"$  c #2A1D1D",
"%  c #20161A",
"&  c #361E1B",
"*  c #2D221E",
"=  c #35221F",
"-  c #1F1F21",
";  c #271E20",
":  c #2B1F21",
">  c #232325",
",  c #2D2323",
"<  c #2F2A26",
"1  c #262628",
"2  c #2E2728",
"3  c #2C2A2D",
"4  c #322424",
"5  c #332926",
"6  c #32262A",
"7  c #332B2C",
"8  c #3A2D2D",
"9  c #382928",
"0  c #35302D",
"q  c #3C312E",
"w  c #2D2D32",
"e  c #342C31",
"r  c #3A2F31",
"t  c #2E3033",
"y  c #333334",
"u  c #3C3333",
"i  c #373639",
"p  c #3C3739",
"a  c #3A393B",
"s  c #3E3937",
"d  c #4C2B1D",
"f  c #4A2611",
"g  c #512719",
"h  c #51291A",
"j  c #562D17",
"k  c #5D3216",
"l  c #56301A",
"z  c #643415",
"x  c #63361A",
"c  c #653A1E",
"v  c #6D3D1B",
"b  c #713D1C",
"n  c #4C2E24",
"m  c #412D2E",
"M  c #452B26",
"N  c #552E23",
"B  c #4E3226",
"V  c #41302F",
"C  c #4D362B",
"Z  c #533121",
"A  c #5C3422",
"S  c #5E3A23",
"D  c #53352E",
"F  c #563C2E",
"G  c #423534",
"H  c #4A3734",
"J  c #453936",
"K  c #4B3934",
"L  c #423539",
"P  c #443B3B",
"I  c #4A3D3C",
"U  c #513B33",
"Y  c #5C3F33",
"T  c #533E3C",
"R  c #673C23",
"E  c #6D3F26",
"W  c #663F29",
"Q  c #693F28",
"!  c #75431B",
"~  c #7B451E",
"^  c #7F4A1E",
"/  c #45423E",
"(  c #4D413D",
")  c #5C4133",
"_  c #54413B",
"`  c #5E443A",
"'  c #6E4426",
"]  c #6B442C",
"[  c #6B472E",
"{  c #724526",
"}  c #7F4721",
"|  c #7E4821",
" . c #764629",
".. c #79492A",
"X. c #734929",
"o. c #624539",
"O. c #6C4B3B",
"+. c #674739",
"@. c #714C3E",
"#. c #75523D",
"$. c #78523E",
"%. c #453F41",
"&. c #4B3F41",
"*. c #444243",
"=. c #4C4444",
"-. c #4D4946",
";. c #4E4749",
":. c #4E4A4B",
">. c #47444B",
",. c #534443",
"<. c #544946",
"1. c #5C4A44",
"2. c #55464A",
"3. c #544C4B",
"4. c #594C4C",
"5. c #584646",
"6. c #4D504D",
"7. c #55514F",
"8. c #5D514E",
"9. c #4F4F55",
"0. c #524E54",
"q. c #5D4F51",
"w. c #594F58",
"e. c #524F58",
"r. c #4E525A",
"t. c #555253",
"y. c #5B5454",
"u. c #5C5956",
"i. c #535359",
"p. c #5B555A",
"a. c #5D595A",
"s. c #5C5B5C",
"d. c #555959",
"f. c #6B4C41",
"g. c #6A5244",
"h. c #65524A",
"j. c #6D5349",
"k. c #765341",
"l. c #765D4D",
"z. c #614F50",
"x. c #635554",
"c. c #655955",
"v. c #6A5A55",
"b. c #635659",
"n. c #605859",
"m. c #615D5E",
"M. c #635C5B",
"N. c #695D5B",
"B. c #63615E",
"V. c #6B625D",
"C. c #565961",
"Z. c #5C5B62",
"A. c #565660",
"S. c #635D62",
"D. c #6B5F65",
"F. c #5F6063",
"G. c #646261",
"H. c #6B6564",
"J. c #656965",
"K. c #6C6966",
"L. c #656669",
"P. c #6B666A",
"I. c #67686E",
"U. c #6D6B6A",
"Y. c #716665",
"T. c #736B66",
"R. c #726D6D",
"E. c #796A6B",
"W. c #72716C",
"Q. c #79716D",
"!. c #726D70",
"~. c #757372",
"^. c #7A7272",
"/. c #7A7779",
"(. c #767878",
"). c #787778",
"_. c #81471E",
"`. c #82491E",
"'. c #824721",
"]. c #814A22",
"[. c #815B3E",
"{. c #815D44",
"}. c #80776F",
"|. c #817A7A",
" X c #8E817A",
".X c #857E83",
"XX c #7F8287",
"oX c #8A8685",
"OX c #88878E",
"+X c #87898A",
"@X c #8C898D",
"#X c #838588",
"$X c #8C8D93",
"%X c #938D90",
"&X c #8F979C",
"*X c #939395",
"=X c #92949A",
"-X c #939A9C",
/* pixels */
"                                                    * , , * * 4 * , * $ ,                                               ",
"                                , , * , 5 5 * q I G =.<.q u.u.J -.y.8 y.<.5 u q 5 ,                                     ",
"                              4 4.H.( q H.<.6 N.Y.3.N.H.=.H.H.&.7.V.I B.n.,.E.H.I I =.6 4 4                             ",
"                          8 -.u T.^.n.P M.-.8 G.H.P 7.y.K y.u.H y.M.J u.<.I u.u.&.M.V.T D.4.9 4                         ",
"                    , 4 5 T./.<.( J.8.q u.d.8 a.M.J 7.u.K p.K.( M.B.J u.<.G S.H.L y.y.<.^.n.G J 8 ,                     ",
"                  4 -.M.q u.u.7.J U.u.q B.K.u t.y.G -.:.J a.I._ 3.t.J y.( P Z.y.G I.V.3.H.4.I ~.u.5 6 4                 ",
"                4 K ^.K.<.G u.u.V 7.y.q u.B.G 7.t.G -.6.G -.9.J P >.r y.P s p.=.K H.3.8.s.=.y.G.t.K v.G *               ",
"            9 6 4 q p.u.u.J 4.U.( ( <.q s 3.9 P s 6 ( 4.7 u s 9 7 u 9 *.u u &.L I y.( <.:.K H.n.( 1.1.G 5 4             ",
"            6 e 3 &.H.9.u.4.J u.=.9 P 9 , 7 , > , ; > > # $ $ % # $ ; > ; : , 4 6 q 7 -.%.K R.n.9 8.u.6 w 7 4           ",
"          4 6 w 3 0.*X/.0.u.G u u $ # # + o X o . o . . X X . . . . . . . . X O o % $ 7 6 I G.L u.*X!.e w 7 9 ,         ",
"        , 0 6 w 3 3.+X*XU.3.L # @ + . X o o o o @ @ + ; o > - + ; - @ @ @ o o X . X X X # < p J *X$X!.7 w 6 q , 4       ",
"      , <.M.7 w 3 0.R..X@Xu $ o . X X o 1                                     1 + o o . o o % Y.%XE.D.e w 7 4 P P :     ",
"      , 3.N.u 3 w 3.T U oX=.X . o o 3   1     >     1 3   1 1     >     >     >     - + @ . : .Xb.n b.e w 2 ,.E.p.6     ",
"      4 6 ( 7 3 w 3.f.f x.M.X     >     >     1 w   > 1   3 1   3 1     >     1     > w   X s ^.d S v.r w w 4.G.a.G ,   ",
"    6 5.I $ 6 y w 2.k.v D Y.7     a     a                                                   M.h.j  .c.y w 7 0.G.t.q ,   ",
"  * J K.R.y.7 w w 2.k.'.d Y./     y     t     y                   y     y     y     t     e G.U v ..c.7 w w u q , 6 6   ",
"  * / s.W.H.u w w 2.$._.h c.p y y - y i - y i - 3 i 1 1 a 1 > a 3 - i y + i y - y i - w p > b.n ! ..v.7 w < 6 P 3.y.P , ",
"  4 4 P t.y.e 3 w 3.$.`.k 1.3.    y     y     y                   y     y     y     y     p b.h ~ ..v.7 w 7 3.R.G.y.P 2 ",
"  4 6 , , 9 6 w 3 3.k.].k _ y.    a     a                               a     a     a       z.g ^ ..c.e w w ,.p.=.s 9 , ",
"  7 u.M.3.p 6 w 3 ;.@.^ x F I   y > i y > y   1 t   1 1   1 1   w >   y > y i > y   > w   7 5.g ^ { x.w w 3 , # ; ; $   ",
"6 p J.(.W.B.0 3 1 ;.@.} x D -.    1     1     1     3 3   3 3     3     1     1     1     y ,.g `. .x.7 w 1 P 3.p.x.L , ",
", u :.6.7.=.< w w ;.@.].x C y.          a                                                   5.h ].{ n.7 w 3 ;.U.).H.L 4 ",
", , 9 7 8 8 1 w 3 2.O.].x K 4.    3     t     3     3       w     3     3     3     3     s 3.h `.' n.7 w 2 u ( P P 6 4 ",
"  5 4.n.V.N.7 w w 2.#.].R ( >.  y - y i > t a > 3 a > 1 a 1 > a 3 > i w - i i - y i > 3 a 7 3.N `.X.c.7 w 7 V &.,.&.8 4 ",
"  5 3.J.U.s.0 w w 2.O.~ ' <.y.    i     i     a                         i     i     i       p.D ].{ c.7 w 3 y.oX XU.t.4 ",
"  4 u s q q 5 t w ;.x.g.` y.n.          a                               a                   S.2.g.h.n.e w 7 H 4.7.<./ * ",
"  * 5 q =.<.7 w 3 2.d.0.r.i.3.    a     a     a                   a     a     a     a     P y.w.i.i.s.e w 7 4 * 9 q 6 * ",
"  9 4.a.B.y.y t w 3.Z.n.u.r.:.    a     i     i     a       i     a     a     a     i     s 0.i.s.p.s.e w 3 ( H.U.H.4.6 ",
"  4 s =.-.s 0 w 3 :.,.B H p.y.    a     a                               a                   s.=.n D p.y w 3 =.J.J.u.-.4 ",
"  $ $ * 4 5 < w 3 :.o.z A p.S.                                                              G.F z S x.7 w 3 5 6 7 u 5 $ ",
"  9 4.u.u.x.y 3 w =.+.~ R y.                                                                M.Y ! ' 8.7 w w 8 G P P 8 4 ",
"* q d.u.B.s.0 e w =.+.} E y.                                                                G.) ~ { y.7 w 7 3.U.H.T.3.4 ",
"4 5 P *.3.3.7 3 w -.O._.E y.                                                                G.Y ^ { y.7 w 3 &.y.0.3.P , ",
"  , 6 2 6 6 4 t w -.O.'.Q y.                                                                s.Y `.' 8.r w 3 7 8 7 9 6 , ",
"  8 p.p.3.,.7 3 w -.O._.E 8.                                                                s.) | ] q.e t 3 m I =.<.9 4 ",
", L M.~.).B.7 w 3 -.h.$.f.p.                                                                s.4.k.O.y.7 w w ;.G.J.W.=., ",
", e t.s.d.>.7 w 3 ;.S.N.S.d.                                                                p.Z.M.S.s.e w 7 8 G ( 3.J , ",
", 6 r u 7 6 6 w w :.C.i.i.0.                                                                0.i.r.i.p.e w e m G u u , , ",
", 5 I 4.2.I 5 3 3 =.y.5.&.t.                                                                p.2.,.1.t.e w 3 3.H.K.~.B.5 ",
", P S.~.@XK.0 w w >.T l N y.                                                                s.K l Z q.e w 3 :.s.u.s.3.6 ",
", 7 :.d.s.:.< w 3 -.+.b E y.                                                                s.` ~ E 4.e w < u P / s 8 4 ",
"  : 7 u u 0 7 w 3 =.O.`.] b.                                                                s.+.}  .y.8 w 3 q J q q 5 4 ",
"  , 8 I 3.4.0 w 3 ;.O._.] b.                                                                p.o.}  .8.8 w 3 3.W.W.W.7.4 ",
", p u.B.J.7.< w 3 =.O._.] p.                                                                u.o.|  .8.7 w 3 =.U.(.U.u.7 ",
", u 9.9.t./ < w w ,.O._.] p.                                                                s.o._. .8.e w 3 L t.u.t.=.< ",
"4 : 6 9 r 9 < w 3 -.j.[.l.s.                                                                s.v.l.k.y.7 3 2 4 $ , 8 9 > ",
"* u q.&.<.<.7 w 3 =.P.R.I.C.                                                                e.L.!.!.p.e w 3 =.N.V.H.N.9 ",
"* =.Z.Z.B.-.7 w 3 ;.Z.i.r.9.                                                                0.9.i.s.y.e w 1 0.~.F.C.s.u ",
", q *.;.:.*.3 3 3 ;.p.y.7.p.                                                                p.w.q.y.y.7 w 3 J =.P L *.6 ",
", * 4 6 * * 3 w 7 =.5.B B y.                                                                p.&.n K y.0 w 3 5 u q 8 $ $ ",
", -.M.M.7.( 7 3 3 &.Y b W t.                                                                p.` b S 8.7 t 2 3.Q.~.P.3.6 ",
"6 y.!.~.B.7.7 w 3 =.O.'.] t.                                                                t.o._.{ 3.6 w 3 &.U.I.d.y.e ",
", r P &.s u < w 3 =.+.'.] y.                                                                y.o.~ ' 4.7 w w 9 r q u u 6 ",
", 8 L G u 7 2 w 3 =.+.[ j.D.                                                                u.N.[ ] z.6 w w 8 P I <.&.4 ",
"9 b.P.U.!.b.e w 3 &.N.^.%XOX                                                                /.=X XV.p.6 w 7 q.P.H.I.M.7 ",
"6 &.:.u.S.3.w e 3 -.~.&X&X+XG.                                                              /.=X-X#Xs.e w w P 3.6.-./ 6 ",
": , , 4 4 , , w 3 :.$X@X|.c.                                                                4.Q.oX$XP.r w 3 4 6 7 9 4 $ ",
"            3 w 3 :..XM.K                                                                     M 4./.H.7 w 3 , # $ % $   ",
"            7 w 7 G H =                                                                           m U 7 y 3             ",
"            6 6 , *                                                                                 & 6 1 <             "
};
