/* XPM */
static char *_b6081a02735429bad9cf2f29c903620EjRfBNmDIpDxp4O2[] = {
/* columns rows colors chars-per-pixel */
"60 60 215 2 ",
"   c None",
".  c #1D1717",
"X  c #231715",
"o  c #251916",
"O  c #2B1A16",
"+  c #251A19",
"@  c #2B1D1C",
"#  c #281715",
"$  c #351D1B",
"%  c #391C16",
"&  c #2C211D",
"*  c #35221E",
"=  c #38221C",
"-  c #2E1E22",
";  c #311F23",
":  c #2D2322",
">  c #2E2726",
",  c #332424",
"<  c #392322",
"1  c #342926",
"2  c #3A2A26",
"3  c #332629",
"4  c #352B2B",
"5  c #3A2D2B",
"6  c #3C312D",
"7  c #36302D",
"8  c #3B2F32",
"9  c #372A31",
"0  c #3D3333",
"q  c #3D3837",
"w  c #3E393A",
"e  c #393235",
"r  c #461E12",
"t  c #4B2212",
"y  c #43241B",
"u  c #4A2C1E",
"i  c #482418",
"p  c #542A14",
"a  c #5B2C14",
"s  c #5A2E19",
"d  c #532917",
"f  c #5D321B",
"g  c #593119",
"h  c #622F13",
"j  c #662F1D",
"k  c #643216",
"l  c #693417",
"z  c #633419",
"x  c #6B3619",
"c  c #6D3A1B",
"v  c #69391B",
"b  c #733D1C",
"n  c #783D1C",
"m  c #753B17",
"M  c #4C2D22",
"N  c #472E28",
"B  c #532E22",
"V  c #4D3126",
"C  c #42332E",
"Z  c #4D322C",
"A  c #533123",
"S  c #5B3A2B",
"D  c #573929",
"F  c #423533",
"G  c #443936",
"H  c #493936",
"J  c #423639",
"K  c #443B3B",
"L  c #4A3D3C",
"P  c #533D36",
"I  c #653A22",
"U  c #6A3D23",
"Y  c #633D2B",
"T  c #693D2D",
"R  c #713E21",
"E  c #603D31",
"W  c #75421D",
"Q  c #7B431D",
"!  c #7F491C",
"~  c #6E421D",
"^  c #46403D",
"/  c #4B413D",
"(  c #53423E",
")  c #5C4538",
"_  c #64432E",
"`  c #6D4529",
"'  c #6C4426",
"]  c #744323",
"[  c #7C4422",
"{  c #7E4922",
"}  c #72452A",
"|  c #744B2C",
" . c #7B4C2A",
".. c #7C502D",
"X. c #634332",
"o. c #684936",
"O. c #734C33",
"+. c #7B4E32",
"@. c #7B5233",
"#. c #3E3D41",
"$. c #453E42",
"%. c #4A3D42",
"&. c #513F42",
"*. c #454243",
"=. c #4C4444",
"-. c #4C4946",
";. c #4C464A",
":. c #4C4B4B",
">. c #464749",
",. c #534543",
"<. c #544945",
"1. c #594A45",
"2. c #544B4B",
"3. c #5B4D4B",
"4. c #5A4644",
"5. c #55514E",
"6. c #5C514E",
"7. c #544D51",
"8. c #5A4F51",
"9. c #545253",
"0. c #5B5454",
"q. c #5B5955",
"w. c #5B565A",
"e. c #5C5A5C",
"r. c #565759",
"t. c #4F4F50",
"y. c #62534E",
"u. c #6B574D",
"i. c #725B4D",
"p. c #625554",
"a. c #635956",
"s. c #6A5A53",
"d. c #635C5C",
"f. c #695B5B",
"g. c #665758",
"h. c #735D52",
"j. c #614D4B",
"k. c #5F605D",
"l. c #63615D",
"z. c #6B625F",
"x. c #756152",
"c. c #5C5D63",
"v. c #635E62",
"b. c #695F61",
"n. c #5F6368",
"m. c #646264",
"M. c #6B6464",
"N. c #6C6966",
"B. c #646469",
"V. c #6A666A",
"C. c #66696D",
"Z. c #6C6B6B",
"A. c #656864",
"S. c #716966",
"D. c #736D6C",
"F. c #746969",
"G. c #73706E",
"H. c #79706D",
"J. c #6C6C72",
"K. c #6D6F79",
"L. c #676B73",
"P. c #736F72",
"I. c #756D75",
"U. c #6E7275",
"Y. c #6E7279",
"T. c #737274",
"R. c #7A7475",
"E. c #75757A",
"W. c #7A767C",
"Q. c #7A7A7D",
"!. c #787979",
"~. c #82451B",
"^. c #854B1E",
"/. c #8B4C1D",
"(. c #8A511F",
"). c #93531D",
"_. c #824623",
"`. c #844B22",
"'. c #8A4E23",
"]. c #914F21",
"[. c #8D5224",
"{. c #8C532A",
"}. c #82512C",
"|. c #925324",
" X c #925629",
".X c #985826",
"XX c #825433",
"oX c #817B7C",
"OX c #7C7D83",
"+X c #767782",
"@X c #847E85",
"#X c #7D8185",
"$X c #7F838A",
"%X c #838286",
"&X c #83858B",
"*X c #85898E",
"=X c #8A8B8E",
"-X c #8A8589",
";X c #868C92",
":X c #898D93",
">X c #858A94",
",X c #918E96",
"<X c #8A9195",
"1X c #8E9399",
"2X c #869095",
"3X c #939296",
"4X c #93949A",
"5X c #969B9E",
"6X c #99999D",
"7X c #989497",
"8X c #88908F",
"9X c #9C9DA2",
"0X c #A09DA3",
"qX c #9FA3A7",
"wX c #A2A5A8",
/* pixels */
"                                        = =   , 1 & 6 0 , %.=.1 q K < G K , & , >                                       ",
"                              , H %.4 4 6.C > q.S.( M.S.=.H.G.,.q.Z.( z.M.F M.p.K , 5 , ,                               ",
"                          > > 6 !.%X,.,.N./ 6 M.l./ 0.p.L e.r.H 2.q.G 0.3.L M.k.<.3.S.L H L ,                           ",
"                        5 g.S.G z.k.<.K q.=.5 M.d.G 0.0.H 0.e.L d.N.G q.2.F q.l./ 5.l.( S.N./ & :                       ",
"                  : 4 5 K R.M.L <.T.<.G l.q.6 q.q.C 5.q.H a.T./ 0.w.F 0.2.F l.N.G 0.A.( D.q./ 5.0.4 @                   ",
"                  K D.M.6 5.q.=.L A.2.6 N.z.C 0.r.F *.*.H 0.k.( ,.0.Z q.<.F r.9.F l.N.( N.9.G S.v.K 5 2                 ",
"              > : a.N.k.^ G k.q.C 0.5.1 q.q.6 9.;.C 2.9.C *.:.J 8 $.5 2.%.5 9.-.G e.5.,.e.=.1.A.q.G M.0.5 :             ",
"            4 =.1 0 r.e.q.C q.N.F =.-.1 w =., q e , K =.3 e e , 4 e 3 K 8 5 q 0 J =.^ ( :.F g.m.,.=.N.r.6 : :           ",
"          > 5.Z.6.4 G r.r.2.K q.J 5 J : : : @ - : @ @ @ @ & + @ O @ @ @ @ + & & : 9 3 L =.C N.M.C g.V.=.* <./ &         ",
"          : 2.A.Z.5.1 ^ r.0.2 0 3 @ O O # . X # X # + # X X o X # # X + X X X # X X O : , 5 d.^ G oXq.3 L A.q.7         ",
"        1 1 4 3.l.e.<.1 =.2.1 + + . X + 3 q ,.q.v.b.M.d.e.0./ 9.d.v.b.v.d.w.;.K 1 + o + o , 0 1 <.e.w , z.!.l.5 @       ",
"      4 d.M.%., J 9.r.=.: , & # . 4 9.@X7X0X0X9X6X4X4X4X,XOX7.!.:X<X,X7X9X9X0X9X7XQ.0.4 X + + & =.-.> =.Z.l.J 3 <.4     ",
"      6 m.T.N.G @ 6 =.K & o X , v.7XwX9X1X<X;X;X;X=X=X;X;X%X7.E.:X=X:X=X,X=X<X;X<X5XqX6XM.3 X + > 1 6 d.q.6 2 b.V.G $   ",
"      - K M.A.q./ , 1 , @ X 0 -XwX5X;X;X%XE.P.S.f.p.y.F.;XOX7.W.;XR.p.p.g.M.H.!.$X*X8X1XwX=X^ X + : =.-.0 6 M.A.e.2.,   ",
"    5 K : : K 9.q.2., o X J 7X9X:X-XH.j.Z M y t r r r 3.;XOX7.W.:Xf.r r r r t y Z j.G.%X=X6X4X=.X & 7 4 G H.oXZ.e.=.1   ",
"  , 0.P.g.0 @ e 2.*., # 3 :X9X;XoX4.i t d a z x b j s 3.<X$X7.W.:Xg.p j c m k p a t = ( oX;X5X4X0 X O G d.d.q.,.F , & , ",
"  3 q.J.T.H.<.& : 3 @ o F.6X,XW.Z t h c b [ R /.|.b I 1.:XOX7.OX<Xg.B R '. XR c _.c i r M R.:X9XE.@ O w K 0 , * 2 ^ =.1 ",
"  : $.r.B.B.m.2.G & o e 3X:X%XP d x [ _.Q _.Q [.|.R v 1.:XOX7.W.:Xg.h [ |..Xn b |.`.j c a Z oX:X6XK X - 4 F ,.d.A.l.9.3 ",
"  & : 5 K >.;.7.5.1 o d.5X:Xg.t b `.[.^.^._.Q [.{.c I 3.:XOX7.W.>Xf.B [ |..Xn m ).`.k [ [ t j.;X4XN.X - =.d.V.T.N.5.K > ",
"& F L 5 : @ : 9 0 * : Q.1X-XZ p `./.[.'.'._.b |.|.x I 3.:X+X7.W.<Xf.s [ |..XR b |.`.z '.'.a M oX1X-X, - J ,.%.J 4 : & @ ",
", 2.P.D.l.0./ 2 @ + 4 *X,XD.u v {.[.'.'.].[ Q ).[.v z 3.:XOX7.W.<Xd.g [ |..Xb W |.^.z [.[.k y z.;X:XJ # & , 3 ; > 7 4 > ",
"3 7.C.Z.A.k.A.m.=.+ J ;X:Xg.g b [.|.^.^.].[ { ).[.x f j.:X#X7.+X<Xf.g [ (.|.n W |.^.z /.[.c f j.:X:X=.@ =.l.V.M.D.D.0.3 ",
", q *.;.^ ^ >.t.e o =.$X;Xj.U W '.|.~.^.|.Q { |.[.v f 3.;XOX7.Q.2Xd.g [ |.).W W |.'.k ^.{.c ' ( -X>X2.; / t.9.d.Z.N.2.: ",
"@ 2 2 5 q 6 2 1 & o ;.$X;X,.] Q [.[.Q ^.|.n [ |.[.v z j.:XOX8.OX<Xz.A Q [.[.W W .X'.l `.|.W c P *X&X7.$ > 7 7 0 5 5 4 - ",
", L v.N.D.M.f.,.@ . :.&X>XP [ R (.[.Q `.|.b _. X[.k S 3.;X#X2.E.<Xd.B Q ).|.W W .X'.h /.[.m ] L &X&X7.$ 2 5 H 8.a.p.<.1 ",
": w w.B.C.r.0.:.: . :.&X*X&.[ b [.[.W '.[.W `.|.[.k z 0.<XOX7.W.:Xd.M W |..XW W .X'.h '.[.m ~ D &X&X0.; ;.M.G.@X-XT.A.K ",
"- 9 J e 5 5 5 2 @ . ;.&X*X,.X.T ....U  . .` } }.O.S D 0.;XOX7.E.2Xc.V ' @.XX' ` '...D  .+.Y _ L $X&X9.: 6 K ^ ;.2.-.=.5 ",
"- ; 2 H 3.3.6.p.2 . ;.$X>XV.M.P.G.M.+XC.F.E.m.J.T.A.G.J.;XW.7.I.:XU.l.Z.R.M.P.E.V.R.V.N.R.N.Z.K.&X&X2.@ @ , @ & 1 4 5 $ ",
": K w.e.m.v.l.r.5 + ;.$X>XK.c.OX+Xm.>XJ.C.>XB.E.$Xc.OXE.;XQ.2.E.;XE.k.U.&Xc.OXOXn.&XY.C.;XC.K.+X$X&X7.@ q l.a.a.M.F.m.q ",
"- e *.t.>.*.*.^ , + ;.$X&Xw.2.3.3.1.3.3.1.3.1.3.8.<.2.v.;XQ.7.P.2XC.2.2.8.1.8.3.1.3.3.<.3.1.3.w.$X$X7.@ K r.r.k.Z.m.q.q ",
": - @ > , 4 4 , * o ;.#X&X=.u p f k p f z p s z s d M r.:XW.7.J.2Xk.y a z j a p f s t h k p u / $X&X5.@ 1 G 0 6 q G J 3 ",
"& q 2.,.3.g.0.=., X *.$X*X<.I l ~._.x ~.~.l b ~.n l I w.:XE.;.J.8XB.M c ~._.l c ~.~.h Q ~.c U ( $X%X2.@ , 6 1 1 , 5 , @ ",
"- ;.d.m.A.T.T.Z.G & w #X*X<.| x |. X] [.[.b ! (.`.b ` w.:XY.$.J.;Xm.M _.[..Xc Q ].|.k `..X] } ,.$X&X;.@ %.N.Z.N.N.Z.N.F ",
"- #.:.t.q.U.U.l.0 + K #X*X<.] x [.|.W |.[.c ^.(.`.m } r.:XJ.$.J.;Xm.V _.(..Xc n |.|.z (..XW } ) $X&X;.$ K k.A.k.e.e.0.F ",
": 3 4 e K K K G 1 + q Q.*X3.| c |.[.W .X|.b ^./.`.b } c.>XK.$.J.;XV.Z `./.|.c b ).[.k (..X[ } 3.&X@X=.@ 7 >.>.*.*.w e , ",
", 5 L 4 1 2 5 , @ o q +X*X1.] l |.[.c  X|.b `.(.`.R ] c.>XJ.J V.:XB.V `.[.|.c Q ).[.k `..XQ } <.OX&X%.# - - & & , , , @ ",
", 9.N.D.N.N.N.d.G O 0 Q.$X3.` v [.}.c {.'.R _.`.{ b ] c.;XJ.J V.2XC.Z `.{.`.x [ [.{.h  .{.[ } ) &X&X%.@ H 0.w.d.l.M.a., ",
", :.v.Z.N.e.r.w.J @ J #X*Xe.p.u.i.h.u.h.h.i.i.h.h.u.s.B.;XJ.e V.;XC.5.i.x.i.y.h.i.h.u.i.x.u.s.e.&X$X$.@ J e.q.0.r.Z.d.2 ",
"; K r.7.*.*.*.*.4 @ e W.*XY.B.#XOXB.>XK.J.=XV.+X>XB.OXY.:XZ.w b.>XP.C.T.*XA.OXOXk.*XE.C.;XJ.E.OX%X@X%.@ 3 5 5 2 5 e 6 , ",
"@ , 4 3 , : , > & o e !.;XC.q.Z.V.c.E.v.v.T.c.V.P.w.L.J.;XZ.0 B.:XP.e.B.E.r.J.J.w.P.B.c.E.c.B.L.$X@XK @ 2 K ( ,.,.2.K , ",
", / g.f.f.p.p.2.4 # 7 E.$X:.Z u A A M A A M A s u M C d.:XZ.8 v.:XB.C V A A u B A A u V B M M =.OX%XK @ ,.N.M.M.M.N.R.=.",
"3 7.m.OX%Xm.v.c.q o 7 Q.>X5.z a b b k m b a m m c z I e.<XZ.8 B.:XB.B c Q b a x n b a c n l z ,.%X#XK - K e.C.d.r.w.0.q ",
"> J 7.r.r.;.*.$.4 O 4 Q.*X6.U l [.'.W [.[.c [.^.[ Q | c.;XC.5 v.:XB.D `.|.[.v { |.`.x `.[.[ } 3.#XOXJ $ 5 K $.J q w q , ",
"- > 8 q 4 , , , @ o 4 +X&X6.U x [.[.] [.[.c [./.{ Q | e.;XN.2 v.:XV.D './.'.v ! |.'.l '.|.[ ] 3.#XOXq O O : 2 G 6 6 2 & ",
": , 8 L 3.f.M.a.0 o 4 E.$X0.v x [.'.W [.{.x |.'.{ Q | d.>XA.2 v.:XB.S _.'.'.x ! |.(.k ^.|.] W 6.#X#X0 O %.N.D.D.G.G.S.G ",
"> 2.d.M.B.B.T.d.G + 4 Q.*X5.I R [.'.W [.[.x |.'.`.[ | m.:XN.4 b.:XB.S `.'.'.z ~.|.[.l ^..XQ W 3.&X%X0 * =.v.c.A.R.R.A.=.",
"3 >.9.r.9.:.t.=.4 + 4 !.&X3.U R [.'.] [.[.x  X'._. .| d.>Xm.2 d.;XB.S '.[.|.c [ |.'.k /..XW ~ 1.$X#X6 & 6 -.;.r.m.r.9.K ",
"- > e q 0 7 4 4 : o 1 E.$X8.) T ..+.o.@...Y @.O.O.O.o.e.>XN., e.<Xm.P +.@.@.T O.+.+._ O.@.` _ <.#XOX6 # & & - : , 4 5 , ",
", J J 5 H j.f.w.6 O 1 !.$XZ.C.R.R.N.OXD.D.Q.Z.U.+XV.E.Y.>XC.< d.:XY.N.U.!.N.T.!.Z.OXP.C.Q.D.P.K.#XOX0 # < L &.<.3.y.p.L ",
"5 e.f.m.m.e.w.d.^ O , R.$XU.c.#X+Xn.*XP.C.-Xn.Y.$Xc.Q.!.>XA.; c.;XY.n.U.&Xc.OX%Xc.&XU.m.>Xn.K.OX$XOX0 O K N.R.Q.Z.B.V.0.",
"9 ;.r.r.9.>.>.t.q O 1 E.;Xw./ ( 4.P <.( ( ,.,.( <.P 2.v.;XM., e.;XB.,.( 4.P ,.,.( ) ( / <.,.,.0.#XOX8 O 8 7.d.v.r.>.:.,.",
": 3 4 e 0 e 7 4 > O , !.*X5.B p k j p g z p f k s a D c.;Xb.$ a.:XB.Z k z j p h l g p f k a p <.#XOX5 O - > 4 9 3 3 4 3 ",
"& 0 F 5 2 C &.K 4 o , T.-X0.U k `._.v `. .k `.~.] b } d.:XM.$ d.<Xb.S `._._.k [ /.~.c `.^.m I 1.OXOX5 # , 6 K 3.0.p.L : ",
"%.F.W.R.d.M.v.g.L O < T.-Xj.T c [.[.c [.'.l {.].[ `.O.e.>Xb.$ d.>Xv.S '.{.|.k `.].|.W [.[.[ U 1.&XOXC O J d.N.!.!.Z.A.=.",
"J r.m.d.9.9.7.r.K @ < E.*X3.T v [.'.c {._.l {.|.[ [ O.e.;XM.$ d.1Xv.S [.[.[.a `.|. XR '.{.[ U 1.@XOX5 O 9 r.t.9.r.9.9.;.",
", 5 e 0 4 4 6 4 , O < E.%X7.P D _ T S X.X.D X.X.E S ) w.=XM.$ q.2XB.H X._ _ D ) _ X.Y X.X.Y S 3.OXOX2 O , 3 3 3 , 1 1 , ",
"4 L =.L G H ,.( 2 # * T.*XC.P.Q.Q.@X&X%X-X%X%X@X+XR.N.J.;XM.% a.>XK.K.E.Q.oX-X-X%X*X%X&XOXE.T.J.$XOX9 @ 1 L 4.1.1.p.f.L ",
"=.N.N.R.P.C.m.a.F # < T.;X<X:X3X1X4X3X,X3X3X4X1X<X<X8X*X3XM.$ p.1X>X>X,X,X<X3X3X1X1X1X4X4X1X:X:X>XOX2 @ 8 m.W.U.m.n.m.,.",
"5 ;.2.0.0.2.;.=.4 # * b.I.T.T.T.P.P.G.T.T.P.J.E.U.T.T.T.T.y.% <.T.P.P.P.T.P.P.T.U.T.T.T.T.T.T.D.I.F.< @ 5 -.:.2.:.>.*.0 ",
"@ : : : : - : : & X $ < < , , , < < < < < < < < = < < * * = % = = < < < < < < < = < < , < < , < ; ; $ O , 3 > , 4 4 3 : "
};
