/* XPM */
static char *_46d53d9373d4cf0f92ff8f4919bbe7de2d1l8wCUbpuI0Xq[] = {
/* columns rows colors chars-per-pixel */
"60 60 218 2 ",
"   c None",
".  c #151314",
"X  c #1C1819",
"o  c #251916",
"O  c #261C1C",
"+  c #2A1D1C",
"@  c #261816",
"#  c #391E18",
"$  c #2C211E",
"%  c #27201F",
"&  c #35231D",
"*  c #3B241D",
"=  c #1F1F21",
"-  c #2B1E21",
";  c #271F20",
":  c #1F2022",
">  c #232224",
",  c #2D2222",
"<  c #2F2825",
"1  c #262629",
"2  c #2D2A2D",
"3  c #2B272A",
"4  c #322524",
"5  c #332926",
"6  c #392926",
"7  c #332629",
"8  c #332B2C",
"9  c #3A2D2C",
"0  c #3D2728",
"q  c #3B312E",
"w  c #37312F",
"e  c #2E2D30",
"r  c #342D31",
"t  c #3B2F30",
"y  c #2F3033",
"u  c #333234",
"i  c #3C3333",
"p  c #363639",
"a  c #3C3638",
"s  c #3B3A3C",
"d  c #3B3938",
"f  c #431E13",
"g  c #442314",
"h  c #4A2819",
"j  c #5D2E15",
"k  c #532D1C",
"l  c #562C16",
"z  c #5B3118",
"x  c #4E230F",
"c  c #612F15",
"v  c #643319",
"b  c #6C361B",
"n  c #6E3A1D",
"m  c #643315",
"M  c #733D1C",
"N  c #793E1D",
"B  c #703B17",
"V  c #442C25",
"C  c #542E21",
"Z  c #43312C",
"A  c #4C352C",
"S  c #493429",
"D  c #523325",
"F  c #52352A",
"G  c #553B2D",
"H  c #5B3D29",
"J  c #433433",
"K  c #443936",
"L  c #4A3B34",
"P  c #443B3B",
"I  c #4A3D3C",
"U  c #473636",
"Y  c #533B33",
"T  c #523D3C",
"R  c #6A3C24",
"E  c #723E22",
"W  c #74411D",
"Q  c #7C431D",
"!  c #7D481F",
"~  c #6F411E",
"^  c #4B423E",
"/  c #47423E",
"(  c #53433E",
")  c #58453B",
"_  c #6D442B",
"`  c #6B4228",
"'  c #754223",
"]  c #7C4421",
"[  c #7E4923",
"{  c #72462A",
"}  c #73492C",
"|  c #7C4B2C",
" . c #7A4728",
".. c #6D4B33",
"X. c #634B3D",
"o. c #6A4B3B",
"O. c #674432",
"+. c #724E3A",
"@. c #754B33",
"#. c #7A5339",
"$. c #7E502E",
"%. c #3D3D40",
"&. c #463E41",
"*. c #454244",
"=. c #4C4343",
"-. c #4D4946",
";. c #4B4649",
":. c #4D4A4C",
">. c #454649",
",. c #534544",
"<. c #534946",
"1. c #514748",
"2. c #534C4C",
"3. c #5A4D4B",
"4. c #5B4845",
"5. c #55514F",
"6. c #5B514E",
"7. c #4E4E51",
"8. c #544E51",
"9. c #5A4D51",
"0. c #4E5051",
"q. c #555353",
"w. c #5B5454",
"e. c #5B5956",
"r. c #5B565A",
"t. c #5C5B5B",
"y. c #565659",
"u. c #6A4E41",
"i. c #644D44",
"p. c #695348",
"a. c #71564A",
"s. c #745849",
"d. c #625555",
"f. c #625956",
"g. c #625C5C",
"h. c #6A5E5D",
"j. c #65585A",
"k. c #785F53",
"l. c #5F615D",
"z. c #64615E",
"x. c #6B625F",
"c. c #7A665A",
"v. c #5E5F63",
"b. c #635F62",
"n. c #6D5F63",
"m. c #5E6164",
"M. c #636263",
"N. c #6B6464",
"B. c #6C6A66",
"V. c #65646A",
"C. c #6A666A",
"Z. c #65696D",
"A. c #6C6A6B",
"S. c #656866",
"D. c #726965",
"F. c #726C6C",
"G. c #766865",
"H. c #73726E",
"J. c #78716E",
"K. c #6D6D72",
"L. c #6D6F78",
"P. c #656871",
"I. c #716E72",
"U. c #7B6F72",
"Y. c #6E7076",
"T. c #6F737A",
"R. c #737273",
"E. c #797474",
"W. c #74757B",
"Q. c #7A757A",
"!. c #7B7A7C",
"~. c #76797A",
"^. c #81461E",
"/. c #844A1D",
"(. c #894C1E",
"). c #814622",
"_. c #854B23",
"`. c #894D23",
"'. c #844D2A",
"]. c #8B5223",
"[. c #83512D",
"{. c #8C552D",
"}. c #915525",
"|. c #93582B",
" X c #875634",
".X c #945A31",
"XX c #837D7D",
"oX c #837675",
"OX c #87817F",
"+X c #7A7B82",
"@X c #747981",
"#X c #827F82",
"$X c #7C8189",
"%X c #7F8285",
"&X c #838284",
"*X c #83858B",
"=X c #858A8C",
"-X c #8A8B8D",
";X c #898687",
":X c #928D8C",
">X c #8A8D93",
",X c #878D96",
"<X c #8B9297",
"1X c #9B9A9D",
"2X c #969597",
"3X c #908F96",
"4X c #A29E9D",
"5X c #9C9DA2",
"6X c #949AA2",
"7X c #9EA2A6",
"8X c #A5A5A7",
"9X c #B9B5B5",
"0X c #AFB0B1",
"qX c #C1B9B9",
"wX c #C9C9C9",
"eX c #DADADB",
"rX c #DFE0E1",
"tX c #E9E9EA",
/* pixels */
"                                                    , , , $ - 4 , 4 4 - -                                               ",
"                                , , , , 5 5 $ q =.9 ,.-.q w.d.A <.w.9 w.,.6 U 6 5 $                                     ",
"                              , 2.N.&.J N.<.5 z.D.4.h.N.( B.N.^ w.h.=.z.w.,.H.z.U / / 7 5 &                             ",
"                          9 =.J F.H.r.I z.:.5 z.M.I q.y.L 6.y.K d.t.U e.1.I t.t.I h.N.I x.<.5                           ",
"                      4 5 D.oX3.,.S.6.J e.q.q t.t.K w.y.L w.S.^ x.j.J t.=.L m.N.U e.r.3.H.e.Z P 9 $                     ",
"                  , =.z.q w.t.<.U B.e.q z.B.J q.y.J ;.2.U t.B.^ 2.q.P e./ P z.q.K C.f.6.z.<.=.E.q.5 4 7                 ",
"                5 K J.B.-.J e.e.J 5.e.6 e.z.K 6.6.K :.:.J :.5.K K ;.Z y.K J d.&./ C.<.6.t.^ f.g.2.I d.q ,               ",
"              t 5 8 j.t.e.P 2.B.P ^ :.q K ^ 6 i i 6 ;.2.9 i s 5 9 i 6 =.q 6 &.t P q.I 3.-.L N.t./ d.M.2.4 ,             ",
"            i N.t.t 9 r.t.2.U t.^ 9 <.r.C.A.=.7 8 + > > + ; ; O > + + , 5 r d.F.V.q.P ^ K T R.q.q D.t.i 5 <.5           ",
"          7 J M.B.f.q Z r.g.J K t.OX3X2X3X,X8.2 7 X . . . . . . . . . + 8 e K.<X3X2X-XR.=.=.b.i w.!.;., 6.S.P $         ",
"        7 6 4 -.z.l.5.6 U 2.8.;X4X2X>X>X>X=X8.2 e &.7.3 > 1 1 = = : *.p 2 e K.>X=X-X<X5X5XF.K 9 g.q.9 K H.R.^ $ ,       ",
"      < &.N.3.5 9 0.t.5.7 1.5X6X>X;XE.x.F.=X2.2 r     q.    %.    :.9XJ.3 r K.*Xx.D.+X-X<X7XXXU :.d 6 f.A.2.5 P J       ",
"      7 1.B.H.6., 7 &.I =.1X2X#Xg.L * g 4.=X5.2 8 N.A.1 :.7.> u %.1 t.<.r r I.#XS * V T F.-X5XXX9 4 <.j.=.5 2.F.6.<     ",
"      , 5 2.S.l.5.i 4 9 &X2XF.A f x z c a.-X2.8 8     %.    2     u   z.2 r L.#X` c c x * 4.#X5Xd.Z -.P 6 w.A.M.t.9     ",
"    7 =.K $ 5 *.e.q.Z <.4XU.V x b Q _.' k.=X2.2 8     M.    %.    7.  E.2 r K.#X@.N `.M v f T ;X:X9 6 q h.XXF.z.8.u 4   ",
"    J B.H.w.q $ a ;.t !.-XL x N _.! `.M s.-X2.r u     %.    2     p   b.3 r I.#X} Q }.N `.n f j.2X2.4 6.e.5./ i , , 4   ",
"  & I t.R.I.F.P + 4 9 :XN.g W ! ].Q ].M a.=Xq.2 2 z.Z.1 p p > u s > t.-.2 8 K.#X} E |.Q ]./.z S ;XR.$ d 9 7 7 K 2.3.d , ",
"  4 4 I q.t.r.t.2.9 &.>XT j `.^.].! `.W s.=X2.2 8     y.    p     >.  R.3 8 K.#X} ] }.N `.(.] x x.&X, $ &.q.b.F.M.y.d , ",
"  & 4 $ 4 9 i P 2.r 8.&XV N ].`.`.).`.M a.=X5.2 u     q.    p     >.  H.3 r I.#X{ ^.}.N ].(.].v ) ;X8 w d.h.N.r.-.d 5   ",
"  5 6.f.=.i , , < O j.F.g ^.].(.`./.'.n a.=X5.e 2 r.g.> p p > p s > y.*.e r K.&X{ N }.N `.(.`.m A #Xi , u 7 , + O + +   ",
", q S.E.F.D.N.w.I + b.N.g _.].(.(.! _.n a.=X5.3 8     *.    e     p   z.2 r I.&X} N }.Q `.(.`.M V !./ > I 2.1.1.3.2.q   ",
"7 9 2.y.y.q.:.t.9.- A.j.h | /.(.`./.`.n a.=X2.2 2     l.    s     7.  E.3 7 K.&X} ] }.E `.(.`.W Z !.:.7 e.t.M.F.Q.n.i $ ",
"4 & 6 6 i 9 8 i 8 ; F.j.h _./.`.`.] _.n a.=X5.3 2     p     3     e   y.2 r L.+X} ).].^.]./.(.] S +X2.% K P &.-.=.I 5   ",
"  4 <.w.j.h.9.1.7 ; R.g.C `./.`.`.] `.E a.,X5.3 8 =.s > p   > p   ,   :.2 8 K.#XO.Q }.N ]./.(.Q S ~.8.@ , , J P I I 5 4 ",
"  7 2.V.K.Z.t.t.p % Y.v.C _./.(._.] _.R p.=X5.2 u     %.    s     :.  H.2 u I.#X..Q ].] `.(.`.E A W.5.5 r.N.Q.;X&XF.<., ",
"  7 a / J d i i , ; R.M.A +...+.+.u.a.p.h.=X5.2 9     p     p     *.  z.2 e F.&Xp.u.s.o.#.o.@.O.P ~.5., =.-.2.y.q.5.P & ",
"  + 4 6 ^ ,.,.3.U ; I.V.b.A.I.C.Q.P.W.P.W.=X9.e 2 5.:.: p p = y s : %.w 2 u I.$XY.Z.E.P.K.K.C.F.t.@Xq.X $ , $ 4 8 6 4 + ",
"  7 4.e.g.M.z.z.=.; I.P.V.K.K.P.W.V.R.V.P.=X8.8 5     :.    u     p   8 2 9 A.$XB.Y.W.P.K.Y.V.E.y.~.9.+ 2.j.q.h.N.N.^ & ",
"  4 P :.:.>.*.*.i ; I.n.=.Y G L A D A S 3.;X8.2 7     t.    s     s   8 2 8 K.!.L ) ) S A G Y Y -.W.8.> q.y.t.N.C.t.^ 4 ",
"  + > , 7 7 9 8 - ; I.V.S c c v j m m j i.-X:.2 8     y     1     1 p 8 2 u A.OXH R ' j v v v l I ~.r., w q 9 d I P 9 & ",
"  7 -.6.5.f.j.w.J + F.V.F N Q [ W Q ^.b i.=X2.2 2 9 u 1 u p 1 u p 1 u 8 2 u E.&X+.} {.n | '.'.n ) +Xr.8 / U i I &.=.J 9 ",
"  9 q.t.z.B.E.~.q., K.V.F `._.`.^.^.`.M u.;X:.2 8     s     s     s   8 e P Y.OX@.[..X! .X[.{. .3.+Xb.9 N.F.R.F.R.I.9.K ",
"  7 &.;.5.t.N.t.=.> K.V.F ).`.'.] /.(.N u.;X2.e 8     u     y     y   8 e P Y.!._ $..X[ |.[.(. .3.+Xd.9 r.V.V.z.e.q.:.i ",
"  $ 7 7 9 w w 9 , $ K.v.F ] _._.! /.`.N u.$X:.r 2 9 u = u p : u p : y 8 e P W.Q...| .X`. X[._.[ 4.+Xb.2 t K ;.=.i 8 d 5 ",
"  5 5.3.^ ^ <.I q % A.b.D [ )._.[ /._.E u.*X2.7 7     s     p     s   -.2 s Y.XX#.| .X|  X[._. .4.Q.t.2 i 8 U =.<./ J   ",
"4 i t.R.J.B.N.M.5., A.b.A }  .| } [  .R p.*X1.e 8 2X  s     s     %.  -.2 p H.XX+.$.$.}  X$.} _ <.~.y.5 N.F.C.A.H.oX1.  ",
"4 9 q.M.t.q.q.8.&., K.V.V.D.N.N.C.N.G.h.V.*X1.2 2 g.q.> s   > u   > s u 2 r F.%XD.N.G.N.H.A.S.D.v.W.r.2 1.1.&.=.y.r.P 9 ",
", 7 a K a u r r 7 ; I.Z.V.K.K.V.W.C.W.C.@X$X2.2 2 <.  2     2     1   5 2 r A.$XI.Z.W.Z.K.Y.Z.R.v.W.2.O < 8 6 9 9 6 ; 4 ",
", 4 J I I U I U 5 + A.m.1.,.<.3.w.9.j.r.V.*X2.2 2     %.    %.    %.  7 2 r C.+Xg.y.t.r.6.3.,.( :.K.2., r.N.N.N.B.H.3.- ",
", K f.R.:XQ.N.b.;., K.m.V l j k k l k C ,.=X:.2 8     e     2     y   9 e r V.!.S k z l l z z l I I.;., y.S.S.t.t.M.2., ",
", 9 :.t.V.y.:.:.P , K.m.G ] Q ! M N N b i.*X1.r 2 i u : p p = u p : 3 w 2 2 Z.Q.R b Q B N N Q M T L.2.+ &.:.:.*.;.*.9 & ",
"  , u d d i 5 $ ; + A.V.G _.(.`.[ `._.' u.*X1.2 2     p     s     s   e e 7 V.Q.` ] `.] '.(.`.' ,.L.;.o ; , q 6 5 7 4 6 ",
"  $ 5 q L <.d.d.I + C.m.) _._.(.] _.).] X.%X;.e 2     s     p     s   8 2 8 M.W.{ ] _.Q '.(._.E ,.I.,.- r.N.F.F.N.F.,.4 ",
"  q d.j.N.V.W.F.3., C.m.G _.(._.] _._.).X.*X=.r 2 q u = u p = u p : e 5 2 2 b.W._ Q (.Q _.^.).] ,.T.&.< t.b.b.K.!.A.2.4 ",
", i 5.q.r.8.7.:.K + Z.b.G _./.].] `.`.).u.*X=.2 2     3     e     2   5 2 2 M.Q._ [ `.)._.^.^.W T L.=.+ *.;.8.g.g.q.-.4 ",
", , 9 i J 8 r 9 , + V.b.) #. X X} '._.| o.*X&.2 2     %.    %.    %.  e e 8 b.E..._.{.| [.#.#.+.3.L.*.X > , + , 7 9 0 - ",
"4 9 &.U I 4.h.h.1.; N.Z.Z.F.F.D.D.G.c.k.h.*X-.e 2 i   3     3     3   8 e 2 g.+Xx.c.c.D.D.F.F.H.V.L./ O P 3.2.6.r.h.3.4 ",
", / g.b.M.e.q.q.q.+ N.P.Z.L.Y.K.W.P.W.K.K.*X^ 2 2 w u > p p : u s : e 8 e 3 g.$XR.B.R.K.K.W.Z.R.m.W.I + r.A.!.R.M.z.r.8 ",
"4 d ;.q.0.:.*.>.&.+ N.M.q.d.M.M.I.V.~.P.@X&XI e 2     s     s     s   8 e 2 g.$X@XZ.W.C.Z.N.j.d.y.K.^ O I 2.y.8.*.*.*.5 ",
"4 + 7 5 7 < 7 8 , O Z.v.A C k D F Y ( 3.g.*XI e 8     p     p     p   8 2 2 t.+Xw.<.( A F k l k &.K./ o - - 7 7 7 7 , + ",
"5 P q.2.^ =.d.6.I + b.M.G ).N M b b m l ,.*X&.e 2 q u : p p X u s : 2 8 3 7 g.Q.D j b b E E ^.E 4.L.&.@ I <.b.D.B.h.I 4 ",
", 6.H.!.N.t.z.t.6., b.v.H _.(.`.] `.^.' X.#XP 2 2     e     y     y   8 3 , b.Q.R Q `.^.`._.).E &.U.T + q.l.V.R.A.g.q.7 ",
", J <.-.*.P *.&.K O M.m.G ).(.`.).`.] ' X.#XP 7 r     s     s     s   8 2 < j.E.` W (.).`.).).M ,.K.I @ K &.P &.a &.K 4 ",
"4 4 9 9 9 7 9 J 9 @ n.M.6.+.{ | ' ).! Q X.&XP e e     s     %.    %.  8 e 3 e.E.' ] `.] } { _ o.r.K.I @ 7 7 0 0 Z I t + ",
"5 5.z.B.N.g.g.j.,.@ M.~.&X:X#XoXc.k.+._ 3.&XJ 2 2     p     s     p   8 e < f.E.H o.s.c.G.XX;X-X!.!.I O :.B.E.N.N.J.f.< ",
"7 -.y.M.A.v.q.q.=.@ N.>X>X<X6X5X5X2X:XoXA.&XK 7 8     p     p     s   2 e < j.+XF.#X:X1X7X1X6X<X<X-XI O =.b.M.y.q.2.*.7 ",
", 7 8 8 9 9 8 8 4 @ T h.J.XX&X;X>X>X3X>X=X;XU r 2                     8 e 7 r.,X*X,X<X>X>X;X#XoXB.d.V @ 8 t r r t r 8 - ",
"  O @ @ @ + @ @         0 Z T i.h.J.#X*X-X;XK 3 e                     9 2 7 j.3X-X&XoXF.j.4.F V 4     - - O O O O O +   ",
"                                # 6 V I 3.h.V 8 2                     9 9 < ) j.4.L V &                                 ",
"                                          # * 5                           7 & #                                         "
};
