/* XPM */
static char *_d2ff946d7834b04ec1a7b0c72d8c6ad0pe2WXaT5Ta1eiTA[] = {
/* columns rows colors chars-per-pixel */
"60 60 183 2 ",
"   c #6B4F39",
".  c #614732",
"X  c #5F4632",
"o  c #5F4531",
"O  c #644934",
"+  c #664B37",
"@  c #654A37",
"#  c #634934",
"$  c #5F4532",
"%  c #634834",
"&  c #654A35",
"*  c #684D39",
"=  c #5E4431",
"-  c #694D38",
";  c #674C36",
":  c #5E4531",
">  c #644935",
",  c #694E39",
"<  c #604632",
"1  c #644A35",
"2  c #6A4E38",
"3  c #674C38",
"4  c #654A36",
"5  c #624833",
"6  c #654B36",
"7  c #664B36",
"8  c #624733",
"9  c #6A4E3A",
"0  c #634935",
"q  c #614733",
"w  c #674B36",
"e  c #624834",
"r  c #684C36",
"t  c #674B37",
"y  c #684C37",
"u  c #614833",
"i  c #664A35",
"p  c #604733",
"a  c #664B35",
"s  c #694D37",
"d  c #624835",
"f  c #624734",
"g  c #684C38",
"h  c #644A36",
"j  c #684D37",
"k  c #6B4E39",
"l  c #6C4F3A",
"z  c #6A4E39",
"x  c #674C37",
"c  c #664A36",
"v  c #684D38",
"b  c #6C503C",
"n  c #654936",
"m  c #72543E",
"M  c #6D503A",
"N  c #6E513C",
"B  c #6A4F3A",
"V  c #6E513B",
"C  c #694E38",
"Z  c #6E523C",
"A  c #6C4F3B",
"S  c #70523D",
"D  c #6F523C",
"F  c #6B503A",
"G  c #6D523E",
"H  c #6B4F3A",
"J  c #6D513B",
"K  c #6E533E",
"L  c #6C513C",
"P  c #72553F",
"I  c #6F543F",
"U  c #684E3A",
"Y  c #6B503C",
"T  c #71533E",
"R  c #6D523D",
"E  c #674D39",
"W  c #634835",
"Q  c #6C503B",
"!  c #71543D",
"~  c #6D503B",
"^  c #694F3A",
"/  c #6C513D",
"(  c #674B38",
")  c #694D39",
"_  c #674D38",
"`  c #644B37",
"'  c #664C37",
"]  c #664C38",
"[  c #664D39",
"{  c #654B37",
"}  c #654C38",
"|  c #644C38",
" . c #694E3A",
".. c #664C39",
"X. c #664D3A",
"o. c #6A4F3B",
"O. c #6D513C",
"+. c #614834",
"@. c #644A37",
"#. c #634936",
"$. c #5F4633",
"%. c #664B38",
"&. c #604734",
"*. c #654B38",
"=. c #6B503B",
"-. c #614734",
";. c #6E523D",
":. c #5F4631",
">. c #604633",
",. c #6B4F3B",
"<. c #6E513D",
"1. c #6F523D",
"2. c #5D4531",
"3. c #5E4532",
"4. c #624934",
"5. c #624935",
"6. c #5D4431",
"7. c #5E4632",
"8. c #5C4431",
"9. c #614935",
"0. c #6A4D38",
"q. c #614835",
"w. c #644B36",
"e. c #624A36",
"r. c #634A36",
"t. c #59412F",
"y. c #5D4432",
"u. c #5E4633",
"i. c #5A4230",
"p. c #5B4330",
"a. c #5A422F",
"s. c #5C4432",
"d. c #5E4533",
"f. c #604834",
"g. c #5B4331",
"h. c #684E39",
"j. c #614633",
"k. c #654A34",
"l. c #644936",
"z. c #6A4D39",
"x. c #70533D",
"c. c #71533D",
"v. c #6C503A",
"b. c #71543E",
"n. c #6F533D",
"m. c #6F513B",
"M. c #6A503B",
"N. c #6C4F39",
"B. c #694F3B",
"V. c #604835",
"C. c #6B513C",
"Z. c #644B38",
"A. c #634A35",
"S. c #634A37",
"D. c #725540",
"F. c #745641",
"G. c #71543F",
"H. c #70533E",
"J. c #634933",
"K. c #624936",
"L. c #5D4532",
"P. c #5F4734",
"I. c #654C37",
"U. c #58412F",
"Y. c #604735",
"T. c #59422F",
"R. c #624836",
"E. c #5C4331",
"W. c #684F3B",
"Q. c #604732",
"!. c #664D38",
"~. c #694C37",
"^. c #674B35",
"/. c #694C38",
"(. c #6A503C",
"). c #72553E",
"_. c #654C39",
"`. c #6B503D",
"'. c #614632",
"]. c #604631",
"[. c #6A4F3C",
"{. c #5F4733",
"}. c white",
/* pixels */
"  . X o O + @ o   # o $ % & * = - ; : $ . > , < 1 2 < X $ > 3 4 <   5 $ $ O 6 * = 2 7 : $ 8 > 9 $ 7 2 X X X > * 0 q   5 ",
"w q e O r t + 0 O # q O ; y 4 4 u i p % a s 4 + q a q e & s t + d 1 e f > r g + h 5 & p # a - @ + q 7 p % & s + + e & q ",
"0 > >   j > - - > 4 f k - 7 7 k h 4 q y 2 y > l + h 0 &   - > z g h 4 e   - 7 x z h @ q - 2 x > l 4 4 % c   v > k x h 7 ",
"b n - m M v N e B g 4 m V C Z 0 3 A e S D   F v 0 G > H m J , K e L 3 + P V , I 0 U Y % T D H R E h G W Q ! ~ ^ R e / ( ",
"* + & ) 6 h _ ` * g > v ' h ] ` [ z > w * h { ] } B + & , 4 ` E |  .g > - + h E } U 9 > x * h ] ..X.o.4 c , h ` E |  .3 ",
"> > B { O.' * +.d e B @.O.x * #.+.e g ] B , _ 3 $.0 > 9 %.Q E  .&.W % H @.O.3 ^ 0 e e - *.=.* U ] p 0 4 , 3 A E , &.0 q ",
"< + 7 - b -.% e o & x c ;.W e % :.5 g > N %.-.% >.< t 4 z ,.-.% f o 4 t t <.d e e o % g > 1.@ f % < < x 4 H 9 -.% q :.c ",
"1 2.X W $ & z > h : X e >.5 z 4 1 p 3.q e X - x 0 0 : < W 3.7 9 > h 2.X e $ % H 1 6 X $ q -.< z x > 4.: >.W : w z 0 1 : ",
"5.% % > & 2 4 6.&.+.O W > 2 t X 7.+.> e 0 s y e 8.9.# e > 7 0.& 6.q.e % 0 1 2 7 3.$.+.> % 0 - y f 8.9.O e > w - > 8.q.u ",
"w.7 p q 7 +.5.{ 5.x q q 4 d +.{ 5.' # >.# h &.` #.w.& >.8 7 &.e.{ #.; q q c e q.] 5.' % >.> h &.} 0 { & >.e 7 &.r.` r.; ",
"8.q 3 c v ] { h 7.X + + x v h %.p 3.> g c ) h 3 e 3.u g 4 v ' ] h 3.>.x + x _ { + p 7.1 x 7 * h 3 e 3.e g 4 ) { ] 0 3.< ",
"t.-.e % 5.5.$ y.t.3.d % e r.3.u.i.p.W e e h X $.p.a.-.e % r.q.X s.t.$.d % 5.r.3.d.a.8.W e e *.3.$.i.i.e e % @.f.$.g.t.X ",
"3 f >.0 - h % $ g # $ 0 t + > = x 4 X e > v h $ O x q p > 9 h e < g % X 0 v ' > = g & X W 4 h.h $ & + q -.> B h -.j.3 # ",
"2 5 e e & x + p j & q e k.w 3 p 7 j q e O i v e # 2 5 e % i v @ q s O 5 e k.x 3 p ; ; q e O 7 ) f > 2 q e % i * h q s # ",
"5 < q i s 4 t + q q X & r x l.- p e $ % w - W z.e 5 X q a s 4 y 4 q q < & j t 4 g p e $ O ; - W z +.e X 8 a - l.g h q q ",
"9 t v x.  7 ~ t ) ) 4 c.v.x H - 3 H > N V - y l t Y c z x.  + N t o.* + b.v.x O.g * ,.> n.J - , l t Y 4 H x.  x N + o.) ",
", 4 w D z _ B &., 3 > m.H _ M.q.] 9 e N.J - ^ ` r.=.l.y D 9 h.B.V.o.3 & D H _ C.q.U B e M ~ ) M.` Z.b 0 - D z h. .q.,.3 ",
"g l.x h 4 r.* { + 4 x l.+ A._ 3 ` t 7 @ { 1 { h.r.v h x @.4 ` ^ Z.3 4 x h { h U [ *.+ + h + 1 [  .S.g 4 + @ h ` ^ ` 3 0 ",
"< c z , D.+ 4 q < > z + F.g 7 e < q ) + G.Q + > < < t ) B G.] 4 >.< > z 3 F.3 + -.< 8 z + D.H ' 0 < < x v b H.] 4 >.< > ",
"J.e -.4 e $ 4 e 5 e e > h 3.> W q 5 d f + $ f h p 5 e -.7 -.X 4 f 5 e e > > 3.4 e q e d e + 3.e h p 5 d -.+ >.< 4 -.5 0 ",
"r.: 8 W 8 N.k # h 2.5 % q 0.l 1 h 7.q e f a M x 0 K.:.8 W e N.z # ` 2.5 W q 2 l > w.7.8 e -.w M t 0 9.X q % % M z # r.6.",
"r.7 < e 4 0 p L.P.7 q q & 1 p $.L.6 # >.O 7 -.p 8.r.& X % c % p L.f.7 >.8 & > p u.L.+ % >.> 4 -.p 8.h & X % 7 e p L.q.7 ",
"+.# 7 > , h ] _ 5.0 4 & v { ` h.h 0 1 7 7 v r.h.+ 5.O 7 > , h E 3 5.# 6 1 - { I., 0 0 1 4 + _ h  .6 5.O 7 1 , h E 3 5.# ",
"U.p h W e h d Y.T.3.h 0 f { -.K.p.p.0 > f 4 d #.L.a.-.h % 0 h d P.T.X h 0 e { +.R.p.E.> > f { +.#.y.a.e h % 0 r.5.$.T.3.",
"$.f -.c v 5.$ 6.$.-.-.4 + { $ 6.>.>.-.> 4 h.X : 3.>.f e c B.q.$ 6.$.-.-.4 * *.$ 6.>.>.-.> + W.X 6.$ >.f e c B.+.3.6.$.-.",
"  q X < & + @ <   O $ >.O 4 v : - x $ >.8 & ) >.& z q >.j.c 3 4 <   % X >.& + * : 2 7 $ p % 4  .X 7 2 < >.q c v 0 q   % ",
"w q e O r t + 0 O # q O ; y 4 4 u i p % a s 4 + q a q e & s t + d 1 e f O r g + h 5 & p # a - @ + q a p % & s + + e & q ",
"0 > >   j > - - > 4 f k - 7 7 k h 4 q y 2 y > l + h 0 &   - > z g h 4 e   - 7 x z h @ q - 2 x > l 4 4 % c   v > k x h 7 ",
"b n - m M v N e B g 4 m V C Z 0 3 A e S D   F v 0 G > H m J , K e L 3 + P V , I 0 U Y % T D H R E h G W Q ! ~ ^ R e / ( ",
"* + & ) 6 h _ ` * g > v ' h ] ` [ z > w * h { ] } B + & , 4 ` E |  .g > - + h E } U 9 > x * h ] ..X.o.4 c , h ` E |  .3 ",
"> > B { O.' * +.d e B @.O.x * #.+.e g ] B , _ 3 $.0 > 9 %.Q E  .&.W % H @.O.3 ^ 0 e e - *.=.* U ] p 0 4 , 3 A E , &.0 q ",
"< + 7 - b -.% e o & x c ;.W e % :.5 g > N %.-.% >.< t 4 z ,.-.% f o 4 t t <.d e e o % g > 1.@ f % < < x 4 H 9 -.% q :.c ",
"1 2.X W $ & z > h : X e >.5 z 4 1 p 3.q e X - x 0 0 : < W 3.7 9 > h 2.X e $ % H 1 6 X $ q -.< z x > 4.: >.W : w z 0 1 : ",
"5.% % > & 2 4 6.&.+.O W > 2 t X 7.+.> e 0 s y e 8.9.# e > 7 0.& 6.q.e % 0 1 2 7 3.$.+.> % 0 - y f 8.9.O e > w - > 8.q.u ",
"w.7 p q 7 +.5.{ 5.x q q 4 d +.{ 5.' # >.# h &.` #.w.& >.8 7 &.e.{ #.; q q c e q.] 5.' % >.> h &.} 0 { & >.e 7 &.r.` r.; ",
"8.q 3 c v ] { h 7.X + + x v h %.p 3.> g c ) h 3 e 3.u g 4 v ' ] h 3.>.x + x _ { + p 7.1 x 7 * h 3 e 3.e g 4 ) { ] 0 3.< ",
"t.-.e % 5.5.$ y.t.3.d % e r.3.u.i.p.W e e h X $.p.a.-.e % r.q.X s.t.$.d % 5.r.3.d.a.8.W e e *.3.$.i.i.e e % @.f.$.g.t.X ",
"3 f >.0 - h % $ g # $ 0 t + > = x 4 X e > v h $ O x q p > 9 h e < g % X 0 v ' > = g & X W 4 h.h $ & + q -.> B h -.j.3 # ",
"2 5 e e & x + p j & q e k.w 3 p 7 j q e O i v e # 2 5 e % i v @ q s O 5 e k.x 3 p ; ; q e O 7 ) f > 2 q e % i * h q s # ",
"5 < q i s 4 t + q q X & r x l.- p e $ % w - W z.e 5 X q a s 4 y 4 q q < & j t 4 g p e $ O ; - W z +.e X 8 a - l.g h q q ",
"9 t v x.  7 ~ t ) ) 4 c.v.x H - 3 H > N V - y l t Y c z x.  + N t o.* + b.v.x O.g * ,.> n.J - , l t Y 4 H x.  x N + o.) ",
", 4 w D z _ B &., 3 > m.H _ M.q.] 9 e N.J - ^ ` r.=.l.y D 9 h.B.V.o.3 & D H _ C.q.U B e M ~ ) M.` Z.b 0 - D z h. .q.,.3 ",
"g l.x h 4 r.* { + 4 x l.+ A._ 3 ` t 7 @ { 1 { h.r.v h x @.4 ` ^ Z.3 4 x h { h U [ *.+ + h + 1 [  .S.g 4 + @ h ` ^ ` 3 0 ",
"< c z , D.+ 4 q < > z + F.g 7 e < q ) + G.Q + > < < t ) B G.] 4 >.< > z 3 F.3 + -.< 8 z + D.H ' 0 < < x v b H.] 4 >.< > ",
"J.e -.4 e $ 4 e 5 e e > h 3.> W q 5 d f + $ f h p 5 e -.7 -.X 4 f 5 e e > > 3.4 e q e d e + 3.e h p 5 d -.+ >.< 4 -.5 0 ",
"r.: 8 W 8 N.k # h 2.5 % q 0.l 1 h 7.q e f a M x 0 K.:.8 W e N.z # ` 2.5 W q 2 l > w.7.8 e -.w M t 0 9.X q % % M z # r.6.",
"r.7 < e 4 0 p L.P.7 q q & 1 p $.L.6 # >.O 7 -.p 8.r.& X % c % p L.f.7 >.8 & > p u.L.+ % >.> 4 -.p 8.h & X % 7 e p L.q.7 ",
"+.# 7 > , h ] _ 5.0 4 & v { ` h.h 0 1 7 7 v r.h.+ 5.O 7 > , h E 3 5.# 6 1 - { I., 0 0 1 4 + _ h  .6 5.O 7 1 , h E 3 5.# ",
"U.p h W e h d Y.T.3.h > f { -.K.p.p.0 > f 4 d #.L.a.-.h % 0 h d P.T.X h 0 e { +.R.p.E.> > f { +.#.y.a.e h % 0 r.5.$.T.3.",
"$.-.-.4 v 5.$ 6.$.q -.4 x { $ 6.>.>.-.0 c h.X : 3.>.-.-.4 B.q.$ 6.$.-.-.4 * { $ 6.>.>.-.> + B.X 6.$ >.-.e 4 o.+.3.6.$.e ",
"z q < q i x 4 <   # X >.& 7 g o C ; X >.% 4 ) < & 2 Q.>.q 7 v h q   % X q & + 3 o 2 7 $ q # 7  .X 7 C < >.q 7 * 0 8 2 !.",
"a p e k.~.t + 0 # e q O r y 4 4 q & < % a s 4 t p & Q.e & s + t d O u 8 O r g + h 5 > >.# ^.- 4 t p & < % & s + t e O } ",
"h > & N.- > z /.h 4 e N.- c x z 4 + f - 2 x > l + { > 7 N.- > k g @ 4 0 l - 4 v z 4 + f z z x 4 l + { % x   v > H x 4 (.",
"b > , m M v O.-.,.3 4 m J C Z d 3 ,.e x.D   =.3 #.R W H b.~ ^ R +./ + t ).J , I e  .,.% b.D H R ] { R e Q c.Q B L +./ (.",
") + 4 * h h _ ` * 3 1 g + r.] *.E , > 7 v 0 { ] } B @ 4 * h ` E _. .3 & v { h E _.U  .> t 3 h ] [ X.B 4 c * h ` E }  .`.",
"W > B %.N ' v &.e e H @.;.x v 0 +.e - ] Q , v + $.% 4 9 3 O.E h.p e % H @.1.3  .d e f , { O.)  .{ p % 7 , * Q E * >.e _.",
"'.+ 4 ) 9 q % e :.4 + 7 O.+.e % :.% 3 > O.@ q % < < t h 9  .q % f ].c + t b -.e e o % 3 > N l.q W < . t > H * q % q ].[.",
"0 6.< W $ 7 z > h 6.X e X O   4 6 X $ q -.< 2 x 1 5.2.< % $ x 9 > h 6.X % $ & H 1 6 7.X q q q k x 1 +.: >.e $ y z > A.e.",
"5.# e > 7 - > 8.&.4.% W & - c 3.7.+.> e > s x q 8.5.O e > w - > 8.q.# % 0 & - 4 : u.4.> % > - t q 8.5.O f > ; j 0 8.q.[ ",
"{ w < q & $.5.] r.j q < > &.f.] 5._ # < % 0 {.{ h { 7 < q 1 $.r.] r.x >.< 1 p q.E 5.v e < % e {.] r.' & < q 1 $.S.%.h L "
};
