/* XPM */
static char *result[] = {
/* columns rows colors chars-per-pixel */
"60 60 226 2 ",
"   c #040404",
".  c #0D0504",
"X  c #0D0A05",
"o  c #0C0C0C",
"O  c #07090A",
"+  c #110403",
"@  c #120D05",
"#  c #130F08",
"$  c #191509",
"%  c #180E16",
"&  c #0F1010",
"*  c #0D101A",
"=  c #151516",
"-  c #1C1511",
";  c #1A1A1C",
":  c #19161B",
">  c #0E0E18",
",  c #250502",
"<  c #3A0A05",
"1  c #271A05",
"2  c #351909",
"3  c #281D19",
"4  c #2F2104",
"5  c #332304",
"6  c #3C2403",
"7  c #31230B",
"8  c #3B2A0A",
"9  c #2C221D",
"0  c #282416",
"q  c #352C1B",
"w  c #382B17",
"e  c #3F3312",
"r  c #151523",
"t  c #161826",
"y  c #1B1C2C",
"u  c #191826",
"i  c #1E1E30",
"p  c #0F1421",
"a  c #201E29",
"s  c #232324",
"d  c #2C2523",
"f  c #2A2B2B",
"g  c #2A2728",
"h  c #322C2C",
"j  c #3B3326",
"k  c #222235",
"l  c #393838",
"z  c #332E32",
"x  c #440300",
"c  c #4A0500",
"v  c #480A04",
"b  c #520300",
"n  c #5C0300",
"m  c #580B05",
"M  c #4A1501",
"N  c #45120E",
"B  c #471701",
"V  c #531C09",
"C  c #581702",
"Z  c #4B1715",
"A  c #620300",
"S  c #6D0200",
"D  c #620508",
"F  c #730200",
"G  c #7D0000",
"H  c #710901",
"J  c #691706",
"K  c #791D09",
"L  c #442702",
"P  c #452A03",
"I  c #4B2C02",
"U  c #442B0A",
"Y  c #4A2F0A",
"T  c #562708",
"R  c #4C3202",
"E  c #45300C",
"W  c #4C320A",
"Q  c #533404",
"!  c #5B3602",
"~  c #5B3901",
"^  c #53350A",
"/  c #573B0D",
"(  c #5B3C0D",
")  c #5A350A",
"_  c #4D3613",
"`  c #44331B",
"'  c #473415",
"]  c #553B14",
"[  c #5E3E10",
"{  c #583B18",
"}  c #492A13",
"|  c #722208",
" . c #633C03",
".. c #663A05",
"X. c #6C3D15",
"o. c #643B13",
"O. c #6E2C13",
"+. c #4C3C23",
"@. c #44392C",
"#. c #49342B",
"$. c #523E22",
"%. c #453C37",
"&. c #502422",
"*. c #6A2D29",
"=. c #5B421A",
"-. c #5B451B",
";. c #5F4105",
":. c #654204",
">. c #6B4404",
",. c #6C470A",
"<. c #6B480B",
"1. c #734C06",
"2. c #734C0C",
"3. c #744B06",
"4. c #7A5206",
"5. c #7B5309",
"6. c #634314",
"7. c #6C4B14",
"8. c #6D4B19",
"9. c #694518",
"0. c #724D1A",
"q. c #754916",
"w. c #73511B",
"e. c #7B521D",
"r. c #7B5718",
"t. c #594629",
"y. c #4C4132",
"u. c #43413D",
"i. c #4A4439",
"p. c #4E493F",
"a. c #554936",
"s. c #5F503B",
"d. c #624827",
"f. c #7B5622",
"g. c #7D5A22",
"h. c #7C5F2B",
"j. c #755725",
"k. c #67553A",
"l. c #755E38",
"z. c #7C622D",
"x. c #434343",
"c. c #4B4942",
"v. c #4B4B4C",
"b. c #494646",
"n. c #524D44",
"m. c #544F4A",
"M. c #565048",
"N. c #4E4F51",
"B. c #525353",
"V. c #5B5C5C",
"C. c #5B5957",
"Z. c #665945",
"A. c #625E5C",
"S. c #625B53",
"D. c #795757",
"F. c #736247",
"G. c #6E635C",
"H. c #5E5F61",
"J. c #5E6060",
"K. c #646464",
"L. c #6B6C6C",
"P. c #696866",
"I. c #6E6F70",
"U. c #747474",
"Y. c #7A7976",
"T. c #7B7B7B",
"R. c #77787A",
"E. c #736E6C",
"W. c #820100",
"Q. c #8B0301",
"!. c #830C0F",
"~. c #920000",
"^. c #9A0803",
"/. c #861707",
"(. c #A00803",
"). c #883611",
"_. c #903012",
"`. c #8A2D27",
"'. c #80590E",
"]. c #825C16",
"[. c #855F1D",
"{. c #8B4F1E",
"}. c #835E25",
"|. c #815622",
" X c #9C4B29",
".X c #856125",
"XX c #84632A",
"oX c #8A652A",
"OX c #8D6A2D",
"+X c #8E6A25",
"@X c #916E2E",
"#X c #916B24",
"$X c #8D6E32",
"%X c #856635",
"&X c #926D31",
"*X c #957335",
"=X c #997534",
"-X c #9A773A",
";X c #9C7B3B",
":X c #977638",
">X c #A07C3E",
",X c #826A47",
"<X c #9A7A43",
"1X c #A27F42",
"2X c #837B7C",
"3X c #A38243",
"4X c #AA8649",
"5X c #AC894C",
"6X c #B18D4D",
"7X c #B28E53",
"8X c #B69155",
"9X c #BB965B",
"0X c #BF9B62",
"qX c #C19D65",
"wX c #C5A26D",
"eX c #CDA974",
"rX c #7A8081",
"tX c #838383",
"yX c #8B8B8C",
"uX c #878888",
"iX c #8F8F90",
"pX c #949494",
"aX c #9E9E9E",
"sX c #A4A4A4",
"dX c #AAAAAA",
"fX c None",
/* pixels */
"fXfXfXfXfXfXfXfXfXfXfXfXfXfXfXfXfXfXfXfXfXfXfXfXfXfXfXfXfXfXfXfXfXfXfXfXfXdXdXfXfXfXfXfXfXfXfXfXfXfXfXfXfXfXfXfXfXfXfXfX",
"fXfXfXfXfXfXfXfXfXfXfXfXfXfXfXfXfXfXfXfXfXfXfXfXfXfXfXfXfXfXfXfXfXfXfXfXfXsXsXfXfXfXfXfXfXfXfXfXfXfXfXfXfXfXfXfXfXfXfXfX",
"fXfXfXfXfXfXfXfXfXfXfXfXfXfXfXfXfXfXfXfXfXfXfXfXfXfXfXfXfXfXfXfXfXfXfXfXfXyXyXfXfXfXfXfXfXfXfXfXfXfXfXfXfXfXfXfXfXfXfXfX",
"fXfXfXfXfXfXfXfXfXfXfXfXfXfXfXfXfXfXfXfXfXfXfXfXfXfXfXfXfXfXfXfXfXfXfXfXfXR.R.U.fXfXfXfXfXfXfXfXfXfXfXfXfXfXfXfXfXfXfXfX",
"fXfXfXfXfXfXfXfXfXfXfXfXfXfXfXfXfXfXfXfXfXfXfXfXfXfXfXfXfXfXfXfXfXfXfXfXfXK.K.U.T.fXfXfXfXfXfXfXfXfXfXfXfXfXfXfXfXfXfXfX",
"fXfXfXfXfXfXfXfXfXfXfXfXfXfXfXfXfXfXfXfXfXfXfXfXfXfXfXfXfXfXfXfXfXfXfXfXfXV.J.L.Y.fXfXfXfXfXfXfXfXfXfXfXfXfXfXfXfXfXfXfX",
"fXfXfXfXfXfXfXfXfXfXfXfXfXfXfXfXfXfXfXfXfXfXfXfXfXfXfXfXfXfXfXfXfXfXfXfXfXV.V.K.P.fXfXfXfXfXfXfXfXfXfXfXfXfXfXfXfXfXfXfX",
"fXfXfXfXfXfXfXfXfXfXfXfXfXfXfXfXfXfXfXfXfXfXfXfXfXfXfXfXfXfXfXfXfXfXfXfXfXV.C.V.V.V.fXfXfXfXfXfXfXfXfXfXfXfXfXfXfXfXfXfX",
"fXfXfXfXfXfXfXfXfXfXfXfXfXfXfXfXfXfXfXfXfXfXfXfXfXfXfXfXfXfXfXfXfXfXfXfXfXb.v.B.C.N.u.fXfXfXfXfXfXfXfXfXfXfXfXfXfXfXfXfX",
"fXfXfXfXfXfXfXfXfXfXfXfXfXfXfXfXfXfXfXfXfXfXfXfXfXfXfXfXfXfXfXfXfXfXfXfXfXb.b.C.V.v.x.l fXfXfXfXfXfXfXfXfXfXfXfXfXfXfXfX",
"fXfXfXfXfXfXfXfXfXfXfXfXfXfXfXfXfXfXfXfXfXfXfXfXfXfXfXfXfXfXfXfXfXfXfXfXfXK.K.R.R.V.x.j 5 fXfXfXfXfXfXfXfXfXfXfXfXfXfXfX",
"fXfXfXfXfXfXfXfXfXfXfXfXfXfXfXfXfXfXfXfXfXfXfXfXfXfXfXfXfXfXfXfXfXfXfXfXfXR.T.yXuXK.u.q 5 fXfXfXfXfXfXfXfXfXfXfXfXfXfXfX",
"fXfXfXfXfXfXfXfXfXfXfXfXfXfXfXfXfXfXfXfXfXfXfXfXfXfXfXfXfXfX6.W 6 L U j N.I.rXpXpXP.l q 5 1 fXfXfXfXfXfXfXfXfXfXfXfXfXfX",
"fXfXfXfXfXfXfXfXfXfXfXfXfXfXfXfXfXfXfXfXfXfXfXfXfXfXfXfXfX9.[ W 6 P ' @.c.K.T.yXuXK.u.j 5 fXfXfXfXfXfXfXfXfXfXfXfXfXfXfX",
"fXfXfXfXfXfXfXfXfXfXfXfXfXfXfXfXfXfXfXfXfXfXW 7.w.8.fXP P ^ ^ P P I ^ @.u.M.Z.G.K.V.v.@.fXfXfXfXfXfXfXfXfXfXfXfXfXfXfXfX",
"fXfXfXfXfXfXfXfXfXfXfXfXfXfXfXfXfXfXfXfXfX6 W 6.8.8.=.Y U Y W W W ^ { %.i.$.{ y.b.B.V.V.fXfXfXfXfXfXfXfXfXfXfXfXfXfXfXfX",
"fXfXfXfXfXfXfXfXfXfXfXfXfXfXfXfXfXfXfXfX6 P W / ( ( ] +.%.s.s.s.k.k.Z.m.n.d.8.a.v.J.L.fXfXfXfXfXfXfXfXfXfXfXfXfXfXfXfXfX",
"fXfXfXfXfXfXfXfXfXfXfXfXfXfXfXwX7XOX6.U L I P Y I R { M.K.E.Y.Y.Y.T.U.K.C.l.z.F.A.L.R.fXfXfXfXfXfXfXfXfXfXfXfXfXfXfXfXfX",
"fXfXfXfXfXfXfXfXfXfXfXfXfXfXwXqX7X-Xj.Y B C C m } t.Z.P.R.yXpXpXpXpXiXY.P.F.F.Z.K.U.T.fXfXfXfXfXfXfXfXfXfXfXfXfXfXfXfXfX",
"fXfXfXfXfXfXfXfXfXfXfXfXfXfX8X7X8X5Xz.^ C H F D *.G.R.R.uXaXsXdXsXdXaXyXY.G.S.fXfXT.T.rXfXfXfXfXfXfXfXfXfXfXfXfXfXfXfXfX",
"fXfXfXfXfXfXfXfXfXfXfXfXfXfX1X1X5X4X$X8.| Q.!.*.D.2XyXuXyXaXsXsXdXsXaXpXrXU.P.J.fXuXiXpXfXfXfXfXfXfXfXfXfXfXfXfXfXfXfXfX",
"fXfXfXfXfXfXfXfXfXfXfXfXfXfXOXOX:X;X*X}.).^.`.,XY.yXpXiXpXpXaXpXpXpXpXpXyXtXY.K.K.uXsXfXfXfXfXfXfXfXfXfXfXfXfXfXfXfXfXfX",
"fXfXfXfXfXfXfXfXfXfXfXfXfXfXw.w.g.z.}.g.)./.`.E.T.yXiXpXpXpXpXpXpXpXiXiXyXuXT.I.E.uXdXfXfXfXfXfXfXfXfXfXfXfXfXfXfXfXfXfX",
"fXfXfXfXfXfXfXfXfXfXfXfXfXfX[ [ [ 6.6.o.....d.S.L.T.uXiXpXpXpXpXpXpXiXuXrXT.T.T.Y.rXfXfXfXfXfXfXfXfXfXfXfXfXfXfXfXfXfXfX",
"fXfXfXfXfXfXfXfXfXfXfXfXfXfXfX/ ^ ^ R ^ Q :.-.n.V.L.T.uXyXyXiXyXyXyXyXtXT.Y.I.L.P.fXfXfXfXfXfXfXfXfXfXfXfXfXfXfXfXfXfXfX",
"fXfXfXfXfXfXfXfXfXfXfXfXfXfXfXfXfXfX6 6 Q <.8.i.v.V.L.T.rXtXrX7XtXtXrXT.Y.L.J.N.v.fXfXfXfXfXfXfXfXfXfXfXfXfXfXfXfXfXfXfX",
"fXfXfXfXfXfXfXfXfXfXfXfXfXfXfXfXfXfXfX1 R >.7.t.i.m.J.L.R.R.I.R.U.U.U.U.I.J.N.u.@.fXfXfXfXfXfXfXfXfXfXfXfXfXfXfXfXfXfXfX",
"fXfXfXfXfXfXfXfXfXfXfXfXfXfXfXfXfXfXfXfXQ :.>.7.t.i.v.J.H.K.H.H.J.K.K.K.J.N.u.{ / fXfXfXfXfXfXfXfXfXfXfXfXfXfXfXfXfXfXfX",
"fXfXfXfXfXfXfXfXfXfXfXfXfXfXfXfXfXfXfXfX&Xr.2.:./ +.%.n.N.v.c.c.c.c.c.n.c.y.+.[  ...fXfXfXfXfXfXfXfXfXfXfXfXfXfXfXfXfXfX",
"fXfXfXfXfXfXfXfXfXfXfXfXfXfXfXfXfX8XqXeX0X3Xj.e 5 ^ / _ j q w 0 0 0 0 0 ' _ / ,.3.>...fXfXfXfXfXfXfXfXfXfXfXfXfXfXfXfXfX",
"fXfXfXfXfXfXfXfXfXfXfXfXfXfXfXfXfX5X9X0X9X5Xz.' E  .:.Q R P 6 1 # $ $ 1 1 U Q  .>.>. .fXfXfXfXfXfXfXfXfXfXfXfXfXfXfXfXfX",
"fXfXfXfXfXfXfXfXfXfXfXfXfXfXfXfXfX3X4X5X;X#X.Xz.z.g.q.~ ~ >./ 0 ; : u u 3 3 0 8 R :.1.fXfXfXfXfXfXfXfXfXfXfXfXfXfXfXfXfX",
"fXfXfXfXfXfXfXfXfXfXfXfXfXfXfXfXfX-X*Xz.r.2.r.@X@X.Xr.:.:.<.] d y y i i y y : - 4 ^ 4.fXfXfXfXfXfXfXfXfXfXfXfXfXfXfXfXfX",
"fXfXfXfXfXfXfXfXfXfXfXfXfXfXfXfXfXfXt.e e Q <.r.].5.,.1.<.` d u r t i k k y t = $ 7 fXfXfXfXfXfXfXfXfXfXfXfXfXfXfXfXfXfX",
"fXfXfXfXfXfXfXfXfXfXfXfXfXfXfXfXfXfX4 4 5 R :.1.>. .>.4.8.@.z j g a y k k k y r * fXfXfXfXfXfXfXfXfXfXfXfXfXfXfXfXfXfXfX",
"fXfXfXfXfXfXfXfXfXfXfXfXfXfXfXfXfX! ~ ~ ;.>.>.>.....:.r.oX%XF.,XZ.f r r y k k y t fXfXfXfXfXfXfXfXfXfXfXfXfXfXfXfXfXfXfX",
"fXfXfXfXfXfXfXfXfXfXfXfXfXfXfXfXfX .1.4.5.3.>.~ !  .<..X:X4X8X8X<X%.s r r i k k y fXfXfXfXfXfXfXfXfXfXfXfXfXfXfXfXfXfXfX",
"fXfXfXfXfXfXfXfXfXfXfXfXfXfXfXfXfX1.3.'.4.3.~ P Q 7..X@X1X6X8X5X1X%Xt.d r t y y y fXfXfXfXfXfXfXfXfXfXfXfXfXfXfXfXfXfXfX",
"fXfXfXfXfXfXfXfXfXfXfXfXfXfXfXfX4.5.4.4.3.! P 5 W e.OX-X3X5X5X3X;X;X%X@.; * r t y fXfXfXfXfXfXfXfXfXfXfXfXfXfXfXfXfXfXfX",
"fXfXfXfXfXfXfXfXfXfXfXfXfXfXfX5.5.4.1.>.~ P 5 3 @.j.@X;X1X3X3X1X;X=XoX=.7 - * r t fXfXfXfXfXfXfXfXfXfXfXfXfXfXfXfXfXfXfX",
"fXfXfXfXfXfXfXfXfXfXfXfXfXfX].'.'.'.3...I 2 3 d @.j.OX:X;X;X;X;X:X$Xg.o.B 1 % % : fXfXfXfXfXfXfXfXfXfXfXfXfXfXfXfXfXfXfX",
"fXfXfXfXfXfXfXfXfXfXfXfXfXwX-X[.+X=X{.K A M &.d.k.j.}.OX*X;X:X*XOX}.q.) M < < N m D F fXfXfXfXfXfXfXfXfXfXfXfXfXfXfXfXfX",
"fXfXfXfXfXfXfXfXfXfXfXfXeXqX4X&X-X4X X/.S n O.OX@Xg.g..XOX:X:X@X}.f.X.V v c n S F G W.fXfXfXfXfXfXfXfXfXfXfXfXfXfXfXfXfX",
"fXfXfXfXfXfXfXfXfXfXfXfXqXqX7X1X1X<X X^.G A O.@X@X}.r..XOX:X;X*XOX|.X.V c b A F W.Q.~.fXfXfXfXfXfXfXfXfXfXfXfXfXfXfXfXfX",
"fXfXfXfXfXfXfXfXfXfXfXfX8X7X7X5X<XoX_.(.W.S O.{.oX.XoXoXOX-X;X1X*X}.X.V x b A S G ~.^.fXfXfXfXfXfXfXfXfXfXfXfXfXfXfXfXfX",
"fXfXfXfXfXfXfXfXfXfXfXfX1X1X4X4X&Xe._.(.~.F J e.}.oXOXOX:X-X3X4X<Xf.) M x b n F G W.W.fXfXfXfXfXfXfXfXfXfXfXfXfXfXfXfXfX",
"fXfXfXfXfXfXfXfXfXfXfXfXoXoX&X:Xh.o.K ^.~.G K q.f..XOX:X-X;X1X5X;X8.I v c b A S G S D fXfXfXfXfXfXfXfXfXfXfXfXfXfXfXfXfX",
"fXfXfXfXfXfXfXfXfXfXfXfX8.0.f.g.-.U J Q.Q.G J X.0.e.oX*X=X=X:X-XoXo.M v b n S S A A fXfXfXfXfXfXfXfXfXfXfXfXfXfXfXfXfXfX",
"fXfXfXfXfXfXfXfXfXfXfXfX( [ ( / 8 1 v H F n C ) o.d.g..XoXoXXX|.X.V c b n F F n c x fXfXfXfXfXfXfXfXfXfXfXfXfXfXfXfXfXfX",
"fXfXfXfXfXfXfXfXfXfXfXfXfX^ 8 2 $ @ , x x < < 2 8 U } _ ] t.{ { T m c n A A A < , + fXfXfXfXfXfXfXfXfXfXfXfXfXfXfXfXfXfX",
"fXfXfXfXfXfXfXfXfXfXfXfXfXfX# X X   . . . . + X X X # # = 0 d Z v n n n n b x , .     fXfXfXfXfXfXfXfXfXfXfXfXfXfXfXfXfX",
"fXfXfXfXfXfXfXfXfXfXfXfXfXfX                        O ; g l %.#.&.Z N N N < 2 % & o   fXfXfXfXfXfXfXfXfXfXfXfXfXfXfXfXfX",
"fXfXfXfXfXfXfXfXfXfXfXfXfXfX                        = l v.V.H.A.m.z d 9 d 9 d 3 ; &   fXfXfXfXfXfXfXfXfXfXfXfXfXfXfXfXfX",
"fXfXfXfXfXfXfXfXfXfXfXfXfXfXfX        O             = l B.V.V.H.B.l s s a u = ; ; o   fXfXfXfXfXfXfXfXfXfXfXfXfXfXfXfXfX",
"fXfXfXfXfXfXfXfXfXfXfXfXfXfXfXfXO                   = z x.x.x.b.l z s s s = o O O X   fXfXfXfXfXfXfXfXfXfXfXfXfXfXfXfXfX",
"fXfXfXfXfXfXfXfXfXfXfXfXfXfXfXfXfX                  = s f f g g s s ; = = O           fXfXfXfXfXfXfXfXfXfXfXfXfXfXfXfXfX",
"fXfXfXfXfXfXfXfXfXfXfXfXfXfXfXfXfXfXfXfX            X o & o & X o o o O O X         fXfXfXfXfXfXfXfXfXfXfXfXfXfXfXfXfXfX",
"fXfXfXfXfXfXfXfXfXfXfXfXfXfXfXfXfXfXfXfXfX                                        fXfXfXfXfXfXfXfXfXfXfXfXfXfXfXfXfXfXfX",
"fXfXfXfXfXfXfXfXfXfXfXfXfXfXfXfXfXfXfXfXfXfXfXfXfX                              fXfXfXfXfXfXfXfXfXfXfXfXfXfXfXfXfXfXfXfX",
"fXfXfXfXfXfXfXfXfXfXfXfXfXfXfXfXfXfXfXfXfXfXfXfXfX                            fXfXfXfXfXfXfXfXfXfXfXfXfXfXfXfXfXfXfXfXfX"
};
