/* XPM */
static char *result[] = {
/* columns rows colors chars-per-pixel */
"60 60 239 2 ",
"   c #040404",
".  c #090504",
"X  c #0C0903",
"o  c #0B0B0B",
"O  c #050708",
"+  c #140403",
"@  c #1B0403",
"#  c #130D03",
"$  c #190C09",
"%  c #151103",
"&  c #1C1502",
"*  c #16130A",
"=  c #1D150C",
"-  c #1E1805",
";  c #0C0C15",
":  c #0D0E1B",
">  c #120F13",
",  c #131313",
"<  c #1A1511",
"1  c #14141C",
"2  c #1B1B1B",
"3  c #181819",
"4  c #0F1117",
"5  c #2B0402",
"6  c #260702",
"7  c #320401",
"8  c #3C0402",
"9  c #3A0C04",
"0  c #221502",
"q  c #241A01",
"w  c #2C1D01",
"e  c #281909",
"r  c #3B1200",
"t  c #321E00",
"y  c #351600",
"u  c #251A17",
"i  c #341917",
"p  c #2E2102",
"a  c #2C230B",
"s  c #332201",
"d  c #3B2501",
"f  c #3E2903",
"g  c #33250A",
"h  c #3B280A",
"j  c #262111",
"k  c #2D2417",
"l  c #342913",
"z  c #3D2D13",
"x  c #352818",
"c  c #3F3316",
"v  c #191925",
"b  c #1D1D2C",
"n  c #151624",
"m  c #1C1E34",
"M  c #1F2038",
"N  c #242323",
"B  c #2B262A",
"V  c #2A2927",
"C  c #342B28",
"Z  c #3A352D",
"A  c #393328",
"S  c #232234",
"D  c #24253A",
"F  c #28283B",
"G  c #333434",
"H  c #393936",
"J  c #3D3C3B",
"K  c #393434",
"L  c #2F3030",
"P  c #450400",
"I  c #4C0400",
"U  c #480B05",
"Y  c #530400",
"T  c #5C0300",
"R  c #550B00",
"E  c #5D0B01",
"W  c #461802",
"Q  c #591904",
"!  c #591A16",
"~  c #4F1C19",
"^  c #630300",
"/  c #6C0100",
"(  c #630B01",
")  c #6D0C02",
"_  c #730100",
"`  c #7B0100",
"'  c #720B01",
"]  c #7A0D06",
"[  c #661707",
"{  c #771705",
"}  c #442A01",
"|  c #4C2D01",
" . c #432C0A",
".. c #452701",
"X. c #572804",
"o. c #4D3102",
"O. c #4B320B",
"+. c #453106",
"@. c #543202",
"#. c #593601",
"$. c #5B3903",
"%. c #53360C",
"&. c #54380C",
"*. c #593A09",
"=. c #423113",
"-. c #4A3916",
";. c #4A351A",
":. c #593B11",
">. c #462E15",
",. c #622300",
"<. c #67280A",
"1. c #7A2F07",
"2. c #633C01",
"3. c #65390B",
"4. c #653712",
"5. c #783517",
"6. c #742B0F",
"7. c #543E22",
"8. c #433C34",
"9. c #4A3F3A",
"0. c #492E2B",
"q. c #5F410A",
"w. c #5D4112",
"e. c #5C451D",
"r. c #644205",
"t. c #6B4404",
"y. c #6D4905",
"u. c #63420C",
"i. c #734B06",
"p. c #704704",
"a. c #634313",
"s. c #6C4913",
"d. c #6D4C1C",
"f. c #674617",
"g. c #75491A",
"h. c #755219",
"j. c #775107",
"k. c #5B4728",
"l. c #48423C",
"z. c #554933",
"x. c #675126",
"c. c #745422",
"v. c #7B5622",
"b. c #7B5B25",
"n. c #795B2B",
"m. c #685535",
"M. c #785E33",
"N. c #6E4F31",
"B. c #7A6237",
"V. c #464646",
"C. c #4A4B4B",
"Z. c #494846",
"A. c #534E44",
"S. c #554A47",
"D. c #5B5141",
"F. c #55524E",
"G. c #545454",
"H. c #565759",
"J. c #5B5C5C",
"K. c #5B5955",
"L. c #4F5051",
"P. c #625D5A",
"I. c #694E44",
"U. c #67635C",
"Y. c #7A6850",
"T. c #626263",
"R. c #6C6C6C",
"E. c #666667",
"W. c #716E68",
"Q. c #6E6F71",
"!. c #6F7072",
"~. c #737373",
"^. c #7C7C7C",
"/. c #777165",
"(. c #830000",
"). c #8C0000",
"_. c #860D05",
"`. c #940000",
"'. c #9A0000",
"]. c #970C06",
"[. c #991708",
"{. c #A30000",
"}. c #A41008",
"|. c #992A18",
" X c #863718",
".X c #99391A",
"XX c #A23D1E",
"oX c #893022",
"OX c #8C4A1F",
"+X c #845825",
"@X c #964C2D",
"#X c #A55F37",
"$X c #84632C",
"%X c #8B652C",
"&X c #8C692D",
"*X c #846126",
"=X c #8B6A33",
"-X c #856736",
";X c #966934",
":X c #947335",
">X c #93713B",
",X c #9B763B",
"<X c #9B7B3C",
"1X c #987635",
"2X c #92632D",
"3X c #A07C3D",
"4X c #9D7B41",
"5X c #967744",
"6X c #8C734E",
"7X c #A17E41",
"8X c #AD7B4E",
"9X c #AE724D",
"0X c #9C813E",
"qX c #A48244",
"wX c #A58249",
"eX c #A9864A",
"rX c #AE8A4D",
"tX c #A98545",
"yX c #B18D4F",
"uX c #AB8953",
"iX c #B18D51",
"pX c #B6895A",
"aX c #B49154",
"sX c #B4915B",
"dX c #BA955C",
"fX c #B99663",
"gX c #C29D62",
"hX c #C7A36A",
"jX c #CEAA74",
"kX c #7F7F80",
"lX c #858585",
"zX c #8C8C8C",
"xX c #878788",
"cX c #939393",
"vX c #9B9B9B",
"bX c #969798",
"nX c #908F90",
"mX c #A3A3A3",
"MX c None",
/* pixels */
"MXMXMXMXMXMXMXMXMXMXMXMXMXMXMXMXMXMXMXMXMXMXMXJ.E.Q.kXkXkXQ.T.J.MXMXMXMXMXMXMXMXMXMXMXMXMXMXMXMXMXMXMXMXMXMXMXMXMXMXMXMX",
"MXMXMXMXMXMXMXMXMXMXMXMXMXMXMXMXMXMXMXMXMXMXE.E.T.kXkXkXkXQ.E.T.T.MXMXMXMXMXMXMXMXMXMXMXMXMXMXMXMXMXMXMXMXMXMXMXMXMXMXMX",
"MXMXMXMXMXMXMXMXMXMXMXMXMXMXMXMXMXMXMXMXMXMXT.J.Q.kXlXxXlXkXQ.R.E.MXMXMXMXMXMXMXMXMXMXMXMXMXMXMXMXMXMXMXMXMXMXMXMXMXMXMX",
"MXMXMXMXMXMXMXMXMXMXMXMXMXMXMXMXMXMXMXMXH.J.E.kXkXxXnXnXnXxXkX~.E.T.T.MXMXMXMXMXMXMXMXMXMXMXMXMXMXMXMXMXMXMXMXMXMXMXMXMX",
"MXMXMXMXMXMXMXMXMXMXMXMXMXMXMXMXMXMXMXMXH.T.E.kXxXnXbXvXbXbXzX^.E.J.H.MXMXMXMXMXMXMXMXMXMXMXMXMXMXMXMXMXMXMXMXMXMXMXMXMX",
"MXMXMXMXMXMXMXMXMXMXMXp p p MXMXMXMXH V.G.T.kXxXnXcXbXvXmXvXcXxXkXJ.H.V.J MXMXMXMXMXMXMXMXMXMXMXMXMXMXMXMXMXMXMXMXMXMXMX",
"MXMXMXMXMXMXMXMXMXMXs p s s s MXMXMXJ V.L.T.^.zXbXcXvXvXmXmXvXzXkXJ.G.V.J MXMXMXMXMXMXMXMXMXMXMXMXMXMXMXMXMXMXMXMXMXMXMX",
"MXMXMXMXMXMXMXMXMXZ x l x x l MXMXMXC.G.J.R.uXnXvXvXvXmXmXmXvXcXuXR.J.L.C.C.MXMXMXMXMXMXMXMXMXMXMXMXMXMXMXMXMXMXMXMXMXMX",
"MXMXMXMXMXMXMXMX9.J H K F G H MXMXMXG.J.R.~.lXcXvXmXmXmXvXbXbXcXlX~.R.J.H.MXMXMXMXMXMXMXMXMXMXMXMXMXMXMXMXMXMXMXMXMXMXMX",
"MXMXMXMXMXMXMXZ.V.V.C.C.C.C.C.MXMXA.K.T.Q.^.lXzXbXmXmXmXbXcXcXzXlX^.Q.T.K.C.MXMXMXMXMXMXMXMXMXMXMXMXMXMXMXMXMXMXMXMXMXMX",
"MXMXMXMX~.E.J.G.L.K.T.Q.kXE.U.8.l Z C.H.T.!.^.lXcXvXmXvXbXbXzXlX^.!.T.G.C.8.l u B D m b 8.M.MXMXMXMXMXMXMXMXMXMXMXMXMXMX",
"MXMXMX^.~.E.J.G.H.E.^.zXzXuX/.8.g c J Z.G.T.Q.^.lXnXcXbXcXnXzX6XQ.T.G.C.H c g a B D m b 8.B.<XMXMXMXMXMXMXMXMXMXMXMXMXMX",
"MXMX~.~.R.E.J.G.K.E.lXnXbXnX/.k.h g C H V.H.T.Q.^.lXzXcXzXxXkXQ.T.G.V.H C g g g B F M S 8.-X4XtXMXMXMXMXMXMXMXMXMXMXMXMX",
"^.^.!.E.E.J.K.G.C.H.~.xXnXlX/.k. .p j V H C.H.T.~.kXlXxXxXkXQ.T.H.C.H V j g ..z C F D D 9.6XeXtX4XMXMXMXMXMXMXMXMXMXMXMX",
"^.~.R.T.J.J.J.C.Z.K.E.~.^.~.U.k.| s - j C J A.K.U.R.~.~.~.R.T.H.C.l.A j q s ..>.C F D D S.6XyXrXwX<XMXMXMXMXMXMXMXMXMXMX",
"^.^.R.U.J.H.H.D.z.D.P.U.E.T.D.-.f s p s c k.k.m.m.A.Z.A.D.D.D.m.k.7.c s t d ..z C D D D l.6XiXyXwXqX1XMXMXMXMXMXMXMXMXMX",
"MXMXMXMXMXMXMXn.n.M.D.C.C.Z.l.z s d | | %.*.s.h.w.=.j l c c e.h.s.*.%.| } d d l B D m S 9.6XiXdXyXqX:X$XMXMXMXMXMXMXMXMX",
"MXMXMXMXMXMXMX1X&XB.z.H H 8.A l s O.w.q.#.#.r.y.r.+.g z w.w.y.y.r.#.#.q.q.O.g u N D m b 8.B.wXiXrXqX1X&X&XMXMXMXMXMXMXMX",
"MXMXMXMXMXMX3XqX7X=Xk.;.;.;.=.e a e.$Xb.-.d | $.u.f.x.B.-XB.s.q.} d &.b.-Xk.u 2 b b m b 0.N.;X3XtXqX1X1X1X<XMXMXMXMXMXMX",
"MXMXMXMXMX<X0XeXuX>Xd.O.O.&. .q a x.5X-X-.q t @.u.*X0XsXgXeXh.+.p q -.-X5Xm.N 1 v b b b C 7.c.%X1X<X<X<X<X<X<XMXMXMXMXMX",
"MXMXMXMXMXqXtXiXaX4Xc.%.X.%...q p e.=Xn.=.q w | s.:XuXhXjXgX5Xd. .a z n.-Xk.k 3 v b v v N ;.f.+X%X=X1X1X,X<X0X0XMXMXMXMX",
"MXMXMXMXMXrXiXaXaX4Xb.a.*.O.d q q z s.u. .w d #.h.<XsXhXjXhXaX-Xe.h d u.s.-.= , n b n 1 u  .:.s.c.$X%X:X1X,X0X0X0XMXMXMX",
"MXMXMXMXMXyXiXiXuX,Xb.a.&.o.d q - d #.@.} d | #.s.=XwXuXsXsXuX5Xx.+...@.#.d q * 3 v n : 0  .X.3.s.h.h.+X2X;X,X#X;X2XMXMX",
"MXMXMXMXqXeXeXtX7X=Xd.&.O.} s q - s o.@.| | | @.*.e.x.m.m.B.B.n.a.o.| @.| s - * 3 v : ; = t o.$.3.5.5. X.XXXXXXXXX|._.MX",
"MXMXMX<X<X<X<X,X&Xv.:. .} } f q & s | @.#.#.@.|  .g a a a l O.&.#.#.#.@.| t & * 1 n : ; < d o.@.@.X.{ ] ].].}.}.}.].` ` ",
"MXMXMX1X1X:X:X$Xc.a.O.d  .| h e - w d | @.@.@.o.+.d p p p p +.#.$.2.#.@.} t & * > : : ; < d o.o...Q ( _ (.`.'.`.).` _ _ ",
"MXMXMX&X&X%Xv.d.e.%.} ..| %. .u 3 < q s d ..| @.$.$.#.o.| o.$.t.t.2.#.| d w & % > 4 ; ; > e MXs w r Y / ` (.(.` _ / ^ / ",
"MXMXMX&X+Xh.d.3.X.| O.O.%.&.>.C B 2 - 0 q s } #.r.y.i.r.$.2.y.j.t.$.| d w 0 & % > > 4 > , MXMXMX& 0 U ^ ] ] ] ) ( E ^ T ",
"MXMXMX>X2Xg.<.! Q 4.v.M.d.:.:.m.D.H < % & q s | $.2.p.2.2.2.p.p.r.o.d p & - * o o ; * e e MXMXMX% 6 P [ oX@X@X5.<.<.Q Q ",
"MXMXMXrX;X5.[ ^ ) oX9X8X-Xf.N.6X6XI.j o % q w s | 2.2.2.2.2.2.2.@.d s q & * o ; ; ; e h } MXMXMXMXMXMXMX9XpX9X#X+X4.4.X.",
"MXMXMXrX#X6./ / (.|.9XsX5Xc.-XpXsXY.V * & q q w d @.2.2.2.2.$.@.} p q q q - < < = u t X.@.MXMXMXMXMXMXMXMXfXsX5X&Xv.d.f.",
"MXMXMX4X@X6._ ` `.|.#X8X4X>X7XdXsXB.=.w s s s s d @.2.t.p.r.@.d p q q p s g s g  .O.X.Q Q MXMXMXMXMXMXMXMXwXwXwX4X:X%X$X",
"MXMXMX%XOX{ (.).'.[.OX2X<XeXaXaXwX$X%.| | | d s ..o.$.p.j.y.+.s q & w d | | | #.2.2.,.( E MXMXMXMXMXMXMXMX=X,XeXrX7X<X>X",
"MXMXMX+Xg.{ ] ).{.[. Xv.1XeXrXrX5X+X<.[ X.Q W W W | #.t.j.r.+.s 0 y r Q ,.,.,.,.1. X[ ( Y 7 MXMXMXMXMXMX<X3X7XuXiXtX,X1X",
"MXMXMXh.5.<./ (.{.].5.g.%X0XqX<X2X X{ ) ( E R R W r | q.j.r.o.t r U Y ( ' ' ' { { { ' T P 6   MXMXMXMXMXfXdXdXdXyX3X:X&X",
"MXMXMXg.4.[ ^ (.]._.6.4.c.=X:X&X+X5.] ^ Y Y Y I U t s #.y.r.+.y r T ^ _ ` ` ` ` (.` _ T 8 @     MXMXMXMXMXjXhXfXyX3X&X*X",
"MXMXf.f.4.[ ^ ` ).] Q  .w.h.b.h.d.4.! U 8 7 7 7 5 q p +.r.$.d w U Y ^ / _ _ ` (.).)._ Y 8 @       MXMXMXMXMXMXgXyX,X&X+X",
"MXMXMX4.X.E T _ ` ^ r q z w.a.w.:.>.i u $ + . . + # q | $.o.t 0 9 R T ^ ^ / _ ).`.`._ Y 5 +         MXMXMXMXMXMXMXMXMXMX",
"MXMXMX4.X.W I Y T I 6 & e h  . .h l 2 4 o       X % q d | } q % 7 Y Y Y T / (.`.{.'._ Y 5 +         MXMXMXMXMXMXMXMXMXMX",
"MXMXMXMX~ 6 6 6 5 6 + X # & - q = * o ; O       X & p s d s & # 6 P Y I Y _ ).{.{.'.` I 5 +                 MXMXMXMXMXMX",
"MXMXMXMXMX. . O               . .               # 0 w s w q # X @ 8 8 P I _ `.{.{.'._ Y 5 + .                 MXMXMXMXMX",
"MXMXMXMX                                        X % & 0 & # . O + 6 7 8 I _ ).'.'.)._ Y 8 +               .   MXMXMXMXMX",
"MXMXMX                                          . . X X X X     . + 6 7 I ^ ` ).).` _ T 8 @                   MXMXMXMXMX",
"MXMXMX        O                                   .                 + 5 I ^ / ` ` ` / ^ P @                   MXMXMXMXMX",
"MXMXMX                                                              + 5 I Y ^ _ ` _ _ ^ P @ .               O MXMXMXMXMX",
"MXMXMX                            .                                 + 7 P Y T / _ ` / T 8 @     O     .       MXMXMXMXMX",
"MXMXMX                                        .                     + 7 P Y ^ / ` ` / Y 8 @                 MXMXMXMXMXMX",
"MXMXMX                                                              @ 5 I T _ ` ` _ / I 7 +               MXMXMXMXMXMXMX",
"MXMXMX                    O                                         @ 5 I ^ _ ` ` _ ^ I 7 $ O           MXMXMXMXMXMXMXMX",
"MXMXMXMX                  .       .               .           .     + 7 I T / / / / T P 7 $ > o       MXMXMXMXMXMXMXMXMX",
"MXMXMXMXMXMXMXMXMXMX    .                                           + 7 U Y T ^ ^ ^ Y I 9 i n 4 O   MXMXMXMXMXMXMXMXMXMX",
"MXMXMXMXMXMXMXMXMXMX                                                + 6 U U U R ! ! ! ! 0.C B 3 X   MXMXMXMXMXMXMXMXMXMX",
"MXMXMXMXMXMXMXMXMXMXMXMXMXMXMXMXMXMXMXMXMXMX    .                   X u i i i 0.9.I.I.S.S.V.J N O   MXMXMXMXMXMXMXMXMXMX",
"MXMXMXMXMXMXMXMXMXMXMXMXMXMXMXMXMXMXMXMXMXMXMX  . O                 o 3 b N N K L.T.P.P.K.G.V.N o   MXMXMXMXMXMXMXMXMXMX",
"MXMXMXMXMXMXMXMXMXMXMXMXMXMXMXMXMXMXMXMXMXMXMX                      o , 3 2 N G L.J.J.J.H.G.V.N o   MXMXMXMXMXMXMXMXMXMX",
"MXMXMXMXMXMXMXMXMXMXMXMXMXMXMXMXMXMXMXMXMXMXMXMXMXMXMXMXMXMXMXMX      o o 1 N L J V.C.V.V.V.J N O   MXMXMXMXMXMXMXMXMXMX",
"MXMXMXMXMXMXMXMXMXMXMXMXMXMXMXMXMXMXMXMXMXMXMXMXMXMXMXMXMXMXMXMXMX        , 2 V L G G G G G L 2 X   MXMXMXMXMXMXMXMXMXMX",
"MXMXMXMXMXMXMXMXMXMXMXMXMXMXMXMXMXMXMXMXMXMXMXMXMXMXMXMXMXMXMXMXMXMXMXMXo o , , , 2 2 2 2 2 2 , MXMXMXMXMXMXMXMXMXMXMXMX",
"MXMXMXMXMXMXMXMXMXMXMXMXMXMXMXMXMXMXMXMXMXMXMXMXMXMXMXMXMXMXMXMXMXMXMXMXMX. O   O O O X O o o X MXMXMXMXMXMXMXMXMXMXMXMX",
"MXMXMXMXMXMXMXMXMXMXMXMXMXMXMXMXMXMXMXMXMXMXMXMXMXMXMXMXMXMXMXMXMXMXMXMXMXMX                  MXMXMXMXMXMXMXMXMXMXMXMXMX"
};
