/* XPM */
static char *result[] = {
/* columns rows colors chars-per-pixel */
"60 60 240 2 ",
"   c #040404",
".  c #0B0505",
"X  c #0C0A04",
"o  c #0B0B0B",
"O  c #060807",
"+  c #150403",
"@  c #1A0403",
"#  c #120D02",
"$  c #120E0B",
"%  c #1D0D09",
"&  c #151204",
"*  c #1B1403",
"=  c #1F1904",
"-  c #15120C",
";  c #1A150B",
":  c #0D0E15",
">  c #131414",
",  c #1A1512",
"<  c #1B1B1C",
"1  c #171619",
"2  c #0D1010",
"3  c #2D0401",
"4  c #270701",
"5  c #320401",
"6  c #3C0401",
"7  c #370B03",
"8  c #211400",
"9  c #2B1401",
"0  c #241A02",
"q  c #2D1E00",
"w  c #271C0A",
"e  c #321D00",
"r  c #391604",
"t  c #261B16",
"y  c #351B1A",
"u  c #2E2103",
"i  c #2B220C",
"p  c #332202",
"a  c #3C2601",
"s  c #3D2903",
"d  c #33250A",
"f  c #3B2B0B",
"g  c #352A0C",
"h  c #2B2517",
"j  c #342B1A",
"k  c #3A2B1B",
"l  c #372916",
"z  c #3F3012",
"x  c #1B1B2B",
"c  c #171824",
"v  c #1C1E32",
"b  c #0F1120",
"n  c #211E26",
"m  c #1C2021",
"M  c #252324",
"N  c gray17",
"B  c #28262A",
"V  c #3A2B26",
"C  c #33322C",
"Z  c #3A3228",
"A  c #232334",
"S  c #2A2733",
"D  c #2D2933",
"F  c #24253A",
"G  c #312C34",
"H  c #333434",
"J  c #3D3A34",
"K  c #3C3C3C",
"L  c #373339",
"P  c #450400",
"I  c #4C0400",
"U  c #480B04",
"Y  c #530400",
"T  c #5B0400",
"R  c #540C01",
"E  c #580E00",
"W  c #491602",
"Q  c #5A1101",
"!  c #531903",
"~  c #591917",
"^  c #4E1A17",
"/  c #640300",
"(  c #6D0100",
")  c #670C03",
"_  c #730100",
"`  c #7A0000",
"'  c #750902",
"]  c #621403",
"[  c #681D04",
"{  c #6E1813",
"}  c #422401",
"|  c #442B02",
" . c #4B2D01",
".. c #442C09",
"X. c #4A2B07",
"o. c #522D02",
"O. c #572706",
"+. c #4D3003",
"@. c #45310C",
"#. c #4D340D",
"$. c #533302",
"%. c #5A3501",
"&. c #5B3A03",
"*. c #52340A",
"=. c #5B3B0D",
"-. c #553808",
";. c #4A361B",
":. c #483716",
">. c #5B3D12",
",. c #523912",
"<. c #5A2616",
"1. c #71280A",
"2. c #633C01",
"3. c #673705",
"4. c #693A14",
"5. c #703513",
"6. c #712B13",
"7. c #461F22",
"8. c #671E20",
"9. c #462927",
"0. c #46392A",
"q. c #523E25",
"w. c #423A36",
"e. c #5B3C3A",
"r. c #612221",
"t. c #5C4418",
"y. c #5C4009",
"u. c #654405",
"i. c #6B4303",
"p. c #68460A",
"a. c #724B06",
"s. c #714704",
"d. c #634313",
"f. c #6C4B14",
"g. c #6C4D1C",
"h. c #654617",
"j. c #754B19",
"k. c #73521E",
"l. c #79531C",
"z. c #74510C",
"x. c #5B4A2D",
"c. c #564526",
"v. c #43413C",
"b. c #5D4C34",
"n. c #524331",
"m. c #5E543E",
"M. c #684D27",
"N. c #67522A",
"B. c #745523",
"V. c #7B5C2A",
"C. c #795926",
"Z. c #675636",
"A. c #775E36",
"S. c #604E3B",
"D. c #7C6234",
"F. c #3F3F40",
"G. c #444444",
"H. c #4A4B4B",
"J. c #494846",
"K. c #554A43",
"L. c #55524A",
"P. c #4E4F51",
"I. c #535354",
"U. c #5B5C5C",
"Y. c #585757",
"T. c #4E5152",
"R. c #675643",
"E. c #665149",
"W. c #67645E",
"Q. c #5F6060",
"!. c #646364",
"~. c #6C6C6C",
"^. c #676767",
"/. c #6E6F71",
"(. c #747474",
"). c #7C7C7C",
"_. c #767778",
"`. c #706F6D",
"'. c #830101",
"]. c #8D0000",
"[. c #8A0A02",
"{. c #930201",
"}. c #9E0B04",
"|. c #9A0000",
" X c #88170B",
".X c #8F180E",
"XX c #A20A05",
"oX c #922D12",
"OX c #A83A21",
"+X c #A4331A",
"@X c #825B24",
"#X c #865826",
"$X c #924C26",
"%X c #A55638",
"&X c #84622B",
"*X c #8C6A2D",
"=X c #876429",
"-X c #8D6C32",
";X c #8B6D39",
":X c #866636",
">X c #966933",
",X c #947335",
"<X c #9C7B3C",
"1X c #987539",
"2X c #8F7037",
"3X c #AB6F3F",
"4X c #A2773D",
"5X c #8C4F1F",
"6X c #957642",
"7X c #9C7C42",
"8X c #997A48",
"9X c #947B55",
"0X c #A27E42",
"qX c #A17E4B",
"wX c #A3803F",
"eX c #A58344",
"rX c #A98647",
"tX c #AE8A4D",
"yX c #A5844B",
"uX c #B18C4E",
"iX c #A28353",
"pX c #AB8A57",
"aX c #B38D52",
"sX c #B68859",
"dX c #B69254",
"fX c #B8945A",
"gX c #AB8F66",
"hX c #B99762",
"jX c #C29D63",
"kX c #C9A46B",
"lX c #CFAA74",
"zX c #7F7F80",
"xX c #848484",
"cX c #8A8A8A",
"vX c #878788",
"bX c #939393",
"nX c #9C9C9C",
"mX c #8F8F90",
"MX c #A3A3A3",
"NX c None",
/* pixels */
"NXNXNXNXNXNXNXNXNXNXq q p q u q NXNXNXNXNXNXNXNXNXNXY.U.^._.).).zX^.Q.U.NXNXNXNXNXNXNXNXNXNXNXNXNXNXNXNXNXNXNXNXNXNXNXNX",
"NXNXNXNXNXNXNXNXNXNXd d d p u d NXNXNXNXNXNXNXNXNXNXU.^.~.).).xXgX(.!.Q.Q.NXNXNXNXNXNXNXNXNXNXNXNXNXNXNXNXNXNXNXNXNXNXNX",
"NXNXNXNXNXNXNXNXNXJ Z j j j j j NXNXNXNXNXNXNXNXNX!.^.^.(.xXvXvXxX).(.^.^.Q.NXNXNXNXNXNXNXNXNXNXNXNXNXNXNXNXNXNXNXNXNXNX",
"NXNXNXNXNXNXNXNXv.K K K J J J J NXNXNXNXNXNXNXNXU.!.~._.xXcXmXbXmXvX).(.~.Q.U.NXNXNXNXNXNXNXNXNXNXNXNXNXNXNXNXNXNXNXNXNX",
"NXNXNXNXNXNXNXH.G.J.P.I.I.I.I.I.NXNXNXNXNXNXNXI.U.Q.zXgXcXmXbXnXnXbXvXzX~.Q.Y.T.NXNXNXNXNXNXNXNXNXNXNXNXNXNXNXNXNXNXNXNX",
"NXNXNX)._.~.U.I.I.Y.!./._._.(./.!.^.(._.^.H.G.H.U.U.zXcXmXbXbXMXMXnXbXxX(.!.I.J.F.NXNXNXNXNXNXNXNXNXNXNXNXNXNXNXNXNXNXNX",
"NXNXNX)._.^.Q.Y.Y.Q._.vXmXmXvX_.!.!.~._.^.H.G.H.U.^.xXmXbXbXnXMXMXMXnXcX).!.I.J.F.F.NXNXNXNXNXNXNXNXNXNXNXNXNXNXNXNXNXNX",
"NXNX_.(.^.^.U.Y.I.U.(.vXbXbXcX_.U.Y.^./.!.I.H.I.U.zXvXbXnXnXnXMXMXMXnXmXzX/.Q.T.H.H.NXNXNXNXNXNXNXNXNXNXNXNXNXNXNXNXNXNX",
").).~.^.!.U.U.I.H.P.^.).vXvXzX^.I.P.Y.!.Q.U.U.!./.zXcXbXnXMXMXMXnXnXnXmXxX).~.Q.Y.I.NXNXNXNXNXNXNXNXNXNXNXNXNXNXNXNXNXNX",
").).~.!.U.U.U.I.G.J.U.~.(._./.Y.G.F.J.I.I.I.U.^./.zXvXmXnXMXMXMXbXbXmXmXxX)./.!.Y.L.NXNXNXNXNXNXNXNXNXNXNXNXNXNXNXNXNXNX",
").).NXNXNXNXNXNXNXG.I.U.Q.Q.Y.H.L D C 0.v.v.T.Q.~.zXzXvXbXnXMXnXbXmXcXxX).`.^.Y.P.w.j NXNXNXNXNXNXNXNXNXNXNXNXNXNXNXNXNX",
"NXNXNXNXNXNXNXNXNXNXG.G.G.J.G.L S M h g z J F.P.U.^./.zXcXbXbXbXbXmXxX).`.!.Y.H.K Z d p NXNXNXNXNXNXNXNXNXNXNXNXNXNXNXNX",
"NXNXNXNXNXNXNXNXNXNXc.0.J 0.0.H A M i p d j C F.T.U.^.(.zXvXmXmXmXxX)./.!.I.H.J C j d a l NXNXNXNXNXNXNXNXNXNXNXNXNXNXNX",
"NXNXNXNXNXNXNXNXNX;XM.:.:.;.;.Z S B l | a i h H F.T.U.^.zXzXvXvXxX)./.!.Y.J.K M h u a ..k D NXNXNXNXNXNXNXNXNXNXNXNXNXNX",
"NXNXNXNXNXNXNXNXeX,XB.,.+.*.,.9.G D k X.a 0 w j J G.L.U.^././._.(.`.W.Y.H.v.C h 0 e | ..V S F NXNXNXNXNXNXNXNXNXNXNXNXNX",
"NXNXNXNXNXNXNXNXrX<XV.d.-.$.#.V G D k | a u u g :.c.N.Z.m.K.J.H.K.m.Z.Z.x.c.:.d e p s f V S F v NXNXNXNXNXNXNXNXNXNXNXNX",
"NXNXNXNXNXNXNXNXdXeX-Xg.4.*.X.k D D h a a s  .+.-.p.f.k.t.g h h z :.g.z.g.=.-. .| a a d B D A v B b.;XwXNXNXNXNXNXNXNXNX",
"NXNXNXNXNXNXNXuXtXeX:Xg.-.X...V S n t w f =.d.&.$.&.u.a.&.f g z ,.t.p.s.u.$.&.=.d.#.d w B F F v D m.;XeXeXNXNXNXNXNXNXNX",
"NXNXNXNXNXNX<XeXrX7XV.>.+.X...l B x < q @.C.&Xh.| | $.2.p.t.N.D.;XV.f.&.| a #.B.:XM.k t n F F F H R.6XrXeX<XNXNXNXNXNXNX",
"NXNXNXNXNX<X<XwX<X2Xg.#.s | ..l M c > 0 c.;X6XN.i 0 a $.g.*XeXfXhXqXk.*.p 0 @.D.6XA.C c v F F F L R.yXuXrXwX<XNXNXNXNXNX",
"NXNXNXNXNX1X1X,X,XV.d.| a X.X.l n c - * :.V.:Xt.u 0 a &.C.wXdXkXlXhX;Xg.f u f B.:XN.j 1 x A A v L R.iXdXtXeX<X,XNXNXNXNX",
"NXNXNXNXNX*X*X*X&Xk.t.X.| +.#.k n c > * f d.f.*.p e | u.C.wXfXkXlXkXtX;Xh.g s =.f.,.w ; c x v x D R.iXfXdXtXwX-X=XNXNXNX",
"NXNXNXNXNX@XC.5Xl.5.4.>.=.=.,.9.Z D t = u  .%. .a s +.&.k.,XrXfXfXfXpX6XN.@.} +.%.| 0 ; 1 x x x S b.6XtXdXtXwX,X*X*XNXNX",
"NXNXNXNXNX6.6.6.6.6.#X:XD.h.=.M.R.R.Z 0 q | $.$. . .+.-.t.c.N.Z.Z.A.D.C.h.*. .o.o.a 0 * 1 x x x B e.:X7XeXeXwX,X,X,XwXNX",
"NXNXNXNXNXQ ] ) '  X%XsXiXB.h.:XiXiXx.0 0 a $.$.%.%.o.X.s d i i i f #.-.&.&.%.%. .a 0 ; 1 x x x A 0.M.@X,X<X4X<XwX,XwX,X",
"NXNXNXNXNX/ / _ ` .X%XsXpX:XV.6XhXpXb.i 8 p |  .$.$.$. .| p u u q p X.-.&.%.%.$.| p 0 & 1 c x c n k >.k.@X,X,X,X,XwXwXwX",
"NXNXNXNXNX_ _ '.{.}.$X3XwX6X7XpXhXiXx.0 * 0 u a a  .$.%.&.y.$.+. .$.u.i.i.2.%. .a q 8 * 1 c c b , y *.4.l.C.=X*X*X,XwXwX",
"NXNXNXNXNX` ` '.XXXXoX#X2XeXtXdXdX2Xc.0 # & * 0 q a  .%.u.a.a.u.&.2.s.a.i.2.o.a u 0 = $ - b b 1 - w | &.d.j.@X=X*X,X,XwX",
"NXNXNXNXNX( _ '.|.XXoXj.V.wXrXtXeX:Xc.* X X - & 0 q a $.&.i.s.i.2.2.s.s.2.$.| p 0 * & o : : 1 , w q p | d.C.*X,XwX1X,X,X",
"NXNXNXNXNXT / ` |.}. X4.k.2XwXwX,XC.:.= & o 2 & * 0 q a +.&.2.2.2.2.2.2.$.s u 0 * & - : : : , e s e q f d.@X,XeXwX4X*X*X",
"NXNXNXNXNXY / _ ].[.' %.h.V.*X*X=Xg.@.u 0 ; ; ; 0 0 0 p } %.2.2.2.2.%.$.| u 0 0 0 = ; > 1 w e }  .r = u >.5X>X3X3X%X$X5X",
"NXNXNXNXNXT T _ ` [.Q s z t.k.k.g.y.y.y.| d d p a p u p | %.2.s.s.2.$.a q 0 = q a d p d ..+.O.! ! r 8 9 ~ 1.+XOXOX+XoXoX",
"NXNXNXNXNXT T ( ` _ U 9 p @.=.y.>.=.i.3.2.%. . . .} a p s $.u.s.a.u.+.u 9 = 0 a  .o. .o.2.i.3.] Y 7 8 9 R ` [.}.XXXX}.}.",
"NXNXNXNXNXNX/ / _ / U 8 0 ..*.*.O.O.3.3.3.O.! O.O.! W W W  .&.s.z.u.| p 9 9 r ! ] [ [ 1.3.f.4.<.^ y * 3 Y _ '.{.|.{.{.].",
"NXNXNXNXNXNXNXNXNXNXNXNXNXNXNX! W W Q ] ] Q Q Q Q E R W W a +.u.a.u.| a r I R ) ' [.[. X6.q.0.w.9.V NXNXY / ( '.'.` _ _ ",
"NXNXNXNXNXNXNXNXNXNXNXNXNXNXNX6 P I Y / / / / T T T T Y U e s y.a.u.| q 7 U T / ' '.[. Xr.J H J J v.NXNX{ ) ) _ ' / Y Y ",
"NXNXNXNXNXNXNXNXNXNXNXNXNXNX  4 6 P T / ( ( _ / T T Y Y 6 9 p +.u.&.a 0 4 7 6 U ~ 8.8.r.7.n n c B L.gXsX#X5.1.[ ] W 7 7 ",
"NXNXNXNXNXNXNXNXNXNXNX        4 6 Y / _ ` ` _ / / Y Y P 7 8 q | &.+.u * # . $ t y 9.0.Z n $ O O < S.fXhX0X#Xj.5.*.W 9 * ",
"NXNXNXNXNXNXNXNXNXNX    . . @ 3 6 Y / ` ` ` _ / T I P 5 4 8 q s +.s 0 #     X 2 c n N B >       - b.qXfXqX>X&XB.h...d 0 ",
"NXNXNXNXNXNXNXNXNX      . @ 3 6 I T _ ` ` ( / T I 6 4 @ * 8 q a a u * X     O o 2 > 1 > o       $ q.;X0XrXrX<X;XV.t.@.f ",
"NXNXNXNXNXNXNXNX        + 3 P I T / _ ` _ / T Y P 5 @ . # 8 q u q 8 #                           & :.V.1XrXaXtXwX*Xk.>.*.",
"NXNXNXNXNXNXNXO         + 5 P T / ( _ ` _ / Y Y P 5 + . X * = = = & O                           - q.;XtXdXfXuX4X-Xk.4.=.",
"NXNXNXNXNXNX            + 3 P T _ ` ` ` _ / Y I I 5 @     X X X . X O                           , b.iXkXjXaXrX1X=Xk.d.-.",
"NXNXNXNXNX      .       + 3 I T ( ` ` ` _ / T Y P 5 @                 .                         > n.9XpXiX6X;XV.g.=.#.X.",
"NXNXNXNXNX              + 3 P Y / _ _ ` _ / T Y P 5 @                                           o j n.b.n.c.;.:.g d w w ",
"NXNXNXNXNX              + 5 P Y T / _ ` _ / Y Y P 5 @                   .                         . o - - $ o X o X . X ",
"NXNXNXNXNX              + 3 P Y / / ` ` _ / T Y P 5 @ .                                                                 ",
"NXNXNXNXNX              + 3 I T ( _ ` ` _ / T Y P 5 @         O                                                     NXNX",
"NXNXNXNXNX          O   @ 3 P T _ ` ` ` ( / Y I P 3 +                                                         O   NXNXNX",
"NXNXNXNXNXNX      O o > t 5 P T / ( _ / / T I 6 3 @ .                         .       O           O             NXNXNXNX",
"NXNXNXNXNXNXNXNX  O > < t 7 P Y T / / / T I P 4 +               .                     .             NXNXNXNXNXNXNXNXNXNX",
"NXNXNXNXNXNXNXNX  O < B V 7.7.~ ~ ~ ~ R U U 7 @ .                                           .     NXNXNXNXNXNXNXNXNXNXNX",
"NXNXNXNXNXNXNXNX  o M K J.K.e.E.E.e.9.l y y t % .       .               O       NXNXNXNXNXNXNXNXNXNXNXNXNXNXNXNXNXNXNXNX",
"NXNXNXNXNXNXNXNX  $ B G.I.U.Q.!.Q.Y.w.B n M n : O                   O         NXNXNXNXNXNXNXNXNXNXNXNXNXNXNXNXNXNXNXNXNX",
"NXNXNXNXNXNXNXNX  o B G.I.Y.U.Q.U.P.K N c < > o O                           NXNXNXNXNXNXNXNXNXNXNXNXNXNXNXNXNXNXNXNXNXNX",
"NXNXNXNXNXNXNXNX  o n K G.J.J.J.J.F.H M < > o O     NXNXNXNXNXNXNXNXNXNXNXNXNXNXNXNXNXNXNXNXNXNXNXNXNXNXNXNXNXNXNXNXNXNX",
"NXNXNXNXNXNXNXNX  o t D H H H H G G B t 1 o         NXNXNXNXNXNXNXNXNXNXNXNXNXNXNXNXNXNXNXNXNXNXNXNXNXNXNXNXNXNXNXNXNXNX",
"NXNXNXNXNXNXNXNXNXo > m < < < < < < > > o O       NXNXNXNXNXNXNXNXNXNXNXNXNXNXNXNXNXNXNXNXNXNXNXNXNXNXNXNXNXNXNXNXNXNXNX",
"NXNXNXNXNXNXNXNXNXNXo o O o O O O O O O         NXNXNXNXNXNXNXNXNXNXNXNXNXNXNXNXNXNXNXNXNXNXNXNXNXNXNXNXNXNXNXNXNXNXNXNX",
"NXNXNXNXNXNXNXNXNXNX                          NXNXNXNXNXNXNXNXNXNXNXNXNXNXNXNXNXNXNXNXNXNXNXNXNXNXNXNXNXNXNXNXNXNXNXNXNX"
};
