/* XPM */
static char *result[] = {
/* columns rows colors chars-per-pixel */
"60 60 219 2 ",
"   c #040404",
".  c #0B0504",
"X  c #0A0B0B",
"o  c #080906",
"O  c #150403",
"+  c #1C0403",
"@  c #140D05",
"#  c #1C1507",
"$  c #0E0E15",
"%  c #0C0D1B",
"&  c gray8",
"*  c #13131D",
"=  c #1B1A1C",
"-  c #1A1719",
";  c #101014",
":  c #230303",
">  c #2D0402",
",  c #2B0B09",
"<  c #320401",
"1  c #3B0906",
"2  c #241C0D",
"3  c #281B0B",
"4  c #331D04",
"5  c #241B14",
"6  c #291F13",
"7  c #241B19",
"8  c #311A18",
"9  c #2D2109",
"0  c #332205",
"q  c #3D2504",
"w  c #34240B",
"e  c #3B2708",
"r  c #2D2213",
"t  c #2B211B",
"y  c #3C2B11",
"u  c #31261A",
"i  c #332A1C",
"p  c #342615",
"a  c #3E321B",
"s  c #0F1122",
"d  c #141522",
"f  c #1C1A24",
"g  c #1C1C2C",
"h  c #171725",
"j  c #1D1E32",
"k  c #221E22",
"l  c #221F2A",
"z  c #201F32",
"x  c #1E2121",
"c  c #1F2035",
"v  c #242225",
"b  c #25222C",
"n  c #2A252B",
"m  c #2C2B2B",
"M  c #362E22",
"N  c #382A27",
"B  c #3E332A",
"V  c #3B362B",
"C  c #232335",
"Z  c #25253A",
"A  c #29293B",
"S  c #282739",
"D  c #353435",
"F  c #440400",
"G  c #4B0400",
"H  c #530400",
"J  c #5C0400",
"K  c #5C0900",
"L  c #4A120F",
"P  c #581801",
"I  c #531513",
"U  c #630300",
"Y  c #6D0100",
"T  c #6A0900",
"R  c #730100",
"E  c #7B0100",
"W  c #7B0B02",
"Q  c #671906",
"!  c #7D1F00",
"~  c #452A01",
"^  c #4B2C02",
"/  c #442C09",
"(  c #562C02",
")  c #4C3309",
"_  c #543302",
"`  c #5C3502",
"'  c #5B3904",
"]  c #5A3A0B",
"[  c #54350B",
"{  c #593D16",
"}  c #462F11",
"|  c #6B250A",
" . c #663D00",
".. c #653B04",
"X. c #6D2E12",
"o. c #633A11",
"O. c #753717",
"+. c #75290A",
"@. c #462D2C",
"#. c #463A27",
"$. c #453B35",
"%. c #553C23",
"&. c #5D410B",
"*. c #5B421C",
"=. c #5E4511",
"-. c #63410D",
";. c #6B470B",
":. c #7C4504",
">. c #764804",
",. c #78520A",
"<. c #644513",
"1. c #644C1B",
"2. c #6A4616",
"3. c #774B1A",
"4. c #6B501D",
"5. c #78551E",
"6. c #77551A",
"7. c #4C412C",
"8. c #594525",
"9. c #4B423E",
"0. c #48443C",
"q. c #5A4A37",
"w. c #644C2B",
"e. c #6B5425",
"r. c #6D542A",
"t. c #675127",
"y. c #7E5923",
"u. c #775424",
"i. c #6E5A3C",
"p. c #6B5633",
"a. c #755B32",
"s. c #624E30",
"d. c #7B643B",
"f. c #3D3D4A",
"g. c #353543",
"h. c #454444",
"j. c #4C4C4E",
"k. c #4A4948",
"l. c #514844",
"z. c #5C554A",
"x. c #484857",
"c. c #545453",
"v. c #5D5953",
"b. c #5C5C5C",
"n. c #55565B",
"m. c #625745",
"M. c #605C55",
"N. c #6A645A",
"B. c #71675A",
"V. c #5B5B64",
"C. c #5E6164",
"Z. c #636364",
"A. c #6B6B6C",
"S. c #646569",
"D. c #78736C",
"F. c #6C6C72",
"G. c #737373",
"H. c #7B7B7C",
"J. c #7A7873",
"K. c #716E6A",
"L. c #830100",
"P. c #8B0100",
"I. c #870B03",
"U. c #930000",
"Y. c #9B0000",
"T. c #9A0B03",
"R. c #A40000",
"E. c #A80000",
"W. c #A20C03",
"Q. c #852B03",
"!. c #942C03",
"~. c #8B330C",
"^. c #9B340D",
"/. c #9C3914",
"(. c #8C3813",
"). c #A03915",
"_. c #824B0A",
"`. c #895719",
"'. c #834F10",
"]. c #825423",
"[. c #855C25",
"{. c #915F24",
"}. c #866226",
"|. c #866229",
" X c #896529",
".X c #8D6A2D",
"XX c #906629",
"oX c #8E6C33",
"OX c #8D6C3A",
"+X c #916E31",
"@X c #957335",
"#X c #987639",
"$X c #9D7C3C",
"%X c #977538",
"&X c #A17E3F",
"*X c #866C45",
"=X c #8C724D",
"-X c #9F7D41",
";X c #A27E42",
":X c #A0803F",
">X c #A58244",
",X c #A9864A",
"<X c #AD8A4B",
"1X c #A98645",
"2X c #AF8C50",
"3X c #B28E52",
"4X c #B69255",
"5X c #80807F",
"6X c #7D7D82",
"7X c #848484",
"8X c #868689",
"9X c #8D8D8D",
"0X c #898783",
"qX c #949494",
"wX c #9C9C9C",
"eX c #8E8F91",
"rX c #A3A3A3",
"tX c #ACACAC",
"yX c None",
/* pixels */
"yXyXyXyXyXyXyXyXyXyXyXyXyXyXyXyXyXyXyXyXyXyXyXyXyXyXyXyXyXyXyXyXyXyXyXyXyXyXyXyXyXyXtXtXtXyXyXyXyXyXyXyXyXyXyXyXyXyXyXyX",
"yXyXyXyXyXyXyXyXyXyXyXyXyXyXyXyXyXyXyXyXyXyXyXyXyXyXyXyXyXyXyXyXyXyXyXyXyXyXyXyXyXyXtXtXtXyXyXyXyXyXyXyXyXyXyXyXyXyXyXyX",
"yXyXyXyXyXyXyXyXyXyXyXyXyXyXyXyXyXyXyXyXyXyXyXyXyXyXyXyXyXyXyXyXyXyXyXyXyXyXyXyXyXyXtXtXtXyXyXyXyXyXyXyXyXyXyXyXyXyXyXyX",
"yXyXyXyXyXyXyXyXyXyXyXyXyXyXyXyXyXyXyXyXyXyXyXyXyXyXyXyXyXyXyXyXyXyXyXyXyXyXyXyXyXyXtXtXtXyXyXyXyXyXyXyXyXyXyXyXyXyXyXyX",
"yXyXyXyXyXyXyXyXyXyXyXyXyXyXyXyXyXyXyXyXyXyXyXyXyXyXyXyXyXyXyXyXyXyXyXyXyXyXyXyXyXyXwXwXrXyXyXyXyXyXyXyXyXyXyXyXyXyXyXyX",
"yXyXyXyXyXyXyXyXyXyXyXyXyXyXyXyXyXyXyXyXyXyXyXyXyXyXyXyXyXyXyXyXyXyXyXyXyXyXyXyXyXyX9X9X9XyXyXyXyXyXyXyXyXyXyXyXyXyXyXyX",
"yXyXyXyXyXyXyXyXyXyXyXyXyXyXyXyXyXyXyXyXyXyXyXyXyXyXyXyXyXyXyXyXyXyXyXyXyXyXyXyXyXyXH.H.H.yXyXyXyXyXyXyXyXyXyXyXyXyXyXyX",
"yXyXyXyXyXyXyXyXyXyXyXyXyXyXyXyXyXyXyXyXyXyXyXyXyXyXyXyXyXZ.A.H.H.H.G.Z.yXyXyXyXyXH.K.A.A.yXyXyXyXyXyXyXyXyXyXyXyXyXyXyX",
"yXyXyXyXyXyXyXyXyXyXyXyXyXyXyXyXyXyXyXyXyXyXyXyXyXyXyXyXb.S.J.H.5X5XG.Z.b.yXyXyXH.H.A.S.C.yXyXyXyXyXyXyXyXyXyXyXyXyXyXyX",
"yXyXyXyXyXyXyXyXyXyXyXyXyXyXyXyXyXyXyXyXyXyXyXyXyXyXyXN.Z.A.H.7X0X5XH.A.Z.b.yXyXG.K.S.b.b.yXyXyXyXyXyXyXyXyXyXyXyXyXyXyX",
"yXyXyXyXyXyXyXyXyXyXyXyXyXyXyXyXyXyXyXyXyXyXyXyXyXyXb.S.K.H.7X9XqX9X5XH.K.b.j.j.b.Z.N.b.b.yXyXyXyXyXyXyXyXyXyXyXyXyXyXyX",
"yXyXyXyXyXyXyXyXyXyXyXyXyXyXyXyXyXyXyXyXyXyXyXyXyXb.Z.A.H.8X9XqXqXqXeX0XJ.b.h.h.c.b.b.n.b.yXyXyXyXyXyXyXyXyXyXyXyXyXyXyX",
"yXyXyXyXyXyXyXyXyXyXyXyXyXyXyXyXyXyXyXyXyXyX*.7.k.c.C.G.7XqXwXwXwXqXqXqX5XM.7.V k.v.c.j.j.yXyXyXyXyXyXyXyXyXyXyXyXyXyXyX",
"yXyXyXyXyXyXyXyXyXyXyXyXyXyXyXyXyXyXyXyX,.,.8.0.h.j.Z.J.9XwXrXrXrXqXqXqX5Xz.a a 9.b.c.k.h.yXyXyXyXyXyXyXyXyXyXyXyXyXyXyX",
"yXyXyXyXyXyXyXyXyXyXyXyXyXyXyXyXyXyXyX} &.-.8.0.j.b.A.H.qXwXrXrXrXwXwXwX0Xz.y a z.S.C.c.k.7.yXyXyXyXyXyXyXyXyXyXyXyXyXyX",
"yXyXyXyXyXyXyXyXyXyXyXyXyXyXyXyXyXyX* r e ) 7.j.b.A.J.8XeXqXwXrXrXrXrXrX5Xm.y #.N.5XH.A.v.8.^ yXyXyXyXyXyXyXyXyXyXyXyXyX",
"yXyXyXyXyXyXyXyXyXyXyXyXyXyXyXyXyXd h - 9 9 7.c.S.G.H.7X9XqXqXqXrXrXrXwX7Xz.a 7.D.9XeXH.M.8.^ ~ yXyXyXyXyXyXyXyXyXyXyXyX",
"yXyXyXyXyXyXyX XyXyXyXyXyXyXt.yXc g c = & 9 V c.Z.A.G.H.7X9XqXqXwXrXrXqX5Xz.#.0.J.qXqX7XB.w.[ ^ / yXyXyXyXyXyXyXyXyXyXyX",
"yXyXyXyXyX X|.|. X XyXyXyX Xt.B c c C v # r V c.b.C.N.F.H.7XeXqXqXqXqX8XJ.v.h.c.H.9XeXH.B.w.[ ^ q q yXyXyXyXyXyXyXyXyXyX",
"yXyXyXyX].3.].[.}. XyXyX$X+Xa.$.b c A v # 9 a q.z.M.C.Z.F.H.0XeX9X9X8XH.A.n.j.n.G.5XH.A.M.$.} q / / u.yXyXyXyXyXyXyXyXyX",
"yXyXyX.X].X.| O.[..X@X$X1X>X*X$.Z Z A b r 9 / *.s.m.b.C.S.F.H.7X8X7XH.F.S.b.n.b.Z.A.N.c.h.m 6 3 4 { OX3X4X4XyXyXyXyXyXyX",
"yXyXyX].O.X.Q O.[..X@X:X<X2X=Xl.g.c A n r 0 ~ _ *.q.v.v.M.N.K.D.J.J.K.N.v.z.v.M.b.b.c.k.D x = 5 w *.OX<X4X3X3XyXyXyXyXyX",
"yXyXO.O.O.O.3.].}..X#X:X<X3X=Xl.c c Z S n u e ~ [ *.8.p.p.i.i.i.i.i.i.p.p.w.s.m.N.A.b.j.f.A g f 6 #.|.-X<X3X<X$XyXyXyXyX",
"yXyXyXQ +.].+X.X X.X@X:X<X2X*X$.j j Z A S n t 0 ~ ) -.1.,.,.;.&.o.&.;.6.,.;.-.w.B.G.A.b.j.g.Z g l @.r.OX>X3X,X@X XyXyXyX",
"yXyXyXI X.[.@X@X X X@X#X1X,X*X$.g g Z Z A S v r 0 ~ _ ;.>.>. .` _ ( ' >.>.' _ { z.C.S.V.n.g.g.j C $.a.+X;X;X;X@X.XyXyXyX",
"yXyXyX( O.y..X X|.|. X+X$X;Xd.#.h g g C Z Z C k t 0 ~ _  . . .` ^ ~ ^ '  ._ ~ y N f.V.S.V.f.Z j Z $.*X;X&X@X@X@X#XyXyXyX",
"yXyXyX] <.y.|..X.X X X X@X#Xa.B d h g g C Z C g = 9 0 ~ _ ` ` _ ~ 0 q _ _ ~ 0 6 l A n.6XF.x.Z j A l.=X<X;X+XXX%X#XyXyXyX",
"yXyX[ ] <.5. X@X$X#X.X X.X+Xr.M * d d g C C Z C v r 0 0 y } ~ ~ 0 r r e ~ w r = l A S.8X6Xx.g.j C h.=X2X;X@X+X+X@XyXyXyX",
"yXyXyX] <.5..X$X,X>X@X|. X Xt.N d % d h g g C Z n r 9 t k 7 w 0 5 k t 9 4 6 k g z g.F.qX6Xn.Z j C $.=X2X<X&X+X.X XyXyXyX",
"yXyXyX] <.5.[.#X,X>X#X.X}.5.*.u * d d h d g c C v t 6 7 g f 5 5 7 h h 5 5 7 f j z g.n.6XF.x.Z l N q.*X,X<X&X@XXX|..XyXyX",
"yXyXyXyX1.3.].oX:X:X$X+X5.;.} 7 * d * d d h g g b k k f g g = - - h = = - h g j j c g.f.f.S n M %.r.@X:X>X$X@X.X|..X#X-X",
"yXyXyXyXyX3.u. X%X:X:X@X6.] e 7 * d d * * d h g g g f g g h d * * d * * * h h g g g j j g g l @.1.].+X#X:X$X#X@X.X@X#X-X",
"yXyXyXyXyXyXyX|.#X-X>XyXyX_ w - s s s * s s d d h h d h h d % % % % % % % d d d h h s s s s f a ] 6.}.@X$X>X>X>X$X#X@X@X",
"yXyXyXyXyXyXyXyXyXyXyXyXyXyXyXd d * * h * * * h d d d h h * * $ $ $ $ $ $ * d d d d d h h d = r _ -.6.oX-X<X3X3X,X$X.X}.",
"yXyXyXyXyXyXyXyXyXyXyXyXyXyXyX7 t r u i M M i p i M M M M M i u t 9 9 t i i M M i u M M i i p e ^ &.;.5.%X,X3X3X,X#X|.y.",
"yXyXyXyXyXyXyXyXyXyXyXyXyXyXyXe / ) ] <.4.e.1.&.=.1.e.p.e.e.e.e.=.&.&.1.e.e.e.4.=.] =.e.e.<.] _ _ _ ] 2.|.$X,X,X;XoXy.5.",
"yXyXyXyXyXyXyXyXyXyXyXyXyXyXyX^ ` .. .:.`.`.'._.,.`.XX{.{.{.XX`.'.>.,.`.{.{.{.`._._.'.{.`._.:...( ^ ~ ( 4.oX%X%XoX[.3.3.",
"yXyXyXyXyXyXyXyXyXyXyXyXyXyXyXP P Q Q.Q.(.(.!.!.!.^././.).).)./.~.Q.+.~.(./././.!.!.!./.^.!.Q.! Q P 4 4 ) 4.6.6.3.4.2.o.",
"yXyXyXyXyXyXyXyXyXyXyXyXyXyXyXK K T W W W W I.T.W.W.W.W.W.W.W.W.T.W W W W T.T.W.W.W.W.W.W.W.Y.T.W H > @ 0 ) ` ] ] ] o.o.",
"yXyXyXyXyXyXyXyXyXyXyXyXyXyXyXJ U U Y R E L.P.R.E.E.R.R.Y.Y.Y.U.L.E E E E P.U.Y.R.R.E.R.R.R.R.U.L.J :   # 0 ~ ~ _ _ ] o.",
"yXyXyXyXyXyXyXyXyXyXyXyXyXyXyXJ K J U Y E L.U.R.E.E.R.Y.P.L.P.L.E Y Y E E L.L.U.R.R.E.E.E.R.R.Y.L.J : . o @ # yXyXyXyXyX",
"yXyXyXyXyXyXyXyXyXyXyXyXyXyXyXH J J J U Y E P.Y.R.Y.U.L.E E E E U H H Y E E E L.U.Y.Y.Y.Y.W.Y.P.R G :         yXyXyXyXyX",
"yXyXyXyXyXyXyXyXyXyXyXyXyXyX> F H H J K U R L.P.P.P.L.E R Y Y U G < F J Y Y Y E E L.L.L.P.U.P.Y G > O           yXyXyXyX",
"yXyXyXyXyXyXyXyXyXyXyXyXyX  O < F H J J J U R E E Y U U K U U H < + : F K U J U U U U U Y E R F + .               yXyXyX",
"yXyXyXyXyXyXyXyXyXyXyXyX    O < F H J J J J U Y U J H G F F F < : . O > F F F 1 F 1 F 1 F H G > .                   yXyX",
"yXyXyXyXyXyXyXyXyXyXyXyXyX  O > F H J J J K H H H G F < : + + + . .   O + + + + + + + + : : : O                     yXyX",
"yXyXyXyXyXyXyXyXyXyXyXyX    O < G H H J J J H F F F < : .                                       .                 yXyXyX",
"yXyXyXyXyXyXyXyXyXyXyX      O < F G G G H G G F < > + O                                                         yXyXyXyX",
"yXyXyXyXyXyXyXyXyXyX        O < F F G F G F F F < + .                       .                               . yXyXyXyXyX",
"yXyXyXyXyXyXyXyXyXyX        O < F G G G G G G F > O                                                         yXyXyXyXyXyX",
"yXyXyXyXyXyXyXyXyXyX        O < F H H H H H G F < O                                     .             yXyXyXyXyXyXyXyXyX",
"yXyXyXyXyXyXyXyXyXyX      o O < F H H K K J H F < O                                                 yXyXyXyXyXyXyXyXyXyX",
"yXyXyXyXyXyXyXyXyX      X & - 1 F H J U J J H G < O                           yXyX              yXyXyXyXyXyXyXyXyXyXyXyX",
"yXyXyXyXyXyXyXyX      o & = 8 1 F H J J K J H F > O                         yXyXyXyXyXyXyXyXyXyXyXyXyXyXyXyXyXyXyXyXyXyX",
"yXyXyXyXyXyXyX        o ; - 5 1 1 L I I I I L 1 , O               .       yXyXyXyXyXyXyXyXyXyXyXyXyXyXyXyXyXyXyXyXyXyXyX",
"yXyXyXyXyXyXyX          o X & 7 8 N @.@.@.@.N 8 5 @               yXyXyXyXyXyXyXyXyXyXyXyXyXyXyXyXyXyXyXyXyXyXyXyXyXyXyX",
"yXyXyXyXyXyXyXyX            X - b m D D D D m v - X             yXyXyXyXyXyXyXyXyXyXyXyXyXyXyXyXyXyXyXyXyXyXyXyXyXyXyXyX",
"yXyXyXyXyXyXyXyXyXyXyX      X X - = x x x f - & ; o       yXyXyXyXyXyXyXyXyXyXyXyXyXyXyXyXyXyXyXyXyXyXyXyXyXyXyXyXyXyXyX",
"yXyXyXyXyXyXyXyXyXyXyXyX        o o o X o X X o   o     yXyXyXyXyXyXyXyXyXyXyXyXyXyXyXyXyXyXyXyXyXyXyXyXyXyXyXyXyXyXyXyX",
"yXyXyXyXyXyXyXyXyXyXyXyXyX                            yXyXyXyXyXyXyXyXyXyXyXyXyXyXyXyXyXyXyXyXyXyXyXyXyXyXyXyXyXyXyXyXyX"
};
