/* XPM */
static char *result[] = {
/* columns rows colors chars-per-pixel */
"60 60 236 2 ",
"   c #010201",
".  c #0C0B09",
"X  c #0A0907",
"o  c #16161A",
"O  c #18171B",
"+  c #1B1A1B",
"@  c #181613",
"#  c #13120F",
"$  c #211D1A",
"%  c #0C1835",
"&  c #1B2934",
"*  c #162A34",
"=  c #242323",
"-  c #2A2623",
";  c #2D2926",
":  c #25262A",
">  c #2C2B2B",
",  c #332D28",
"<  c #3C342D",
"1  c #33302E",
"2  c #232C33",
"3  c #333132",
"4  c #3C3632",
"5  c #3C3937",
"6  c #2B3132",
"7  c #221F1E",
"8  c #483928",
"9  c #433B34",
"0  c #453D37",
"q  c #513B22",
"w  c #75491D",
"e  c #4A4137",
"r  c #4D433B",
"t  c #45413D",
"y  c #51463C",
"u  c #55493F",
"i  c #5A4839",
"p  c #544F34",
"a  c #685439",
"s  c #6F5234",
"d  c #68623E",
"f  c #0E1B48",
"g  c #041558",
"h  c #000F4F",
"j  c #183649",
"k  c #073854",
"l  c #0E2F4E",
"z  c #383A43",
"x  c #02176B",
"c  c #01176B",
"v  c #021B75",
"b  c #011B7B",
"n  c #043864",
"m  c #072466",
"M  c #0D526D",
"N  c #185A6D",
"B  c #4B4B4B",
"V  c #454445",
"C  c #544A41",
"Z  c #5A4D43",
"A  c #504F4F",
"S  c #5D5145",
"D  c #5C5249",
"F  c #57544C",
"G  c #545354",
"H  c #5B5957",
"J  c #504F50",
"K  c #615346",
"L  c #64564A",
"P  c #66594D",
"I  c #6A5A4E",
"U  c #735D43",
"Y  c #635C52",
"T  c #6D5E51",
"R  c #656449",
"E  c #796548",
"W  c #7C7746",
"Q  c #6D6153",
"!  c #686357",
"~  c #736355",
"^  c #756658",
"/  c #7C6B5C",
"(  c #776958",
")  c #787558",
"_  c #5F5E60",
"`  c #6C6C6C",
"'  c #6A6765",
"]  c #776D64",
"[  c #78726A",
"{  c #7B7B7B",
"}  c #757475",
"|  c #706F71",
" . c #875A28",
".. c #986229",
"X. c #876436",
"o. c #89773C",
"O. c #9F5F20",
"+. c #876741",
"@. c #81794B",
"#. c #806E5F",
"$. c #887758",
"%. c #946F49",
"&. c #A4794C",
"*. c #A57951",
"=. c #816F60",
"-. c #847263",
";. c #897667",
":. c #8D7A6A",
">. c #877869",
",. c #917E6E",
"<. c #947B65",
"1. c #837E76",
"2. c #937F70",
"3. c #8C873D",
"4. c #888348",
"5. c #938D56",
"6. c #A8855A",
"7. c #B68858",
"8. c #B08953",
"9. c #B3AE54",
"0. c #898465",
"q. c #898676",
"w. c #958171",
"e. c #9B8574",
"r. c #9E8877",
"t. c #90867D",
"y. c #98896F",
"u. c #B79466",
"i. c #A28C7A",
"p. c #AB8F75",
"a. c #A6917D",
"s. c #AA937D",
"d. c #B69A77",
"f. c #A69469",
"g. c #B3AD6F",
"h. c #C6945E",
"j. c #C39563",
"k. c #D39B64",
"l. c #D6B47A",
"z. c #CCA972",
"x. c #E9AC69",
"c. c #F4B46E",
"v. c #EBB777",
"b. c #F4B673",
"n. c #F6BB77",
"m. c #E9B073",
"M. c #CCC657",
"N. c #D4D074",
"B. c #F9C17B",
"V. c #011D89",
"C. c #012688",
"Z. c #013B99",
"A. c #012D93",
"S. c #034A8C",
"D. c #044E97",
"F. c #07718D",
"G. c #004BA6",
"H. c #0053AA",
"J. c #0159AE",
"K. c #015CA6",
"L. c #005DB2",
"P. c #0062B4",
"I. c #016BBA",
"U. c #0276B9",
"Y. c #0367A4",
"T. c #017BC2",
"R. c #0584AC",
"E. c #7F8082",
"W. c #0186C8",
"Q. c #0292CE",
"!. c #019CD3",
"~. c #0196D0",
"^. c #02ABDB",
"/. c #02A4D6",
"(. c #02B1DC",
"). c #01B5E1",
"_. c #02BAE4",
"`. c #02BFEB",
"'. c #8C8B8B",
"]. c #878685",
"[. c #989795",
"{. c #918F8A",
"}. c #A99A87",
"|. c #A69D94",
" X c #BCB889",
".X c #A9A399",
"XX c #B3A68C",
"oX c #A9A8A7",
"OX c #BBB3AA",
"+X c #B4B4B4",
"@X c #BAB8B5",
"#X c #C9AA83",
"$X c #C9B593",
"%X c #D3B290",
"&X c #C6BCA5",
"*X c #C5BCB3",
"=X c #C0BFBD",
"-X c #EDBC82",
";X c #CCCA8D",
":X c #EBC98E",
">X c #FDCB85",
",X c #FAC686",
"<X c #FED48B",
"1X c #FDD287",
"2X c #FED694",
"3X c #FFDA94",
"4X c #FFDC9B",
"5X c #F7D396",
"6X c #EED097",
"7X c #D8C9A4",
"8X c #DCD9AB",
"9X c #CBC8AE",
"0X c #E5C6A3",
"qX c #FDDCA3",
"wX c #F6D6AB",
"eX c #F8DCB4",
"rX c #E5E3AA",
"tX c #FEE2AC",
"yX c #FFE0A5",
"uX c #E9E7B8",
"iX c #FEE4B4",
"pX c #FDE5BB",
"aX c #F9E4BC",
"sX c #FFE09D",
"dX c #C7C7C6",
"fX c #DAD9D8",
"gX c #D1CECB",
"hX c #EBE9C5",
"jX c #FCEBC3",
"kX c #EBEBEA",
"lX c #EAE9E7",
"zX c #F5F5F5",
"xX c #FEFEFE",
"cX c #F1F1EF",
"vX c #E0DDDA",
"bX c None",
/* pixels */
"bXbXbXbXbXbXbXbXbXbXbXbXbXbXbXbXbXbXbXbXbXbXbXbXbXbXbXbXbXE._ G ' { bXbXbXbXbXbXbXbXbXbXbXbXbXbXbXbXbXbXbXbXbXbXbXbXbXbX",
"bXbXbXbXbXbXbXbXbXbXbXbXbXbXbXbXbXbXbXbXbXbXbXbXbXbXbXG 0 D T ^ T Z r J [.bXbXbXbXbXbXbXbXbXbXbXbXbXbXbXbXbXbXbXbXbXbXbX",
"bXbXbXbXbXbXbXbXbXbXbXbXbXbXbXbXbXbXbXbXbXbXbXbXbXbX4 T 2.i.}.i.s.}.p.-.V A bXbXbXbXbXbXbXbXbXbXbXbXbXbXbXbXbXbXbXbXbXbX",
"bXbXbXbXbXbXbXbXbXbXbXbXbXbXbXbXbXbXbXbXbXbXbXbX} 4 ] e.e.e.r.r.i.i.}.}.a.Y V bXbXbXbXbXbXbXbXbXbXbXbXbXbXbXbXbXbXbXbXbX",
"bXbXbXbXbXbXbXbXbXbXbXbXbXbXbXbXbXbXbXbXJ 3 > > 4 =.:.,.2.w.e.e.i.i.i.a.a.a.D _ bXbXbXbXbXbXbXbXbXbXbXbXbXbXbXbXbXbXbXbX",
"bXbXbXbXbXbXbXbXbXbXbXbXbXbXbXbXbX} : o o O o - ~ ;.;.:.:.,.2.w.i.2.2.p.i.}.e.9 bXbXbXbXbXbXbXbXbXbXbXbXbXbXbXbXbXbXbXbX",
"bXbXbXbXbXbXbXbXbXbXbXbXbXbXbXbXV O o O O O O y =.=.-.;.;.2.|.*XdX*X}.e.i.i.i.-.0 bXbXbXbXbXbXbXbXbXbXbXbXbXbXbXbXbXbXbX",
"bXbXbXbXbXbXbXbXbXbXbXbXbXbXbXz o O O O O o = Y / =.] =.2.9XcXxXzXzXkXOXi.2.i.i.L G bXbXbXbXbXbXbXbXbXbXbXbXbXbXbXbXbXbX",
"bXbXbXbXbXbXbXbXbXbXbXbXbXbXH O O O O O O O 8 ~ ~ ^ #.#.OXzXzXzXzXzXzXkX|.e.e.i.e.0 ].bXbXbXbXbXbXbXbXbXbXbXbXbXbXbXbXbX",
"bXbXbXbXbXbXbXbXbXbXbXbXbXbXO O O O O O O - C ~ ~ ~ ~ =.fXfX{.@XcXoX'.fX*X,.2.e.r.] 5 bXbXbXbXbXbXbXbXbXbXbXbXbXbXbXbXbX",
"bXbXbXbXbXbXbXbXbXbXbXbXbXJ o O O O O O - < Z I T T T =.vX[.> H gXB : oX*X:.:.2.2.e.F J bXbXbXbXbXbXbXbXbXbXbXbXbXbXbXbX",
"bXbXbXbXbXbXbXbXbXbXbXbXbX= o O O O O - < 8 K L L T T ~ *X=X_ '.lX'.' dX}.;.:.:.,.2.:.C t '.bXbX].G 5 4 , | bXbXbXbXbXbX",
"bXbXbXbXbXbXbXbXbXbXbXbXbXO O o O 7 4 0 0 8 K K K L I I [ fXlXkXcXkXkXOX-.-.-.;.:.:.,.>.u < < 4 0 C I ^ C G bXbXbXbXbXbX",
"bXbXbXbXbXbXbXbXbXbXbXbX| o o $ 1 r Z 0 0 0 C Z S K K L P ].lXgXdXgXgX-.#.#.#.-.;.;.:.:.~ L L P I Y T Q 9 } bXbXbXbXbXbX",
"bXbXbXbXbXbX' B G G G V : 7 1 C L Z Z u i 0 0 Z Z Z S K K ] *X|.|.|..X^ ^ #.#.#.#.-.;.:.Q u S L L L I Z 3 bXbXbXbXbXbXbX",
"bXbXbXbXbXbX7 0 4 4 4 9 C Y ~ T I L Z C i 0 0 C 0 C Z Z S K P P T I ~ T ~ ~ ^ / #.] =.;.Q u u u Z K C , E.bXbXbXbXbXbXbX",
"bXbXbXbXbXbX3 Y ^ :.:.;.#./ ^ Q I L K Z u 0 0 0 i i i C u Z i Z u K P P Q Q ~ ^ ( / / #.I r y u C r ; | bXbXbXbXbXbXbXbX",
"bXbXbXbXbXbXH r ^ :.,.;.-.#.#.^ ~ I L Z C C 0 0 8 < , ; : : : 2 2 > 6 > 1 < p a Q ^ / / L e e r 9 > { bXbXbXbXbXbXbXbXbX",
"bXbXbXbXbXbXbX3 L ;.2.,.;.-./ ^ ~ I I K 0 8 ; ; % l n S.S.K.K.Y.U.U.R.U.F.F.M j 6 5 K ~ p e < ; 5 bXbXbXbXbXbXbXbXbXbXbX",
"bXbXbXbXbXbXbX'.1 I ,.,.:.-.=./ #.I 0 , & f m C.D.G.J.L.P.I.T.Q.!./.^.).`.`.(.(.R.N j 1 < ; > } bXbXbXbXbXbXbXbXbXbXbXbX",
"bXbXbXbXbXbXbXbX'.4 D ;.,.>.-.~ 0 - % g b V.C.A.Z.G.H.J.P.I.U.W.Q.!./.^.^.(.(._.`.`.(.F.* V bXbXbXbXbXbXbXbXbXbXbXbXbXbX",
"bXbXbXbXbXbXbXbXbXbX' 0 0 0 5 2 % g x x v b V.A.Z.G.G.H.K.P.I.W.W.~././.^.(.).)._.(._.`.M ].bXbXbXbXbXbXbXbXbXbXbXbXbXbX",
"bXbXbXbXbXbXbXbXbXbXbXbX+XG k S.v x x x x v V.C.A.Z.G.G.J.P.I.U.T.W.W.Q.Q.~.!.!.^.^.(.(.M .XbXbXbXbXbXbXbXbXbXbXbXbXbXbX",
"bXbXbXbXbXbXbXbXbXbXbXbXbX{.n J.v x x b V.V.v f z z l n S.H.P.I.I.I.T.T.W.Q.Q.!././.U.N j bXbXbXbXbXbXbXbXbXbXbXbXbXbXbX",
"bXbXbXbXbXbXbXbXbXbXbXbXbXoXk K.V.V.V.V.V.V.f L ,.2.,./ B j n n k k k k k k k k k N Y ;.Y bXbXbXbXbXbXbXbXbXbXbXbXbXbXbX",
"bXbXbXbXbXbXbXbXbXbXbXbXbX9Xl K.V.b x g h % 9 / ^ ^ / :.e.2.^ < $ i ,.p.s.d.<.8 i =.-.^ ! bXbXbXbXbXbXbXbXbXbXbXbXbXbXbX",
"bXbXbXbXbXbXbXbXbXbXbXbXbXbXz % = , 8 s +.U 8 0 K I Q ^ ^ =.,.e.:.I I XXaX}.I ( #.T D C |.bXbXbXbXbXbXbXbXbXbXbXbXbXbXbX",
"bXbXbXbXbXbXbXbXbXbXbXbXbXbX+X5 *.x.c.b.n.b.h.E 0 B 9 0 C L T ^ ;.e./ Q $XD ( T C L V | bXbXbXbXbXbXbXbXbXbXbXbXbXbXbXbX",
"bXbXbXbXbXbXbXbXbXbXbXbXbXbXbX{ s x.c.c.b.b.,Xl.[.dX+X'.` F V 9 y L 0 XX$Xr D [ G V ].bXbXbXbXbXbXbXbXbXbXbXbXbXbXbXbXbX",
"bXbXbXbXbXbXbXbXbXbXbXbXbXbX[ ~ U U k.c.b.n.1Xl..XbXbXbXbXbXoX= + J S eX7X^ +XzX+X` [.bXbXbXbXbXbXbXbXbXbXbXbXbXbXbXbXbX",
"bXbXbXbXbXbXbXbXbXbXbXbXbX[.6.,X-Xl.*.c.b.n.1X>Xd.fXbXbXbXbX].  ' fX}.pXeX$XkXxXxXdX{ bXbXbXbXbXbXbXbXbXbXbXbXbXbXbXbXbX",
"bXbXbXbXbXbXbXbXbXbXbXbXbX[.u.2Xd.f.:Xm.b.B.<X1Xv.d.&XfXbXbXfX'.OX.X$XeXeX%X*XdXOXY { bXbXbXbXbXbXbXbXbXbXbXbXbXbXbXbXbX",
"bXbXbXbXbXbXbXbXbXbXbXbXbXbX$.4X6Xu.5Xm.c.n.<X<X>X,Xm.z.z.#XXX#X%X6XeXeX7XeX0X%X0X#.oXbXbXbXbXbXbXbXbXbXbXbXbXbXbXbXbXbX",
"bXbXbXbXbXbXbXbXbXbXbXbXbXbX].z.sX3X:X5.c.n.1X<X<X1X,X,X,X,X,XqXqXeXiXeX0XpXeXeXeXT bXbXbXbXbXbXbXbXbXbXbXbXbXbXbXbXbXbX",
"bXbXbXbXbXbXbXbXbXbXbXbXbXbXbX] %X<X5.5 6.c.B.<X<X<X2X2X2X:X#X5XtXtXiXiXiXpXpXjXaXY bXbXbXbXbXbXbXbXbXbXbXbXbXbXbXbXbXbX",
"bXbXbXbXbXbXbXbXbXbXbXbXbXbXbXbX[ ^ '.gXS 8.B.>X<X2X3X4XsX6X#XqXtXtXiXiXpXpXjXjX&XF bXbXbXbXbXbXbXbXbXbXbXbXbXbXbXbXbXbX",
"bXbXbXbXbXbXbXbXbXbXbXbXbXbXbXbXbXbXbXbXbXP &.v.>X3X2X3X4X4XyXyXqXtXtXiXpXpXjXaXY bXbXbXbXbXbXbXbXbXbXbXbXbXbXbXbXbXbXbX",
"bXbXbXbXbXbXbXbXbXbXbXbXbXbXbXbXbXbXbXbXbXbX} U u.B.3X3X4X4X4XyXtXtXtXiXpXpX7XQ { bXbXbXbXbXbXbXbXbXbXbXbXbXbXbXbXbXbXbX",
"bXbXbXbXbXbXbXbXbXbXbXbXbXbXbXbXbXbXbXbXbXbXbX@X[ U 6.l.:X5XsXyXyXtXtXwX;X<.F [.bXbXbXbXbXbXbXbXbXbXbXbXbXbXbXbXbXbXbXbX",
"bXbXbXbXbXbXbXbXbXbXbXbXbXbXbXbXbXbXbXbXbXbXbXbXbXdX} ; a E W $.$.$.K y ' oXbXbXbXbXbXbXbXbXbXbXbXbXbXbXbXbXbXbXbXbXbXbX",
"bXbXbXbXbXbXbXbXbXbXbXbXbXbXbXbXbXbXbXbXbXbXbXbXbX1.@.p o.9.9. X9X].e w oXbXbXbXbXbXbXbXbXbXbXbXbXbXbXbXbXbXbXbXbXbXbXbX",
"bXbXbXbXbXbXbXbXbXbXbXbXbXbXbXbXbXbXbXbXbXbXbXbXq.9.M.5.3.N.uXhX}.)  .w R bXbXbXbXbXbXbXbXbXbXbXbXbXbXbXbXbXbXbXbXbXbXbX",
"bXbXbXbXbXbXbXbXbXbXbXbXbXbXbXbXbXbXbXbXbXbXbX{.g.M.9.W 9.rX7Xy.> + ! q.F bXbXbXbXbXbXbXbXbXbXbXbXbXbXbXbXbXbXbXbXbXbXbX",
"bXbXbXbXbXbXbXbXbXbXbXbXbXbXbXbXbXbXbXbXbXbX+X0.N.M.4.9.N.g.o...p H &XhX) 1.bXbXbXbXbXbXbXbXbXbXbXbXbXbXbXbXbXbXbXbXbXbX",
"bXbXbXbXbXbXbXbXbXbXbXbXbXbXbXbXbXbXbXbXbXbX` N.N.9.@.M.5...O.U XX8XhXhXa.0..XbXbXbXbXbXbXbXbXbXbXbXbXbXbXbXbXbXbXbXbXbX",
"bXbXbXbXbXbXbXbXbXbXbXbXbXbXbXbXbXbXbXbXbXbX0.6XM.5.d @.O. .@.7XuXuXhXhX.Xf.0.+X+XbXbXbXbXbXbXbXbXbXbXbXbXbXbXbXbXbXbXbX",
"bXbXbXbXbXbXbXbXbXbXbXbXbXbXbXbXbXbXbXbXbXq.g.;XM.W w O.X.f.8XrXuXuXhXhX&X5.;XD E u..XbXbXbXbXbXbXbXbXbXbXbXbXbXbXbXbXbX",
"bXbXbXbXbXbXbXbXbXbXbXbXbXbXbXbXbXbXbXbXbXF ) 3.3.e w X.g.rXrXrXrXrXrXuX7X4.g.s 6.-X6.bXbXbXbXbXbXbXbXbXbXbXbXbXbXbXbXbX",
"bXbXbXbXbXbXbXbXbXbXbXbXbXbXbXbXbXbXbXbXP 6.7.6.u.6.8 p R R R R R H R ! F p u.o.*.u.a bXbXbXbXbXbXbXbXbXbXbXbXbXbXbXbXbX",
"bXbXbXbXbXbXbXbXbXbXbXbXbXbXbXbXbXbXbXbXU B.>X1X>X,X8           # 2 + 1   = U 7.j.U H bXbXbXbXbXbXbXbXbXbXbXbXbXbXbXbXbX",
"bXbXbXbXbXbXbXbXbXbXbXbXbXbXbXbXbXbXbXbXa b.>X>Xn.v.8   X X . X + 3 : > . G -.u.%.5 bXbXbXbXbXbXbXbXbXbXbXbXbXbXbXbXbXbX",
"bXbXbXbXbXbXbXbXbXbXbXbXbXbXbXbXbXbXbXbX' *.k.k.7.%.T V 9 S Z S p t ; B bXbXbX].] bXbXbXbXbXbXbXbXbXbXbXbXbXbXbXbXbXbXbX",
"bXbXbXbXbXbXbXbXbXbXbXbXbXbXbXbXbXbXbXbXbX1.T I P ' bXbXC Q r Y Y e y { bXbXbXbXbXbXbXbXbXbXbXbXbXbXbXbXbXbXbXbXbXbXbXbX",
"bXbXbXbXbXbXbXbXbXbXbXbXbXbXbXbXbXbXbXbXbXbXbXbXbXbXbXbXC ~ r bXbXS I ] bXbXbXbXbXbXbXbXbXbXbXbXbXbXbXbXbXbXbXbXbXbXbXbX",
"bXbXbXbXbXbXbXbXbXbXbXbXbXbXbXbXbXbXbXbXbXbXbXbXbXbXbXH . O # bXB @ $ 7 bXbXbXbXbXbXbXbXbXbXbXbXbXbXbXbXbXbXbXbXbXbXbXbX",
"bXbXbXbXbXbXbXbXbXbXbXbXbXbXbXbXbXbXbXbXbXbXbXbXbXbXbX; - 7 @ X   # $ . V bXbXbXbXbXbXbXbXbXbXbXbXbXbXbXbXbXbXbXbXbXbXbX",
"bXbXbXbXbXbXbXbXbXbXbXbXbXbXbXbXbXbXbXbXbXbXbXbXbXbXbXL ^ Y 9 X   @ C ,     B bXbXbXbXbXbXbXbXbXbXbXbXbXbXbXbXbXbXbXbXbX",
"bXbXbXbXbXbXbXbXbXbXbXbXbXbXbXbXbXbXbXbXbXbXbXbXbXbXbXbXD L ;     X e +     = bXbXbXbXbXbXbXbXbXbXbXbXbXbXbXbXbXbXbXbXbX",
"bXbXbXbXbXbXbXbXbXbXbXbXbXbXbXbXbXbXbXbXbXbXbXbXbXbXbXbXbXbXbXbXbXbXbXbXH H bXbXbXbXbXbXbXbXbXbXbXbXbXbXbXbXbXbXbXbXbXbX",
"bXbXbXbXbXbXbXbXbXbXbXbXbXbXbXbXbXbXbXbXbXbXbXbXbXbXbXbXbXbXbXbXbXbXbXbXbXbXbXbXbXbXbXbXbXbXbXbXbXbXbXbXbXbXbXbXbXbXbXbX"
};
