/* XPM */
static char *result[] = {
/* columns rows colors chars-per-pixel */
"60 60 225 2 ",
"   c #040404",
".  c #0B0404",
"X  c #0A0A0A",
"o  c #0A0B07",
"O  c #150403",
"+  c #1A0804",
"@  c #1C1504",
"#  c #0B0D1A",
"$  c #110F15",
"%  c #0E1015",
"&  c #131214",
"*  c #14131E",
"=  c #18161D",
"-  c #1C1C1D",
";  c #1B1816",
":  c #230402",
">  c #2B0402",
",  c #330402",
"<  c #3C0401",
"1  c #350D0B",
"2  c #2C1F0B",
"3  c #251905",
"4  c #331C00",
"5  c #241D15",
"6  c #241D1B",
"7  c #291A16",
"8  c #3A1210",
"9  c #2E210B",
"0  c #3C2503",
"q  c #33230B",
"w  c #3D2A0B",
"e  c #392507",
"r  c #2D2214",
"t  c #2B211D",
"y  c #322514",
"u  c #362C1A",
"i  c #382B18",
"p  c #3B301F",
"a  c #0F1121",
"s  c #131422",
"d  c #181720",
"f  c #1B1A23",
"g  c #1B1B2C",
"h  c #171828",
"j  c #1D1E32",
"k  c #211E25",
"l  c #201F2D",
"z  c #1F2034",
"x  c #22212C",
"c  c #282426",
"v  c #372A24",
"b  c #3C3222",
"n  c #3E3329",
"m  c #232335",
"M  c #2B2935",
"N  c #25263A",
"B  c #29293C",
"V  c #292634",
"C  c #312D33",
"Z  c #343238",
"A  c #2F3030",
"S  c #440400",
"D  c #4C0400",
"F  c #4F0C03",
"G  c #530400",
"H  c #5C0400",
"J  c #590B00",
"K  c #581905",
"L  c #471714",
"P  c #521B19",
"I  c #481A03",
"U  c #640200",
"Y  c #6C0200",
"T  c #680A02",
"R  c #730100",
"E  c #7B0000",
"W  c #7D0D04",
"Q  c #740C03",
"!  c #641A08",
"~  c #751B04",
"^  c #412702",
"/  c #452A03",
"(  c #4B2D02",
")  c #422B09",
"_  c #492C07",
"`  c #572B05",
"'  c #4D3003",
"]  c #4D320A",
"[  c #533202",
"{  c #5B3501",
"}  c #53350C",
"|  c #5B3C0B",
" . c #5B3806",
".. c #493515",
"X. c #583915",
"o. c #4F2C17",
"O. c #672509",
"+. c #772509",
"@. c #623905",
"#. c #703C00",
"$. c #643513",
"%. c #673B15",
"&. c #713316",
"*. c #463827",
"=. c #523F27",
"-. c #453A33",
";. c #402E2D",
":. c #5E420C",
">. c #5B4219",
",. c #674408",
"<. c #7A4806",
"1. c #7C5509",
"2. c #644313",
"3. c #6A4D1D",
"4. c #684817",
"5. c #724D1B",
"6. c #75471A",
"7. c #73521E",
"8. c #775416",
"9. c #6A511F",
"0. c #5C4424",
"q. c #56452A",
"w. c #4D4433",
"e. c #46423B",
"r. c #564A3D",
"t. c #544A37",
"y. c #694C22",
"u. c #664C26",
"i. c #6D5524",
"p. c #6D552A",
"a. c #7C5522",
"s. c #7B5B23",
"d. c #755828",
"f. c #65553B",
"g. c #755830",
"h. c #7D653E",
"j. c #393945",
"k. c #454549",
"l. c #544B44",
"z. c #585348",
"x. c #4C4D52",
"c. c #474751",
"v. c #535454",
"b. c #5B5955",
"n. c #5C5C5C",
"m. c #585656",
"M. c #655948",
"N. c #635D53",
"B. c #6A645B",
"V. c #726757",
"C. c #71634D",
"Z. c #5C5D61",
"A. c #5F6062",
"S. c #636364",
"D. c #6B6B6C",
"F. c #686867",
"G. c #75726D",
"H. c #747474",
"J. c #7C7C7C",
"K. c #797876",
"L. c #840100",
"P. c #8B0000",
"I. c #860D04",
"U. c #940100",
"Y. c #9C0000",
"T. c #9D0C01",
"R. c #940C02",
"E. c #A40000",
"W. c #A10E04",
"Q. c #A80000",
"!. c #872903",
"~. c #942C03",
"^. c #8B340C",
"/. c #99320A",
"(. c #8B3A14",
"). c #9E3A14",
"_. c #9A3812",
"`. c #824A0A",
"'. c #8A5519",
"]. c #864F11",
"[. c #815D25",
"{. c #8D5E22",
"}. c #825D2A",
"|. c #835525",
" X c #915F24",
".X c #866226",
"XX c #84622A",
"oX c #8A6629",
"OX c #8D6A2D",
"+X c #8A6526",
"@X c #906C2E",
"#X c #8D6B31",
"$X c #896733",
"%X c #916E32",
"&X c #947335",
"*X c #997639",
"=X c #9C7B3C",
"-X c #97753A",
";X c #9C7C47",
":X c #8C724C",
">X c #A07C40",
",X c #807E7D",
"<X c #A0803F",
"1X c #9F8151",
"2X c #A48243",
"3X c #AD8A4C",
"4X c #A88548",
"5X c #B18E4E",
"6X c #A88651",
"7X c #B28E52",
"8X c #B49054",
"9X c #BA965C",
"0X c #BC9863",
"qX c #C29E67",
"wX c #C4A067",
"eX c #7D7F82",
"rX c #848484",
"tX c #8C8D8D",
"yX c #868789",
"uX c #939393",
"iX c #9B9B9B",
"pX c #8F9091",
"aX c #A2A2A2",
"sX c #ACACAC",
"dX c None",
/* pixels */
"dXdXdXdXdXdXdXdXdXdXdXdXdXdXdXdXdXdXdXdXdXdXdXdXdXdXdXdXdXdXdXdXdXdXdXdXsXsXsXdXdXdXdXdXdXdXdXdXdXdXdXdXdXdXdXdXdXdXdXdX",
"dXdXdXdXdXdXdXdXdXdXdXdXdXdXdXdXdXdXdXdXdXdXdXdXdXdXdXdXdXdXdXdXdXdXdXdXsXsXsXdXdXdXdXdXdXdXdXdXdXdXdXdXdXdXdXdXdXdXdXdX",
"dXdXdXdXdXdXdXdXdXdXdXdXdXdXdXdXdXdXdXdXdXdXdXdXdXdXdXdXdXdXdXdXdXdXdXdXsXsXsXdXdXdXdXdXdXdXdXdXdXdXdXdXdXdXdXdXdXdXdXdX",
"dXdXdXdXdXdXdXdXdXdXdXdXdXdXdXdXdXdXdXdXdXdXdXdXdXdXdXdXdXdXdXdXdXdXdXdXsXsXsXdXdXdXdXdXdXdXdXdXdXdXdXdXdXdXdXdXdXdXdXdX",
"dXdXdXdXdXdXdXdXdXdXdXdXdXdXdXdXdXdXdXdXdXdXdXdXdXdXdXdXdXdXdXdXdXdXdXdXaXaXaXdXdXdXdXdXdXdXdXdXdXdXdXdXdXdXdXdXdXdXdXdX",
"dXdXdXdXdXdXdXdXdXdXdXdXdXdXdXdXdXdXdXdXdXdXdXdXn.F.D.K.J.J.H.F.Z.dXdXdXdXpXpXdXdXdXdXdXdXdXdXdXdXdXdXdXdX7X7X8X8XdXdXdX",
"dXdXdXdXdXdXdXdXdXdXdXdXdXdXdXdXdXdXdXdXdXdXdXn.n.F.H.J.rXJ.K.D.Z.Z.dXdX1XeXJ.dXdXdXdXdXdXdXdXdXdXdXdXdX7X8X8X8X8XdXdXdX",
"dXdXdXdXdXdXdXdXdXdXdXdXdXdXdXdXdXdXdXdXdXdXdXS.D.D.J.rXrXrXJ.H.F.F.eXdXD.eXH.dXdXdXdXdXdXdXdXdXdXdXdX$X7X9X0X9X7X4XdXdX",
"dXdXdXdXdXdXdXdXdXdXdXdXdXdXdXdXdXdXdXdXdXn.Z.F.H.J.rXtXpXpXyX,XK.K.K.J.D.F.S.dXdXdXdXdXdXdXdXdXdXdX| d.;XwXwX9X3X*XOX{.",
"dXdXdXdXdXdXdXdXdXdXdXdXdXdXdXdXdXdXdXdXdXm.S.D.J.rXpXiXiXuXpXyXeX,XK.H.D.A.N.dXdXdXdXdXdXdXdXdXdX_ } y.;XqXqX0X3X>X%XoX",
"dXdXdXdXdXdXdXdXdXdXdXdXdXdXdXdXdX8.q.-.k.m.S.H.rXuXiXaXaXuXuXpXtXeXH.F.A.Z.b.p.1.dXdXdXdXdX ._ _ / _ 2.$X;X7X8X7X>X-X%X",
"dXdXdXdXdXdXdXdXdXdXdXdXdXdXdXdX1.8.q.e.k.v.S.K.yXiXaXaXaXiXuXuXpXeXD.A.Z.n.M.i.1.`.dXdXdX| } _ _ ^ w } i.#X>X3X7X4X=X*X",
"dXdXdXdXdXdXdXdXdXdXdXdXdXdXdXdX,.:.q.e.x.n.D.J.pXiXaXaXaXaXuXuXtXJ.F.n.m.v.z.y.8.,.dXdX] } _ / ^ 0 e ] 4.a.oX-X-X#X}.}.",
"dXdXdXdXdXdXdXdXdXdXdXdXdXdXdXdX/ ..w.v.n.D.K.rXpXiXiXaXaXaXaXuXyXJ.S.n.x.k.w.>.:. .' ' / / / ^ 0 4 dXdX%.4.5.a.d.%.X.O.",
"dXdXdXdXdXdXdXdXdXdXdXdXdXdXdXdX9 i w.b.F.H.,XrXpXuXuXuXaXaXaXpXJ.D.F.n.v.k.w.=.| [ ' ) / e ) ) _ ] dXdX$.$.$.$.O.P F D ",
"dXdXdXdXdXdXdXdXdXdXdXdXdXdXdXdX@ r e.b.F.D.G.,XrXtXuXuXiXaXuX,XF.F.D.H.F.B.l.q.] ' ( ) 8 q ;.=.d.$XdXs.X.K K ~ ~ Q H H ",
"dXdXdXdXdXdXdXdXdXdXdXdXdXdXdXdX@ r e.v.A.B.S.H.J.rXpXuXiXiXyXF.v.A.K.yXrXH.B.q.] ' / ) y k -.$X;X4X=X}.$.F U I.R.L.E Y ",
"dXdXdXdXdXdXdXdXdXdXdXdXdXdXdX@ @ 9 *.z.b.b.A.F.H.eXyXpXuXpX,Xb.e.b.J.uXtXrXV.q.] 0 w w 6 l r.:X7X5X2X$X%.K T L.P.L.E E ",
"dXdXdXdXdXdXdXdXdXdXdXdXdXdX* : 3 9 >.q.f.b.A.A.F.H.eXrXtXyXK.l.b r.K.uXuXrXB.q.) q r t l N l.:X8X5X2X%Xg.&.O.Q U Y Y Y ",
"dXdXdXdXdXdXdXdXdXdXdXdXdXh = ; 9 e 0 :.>.z.n.n.n.S.D.J.,X,XB.w.i q.G.tXtXJ.B.w.w 2 c l z V l.:X3X3X>X-X%X}.%.K G G H H ",
"dXdXdXdXdXdXdXdXdXdXdXdXh h g k 5 9 0 ' :.q.f.f.f.M.C.C.V.C.M...e w.B.J.K.F.b.-.u k l m z N e.:X4X2X*X&X&XOXa.%.` K K J ",
"dXdXdXdXdXdXdXdX+Xd.=.c g j m l - 5 9 0 / >.2.5.8.7.3.3.9.3.>.w 9 ..z.S.Z.z.k.Z C V m N j V -.:X<X=X%XOX&X&XOXa.6.$.O.o.",
"dXdXdXdXdXdXdXdX%Xg.w.M j N N N x c 5 9 0 '  .,.1.<.@.{ { { { / 0 *.z.n.m.k.j.j.V N N m j l -.g.&X&XoXOX&X=X*XOX[.5.3.%.",
"dXdXdXdXdXdXoX&X>X$Xf.C N N B N z z k 5 9 0 [ @.,.,.[ ( [ { { [ ( q.N.D.A.v.j.j.B N N z h f n p.@X@X+XOX&X=X&XOXoXXXXX}.",
"dXdXdXdXdX+XoX*X;X;XM.j.m N B N N N x k 6 4 0 ' { { / 0 / { { {  .u.V.H.D.n.x.j.B m j g s f b i.oXOX+XOX&X=X&XOXoX%X%X-X",
"dXdXdXdXdXoX@X>X7X6XC.Z z N B B B N m j x 5 q ^ ( / e 9 e ' [ ' } 0.M.B.F.S.m.j.N j g h s d v u..X+X+XOX*X=X*X@X@X%X&X&X",
"dXdXdX+XoX@X&X2X7X;XM.C j N N B B B N N x k 6 q 0 e r 6 2 e ^ w i v *.w.b.F.A.j.m h f s a d v u..XOXOXOX*X<X<X*X&X#X}.[.",
"dXdXdXoXoX&X=X4X7X;Xf.C j m N B N B B N m l f 5 9 2 - f 6 2 2 6 f 6 2 i z.G.D.k.x h s s a d b u..X.X.X.X#X&X*X&X%X[.7.5.",
"dXdXOXoXOX&X=X2X4X;Xg.*.v V N m N m N m z j g 6 5 5 f f - 5 5 = h d 5 v b.rXeXc.g s * s s * c 0.s.>.>.>.9.7.s.s.7.5.4.2.",
"=X=X%XoXoX&X=X<X2X*X$Xy.*.v l j g j m g g j g f * = d d d = = f j h f M F.pXrXc.f * * * * d - dXdXr @ 9 w :.:.,.,.$.%.%.",
"=X&X&X%X&X=X<X<X=X&X[.5.X.v h h h h h h h g f h * # # # * s s s h h h m Z.eXH.k.h # * s a a h dXdXdX  + e ' ' ' [ } | $.",
"&X&X*X=X2X4X4X2X*XOX8.2.o.6 h a h s h h h s s # # # # # # # # a h a a j j.c.c.M s # a a * s s dXdXdXdXdXdXdXdXdXdXdXdXdX",
".XoX=X4X7X8X3X2X%Xs.4.{ ) r = d = f = d d f d = & & & # $ $ & = = d f f f x x f = = = = * s d dXdXdXdXdXdXdXdXdXdXdXdXdX",
"s..X&X4X5X8X3X=X.X5.:.[ / w i u b p u i u p b p u u p u i 9 r i b b b p u y y p b p i r r r r dXdXdXdXdXdXdXdXdXdXdXdXdX",
"7.|.#X=X2X4X2X#X5.| [ ' [ [ :.4.i.9.2.| 2.i.i.i.i.d.i.9.4.:.:.3.d.d.p.i.4.:.:.3.i.9.2. .] / w dXdXdXdXdXdXdXdXdXdXdXdXdX",
"6.6.|.#X&X-X%Xs.:./ / ` { #.<.].{.'.`.`.`.'. X+X X+X+X'.].<.`.]. X+X+X'.].<.<.'.'.'.<.<.{ ` ( dXdXdXdXdXdXdXdXdXdXdXdXdX",
"+.+.&.&.|.|.a.>.e 4 I ! ~ !.~.~.).)./.~./.).).(.(.(.(.(.^.~.~./.).).).)./.~.~.^.^.^.!.+.! K K dXdXdXdXdXdXdXdXdXdXdXdXdX",
"W W Q ! ! O.| w 3 + < Y I.R.T.W.W.W.T.T.W.W.W.R.I.I.W I.R.R.T.W.W.W.W.W.W.T.T.I.W W W Q T T J dXdXdXdXdXdXdXdXdXdXdXdXdX",
"E E Y U F I w 2 o O S Y P.Y.E.Q.E.E.E.Y.Y.Y.U.P.E E E E L.U.Y.E.E.E.Q.Q.Q.E.Y.P.E E E Y U U H dXdXdXdXdXdXdXdXdXdXdXdXdX",
"dXdXdXdXdX1 3 o   O < R U.Y.E.Q.Q.E.U.P.P.P.L.E Y Y Y E L.P.U.Y.Q.Q.Q.E.Q.E.Y.P.E Y Y U U H H dXdXdXdXdXdXdXdXdXdXdXdXdX",
"dXdXdXdXdX        O S Y L.Y.Y.E.E.U.P.E E E R Y H U Y E E E L.U.Y.E.E.Y.E.E.Y.P.E Y U H H H G dXdXdXdXdXdXdXdXdXdXdXdXdX",
"dXdXdXdXdX        O < U L.P.U.U.P.L.E R R R Y D < S H Y R R R E L.P.L.P.P.U.P.L.E R H J G G S > dXdXdXdXdXdXdXdXdXdXdXdX",
"dXdXdXdXdX        O , H R E L.E Y Y Y U U U H < : : S U U U U Y Y T Y Y E E L.L.E Y U H G D , +   dXdXdXdXdXdXdXdXdXdXdX",
"dXdXdXdXdX        . > S G U U H G D D D F D S : . O , F D D D D D G G H Y Y R E E Y U J D S , O     dXdXdXdXdXdXdXdXdXdX",
"dXdXdXdXdX.       . O : , , , , : : > > > : : O . . + : > : > : > < S G J H H U Y Y H H G S > O     dXdXdXdXdXdXdXdXdXdX",
"dXdXdXdXdX          .   . . O . . . . . . . .     . . . . . . . . + , S S D D H H H H G D S , O     dXdXdXdXdXdXdXdXdXdX",
"dXdXdXdXdX                                                        O : > < S S D G G G G D S > O     dXdXdXdXdXdXdXdXdXdX",
"dXdXdXdXdX                                                          O + > < S D S D D D D S , O         dXdXdXdXdXdXdXdX",
"dXdXdXdXdX            .       .       .                     .         . : < S D S D S S D S > +         dXdXdXdXdXdXdXdX",
"dXdXdXdXdXdXdX                                        .                 : < S D D F G D D S , O         dXdXdXdXdXdXdXdX",
"dXdXdXdXdXdXdXdXdXdX                                                  . : < D G H H H G D S > O         dXdXdXdXdXdXdXdX",
"dXdXdXdXdXdXdXdXdXdXdX                  .                             . : < D G H H H H G S , + X X       dXdXdXdXdXdXdX",
"dXdXdXdXdXdXdXdXdXdXdXdXdXdXdXdXdXdXdXdXdXdXdX            .           . : < D G H U H H G S , 7 ; % X       dXdXdXdXdXdX",
"dXdXdXdXdXdXdXdXdXdXdXdXdXdXdXdXdXdXdXdXdXdXdX      .                 . : < D G H U H G D S 8 7 - &           dXdXdXdXdX",
"dXdXdXdXdXdXdXdXdXdXdXdXdXdXdXdXdXdXdXdXdXdXdXdX                      . + 1 L L P P P P L 8 7 5 = X .         dXdXdXdXdX",
"dXdXdXdXdXdXdXdXdXdXdXdXdXdXdXdXdXdXdXdXdXdXdXdXdXdXdXdX              . $ 6 v v ;.-.;.;.v 6 ; & X o           dXdXdXdXdX",
"dXdXdXdXdXdXdXdXdXdXdXdXdXdXdXdXdXdXdXdXdXdXdXdXdXdXdXdXdX              & = c A A Z A A c k & X               dXdXdXdXdX",
"dXdXdXdXdXdXdXdXdXdXdXdXdXdXdXdXdXdXdXdXdXdXdXdXdXdXdXdXdXdXdXdXdX      X & & - - - - - - & X o       dXdXdXdXdXdXdXdXdX",
"dXdXdXdXdXdXdXdXdXdXdXdXdXdXdXdXdXdXdXdXdXdXdXdXdXdXdXdXdXdXdXdXdXdX          X o o X X o           dXdXdXdXdXdXdXdXdXdX",
"dXdXdXdXdXdXdXdXdXdXdXdXdXdXdXdXdXdXdXdXdXdXdXdXdXdXdXdXdXdXdXdXdXdX  .                             dXdXdXdXdXdXdXdXdXdX"
};
