/* XPM */
static char *result[] = {
/* columns rows colors chars-per-pixel */
"60 60 223 2 ",
"   c #030404",
".  c #0B0505",
"X  c #0E0A06",
"o  c #0C0C0C",
"O  c #050A04",
"+  c #120D05",
"@  c #120E08",
"#  c #140404",
"$  c #191509",
"%  c #120D16",
"&  c #0E1316",
"*  c #131213",
"=  c #1C1513",
"-  c #15131C",
";  c #1B141D",
":  c #1B1A1C",
">  c #161919",
",  c #0F0F19",
"<  c #260403",
"1  c #340C0A",
"2  c #3C0905",
"3  c #2D1E00",
"4  c #251A08",
"5  c #39110F",
"6  c #36160A",
"7  c #320B12",
"8  c #2B1E1D",
"9  c #251A18",
"0  c #371919",
"q  c #2C0B10",
"w  c #2F2004",
"e  c #342304",
"r  c #3C2503",
"t  c #33240B",
"y  c #3B2909",
"u  c #2A2417",
"i  c #362A18",
"p  c #3F3312",
"a  c #141523",
"s  c #1B1C2C",
"d  c #171826",
"f  c #1E1E30",
"g  c #201E29",
"h  c #1C2020",
"j  c #242425",
"k  c #2B2322",
"l  c #2B2B2B",
"z  c #2C2727",
"x  c #342929",
"c  c #3C3326",
"v  c #222235",
"b  c #343434",
"n  c #3C3B3A",
"m  c #332E32",
"M  c #440401",
"N  c #4B0401",
"B  c #470A08",
"V  c #540300",
"C  c #5B0400",
"Z  c #530D0E",
"A  c #5B0A00",
"S  c #481405",
"D  c #581904",
"F  c #591010",
"G  c #620302",
"H  c #6E0200",
"J  c #680A02",
"K  c #740100",
"L  c #7D0000",
"P  c #790D09",
"I  c #6A1903",
"U  c #7A1D09",
"Y  c #6F1111",
"T  c #442A03",
"R  c #4A2D03",
"E  c #452D0B",
"W  c #4A2F0A",
"Q  c #462703",
"!  c #512807",
"~  c #4C3202",
"^  c #4C310B",
"/  c #44310B",
"(  c #533403",
")  c #5B3901",
"_  c #55360A",
"`  c #5C330B",
"'  c #563B0D",
"]  c #5C3C0E",
"[  c #593602",
"{  c #4C3514",
"}  c #493617",
"|  c #553A15",
" . c #5C3F13",
".. c #543D19",
"X. c #512911",
"o. c #77280B",
"O. c #633D03",
"+. c #653A05",
"@. c #683A16",
"#. c #723216",
"$. c #6C2A10",
"%. c #45392B",
"&. c #483A26",
"*. c #513E23",
"=. c #453E34",
"-. c #7A2F2B",
";. c #5B441A",
":. c #5F4105",
">. c #654204",
",. c #6B4404",
"<. c #65410B",
"1. c #6C470A",
"2. c #6F4A0A",
"3. c #744C05",
"4. c #734C09",
"5. c #7A5106",
"6. c #7C530A",
"7. c #7E5A0F",
"8. c #634213",
"9. c #6D4B14",
"0. c #6C4C1A",
"q. c #63481B",
"w. c #724E1C",
"e. c #764B18",
"r. c #76531C",
"t. c #7A531D",
"y. c #7B5718",
"u. c #54442D",
"i. c #5B462A",
"p. c #4A4439",
"a. c #49443B",
"s. c #5B4D3A",
"d. c #564936",
"f. c #5F503B",
"g. c #624925",
"h. c #68532B",
"j. c #755522",
"k. c #7B5621",
"l. c #7D5A23",
"z. c #785B28",
"x. c #665439",
"c. c #745F3C",
"v. c #7C622D",
"b. c #79613B",
"n. c #3F4242",
"m. c #434342",
"M. c #4B4943",
"N. c #4B4B4C",
"B. c #544E44",
"V. c #504F4D",
"C. c #5C554B",
"Z. c #5D5243",
"A. c #535354",
"S. c #5B5C5C",
"D. c #5B5855",
"F. c #4E5053",
"G. c #675A47",
"H. c #625C54",
"J. c #65615B",
"K. c #74665E",
"L. c #5B5E62",
"P. c #646463",
"I. c #6B6B6C",
"U. c #676767",
"Y. c #73716C",
"T. c #6E6F70",
"R. c #747474",
"E. c #7A7875",
"W. c #7B7B7B",
"Q. c #767778",
"!. c #7C6A62",
"~. c #850101",
"^. c #8C0100",
"/. c #930000",
"(. c #9C0100",
"). c #A00101",
"_. c #832D10",
"`. c #815C16",
"'. c #835E25",
"]. c #8F5221",
"[. c #856126",
"{. c #85642A",
"}. c #896529",
"|. c #8D6A2D",
" X c #916E2E",
".X c #956D2A",
"XX c #8F6C31",
"oX c #826636",
"OX c #926E32",
"+X c #8E7138",
"@X c #957335",
"#X c #997635",
"$X c #9A773A",
"%X c #9C7B3C",
"&X c #A17D3D",
"*X c #834E51",
"=X c #816B49",
"-X c #997B45",
";X c #907851",
":X c #A47F42",
">X c #857A7C",
",X c #A38243",
"<X c #AA8649",
"1X c #AC8A4C",
"2X c #A7834C",
"3X c #B18D4D",
"4X c #B28D53",
"5X c #B69255",
"6X c #BB965B",
"7X c #BF9B65",
"8X c #C29E66",
"9X c #CBA773",
"0X c #C4A06B",
"qX c #7B7E81",
"wX c #838383",
"eX c #8C8C8C",
"rX c #888989",
"tX c #949494",
"yX c #9E9E9E",
"uX c #959799",
"iX c #A5A5A5",
"pX c #ABABAB",
"aX c None",
/* pixels */
"aXaXaXaXaXaXaXaXaXaXaXaXaXaXaXaXaXaXaXpXpXaXaXaXaXaXaXaXaXaXaXaXaXaXaXaXaXaXaXaXaXaXaXaXaXaXaXaXaXaXaXaXaXaXaXaXaXaXaXaX",
"aXaXaXaXaXaXaXaXaXaXaXaXaXaXaXaXaXaXaXiXiXaXaXaXaXaXaXaXaXaXaXaXaXaXaXaXaXaXaXaXaXaXaXaXaXaXaXaXaXaXaXaXaXaXaXaXaXaXaXaX",
"aXaXaXaXaXaXaXaXaXaXaXaXaXaXaXaXaXaXaXeXeXaXaXaXaXaXaXaXaXaXaXaXaXaXaXaXaXaXaXaXaXaXaXaXaXaXaXaXaXaXaXaXaXaXaXaXaXaXaXaX",
"aXaXaXaXaXaXaXaXaXaXaXaXaXaXaXaXaXaXQ.Q.Q.aXaXaXaXaXaXaXaXaXaXaXaXaXaXaXaXaXaXaXaXaXaXaXaXaXaXaXaXaXaXaXaXaXaXaXaXaXaXaX",
"aXaXaXaXaXaXaXaXaXaXaXaXaXaXaXaXaXW.R.P.P.aXaXaXaXaXaXaXaXaXaXaXaXaXaXaXaXaXaXaXaXaXaXaXaXaXaXaXaXaXaXaXaXaXaXaXaXaXaXaX",
"aXaXaXaXaXaXaXaXaXaXaXaXaXaXaXaXaXQ.I.L.D.aXaXaXaXaXaXaXaXaXaXaXaXaXaXaXaXaXaXaXaXaXaXaXaXaXaXaXaXaXaXaXaXaXaXaXaXaXaXaX",
"aXaXaXaXaXaXaXaXaXaXaXaXaXaXaXaXaXU.P.S.S.aXaXaXaXaXaXaXaXaXaXaXaXaXaXaXaXaXaXaXaXaXaXaXaXaXaXaXaXaXaXaXaXaXaXaXaXaXaXaX",
"aXaXaXaXaXaXaXaXaXaXaXaXaXaXaXaXD.S.D.S.S.aXaXaXaXaXaXaXaXaXaXaXaXaXaXaXaXaXaXaXaXaXaXaXaXaXaXaXaXaXaXaXaXaXaXaXaXaXaXaX",
"aXaXaXaXaXaXaXaXaXaXaXaXaXaXaXm.F.D.A.N.N.aXaXaXaXaXaXaXaXaXaXaXaXaXaXaXaXaXaXaXaXaXaXaXaXaXaXaXaXaXaXaXaXaXaXaXaXaXaXaX",
"aXaXaXaXaXaXaXaXaXaXaXaXaXaXn m.A.S.A.N.m.aXaXaXaXaXaXaXaXaXaXaXaXaXaXaXaXaXaXaXaXaXaXaXaXaXaXaXaXaXaXaXaXaXaXaXaXaXaXaX",
"aXaXaXaXaXaXaXaXaXaXaXaXaXt c m.S.Q.R.P.P.aXaXaXaXaXaXaXaXaXaXaXaXaXaXaXaXaXaXaXaXaXaXaXaXaXaXaXaXaXaXaXaXaXaXaXaXaXaXaX",
"aXaXaXaXaXaXaXaXaXaXaXaXw w i n.U.eXeXW.Q.aXaXaXaXaXaXaXaXaXaXaXaXaXaXaXaXaXaXaXaXaXaXaXaXaXaXaXaXaXaXaXaXaXaXaXaXaXaXaX",
"aXaXaXaXaXaXaXaXaXaXaXaX3 e i a.I.tXtXqXT.N.%.E T r ^ 8.aXaXaXaXaXaXaXaXaXaXaXaXaXaXaXaXaXaXaXaXaXaXaXaXaXaXaXaXaXaXaXaX",
"aXaXaXaXaXaXaXaXaXaXaXaX3 e c m.U.eXrXE.L.M.%.E T r ^ 8.0.aXaXaXaXaXaXaXaXaXaXaXaXaXaXaXaXaXaXaXaXaXaXaXaXaXaXaXaXaXaXaX",
"aXaXaXaXaXaXaXaXaXaXaXaXaXt =.N.S.U.J.G.Z.m.%.^ R T T _ ( T aX] 9.r.q.^ aXaXaXaXaXaXaXaXaXaXaXaXaXaXaXaXaXaXaXaXaXaXaXaX",
"aXaXaXaXaXaXaXaXaXaXaXaXaXaXD.S.A.M.u. .*.=.=.| _ W ^ ^ E E { 8.0.9.8.^ r aXaXaXaXaXaXaXaXaXaXaXaXaXaXaXaXaXaXaXaXaXaXaX",
"aXaXaXaXaXaXaXaXaXaXaXaXaXaXaXU.L.N.d.0.q.*.*.u.s.s.x.f.s.s.s.f.i.;.' R T r aXaXaXaXaXaXaXaXaXaXaXaXaXaXaXaXaXaXaXaXaXaX",
"aXaXaXaXaXaXaXaXaXaXaXaXaXaXW.W.I.S.G.'.e.;.u.C.P.R.E.E.E.E.Y.P.C.*.^ R Q r E q.OX4X9XaXaXaXaXaXaXaXaXaXaXaXaXaXaXaXaXaX",
"aXaXaXaXaXaXaXaXaXaXaXaXaXaXW.W.R.J.h.t.0.i.Z.P.W.eXuXuXtXuXeXR.P.G.*.X.D S / j.-X5X8XaXaXaXaXaXaXaXaXaXaXaXaXaXaXaXaXaX",
"aXaXaXaXaXaXaXaXaXaXaXaXaXaXW.W.qXaXaX+.i.G.P.Q.eXyXiXiXpXiXyXrXW.qX*X-.P D ' {.1X5X5XaXaXaXaXaXaXaXaXaXaXaXaXaXaXaXaXaX",
"aXaXaXaXaXaXaXaXaXaXaXaXaXaXtXtXuXaXaXi.x.P.Q.wXtXiXiXiXiXiXyXeXrXrX>X*X-.@.0.XX1X<X,XaXaXaXaXaXaXaXaXaXaXaXaXaXaXaXaXaX",
"aXaXaXaXaXaXaXaXaXaXaXaXaXaXiXiXpXaXaXD.P.R.wXeXtXtXuXuXuXuXuXtXtXtXeX>X!.b.[.@X%X@X|.aXaXaXaXaXaXaXaXaXaXaXaXaXaXaXaXaX",
"aXaXaXaXaXaXaXaXaXaXaXaXaXaXaXpXaXaXaXI.R.W.wXeXeXtXtXtXtXtXtXtXtXeXrXqXY.b.t.[.'.l.r.aXaXaXaXaXaXaXaXaXaXaXaXaXaXaXaXaX",
"aXaXaXaXaXaXaXaXaXaXaXaXaXaXaXaXaXaXaXW.Q.W.>XqX2XtXtXtXtXtXtXtXeXrXW.I.H.h.>.<.8.@.] aXaXaXaXaXaXaXaXaXaXaXaXaXaXaXaXaX",
"aXaXaXaXaXaXaXaXaXaXaXaXaXaXaXaXaXaXaXU.I.Y.Q.W.qXeXeXeXeXeXeXeXrXW.I.S.B.i.O.( W ^ ' aXaXaXaXaXaXaXaXaXaXaXaXaXaXaXaXaX",
"aXaXaXaXaXaXaXaXaXaXaXaXaXaXaXaXaXaXaXN.F.P.U.W.qXqXwXqXwXwXwXwXqXI.S.N.p.q.3.~ r r aXaXaXaXaXaXaXaXaXaXaXaXaXaXaXaXaXaX",
"aXaXaXaXaXaXaXaXaXaXaXaXaXaXaXaXaXaXaX%.p.N.S.T.qXqXT.Q.R.R.R.R.I.S.V.p.i.9.,.~ 3 aXaXaXaXaXaXaXaXaXaXaXaXaXaXaXaXaXaXaX",
"aXaXaXaXaXaXaXaXaXaXaXaXaXaXaXaXaXaXaX_ *.a.F.P.L.I.L.L.P.P.P.P.S.V.p.;.2.>.>.( aXaXaXaXaXaXaXaXaXaXaXaXaXaXaXaXaXaXaXaX",
"aXaXaXaXaXaXaXaXaXaXaXaXaXaXaXaXaXaXO.,. .&.p.a.M.a.M.m.m.M.B.B.p.p.&.;.<.2.y.OXaXaXaXaXaXaXaXaXaXaXaXaXaXaXaXaXaXaXaXaX",
"aXaXaXaXaXaXaXaXaXaXaXaXaXaXaXaXaXO.,.3.1.] ^ p i u u u u i i } | | ~ r y z.:X7X9X8X5XaXaXaXaXaXaXaXaXaXaXaXaXaXaXaXaXaX",
"aXaXaXaXaXaXaXaXaXaXaXaXaXaXaXaXaXO.,.,.O.( y w 4 $ $ $ 4 r R R ( +.>./ } v.<X6X8X5X4XaXaXaXaXaXaXaXaXaXaXaXaXaXaXaXaXaX",
"aXaXaXaXaXaXaXaXaXaXaXaXaXaXaXaXaX3.O.~ y u 9 h : h : : u ' >.) O.9.l.v.v.[..X%X1X<X,XaXaXaXaXaXaXaXaXaXaXaXaXaXaXaXaXaX",
"aXaXaXaXaXaXaXaXaXaXaXaXaXaXaXaXaX5._ w = - d f f f s s z ;.,.>.,.y.'. X X7.4.r.v.@X%XaXaXaXaXaXaXaXaXaXaXaXaXaXaXaXaXaX",
"aXaXaXaXaXaXaXaXaXaXaXaXaXaXaXaXaXaXt $ > d f v v f d a d u } <.4.1.2.`.`.2._ / p i.aXaXaXaXaXaXaXaXaXaXaXaXaXaXaXaXaXaX",
"aXaXaXaXaXaXaXaXaXaXaXaXaXaXaXaXaXaXaX- a s v v f s s z m m %.0.5.,.+.3.3.) ~ r w w aXaXaXaXaXaXaXaXaXaXaXaXaXaXaXaXaXaX",
"aXaXaXaXaXaXaXaXaXaXaXaXaXaXaXaXaXaXaXd s v v s d a x G.oX!.oX{.y.O.+.+.,.,.>.O.:.( ) aXaXaXaXaXaXaXaXaXaXaXaXaXaXaXaXaX",
"aXaXaXaXaXaXaXaXaXaXaXaXaXaXaXaXaXaXaXs f v f a a g u.-X5X5X<X@X'.2.+.[ ) ,.5.`.5.,.:.8.aXaXaXaXaXaXaXaXaXaXaXaXaXaXaXaX",
"aXaXaXaXaXaXaXaXaXaXaXaXaXaXaXaXaXaXaXs f s d a z i.b.%X3X5X3X&X X'.9.( R ) ,.5.6.5.2.h.P.L.F.aXaXaXaXaXaXaXaXaXaXaXaXaX",
"aXaXaXaXaXaXaXaXaXaXaXaXaXaXaXaXaXaXaXs d a , : &.oX%X%X,X1X1X,X#XOXj./ e T ) ,.5.5.7.c.K.G.C.H.aXaXaXaXaXaXaXaXaXaXaXaX",
"aXaXaXaXaXaXaXaXaXaXaXaXaXaXaXaXaXaXaXa a , = 0  .{.%X%X&X,X,X,X#XOXz.&.9 w T ) ,.5.y.+X2XK.c.;X8XaXaXaXaXaXaXaXaXaXaXaX",
"aXaXaXaXaXaXaXaXaXaXaXaXaXaXaXaXaXaXaX; - % 4 Q ;.l.|.#X%X%X%X%X@XXXj.%.z t y R O.,.`..X<X$XOX2X8X9XaXaXaXaXaXaXaXaXaXaX",
"aXaXaXaXaXaXaXaXaXaXaXaXaXaXaXaXaXK G Z 7 % - 9 { w.[.|.@X#X%X@X|.'.j.g.i.h.g.$.I I o.].&X&X:X3X7X8XaXaXaXaXaXaXaXaXaXaX",
"aXaXaXaXaXaXaXaXaXaXaXaXaXaXaXaXaX~.L L Z ; a ; i @.e.'.|.#X%X|.'.k.r.l.}.@XXX#.A H P _.'.$X3X4X4X4XaXaXaXaXaXaXaXaXaXaX",
"aXaXaXaXaXaXaXaXaXaXaXaXaXaXaXaXaX^.^.L G B 7 7 7 X.@.r.{.@X%X#XXX'.'.[.}.@X}.#.G K /._.t.XX<X<X&X%XaXaXaXaXaXaXaXaXaXaX",
"aXaXaXaXaXaXaXaXaXaXaXaXaXaXaXaX(.(./.L H C N M M M D @.'.OX-X%X@XOX}.}.}.}.'.$.G ~.(._.@.z.@XOX}.[.aXaXaXaXaXaXaXaXaXaX",
"aXaXaXaXaXaXaXaXaXaXaXaXaXaXaXaX^.^.^.~.K G C V N M S ` t.$X<X,X%X@XOX|.[.'.t.o.K /.(.I Q ..j.k.w.0.aXaXaXaXaXaXaXaXaXaX",
"aXaXaXaXaXaXaXaXaXaXaXaXaXaXaX~.L ~.L L H C A A V N B R 0.-X1X:X%X$X@X|.'.l.e.o.~././.A 4 y ' @.] ] aXaXaXaXaXaXaXaXaXaX",
"aXaXaXaXaXaXaXaXaXaXaXaXaXaX(.^.~.L K H G C V V N M M 6 } oX$X#X#X#X@X}.l.w.#.I K ^.^.N + $ ~ _ _ aXaXaXaXaXaXaXaXaXaXaX",
"aXaXaXaXaXaXaXaXaXaXaXaXaX).).(./.L K G V M M M M M 1 q k g.k.'.[.}.'.k.0.@.` F C K K 2 .   aXaXaXaXaXaXaXaXaXaXaXaXaXaX",
"aXaXaXaXaXaXaXaXaXaXaXaXY Y ~./.~.K G V B 1 7 5 1 < # % = t { } ....{ } E y 6 6 2 M M <   aXaXaXaXaXaXaXaXaXaXaXaXaXaXaX",
"aXaXaXaXaXaXaXaXaXaXaXaXk 0 F L K C V N 5 8 j k : @ . . . . o + X + @ X X X + + . . . .     aXaXaXaXaXaXaXaXaXaXaXaXaXaX",
"aXaXaXaXaXaXaXaXaXaXaXaX> > 0 Z Z S 5 5 x n n.n.b j > O                                     aXaXaXaXaXaXaXaXaXaXaXaXaXaX",
"aXaXaXaXaXaXaXaXaXaXaXaX  o = 8 k k u k =.D.L.L.S.N.m &       O                       .   . aXaXaXaXaXaXaXaXaXaXaXaXaXaX",
"aXaXaXaXaXaXaXaXaXaXaXaXaX  & > d j j j n A.P.S.D.F.b *                                   aXaXaXaXaXaXaXaXaXaXaXaXaXaXaX",
"aXaXaXaXaXaXaXaXaXaXaXaXaXaXO o = j j j m n.m.m.m.n.l o           .                   . aXaXaXaXaXaXaXaXaXaXaXaXaXaXaXaX",
"aXaXaXaXaXaXaXaXaXaXaXaXaXaXaX  & = : : : z l l z z j o                               aXaXaXaXaXaXaXaXaXaXaXaXaXaXaXaXaX",
"aXaXaXaXaXaXaXaXaXaXaXaXaXaXaXaXO o o o o o o o o o o                           aXaXaXaXaXaXaXaXaXaXaXaXaXaXaXaXaXaXaXaX",
"aXaXaXaXaXaXaXaXaXaXaXaXaXaXaXaXaX                            .       .   . O aXaXaXaXaXaXaXaXaXaXaXaXaXaXaXaXaXaXaXaXaX",
"aXaXaXaXaXaXaXaXaXaXaXaXaXaXaXaXaXaXaXaX                              aXaXaXaXaXaXaXaXaXaXaXaXaXaXaXaXaXaXaXaXaXaXaXaXaX",
"aXaXaXaXaXaXaXaXaXaXaXaXaXaXaXaXaXaXaXaXaX        .                 . aXaXaXaXaXaXaXaXaXaXaXaXaXaXaXaXaXaXaXaXaXaXaXaXaX"
};
