/* XPM */
static char *result[] = {
/* columns rows colors chars-per-pixel */
"60 60 220 2 ",
"   c #030404",
".  c #0B0505",
"X  c #0E0A06",
"o  c #0C0C0C",
"O  c #050B04",
"+  c #120D05",
"@  c #120E08",
"#  c #140404",
"$  c #191509",
"%  c #120D16",
"&  c #0E1316",
"*  c #131213",
"=  c #1C1513",
"-  c #15131C",
";  c #1B1A1C",
":  c #19161B",
">  c #0E0E18",
",  c #260403",
"<  c #340C0A",
"1  c #3C0905",
"2  c #2D1E00",
"3  c #251A08",
"4  c #39110F",
"5  c #36160A",
"6  c #320B12",
"7  c #271B19",
"8  c #371919",
"9  c #2C0B10",
"0  c #2F2104",
"q  c #342304",
"w  c #3C2503",
"e  c #33240B",
"r  c #3B2909",
"t  c #2A2417",
"y  c #362A18",
"u  c #3F3312",
"i  c #141523",
"p  c #1B1C2C",
"a  c #171826",
"s  c #1E1E30",
"d  c #201E29",
"f  c #1C2020",
"g  c #242425",
"h  c #2B2322",
"j  c #2B2B2B",
"k  c #2C2727",
"l  c #342929",
"z  c #3C3426",
"x  c #222235",
"c  c #343434",
"v  c #3C3B3A",
"b  c #332E32",
"n  c #440401",
"m  c #4B0401",
"M  c #470A08",
"N  c #540300",
"B  c #5B0400",
"V  c #530D0E",
"C  c #5B0A00",
"Z  c #481405",
"A  c #581904",
"S  c #591010",
"D  c #620302",
"F  c #6E0200",
"G  c #680A02",
"H  c #740201",
"J  c #7D0000",
"K  c #790D09",
"L  c #6A1903",
"P  c #7A1D09",
"I  c #701212",
"U  c #442A03",
"Y  c #4A2D03",
"T  c #452D0B",
"R  c #4B2F0A",
"E  c #462703",
"W  c #512807",
"Q  c #4C310B",
"!  c #493106",
"~  c #533403",
"^  c #5B3901",
"/  c #543609",
"(  c #5C330B",
")  c #563B0D",
"_  c #5D3C0E",
"`  c #593602",
"'  c #4C3514",
"]  c #493617",
"[  c #553A15",
"{  c #5C3F13",
"}  c #543D19",
"|  c #512911",
" . c #77280B",
".. c #633D03",
"X. c #6B3F01",
"o. c #623806",
"O. c #683A16",
"+. c #723216",
"@. c #6C2A10",
"#. c #473A27",
"$. c #513E23",
"%. c #453E34",
"&. c #7A2F2B",
"*. c #5F410A",
"=. c #5B441A",
"-. c #654204",
";. c #6B4404",
":. c #6C470A",
">. c #69440A",
",. c #744C05",
"<. c #734C09",
"1. c #7A5106",
"2. c #7C530A",
"3. c #7E5A0F",
"4. c #634313",
"5. c #6D4B13",
"6. c #6B4C1A",
"7. c #63481B",
"8. c #714C13",
"9. c #734D1C",
"0. c #794A1C",
"q. c #76531C",
"w. c #7A531D",
"e. c #7B5718",
"r. c #54442D",
"t. c #5B462A",
"y. c #4A4439",
"u. c #49443B",
"i. c #5B4D3A",
"p. c #564936",
"a. c #5F503B",
"s. c #624925",
"d. c #6A532C",
"f. c #755522",
"g. c #7B5621",
"h. c #7D5A23",
"j. c #785B28",
"k. c #66553D",
"l. c #745F3C",
"z. c #7C622D",
"x. c #79613B",
"c. c #3F4242",
"v. c #434342",
"b. c #4B4943",
"n. c #4B4B4C",
"m. c #544E44",
"M. c #504F4D",
"N. c #5C554B",
"B. c #5D5243",
"V. c #4E4F53",
"C. c #545454",
"Z. c #5C5C5C",
"A. c #5B5855",
"S. c #64594A",
"D. c #625E5A",
"F. c #66615B",
"G. c #74665E",
"H. c #5B5E63",
"J. c #646464",
"K. c #6B6B6C",
"L. c #676767",
"P. c #73716C",
"I. c #6E6F70",
"U. c #747474",
"Y. c #7A7875",
"T. c #7C7C7C",
"R. c #767778",
"E. c #7C6A62",
"W. c #840101",
"Q. c #8C0100",
"!. c #930000",
"~. c #9C0100",
"^. c #A10101",
"/. c #832D10",
"(. c #815C16",
"). c #835E25",
"_. c #8F5221",
"`. c #856125",
"'. c #85642A",
"]. c #896529",
"[. c #8D6A2D",
"{. c #916E2E",
"}. c #956D2A",
"|. c #8F6C31",
" X c #826636",
".X c #926E32",
"XX c #957335",
"oX c #997635",
"OX c #9A773A",
"+X c #9C7B3C",
"@X c #8C7038",
"#X c #A17D3D",
"$X c #834E51",
"%X c #816B49",
"&X c #997B45",
"*X c #907851",
"=X c #A47F42",
"-X c #857A7C",
";X c #A38243",
":X c #AA8649",
">X c #AC8A4C",
",X c #A7834C",
"<X c #B18D4D",
"1X c #B18D53",
"2X c #B69255",
"3X c #BB965B",
"4X c #BE9C68",
"5X c #C19D65",
"6X c #CBA873",
"7X c #C4A06B",
"8X c #7B7E81",
"9X c #838383",
"0X c #8C8C8C",
"qX c #888989",
"wX c #949494",
"eX c #9E9E9E",
"rX c #949698",
"tX c #A5A5A5",
"yX c #ABABAC",
"uX c None",
/* pixels */
"uXuXuXuXuXuXuXuXuXuXuXuXuXuXuXuXuXuXuXuXuXuXuXuXuXuXuXuXuXuXuXuXuXuXuXuXuXuXuXyXyXuXuXuXuXuXuXuXuXuXuXuXuXuXuXuXuXuXuXuX",
"uXuXuXuXuXuXuXuXuXuXuXuXuXuXuXuXuXuXuXuXuXuXuXuXuXuXuXuXuXuXuXuXuXuXuXuXuXuXuXtXtXuXuXuXuXuXuXuXuXuXuXuXuXuXuXuXuXuXuXuX",
"uXuXuXuXuXuXuXuXuXuXuXuXuXuXuXuXuXuXuXuXuXuXuXuXuXuXuXuXuXuXuXuXuXuXuXuXuXuXuXqX0XuXuXuXuXuXuXuXuXuXuXuXuXuXuXuXuXuXuXuX",
"uXuXuXuXuXuXuXuXuXuXuXuXuXuXuXuXuXuXuXuXuXuXuXuXuXuXuXuXuXuXuXuXuXuXuXuXuXuXuXR.R.Y.uXuXuXuXuXuXuXuXuXuXuXuXuXuXuXuXuXuX",
"uXuXuXuXuXuXuXuXuXuXuXuXuXuXuXuXuXuXuXuXuXuXuXuXuXuXuXuXuXuXuXuXuXuXuXuXuXuXuXJ.L.U.T.uXuXuXuXuXuXuXuXuXuXuXuXuXuXuXuXuX",
"uXuXuXuXuXuXuXuXuXuXuXuXuXuXuXuXuXuXuXuXuXuXuXuXuXuXuXuXuXuXuXuXuXuXuXuXuXuXuXZ.H.L.R.uXuXuXuXuXuXuXuXuXuXuXuXuXuXuXuXuX",
"uXuXuXuXuXuXuXuXuXuXuXuXuXuXuXuXuXuXuXuXuXuXuXuXuXuXuXuXuXuXuXuXuXuXuXuXuXuXuXZ.D.J.J.uXuXuXuXuXuXuXuXuXuXuXuXuXuXuXuXuX",
"uXuXuXuXuXuXuXuXuXuXuXuXuXuXuXuXuXuXuXuXuXuXuXuXuXuXuXuXuXuXuXuXuXuXuXuXuXuXuXC.Z.Z.Z.C.uXuXuXuXuXuXuXuXuXuXuXuXuXuXuXuX",
"uXuXuXuXuXuXuXuXuXuXuXuXuXuXuXuXuXuXuXuXuXuXuXuXuXuXuXuXuXuXuXuXuXuXuXuXuXuXuXn.n.C.Z.M.v.uXuXuXuXuXuXuXuXuXuXuXuXuXuXuX",
"uXuXuXuXuXuXuXuXuXuXuXuXuXuXuXuXuXuXuXuXuXuXuXuXuXuXuXuXuXuXuXuXuXuXuXuXuXuXuXv.n.C.Z.V.v.v uXuXuXuXuXuXuXuXuXuXuXuXuXuX",
"uXuXuXuXuXuXuXuXuXuXuXuXuXuXuXuXuXuXuXuXuXuXuXuXuXuXuXuXuXuXuXuXuXuXuXuXuXuXuXJ.J.U.R.H.u.z 0 uXuXuXuXuXuXuXuXuXuXuXuXuX",
"uXuXuXuXuXuXuXuXuXuXuXuXuXuXuXuXuXuXuXuXuXuXuXuXuXuXuXuXuXuXuXuXuXuXuXuXuXuXuXR.T.qXqXK.c.y 0 0 uXuXuXuXuXuXuXuXuXuXuXuX",
"uXuXuXuXuXuXuXuXuXuXuXuXuXuXuXuXuXuXuXuXuXuXuXuXuXuXuXuXuXuXuXuX4.Q w E T z V.I.9XwXwXK.u.y 0 0 uXuXuXuXuXuXuXuXuXuXuXuX",
"uXuXuXuXuXuXuXuXuXuXuXuXuXuXuXuXuXuXuXuXuXuXuXuXuXuXuXuXuXuXuX6.=.! E U T #.b.D.Y.qXqXL.v.y e 0 uXuXuXuXuXuXuXuXuXuXuXuX",
"uXuXuXuXuXuXuXuXuXuXuXuXuXuXuXuXuXuXuXuXuXuXuXuXQ 7.9.8.*.uXE / / Y E Y ' #.v.m.S.F.J.Z.M.%.e uXuXuXuXuXuXuXuXuXuXuXuXuX",
"uXuXuXuXuXuXuXuXuXuXuXuXuXuXuXuXuXuXuXuXuXuXuXw R 4.6.6.=.T T R Q R R / [ %.%.$.=.r.b.V.Z.Z.uXuXuXuXuXuXuXuXuXuXuXuXuXuX",
"uXuXuXuXuXuXuXuXuXuXuXuXuXuXuXuXuXuXuXuXuXuXw U Y / { d.i.i.i.i.a.a.a.i.t.r.$.=.6.d.n.Z.K.uXuXuXuXuXuXuXuXuXuXuXuXuXuXuX",
"uXuXuXuXuXuXuXuXuXuXuXuXuXuXuXuXuX6X1X.X7.R w E Y ! $.N.J.P.Y.R.R.R.U.J.N.r.{ q.j.S.Z.K.R.T.uXuXuXuXuXuXuXuXuXuXuXuXuXuX",
"uXuXuXuXuXuXuXuXuXuXuXuXuXuXuXuXuX5X1X&Xf.! Z A @.$.S.J.U.0XrXrXrXrX0XR.J.B.t.5.q.d.F.U.T.8XuXuXuXuXuXuXuXuXuXuXuXuXuXuX",
"uXuXuXuXuXuXuXuXuXuXuXuXuXuXuXuXuX2X2X<X X/ A K &.G.R.R.9XeXyXtXtXyXeXqXU.J.N.s.o.uXuX8X-X8XuXuXuXuXuXuXuXuXuXuXuXuXuXuX",
"uXuXuXuXuXuXuXuXuXuXuXuXuXuXuXuXuX=X:X>X.X6.O.&.$X-X0X9X0XeXtXtXtXtXeXwX8X8XK.a.t.uXuXrXwX0XuXuXuXuXuXuXuXuXuXuXuXuXuXuX",
"uXuXuXuXuXuXuXuXuXuXuXuXuXuXuXuXuX{.XX+XXX'. XE.-X0XwXwXrXrXrXrXrXrXrXrXrX,XR.F.D.uXuXyXyXtXuXuXuXuXuXuXuXuXuXuXuXuXuXuX",
"uXuXuXuXuXuXuXuXuXuXuXuXuXuXuXuXuXq.g.).h.g.l.P.T.0XwXwXwXwXwXwXrXrXrX0XqX8XT.I.L.uXuXuXyXuXuXuXuXuXuXuXuXuXuXuXuXuXuXuX",
"uXuXuXuXuXuXuXuXuXuXuXuXuXuXuXuXuX{ 4.4.-.-.s.D.K.Y.qXwXwXwXwXwX0XrXrXqX8X8XT.T.Y.uXuXuXuXuXuXuXuXuXuXuXuXuXuXuXuXuXuXuX",
"uXuXuXuXuXuXuXuXuXuXuXuXuXuXuXuXuX/ Q Y ~ -.=.m.H.L.T.qX0X0X0X0X0X0X0X9XT.R.I.K.L.uXuXuXuXuXuXuXuXuXuXuXuXuXuXuXuXuXuXuX",
"uXuXuXuXuXuXuXuXuXuXuXuXuXuXuXuXuXuXw w ~ ,.7.y.n.Z.K.T.9X9X-X9X8X8X9X8XY.K.H.V.n.uXuXuXuXuXuXuXuXuXuXuXuXuXuXuXuXuXuXuX",
"uXuXuXuXuXuXuXuXuXuXuXuXuXuXuXuXuXuXuX2 ! ;.5.r.y.M.Z.K.U.U.U.U.U.U.U.U.I.J.M.v #.uXuXuXuXuXuXuXuXuXuXuXuXuXuXuXuXuXuXuX",
"uXuXuXuXuXuXuXuXuXuXuXuXuXuXuXuXuXuXuXuX~ ..;.5.s.y.n.H.J.J.J.J.J.J.J.L.Z.V.u.=.) uXuXuXuXuXuXuXuXuXuXuXuXuXuXuXuXuXuXuX",
"uXuXuXuXuXuXuXuXuXuXuXuXuXuXuXuXuXuXuXuXXXe.<.>._ #.%.m.b.m.b.b.u.b.b.u.y.y.#.*.X.X.uXuXuXuXuXuXuXuXuXuXuXuXuXuXuXuXuXuX",
"uXuXuXuXuXuXuXuXuXuXuXuXuXuXuXuXuX2X5X6X5X;Xf.r w Q ) ' ] y y t t t t y ] ' _ ;.,.-...uXuXuXuXuXuXuXuXuXuXuXuXuXuXuXuXuX",
"uXuXuXuXuXuXuXuXuXuXuXuXuXuXuXuXuX>X3X4X3X:Xz.] T *.-.~ Y U w 3 $ $ $ 3 0 r / ..;.-.X.uXuXuXuXuXuXuXuXuXuXuXuXuXuXuXuXuX",
"uXuXuXuXuXuXuXuXuXuXuXuXuXuXuXuXuX;X:X>X+X}.`.z.z.e.8...^ -.*.t a - a 7 ; 7 7 r ! -.,.uXuXuXuXuXuXuXuXuXuXuXuXuXuXuXuXuX",
"uXuXuXuXuXuXuXuXuXuXuXuXuXuXuXuXuX+XXXz.j.<.3.{.{.`.e.;.-.>.[ h p p p s p p - = 0 / 2.uXuXuXuXuXuXuXuXuXuXuXuXuXuXuXuXuX",
"uXuXuXuXuXuXuXuXuXuXuXuXuXuXuXuXuXuX=.u u ~ :.(.(.8.:.,.4.] h a i a s x x s a * $ e uXuXuXuXuXuXuXuXuXuXuXuXuXuXuXuXuXuX",
"uXuXuXuXuXuXuXuXuXuXuXuXuXuXuXuXuXuX0 0 q ! -.,.;...-.1.6.#.b l k p p x x x p i & uXuXuXuXuXuXuXuXuXuXuXuXuXuXuXuXuXuXuX",
"uXuXuXuXuXuXuXuXuXuXuXuXuXuXuXuXuX` ^ ^ *.;.;.-.X.o.;.e.'. X%X%Xk.b i a p x x p a uXuXuXuXuXuXuXuXuXuXuXuXuXuXuXuXuXuXuX",
"uXuXuXuXuXuXuXuXuXuXuXuXuXuXuXuX*.-.:.1.2.1.;.^ ` ..5.).oX:X2X2X&Xr.g - a s x x p uXuXuXuXuXuXuXuXuXuXuXuXuXuXuXuXuXuXuX",
"uXuXuXuXuXuXuXuXuXuXuXuXuXV.H.J.d.<.1.2.1.;.^ Y ~ 8.`.[.#X<X2X>X&Xx.t.h i a p p p uXuXuXuXuXuXuXuXuXuXuXuXuXuXuXuXuXuXuX",
"uXuXuXuXuXuXuXuXuXuXuXuXN.N.F.G.x.3.1.1.;.^ E w ' g.[.OX;X>X>X;X#X+X X#.- - i a p uXuXuXuXuXuXuXuXuXuXuXuXuXuXuXuXuXuXuX",
"uXuXuXuXuXuXuXuXuXuXuX4X*Xx.E.*X.X3.,.;.^ Y 3 7 ] d.XXoX#X;X;X;X+XoX].=.e = & i a uXuXuXuXuXuXuXuXuXuXuXuXuXuXuXuXuXuXuX",
"uXuXuXuXuXuXuXuXuXuX6X7X:X.X+X:X}.(.X...~ E y h #.f.[.oX+X+X+X+XoX[.w.O.r 9 % - : uXuXuXuXuXuXuXuXuXuXuXuXuXuXuXuXuXuXuX",
"uXuXuXuXuXuXuXuXuXuX4X4X1X#X=XOX_. .L L ( 6.s.t.s.f.).[.XXOXOXXX[.'.9.] 7 - - 6 V D H uXuXuXuXuXuXuXuXuXuXuXuXuXuXuXuXuX",
"uXuXuXuXuXuXuXuXuXuX2X2X1X>X+X)./.K F G +.|.XX].j.g.q.`.[.+XOX[.`.q.O.h : - : V H J W.uXuXuXuXuXuXuXuXuXuXuXuXuXuXuXuXuX",
"uXuXuXuXuXuXuXuXuXuX+X+X:X:X.X0./.Q.H D +.].XX[.).h.`.[.XX+XXX`.9.O.W 4 9 6 M D W.Q.!.uXuXuXuXuXuXuXuXuXuXuXuXuXuXuXuXuX",
"uXuXuXuXuXuXuXuXuXuX`.].XXXXj.O.P ~.Q.D @.).].`.].].[.XX+X#X.X).O.A n n n N B F J !.~.~.uXuXuXuXuXuXuXuXuXuXuXuXuXuXuXuX",
"uXuXuXuXuXuXuXuXuXuX5.6.q.f.=.U L ~.!.H P w.`.].[..XXX+X=X:X&Xw.( Z n m N N D H J Q.!.Q.uXuXuXuXuXuXuXuXuXuXuXuXuXuXuXuX",
"uXuXuXuXuXuXuXuXuXuX_ _ _ / e 3 C !.~.J P 6.g.).[.XX+X+X=X>X&X6.E M m N B B D F J J W.J J uXuXuXuXuXuXuXuXuXuXuXuXuXuXuX",
"uXuXuXuXuXuXuXuXuXuXuX/ _ Y 3 + m Q.Q.H I O.9.).].XXoXoXXXOX X} 5 1 m m N N N D F H J W.!.~.uXuXuXuXuXuXuXuXuXuXuXuXuXuX",
"uXuXuXuXuXuXuXuXuXuXuXuXuXuXO . 1 H H B A o.7.9.g.).'.'.).g.s.t 7 < n n n n n N D F J Q.~.^.^.uXuXuXuXuXuXuXuXuXuXuXuXuX",
"uXuXuXuXuXuXuXuXuXuXuXuXuXuXuX. , n 1 1 1 5 8 T ' ] } } ' ] e * # # , < 4 < 4 M N D H W.~.W.I I uXuXuXuXuXuXuXuXuXuXuXuX",
"uXuXuXuXuXuXuXuXuXuXuXuXuXuX.     . # . . . + + X @ @ @ @ X X . . . X ; d h t 4 m N B H H S 8 k uXuXuXuXuXuXuXuXuXuXuXuX",
"uXuXuXuXuXuXuXuXuXuXuXuXuXuX                                    o - g c v c.%.l 4 4 M V S 8 ; & uXuXuXuXuXuXuXuXuXuXuXuX",
"uXuXuXuXuXuXuXuXuXuXuXuXuXuX                  .                 & b n.C.D.J.Z.v g t k h 7 = o O uXuXuXuXuXuXuXuXuXuXuXuX",
"uXuXuXuXuXuXuXuXuXuXuXuXuXuXuX.       .                         * v M.Z.H.D.C.v g g g f : >   uXuXuXuXuXuXuXuXuXuXuXuXuX",
"uXuXuXuXuXuXuXuXuXuXuXuXuXuXuXuX                .               o j v.v.v.v.c.b g t g - o . uXuXuXuXuXuXuXuXuXuXuXuXuXuX",
"uXuXuXuXuXuXuXuXuXuXuXuXuXuXuXuXuXO                             o t j j j j k a ; : : o . uXuXuXuXuXuXuXuXuXuXuXuXuXuXuX",
"uXuXuXuXuXuXuXuXuXuXuXuXuXuXuXuXuXuXuXuX.                       O o > o o o o o o . O o uXuXuXuXuXuXuXuXuXuXuXuXuXuXuXuX",
"uXuXuXuXuXuXuXuXuXuXuXuXuXuXuXuXuXuXuXuXuX                                            uXuXuXuXuXuXuXuXuXuXuXuXuXuXuXuXuX",
"uXuXuXuXuXuXuXuXuXuXuXuXuXuXuXuXuXuXuXuXuXuXuXuXuX  .         .                 uXuXuXuXuXuXuXuXuXuXuXuXuXuXuXuXuXuXuXuX",
"uXuXuXuXuXuXuXuXuXuXuXuXuXuXuXuXuXuXuXuXuXuXuXuXuX                            uXuXuXuXuXuXuXuXuXuXuXuXuXuXuXuXuXuXuXuXuX"
};
