/* XPM */
static char *result[] = {
/* columns rows colors chars-per-pixel */
"60 60 231 2 ",
"   c #040404",
".  c #0B0404",
"X  c #0B0B0B",
"o  c #0A0907",
"O  c #120C07",
"+  c #120E09",
"@  c #1D0602",
"#  c #1A1306",
"$  c #0C1213",
"%  c #131414",
"&  c #1A1A1C",
"*  c #19151A",
"=  c #140E16",
"-  c #2C0302",
";  c #270806",
":  c #380A05",
">  c #2C1E03",
",  c #231805",
"<  c #3C140A",
"1  c #2B1E1E",
"2  c #261B18",
"3  c #371614",
"4  c #380B10",
"5  c #332201",
"6  c #3B2603",
"7  c #32210A",
"8  c #3B260A",
"9  c #3C2B07",
"0  c #2A2417",
"q  c #342A15",
"w  c #3A2C17",
"e  c #372A09",
"r  c #0F1424",
"t  c #121424",
"y  c #1A1923",
"u  c #191A29",
"i  c #181727",
"p  c #211E23",
"a  c #261A26",
"s  c #1F2222",
"d  c #242323",
"f  c #2C2423",
"g  c #292929",
"h  c #29242A",
"j  c #332925",
"k  c #3B3227",
"l  c #343333",
"z  c #3E3E3C",
"x  c #3E3B36",
"c  c #450501",
"v  c #4B0401",
"b  c #480B08",
"n  c #550401",
"m  c #5C0301",
"M  c #530A03",
"N  c #590A02",
"B  c #491609",
"V  c #541B03",
"C  c #5B1605",
"Z  c #470D14",
"A  c #431616",
"S  c #541515",
"D  c #510B10",
"F  c #650300",
"G  c #6C0201",
"H  c #600C02",
"J  c #740201",
"K  c #7B0200",
"L  c #7A0A0A",
"P  c #691905",
"I  c #741909",
"U  c #601414",
"Y  c #412704",
"T  c #432A04",
"R  c #4B2D04",
"E  c #442C0B",
"W  c #572B08",
"Q  c #4C3105",
"!  c #4D330A",
"~  c #44310B",
"^  c #533404",
"/  c #5B3A02",
"(  c #54350A",
")  c #573B0D",
"_  c #5A3B0D",
"`  c #5B3507",
"'  c #452911",
"]  c #4C3514",
"[  c #493619",
"{  c #563B15",
"}  c #5D3E11",
"|  c #543C19",
" . c #542718",
".. c #69230C",
"X. c #75250D",
"o. c #623C03",
"O. c #643E0B",
"+. c #663A05",
"@. c #6B2B11",
"#. c #7B2E13",
"$. c #633D12",
"%. c #673815",
"&. c #743A15",
"*. c #4B3A23",
"=. c #443929",
"-. c #443F39",
";. c #5C441A",
":. c #5F4105",
">. c #654203",
",. c #6B4404",
"<. c #6A460B",
"1. c #6E490D",
"2. c #734C06",
"3. c #724B0B",
"4. c #784F07",
"5. c #795107",
"6. c #7C5408",
"7. c #644414",
"8. c #674815",
"9. c #6B4B15",
"0. c #6B461A",
"q. c #654A1B",
"w. c #6B4719",
"e. c #724B19",
"r. c #77491A",
"t. c #76531E",
"y. c #7A541C",
"u. c #795517",
"i. c #594527",
"p. c #4B4336",
"a. c #4A4439",
"s. c #4A453E",
"d. c #594B36",
"f. c #4E432F",
"g. c #644D27",
"h. c #6D5226",
"j. c #6C5228",
"k. c #7C5621",
"l. c #7C5A23",
"z. c #745826",
"x. c #654C30",
"c. c #684935",
"v. c #6A573A",
"b. c #745C36",
"n. c #7D612B",
"m. c #7D6031",
"M. c #444444",
"N. c #4B4943",
"B. c #4A4B4C",
"V. c #494746",
"C. c #514E48",
"Z. c #56514B",
"A. c #545454",
"S. c #5C5C5C",
"D. c #4D4F51",
"F. c #61594E",
"G. c #796A57",
"H. c #74664F",
"J. c #5E5F61",
"K. c #5F6062",
"L. c #646464",
"P. c #6B6B6B",
"I. c #6B6967",
"U. c #746A60",
"Y. c #747474",
"T. c #7C7C7C",
"R. c #777777",
"E. c #757370",
"W. c #840200",
"Q. c #8C0000",
"!. c #940302",
"~. c #9A0101",
"^. c #970A03",
"/. c #851B0B",
"(. c #9B1309",
"). c #A30301",
"_. c #8B2D10",
"`. c #815C16",
"'. c #8A4D12",
"]. c #835D25",
"[. c #855B29",
"{. c #9D5C37",
"}. c #A0542A",
"|. c #856225",
" X c #85632A",
".X c #89662A",
"XX c #8C692D",
"oX c #916E2E",
"OX c #916B24",
"+X c #8C6C32",
"@X c #856735",
"#X c #926D32",
"$X c #946F39",
"%X c #8E7135",
"&X c #947334",
"*X c #987635",
"=X c #997739",
"-X c #9B7B3B",
";X c #96743B",
":X c #A17D3C",
">X c #826A44",
",X c #9E7E45",
"<X c #847E76",
"1X c #9D845A",
"2X c #A38144",
"3X c #A58349",
"4X c #A98649",
"5X c #AC8A4C",
"6X c #A98547",
"7X c #B18D4E",
"8X c #AE8B50",
"9X c #B28D53",
"0X c #B69255",
"qX c #B5935A",
"wX c #BE985B",
"eX c #B99458",
"rX c #84807E",
"tX c #BC9862",
"yX c #C09856",
"uX c #C29E66",
"iX c #C5A16C",
"pX c #CEAA76",
"aX c #7D7F80",
"sX c #838383",
"dX c #8C8C8C",
"fX c #878788",
"gX c #949494",
"hX c #9E9E9E",
"jX c #A5A5A5",
"kX c gray67",
"lX c None",
/* pixels */
"lXlXlXlXlXlXlXlXlXlXlXlXlXlXlXlXlXlXlXlXlXlXlXlXlXlXlXlXlXlXlXlXlXlXlXlXlXlXlXlXlXlXlXlXlXlXlXlXlXlXlXlXlXlXlXlXlXlXlXlX",
"lXlXlXlXlXlXlXlXlXlXlXlXlXlXlXlXlXlXlXlXlXlXlXlXlXlXlXlXlXlXlXlXlXlXlXlXlXlXlXlXlXlXlXlXlXlXlXlXlXlXlXlXlXlXlXlXlXlXlXlX",
"lXlXlXlXlXlXlXlXlXlXlXlXlXlXlXlXlXlXlXlXlXlXlXlXlXlXlXkXkXlXlXlXlXlXlXlXlXlXlXlXlXlXlXlXlXlXlXlXlXlXlXlXlXlXlXlXlXlXlXlX",
"lXlXlXlXlXlXlXlXlXlXlXlXlXlXlXlXlXlXlXlXlXlXlXlXlXlXlXjXjXlXlXlXlXlXlXlXlXlXlXlXlXlXlXlXlXlXlXlXlXlXlXlXlXlXlXlXlXlXlXlX",
"lXlXlXlXlXlXlXlXlXlXlXlXlXlXlXlXlXlXlXlXlXlXlXlXlXlXlXdXdXlXlXlXlXlXlXlXlXlXlXlXlXlXlXlXlXlXlXlXlXlXlXlXlXlXlXlXlXlXlXlX",
"lXlXlXlXlXlXlXlXlXlXlXlXlXlXlXlXlXlXlXlXlXlXlXlXlXlXlXY.R.lXlXlXlXlXlXlXlXlXlXlXlXlXlXlXlXlXlXlXlXlXlXlXlXlXlXlXlXlXlXlX",
"lXlXlXlXlXlXlXlXlXlXlXlXlXlXlXlXlXlXlXlXlXlXlXlXlXsXY.P.I.lXlXlXlXlXlXlXlXlXlXlXlXlXlXlXlXlXlXlXlXlXlXlXlXlXlXlXlXlXlXlX",
"lXlXlXlXlXlXlXlXlXlXlXlXlXlXlXlXlXlXlXlXlXlXlXlXlXY.P.L.S.lXlXlXlXlXlXlXlXlXlXlXlXlXlXlXlXlXlXlXlXlXlXlXlXlXlXlXlXlXlXlX",
"lXlXlXlXlXlXlXlXlXlXlXlXlXlXlXlXlXlXlXlXlXlXlXlXlXP.I.S.S.lXlXlXlXlXlXlXlXlXlXlXlXlXlXlXlXlXlXlXlXlXlXlXlXlXlXlXlXlXlXlX",
"lXlXlXlXlXlXlXlXlXlXlXlXlXlXlXlXlXlXlXlXlXlXlXlXlXS.S.S.S.lXlXlXlXlXlXlXlXlXlXlXlXlXlXlXlXlXlXlXlXlXlXlXlXlXlXlXlXlXlXlX",
"lXlXlXlXlXlXlXlXlXlXlXlXlXlXlXlXlXlXlXlXlXlXlXlXB.A.A.B.V.lXlXlXlXlXlXlXlXlXlXlXlXlXlXlXlXlXlXlXlXlXlXlXlXlXlXlXlXlXlXlX",
"lXlXlXlXlXlXlXlXlXlXlXlXlXlXlXlXlXlXlXlXlXlXlXM.B.S.S.B.V.lXlXlXlXlXlXlXlXlXlXlXlXlXlXlXlXlXlXlXlXlXlXlXlXlXlXlXlXlXlXlX",
"lXlXlXlXlXlXlXlXlXlXlXlXlXlXlXlXlXlXlXlXlXlXw z A.P.Y.I.U.1XeXyX7X=XlXlXlXlXlXlXlXlXlXlXlXlXlXlXlXlXlXlXlXlXlXlXlXlXlXlX",
"lXlXlXlXlXlXlXlXlXlXlXlXlXlXlXlXlXlXlXlXlX5 q x J.sXdXT.<X1X7X5X,X#X].lXlXlXlXlXlXlXlXlXlXlXlXlXlXlXlXlXlXlXlXlXlXlXlXlX",
"lXlXlXlXlXlXlXlXlXlXlXlXlXlXlXlXlXlXlXlXlX5 q x J.fXgXsXE.G.H. Xz.w.7.8.lXlXlXlXlXlXlXlXlXlXlXlXlXlXlXlXlXlXlXlXlXlXlXlX",
"lXlXlXlXlXlXlXlXlXlXlXlXlXlXlXlXlXlXlXlXlX5 q x S.fXgXsXE.A.p.] ! E R ;.w.lXlXlXlXlXlXlXlXlXlXlXlXlXlXlXlXlXlXlXlXlXlXlX",
"lXlXlXlXlXlXlXlXlXlXlXlXlXlXlXlXlXlXlXlXlXlXk N.J.T.fXT.Y.J.A.p.*.Y Y ( _ ! lXlXlXlXlXlXlXlXlXlXlXlXlXlXlXlXlXlXlXlXlXlX",
"lXlXlXlXlXlXlXlXlXlXlXlXlXlXlXlXlXlXlXlXlXlXlXS.P.R.aXrXT.T.E.L.C.| R R R Y T { w.e.q.( 6 lXlXlXlXlXlXlXlXlXlXlXlXlXlXlX",
"lXlXlXlXlXlXlXlXlXlXlXlXlXlXlXlXlXlXlXlXlXlXL.P.Y.dXgXgXgXgXdXY.L.F.i.| R Y T ! _ ;._ ! T 6 lXlXlXlXlXlXlXlXlXlXlXlXlXlX",
"lXlXlXlXlXlXlXlXlXlXlXlXlXlXlXlXlXlXlXlXlXJ.L.Y.dXhXjXjXjXjXhXfXT.R.U.c._ W R R Q Q R Q E Y Y }  X4XiXpXlXlXlXlXlXlXlXlX",
"lXlXlXlXlXlXlXlXlXlXlXlXlXlXlXlXlXlXlXlXL.I.Y.sXgXhXjXjXjXjXhXdXsXdX<XG.v.| ( _ O.W V P P W T q.$X5XtXiXlXlXlXlXlXlXlXlX",
"lXlXlXlXlXlXlXlXlXlXlXlXlXlXlXlXlXlXlXS.I.Y.sXdXgXhXgXgXhXgXgXgXgXgXdXaXU.x.$.e.k.@.H K !.P W z.3X0XqXeXlXlXlXlXlXlXlXlX",
"lXlXlXlXlXlXlXlXlXlXlXlXlXlXlXlXlXlXlXP.P.T.sXdXdXgXgXgXgXgXgXgXgXgXdXaXU.c.O.y.].#.J Q.~./.<. X3X5X6X,XlXlXlXlXlXlXlXlX",
"lXlXlXlXlXlXlXlXlXlXlXlXlXlXlXlXlXlXlXR.T.T.T.aXsXgXhXgXgXgXgXgXdXfXT.P.F.i.+.u.].#.K Q.)._.[.XX-X=XoXoXlXlXlXlXlXlXlXlX",
"lXlXlXlXlXlXlXlXlXlXlXlXlXlXlXlXlXlXlXP.P.Y.R.T.sXdXdXdXdXdXdXdXfXT.P.S.C.;.<.u.t.X.J W.!._.k.]. X].t.t.lXlXlXlXlXlXlXlX",
"lXlXlXlXlXlXlXlXlXlXlXlXlXlXlXlXlXlXlXV.D.J.P.T.T.rXsXsXsXaXsXfXT.P.S.B.s.q.2.1.%.P F J W.I %.7.7.7.7.$.lXlXlXlXlXlXlXlX",
"lXlXlXlXlXlXlXlXlXlXlXlXlXlXlXlXlXlXlX=.p.C.J.P.Y.Y.P.Y.Y.Y.Y.Y.P.J.C.a.i.8.2.,.W C N G J I $.( ( ( ( lXlXlXlXlXlXlXlXlX",
"lXlXlXlXlXlXlXlXlXlXlXlXlXlXlXlXlXlXlX) *.s.C.L.I.L.L.L.K.L.L.L.S.B.s.q.9.>.o./ lXlXlXlXlXlXlXlXlXlXlXlXlXlXlXlXlXlXlXlX",
"lXlXlXlXlXlXlXlXlXlXlXlXlXlXlXlXlXlX+.>._ *.p.s.N.s.M.N.N.N.C.C.s.p.[ ;.>.1.u.$XlXlXlXlXlXlXlXlXlXlXlXlXlXlXlXlXlXlXlXlX",
"lXlXlXlXlXlXlXlXlXlXlXlXlXlXlXlXlXo.,.2.<._ ] w q 0 0 0 0 q w ] | { ! 5 9 l.,XtXpXiXeXlXlXlXlXlXlXlXlXlXlXlXlXlXlXlXlXlX",
"lXlXlXlXlXlXlXlXlXlXlXlXlXlXlXlXlX>.,.,.>.^ 9 7 , # # # , 6 T Q ^ +.>.~ [ m.5XwXuXeX5XlXlXlXlXlXlXlXlXlXlXlXlXlXlXlXlXlX",
"lXlXlXlXlXlXlXlXlXlXlXlXlXlXlXlXlX2.>.Q 8 0 2 & s s y y 0 / >./ o.9.l.n.n. XOX-X5X4X2XlXlXlXlXlXlXlXlXlXlXlXlXlXlXlXlXlX",
"lXlXlXlXlXlXlXlXlXlXlXlXlXlXlXlXlX<.^ > * y i i i i u u j ;.<.>.,.u.].oXoX`.5.l.n.&X-XlXlXlXlXlXlXlXlXlXlXlXlXlXlXlXlXlX",
"lXlXlXlXlXlXlXlXlXlXlXlXlXlXlXlXlXV < # * y y t t t t r y f [ <.2.3.3.`.u.<.^ 9 w ;.lXlXlXlXlXlXlXlXlXlXlXlXlXlXlXlXlXlX",
"lXlXlXlXlXlXlXlXlXlXlXlXlXlXlXlXv c - = r y p a j j h f p u f ;.<.o.+.2.2.>.Q 6 > > lXlXlXlXlXlXlXlXlXlXlXlXlXlXlXlXlXlX",
"lXlXlXlXlXlXlXlXlXlXlXlXlXn n c v n 4 i r t l H.>X>Xb.x.*.p y j [ ` o.+.>.,.>.:.:.:./ lXlXlXlXlXlXlXlXlXlXlXlXlXlXlXlXlX",
"lXlXlXlXlXlXlXlXlXlXlXlXJ F n c n m Z a u g d.,XeX0X4X&Xh.k u u p ' ^ ^ o.,.5.'.5.2.>.lXlXlXlXlXlXlXlXlXlXlXlXlXlXlXlXlX",
"lXlXlXlXlXlXlXlXlXlXlX).~.W.F c m F Z a l x.@X2X7X0X7X:XXXh.*.d y 0 w 6 R / ,.6.6.5.2.lXlXlXlXlXlXlXlXlXlXlXlXlXlXlXlXlX",
"lXlXlXlXlXlXlXlXlXlX^.!.~.~.J v m J D a p.%X-X-X3X5X5X2X*XXXh.j t u u 2 5 R o.,.5.5.6.6.lXlXlXlXlXlXlXlXlXlXlXlXlXlXlXlX",
"lXlXlXlXlXlXlXlXlXlXS U L Q.G v m F C w ;..X*X-X:X3X3X:X-XXXh.q t r t y 2 > Y ^ >.2.6.6.6.lXlXlXlXlXlXlXlXlXlXlXlXlXlXlX",
"lXlXlXlXlXlXlXlXlXlXy 1 S F m c v M V ^ 7.].#X-X-X-X-X=X*X#Xj.j * t i h h q T ` <.2.2.5.6.lXlXlXlXlXlXlXlXlXlXlXlXlXlXlX",
"lXlXlXlXlXlXlXlXlXlX$ % 3 A 3 3 3 3  .$.e.].XX-X-X#XXX X.X$X[. .Z b S c.b.g.q.@X$Xk.:.,.6.6.lXlXlXlXlXlXlXlXlXlXlXlXlXlX",
"lXlXlXlXlXlXlXlXlXlX  o % d d p & f =.0.y..X&X*X*XXX].k.[.$X[...m J /.{.3X;X#X9XtXb.5 ^ 2.5.lXlXlXlXlXlXlXlXlXlXlXlXlXlX",
"lXlXlXlXlXlXlXlXlXlXlXo + % % % % % w 0.|.oX*X-X*X.X].k.].oX[...F W.(.}.:X2X6XwXqXd.# 5 ^ :.lXlXlXlXlXlXlXlXlXlXlXlXlXlX",
"lXlXlXlXlXlXlXlXlXlXlXlXo o   o   o 7 0. X&X2X-X*XXX X X.X.Xy.P F !.(._.XX,X7XeX,X*.O # 5 5 lXlXlXlXlXlXlXlXlXlXlXlXlXlX",
"lXlXlXlXlXlXlXlXlXlXlXlXlX          > _ |.2X4X:X=X&XoX.X|.].r.I K ~.(._.l.;X5X6X;X} : @ # O lXlXlXlXlXlXlXlXlXlXlXlXlXlX",
"lXlXlXlXlXlXlXlXlXlXlXlXlXlX        , R l.2X5X:X-X-X&X.X|.t.&.I W.~.^.X.0. X=X&X[.#.M - o   lXlXlXlXlXlXlXlXlXlXlXlXlXlX",
"lXlXlXlXlXlXlXlXlXlXlXlXlXlXlX      ; V &.#X=X*X*X*XoX Xy.e.@.I J !.W.V ~ q.l.l.0...N -   lXlXlXlXlXlXlXlXlXlXlXlXlXlXlX",
"lXlXlXlXlXlXlXlXlXlXlXlXlXlXlXlX  o - v ..0.].]. X Xl.h.w.$.W H F K G : 5 ~ :._ ` U M - .   lXlXlXlXlXlXlXlXlXlXlXlXlXlX",
"lXlXlXlXlXlXlXlXlXlXlXlXlXlXlXlXlX  @ : < ' ] ] | | | ~ ' 8 < c n F n c : B V W Y B b , = X lXlXlXlXlXlXlXlXlXlXlXlXlXlX",
"lXlXlXlXlXlXlXlXlXlXlXlXlXlXlXlXlXlX. . . o O O O O O o O o @ : c c c n n N N M b 3 1 d y $ o lXlXlXlXlXlXlXlXlXlXlXlXlX",
"lXlXlXlXlXlXlXlXlXlXlXlXlXlXlXlXlXlX                          ; - 4 < Z Z B Z : 4 k z M.M.l s % lXlXlXlXlXlXlXlXlXlXlXlX",
"lXlXlXlXlXlXlXlXlXlXlXlXlXlXlXlXlXo           o               . O & 1 d 0 a 0 a g V.S.L.S.A.M.g X lXlXlXlXlXlXlXlXlXlXlX",
"lXlXlXlXlXlXlXlXlXlXlXlXlXlXlXlX                      o         o $ & & & d d d g V.S.S.S.S.V.g X   lXlXlXlXlXlXlXlXlXlX",
"lXlXlXlXlXlXlXlXlXlXlXlXlXlXlXlXlX                                o o o X & d g d l M.M.M.M.z d X   lXlXlXlXlXlXlXlXlXlX",
"lXlXlXlXlXlXlXlXlXlXlXlXlXlXlXlXlXo                         o           o + & & & d g g g g g & X lXlXlXlXlXlXlXlXlXlXlX",
"lXlXlXlXlXlXlXlXlXlXlXlXlXlXlXlXlXlXo   o                                 o o o o X X $ X X + $ lXlXlXlXlXlXlXlXlXlXlXlX",
"lXlXlXlXlXlXlXlXlXlXlXlXlXlXlXlXlXlXlX                                  o                     lXlXlXlXlXlXlXlXlXlXlXlXlX",
"lXlXlXlXlXlXlXlXlXlXlXlXlXlXlXlXlXlXlXlX          o                   lXlXlXlXlXlXlXlXlXlXlXlXlXlXlXlXlXlXlXlXlXlXlXlXlX",
"lXlXlXlXlXlXlXlXlXlXlXlXlXlXlXlXlXlXlXlXlX    o                     o lXlXlXlXlXlXlXlXlXlXlXlXlXlXlXlXlXlXlXlXlXlXlXlXlX"
};
