/* XPM */
static char *result[] = {
/* columns rows colors chars-per-pixel */
"60 60 230 2 ",
"   c #030404",
".  c #0B0404",
"X  c #0D0A06",
"o  c #0B0B0B",
"O  c #070809",
"+  c #120C07",
"@  c #120E09",
"#  c #1D0602",
"$  c #1A1306",
"%  c #0C1213",
"&  c #131414",
"*  c #1A1A1C",
"=  c #19151A",
"-  c #140E16",
";  c #2C0302",
":  c #270806",
">  c #380A05",
",  c #2C1E03",
"<  c #231805",
"1  c #3C140A",
"2  c #2B1E1E",
"3  c #261B18",
"4  c #371614",
"5  c #380B10",
"6  c #332201",
"7  c #32210A",
"8  c #3B260A",
"9  c #3B2805",
"0  c #2A2417",
"q  c #342A15",
"w  c #3A2C17",
"e  c #372B09",
"r  c #0F1424",
"t  c #121424",
"y  c #1A1923",
"u  c #191A29",
"i  c #181727",
"p  c #211E23",
"a  c #261A26",
"s  c #1F2222",
"d  c #242323",
"f  c #2C2423",
"g  c #292929",
"h  c #29242A",
"j  c #332925",
"k  c #3B3227",
"l  c #343333",
"z  c #3E3E3C",
"x  c #3E3B36",
"c  c #450501",
"v  c #4B0401",
"b  c #480B08",
"n  c #540401",
"m  c #5B0301",
"M  c #530A03",
"N  c #590A02",
"B  c #491609",
"V  c #541B03",
"C  c #5B1605",
"Z  c #470D14",
"A  c #431616",
"S  c #541515",
"D  c #510B10",
"F  c #650300",
"G  c #6C0201",
"H  c #600C02",
"J  c #740200",
"K  c #7A0200",
"L  c #7A0A0A",
"P  c #691905",
"I  c #741909",
"U  c #601414",
"Y  c #412704",
"T  c #432A04",
"R  c #4B2D04",
"E  c #442C0B",
"W  c #572B08",
"Q  c #4C3105",
"!  c #4D330A",
"~  c #44310B",
"^  c #533404",
"/  c #5C3A02",
"(  c #54350A",
")  c #573B0D",
"_  c #593B0D",
"`  c #5C3409",
"'  c #452911",
"]  c #4C3514",
"[  c #493619",
"{  c #563B15",
"}  c #5D3E11",
"|  c #543C19",
" . c #542718",
".. c #69230C",
"X. c #75250D",
"o. c #633C03",
"O. c #693E01",
"+. c #643E0B",
"@. c #6B2B11",
"#. c #7B2E13",
"$. c #633D12",
"%. c #673815",
"&. c #743A15",
"*. c #4B3A23",
"=. c #443929",
"-. c #443F39",
";. c #5C441A",
":. c #5F4105",
">. c #654203",
",. c #6B4405",
"<. c #6A460B",
"1. c #6E490D",
"2. c #734C06",
"3. c #724B0B",
"4. c #784F07",
"5. c #7A5107",
"6. c #7D5408",
"7. c #644414",
"8. c #674815",
"9. c #6B461A",
"0. c #654A1B",
"q. c #6C4B1A",
"w. c #6A4714",
"e. c #724B19",
"r. c #77491A",
"t. c #76531E",
"y. c #7A541C",
"u. c #795517",
"i. c #594527",
"p. c #4B4336",
"a. c #4A4439",
"s. c #4A453E",
"d. c #594B36",
"f. c #4E432F",
"g. c #644D27",
"h. c #6D5226",
"j. c #6C5228",
"k. c #7C5621",
"l. c #7C5A23",
"z. c #745826",
"x. c #654C30",
"c. c #684935",
"v. c #6A573A",
"b. c #745C36",
"n. c #7D612B",
"m. c #7D6031",
"M. c #444444",
"N. c #4B4943",
"B. c #4A4B4C",
"V. c #494746",
"C. c #514E48",
"Z. c #56514B",
"A. c #545454",
"S. c #5C5C5C",
"D. c #4D4F51",
"F. c #61594E",
"G. c #796A57",
"H. c #74664F",
"J. c #5E5F61",
"K. c #5F6062",
"L. c #646464",
"P. c #6B6B6C",
"I. c #6B6967",
"U. c #746A60",
"Y. c #747474",
"T. c #7C7C7C",
"R. c #777777",
"E. c #757370",
"W. c #840200",
"Q. c #8C0000",
"!. c #940302",
"~. c #9A0101",
"^. c #970A03",
"/. c #851B0B",
"(. c #9B1309",
"). c #A30301",
"_. c #8B2D10",
"`. c #815C16",
"'. c #894D12",
"]. c #835D25",
"[. c #855B29",
"{. c #9D5C37",
"}. c #A0542A",
"|. c #856225",
" X c #85632A",
".X c #89662A",
"XX c #8C692D",
"oX c #916E2E",
"OX c #916B24",
"+X c #8C6C32",
"@X c #856735",
"#X c #926D32",
"$X c #946F39",
"%X c #947335",
"&X c #987635",
"*X c #997739",
"=X c #9B7B3B",
"-X c #96743B",
";X c #8D7032",
":X c #A17D3C",
">X c #826A44",
",X c #9E7E45",
"<X c #837E76",
"1X c #9D855A",
"2X c #A38144",
"3X c #A58349",
"4X c #A98649",
"5X c #AC894C",
"6X c #A98547",
"7X c #B18D4D",
"8X c #AE8B51",
"9X c #B18D52",
"0X c #B69255",
"qX c #B5935A",
"wX c #BC9659",
"eX c #84807E",
"rX c #BC9862",
"tX c #C09959",
"yX c #C29E66",
"uX c #C6A26C",
"iX c #CEAA75",
"pX c #7D7F80",
"aX c #838383",
"sX c #8C8C8C",
"dX c #878788",
"fX c #949494",
"gX c #9E9E9E",
"hX c #A5A5A5",
"jX c gray67",
"kX c None",
/* pixels */
"kXkXkXkXkXkXkXkXkXkXkXkXkXkXkXkXkXkXkXkXkXkXkXkXkXkXkXkXkXkXkXkXkXkXkXkXkXkXkXkXkXkXkXkXkXkXkXkXkXkXkXkXkXkXkXkXkXkXkXkX",
"kXkXkXkXkXkXkXkXkXkXkXkXkXkXkXkXkXkXkXkXkXkXkXkXkXkXkXkXkXkXkXkXkXkXkXkXkXkXkXkXkXkXkXkXkXkXkXkXkXkXkXkXkXkXkXkXkXkXkXkX",
"kXkXkXkXkXkXkXkXkXkXkXkXkXkXkXkXkXkXkXkXkXkXkXkXkXkXkXkXkXkXkXjXjXkXkXkXkXkXkXkXkXkXkXkXkXkXkXkXkXkXkXkXkXkXkXkXkXkXkXkX",
"kXkXkXkXkXkXkXkXkXkXkXkXkXkXkXkXkXkXkXkXkXkXkXkXkXkXkXkXkXkXkXhXhXkXkXkXkXkXkXkXkXkXkXkXkXkXkXkXkXkXkXkXkXkXkXkXkXkXkXkX",
"kXkXkXkXkXkXkXkXkXkXkXkXkXkXkXkXkXkXkXkXkXkXkXkXkXkXkXkXkXkXkXsXsXkXkXkXkXkXkXkXkXkXkXkXkXkXkXkXkXkXkXkXkXkXkXkXkXkXkXkX",
"kXkXkXkXkXkXkXkXkXkXkXkXkXkXkXkXkXkXkXkXkXkXkXkXkXkXkXkXkXkXkXR.R.kXkXkXkXkXkXkXkXkXkXkXkXkXkXkXkXkXkXkXkXkXkXkXkXkXkXkX",
"kXkXkXkXkXkXkXkXkXkXkXkXkXkXkXkXkXkXkXkXkXkXkXkXkXkXkXkXkXkXkXL.I.Y.pXkXkXkXkXkXkXkXkXkXkXkXkXkXkXkXkXkXkXkXkXkXkXkXkXkX",
"kXkXkXkXkXkXkXkXkXkXkXkXkXkXkXkXkXkXkXkXkXkXkXkXkXkXkXkXkXkXkXS.L.Y.R.kXkXkXkXkXkXkXkXkXkXkXkXkXkXkXkXkXkXkXkXkXkXkXkXkX",
"kXkXkXkXkXkXkXkXkXkXkXkXkXkXkXkXkXkXkXkXkXkXkXkXkXkXkXkXkXkXkXS.S.L.P.kXkXkXkXkXkXkXkXkXkXkXkXkXkXkXkXkXkXkXkXkXkXkXkXkX",
"kXkXkXkXkXkXkXkXkXkXkXkXkXkXkXkXkXkXkXkXkXkXkXkXkXkXkXkXkXkXkXS.S.S.S.kXkXkXkXkXkXkXkXkXkXkXkXkXkXkXkXkXkXkXkXkXkXkXkXkX",
"kXkXkXkXkXkXkXkXkXkXkXkXkXkXkXkXkXkXkXkXkXkXkXkXkXkXkXkXkXkXkXV.B.A.A.B.kXkXkXkXkXkXkXkXkXkXkXkXkXkXkXkXkXkXkXkXkXkXkXkX",
"kXkXkXkXkXkXkXkXkXkXkXkXkXkXkXkXkXkXkXkXkXkXkXkXkXkXkXkXkXkXkXV.B.S.S.D.s.kXkXkXkXkXkXkXkXkXkXkXkXkXkXkXkXkXkXkXkXkXkXkX",
"kXkXkXkXkXkXkXkXkXkXkXkXkXkXkXkXkXkXkXkXkXkXkXkXkXkX*X9XtXwX1XU.L.Y.E.A.-.j kXkXkXkXkXkXkXkXkXkXkXkXkXkXkXkXkXkXkXkXkXkX",
"kXkXkXkXkXkXkXkXkXkXkXkXkXkXkXkXkXkXkXkXkXkXkXkXkX|.+X3X8X8X1X<XpXdXaXS.x q 6 kXkXkXkXkXkXkXkXkXkXkXkXkXkXkXkXkXkXkXkXkX",
"kXkXkXkXkXkXkXkXkXkXkXkXkXkXkXkXkXkXkXkXkXkXkXkX8.7.q.z.m.b.G.E.dXfXdXS.x q 6 kXkXkXkXkXkXkXkXkXkXkXkXkXkXkXkXkXkXkXkXkX",
"kXkXkXkXkXkXkXkXkXkXkXkXkXkXkXkXkXkXkXkXkXkXkXq.} ~ E ! | p.Z.E.pXfXdXS.-.q 6 kXkXkXkXkXkXkXkXkXkXkXkXkXkXkXkXkXkXkXkXkX",
"kXkXkXkXkXkXkXkXkXkXkXkXkXkXkXkXkXkXkXkXkXkX! ) ( Y T *.p.Z.J.Y.pXeXpXS.N.k kXkXkXkXkXkXkXkXkXkXkXkXkXkXkXkXkXkXkXkXkXkX",
"kXkXkXkXkXkXkXkXkXkXkXkXkXkXkX9 ( 8.q.q.{ T Y R R R | C.L.Y.R.T.pXpX<XI.S.kXkXkXkXkXkXkXkXkXkXkXkXkXkXkXkXkXkXkXkXkXkXkX",
"kXkXkXkXkXkXkXkXkXkXkXkXkXkX9 Y ( _ ;._ ( T T W { d.F.I.Y.dXfXfXfXfXsXR.P.L.kXkXkXkXkXkXkXkXkXkXkXkXkXkXkXkXkXkXkXkXkXkX",
"kXkXkXkXkXkXkXkXiXuX4X X} Y Y R R R Q Q R R R ` x.U.E.R.dXgXjXjXjXhXgXdXY.L.J.kXkXkXkXkXkXkXkXkXkXkXkXkXkXkXkXkXkXkXkXkX",
"kXkXkXkXkXkXkXkXuXyX9X$X0.T V P P V W 7._ ( | v.G.<XdXaXsXgXhXhXhXhXhXfXaXY.I.K.kXkXkXkXkXkXkXkXkXkXkXkXkXkXkXkXkXkXkXkX",
"kXkXkXkXkXkXkXkXqXqX9X3Xz.W P !.K N @.y.e.$.c.U.pXsXfXfXfXfXfXgXfXfXfXfXsXaXY.L.S.kXkXkXkXkXkXkXkXkXkXkXkXkXkXkXkXkXkXkX",
"kXkXkXkXkXkXkXkX2X3X5X4X X7./.).Q.G #.].y.$.x.U.pXsXfXfXfXfXfXfXfXfXfXsXsXaXT.Y.P.kXkXkXkXkXkXkXkXkXkXkXkXkXkXkXkXkXkXkX",
"kXkXkXkXkXkXkXkXXX#X*X=X#X]._.).!.K #.].u.>.i.F.P.T.dXfXfXfXfXfXfXfXfXdXpXpXT.R.R.kXkXkXkXkXkXkXkXkXkXkXkXkXkXkXkXkXkXkX",
"kXkXkXkXkXkXkXkXt.z.l.|.l.k._.!.W.K X.r.3.<.;.C.S.P.T.dXsXsXfXsXsXsXsXeXpXY.E.P.P.kXkXkXkXkXkXkXkXkXkXkXkXkXkXkXkXkXkXkX",
"kXkXkXkXkXkXkXkX+.$.7.7.7.%.X.K J H P $.1.4.0.a.B.S.P.T.aXpXpXpXpXpXeXpXT.P.S.D.V.kXkXkXkXkXkXkXkXkXkXkXkXkXkXkXkXkXkXkX",
"kXkXkXkXkXkXkXkXkX) ( ( _ ` I K G m C W <.2.8.i.N.C.S.P.Y.Y.Y.Y.Y.Y.Y.Y.E.S.D.f.=.kXkXkXkXkXkXkXkXkXkXkXkXkXkXkXkXkXkXkX",
"kXkXkXkXkXkXkXkXkXkXkXkXkXkXkXkXkXkXkXkX/ o.<.3.i.a.D.S.L.L.L.L.L.L.L.L.S.D.s.f.{ kXkXkXkXkXkXkXkXkXkXkXkXkXkXkXkXkXkXkX",
"kXkXkXkXkXkXkXkXkXkXkXkXkXkXkXkXkXkXkXkX%Xt.1.<.) *.-.d.C.C.s.s.N.M.s.C.d.p.*.} O.O.kXkXkXkXkXkXkXkXkXkXkXkXkXkXkXkXkXkX",
"kXkXkXkXkXkXkXkXkXkXkXkXkXkXkXkXkXqXyXiXwX2Xz.e 6 ! { ] [ w q q 0 0 0 q w ] _ <.2.,.o.kXkXkXkXkXkXkXkXkXkXkXkXkXkXkXkXkX",
"kXkXkXkXkXkXkXkXkXkXkXkXkXkXkXkXkX5XwXrXwX5Xm.[ ~ >.O.^ R R 9 < $ $ $ < 7 T ^ >.,.>.O.kXkXkXkXkXkXkXkXkXkXkXkXkXkXkXkXkX",
"kXkXkXkXkXkXkXkXkXkXkXkXkXkXkXkXkX3X4X5X:XOX|.m.l.l.e./ / >._ 0 y y y * y 3 3 e Q >.4.kXkXkXkXkXkXkXkXkXkXkXkXkXkXkXkXkX",
"kXkXkXkXkXkXkXkXkXkXkXkXkXkXkXkXkX=X%Xn.u.5.u.oX%X|.u.<.>.1.;.f u u u u i i = & , ^ ,.kXkXkXkXkXkXkXkXkXkXkXkXkXkXkXkXkX",
"kXkXkXkXkXkXkXkXkXkXkXkXkXkXkXkXkXkXi.w e ( 2.u.`.4.2.2.<.[ f y t t t t i i i = $ 1 V kXkXkXkXkXkXkXkXkXkXkXkXkXkXkXkXkX",
"kXkXkXkXkXkXkXkXkXkXkXkXkXkXkXkXkXkX6 , 9 Q :.2.2.o.>.<.{ f u y d j g j d p u r - 5 c v kXkXkXkXkXkXkXkXkXkXkXkXkXkXkXkX",
"kXkXkXkXkXkXkXkXkXkXkXkXkXkXkXkXkX/ / / :.<.,.,.o./ ^ [ j i d *.x.b.>X>XH.l r r y 5 v v c v m kXkXkXkXkXkXkXkXkXkXkXkXkX",
"kXkXkXkXkXkXkXkXkXkXkXkXkXkXkXkXkX>.,.5.6.4.,./ ^ ^ ' d u a k z.&X4X0X0X,Xd.d s a Z m n v n F J kXkXkXkXkXkXkXkXkXkXkXkX",
"kXkXkXkXkXkXkXkXkXkXkXkXkXkXkXkXkX2.5.6.5.,.o.R Y w 0 i h *.j.XX:X7XwX7X2X@Xx.l a Z G m v F W.!.).kXkXkXkXkXkXkXkXkXkXkX",
"kXkXkXkXkXkXkXkXkXkXkXkXkXkXkXkX6.6.6.5.,.o.R 6 3 y i t j h.XX&X,X5X5X2X=X:X;Xf.a D J m v G ~.~.!.!.kXkXkXkXkXkXkXkXkXkX",
"kXkXkXkXkXkXkXkXkXkXkXkXkXkXkX6.6.'.2.O.^ T 7 3 = i t r j h.XX&X:X6X3X:X*X&X@X;.' M F m v G Q.L U S kXkXkXkXkXkXkXkXkXkX",
"kXkXkXkXkXkXkXkXkXkXkXkXkXkXkX6.5.4.2.<._ 9 q g a a = - j j.#X%X*X=X=X=X*X%X].<.W V N b c m G S 2 s kXkXkXkXkXkXkXkXkXkX",
"kXkXkXkXkXkXkXkXkXkXkXkXkXkX`.6.>.:.h.%X Xq.g.v.c.S Z Z  .l.%X.X XXX%X&X*XXX].e.}  .4 4 4 A A 3 & % kXkXkXkXkXkXkXkXkXkX",
"kXkXkXkXkXkXkXkXkXkXkXkXkXkX5.2.^ 9 v.qX0X$X%X3X{./.G m ...X%X].y.].XX&X*X;X X].q.[ d y d d a & O   kXkXkXkXkXkXkXkXkXkX",
"kXkXkXkXkXkXkXkXkXkXkXkXkXkX/ ^ 6 $ d.rXwX3X2X:X}.(.W.G I [.#X].l.|.XX%X=X&XoX].9.w = % & & & @ O kXkXkXkXkXkXkXkXkXkXkX",
"kXkXkXkXkXkXkXkXkXkXkXkXkXkX6 6 $ + *.3XwX9X,X+X_.(.Q.G P y..X.X|..XXX%X=X=X*X X9., O   O   O   kXkXkXkXkXkXkXkXkXkXkXkX",
"kXkXkXkXkXkXkXkXkXkXkXkXkXkX$ $ # > %.$X6X4X*Xk._.(.!.K P r.[.].XXXX%X*X,X4X2X|.} ,           kXkXkXkXkXkXkXkXkXkXkXkXkX",
"kXkXkXkXkXkXkXkXkXkXkXkXkXkX  . ; n @.].%X&X@X7.X.^.~.W.L &.k.].XX%X=X=X=X5X3Xl.R < .     O kXkXkXkXkXkXkXkXkXkXkXkXkXkX",
"kXkXkXkXkXkXkXkXkXkXkXkXkXkXkX  ; N ..q.l.l.0.~ C W.Q.K I %.e.k.|.oX&X&X&X*X#X&.V ;       kXkXkXkXkXkXkXkXkXkXkXkXkXkXkX",
"kXkXkXkXkXkXkXkXkXkXkXkXkXkX  O ; M W ` +.} E , > G J F C @.$.9.t.]. X X|.l.9...n ;     kXkXkXkXkXkXkXkXkXkXkXkXkXkXkXkX",
"kXkXkXkXkXkXkXkXkXkXkXkXkXkXO @ : Z B B V V B > c m F n b 1 8 8 ] ] | | [ ] ' 1 ; : . kXkXkXkXkXkXkXkXkXkXkXkXkXkXkXkXkX",
"kXkXkXkXkXkXkXkXkXkXkXkXkXO & s d d 4 b M M N M v v v v > # X X X X @ + + X X . . . kXkXkXkXkXkXkXkXkXkXkXkXkXkXkXkXkXkX",
"kXkXkXkXkXkXkXkXkXkXkXkX= d l z M.z k 4 > Z D B Z 4 5 ; # .                       O kXkXkXkXkXkXkXkXkXkXkXkXkXkXkXkXkXkX",
"kXkXkXkXkXkXkXkXkXkXkXo g M.A.S.L.S.M.j 0 d a 0 0 d 3 X .                             kXkXkXkXkXkXkXkXkXkXkXkXkXkXkXkXkX",
"kXkXkXkXkXkXkXkXkXkX  o g V.S.S.S.S.M.g d d d y * = & O                                 kXkXkXkXkXkXkXkXkXkXkXkXkXkXkXkX",
"kXkXkXkXkXkXkXkXkXkX  O d z M.M.M.M.l g d d * o O O O .                   O         O kXkXkXkXkXkXkXkXkXkXkXkXkXkXkXkXkX",
"kXkXkXkXkXkXkXkXkXkXkXo * g g g g g d * = * & O                                       kXkXkXkXkXkXkXkXkXkXkXkXkXkXkXkXkX",
"kXkXkXkXkXkXkXkXkXkXkXkXo o @ o @ o o o o o O                             O         kXkXkXkXkXkXkXkXkXkXkXkXkXkXkXkXkXkX",
"kXkXkXkXkXkXkXkXkXkXkXkXkX                              .           O .         . kXkXkXkXkXkXkXkXkXkXkXkXkXkXkXkXkXkXkX",
"kXkXkXkXkXkXkXkXkXkXkXkXkXkXkXkXkXkXkXkXkXkXkXkXkX                              kXkXkXkXkXkXkXkXkXkXkXkXkXkXkXkXkXkXkXkX",
"kXkXkXkXkXkXkXkXkXkXkXkXkXkXkXkXkXkXkXkXkXkXkXkXkX            O               kXkXkXkXkXkXkXkXkXkXkXkXkXkXkXkXkXkXkXkXkX"
};
