/* XPM */
static char *bf42cfc34ed0435ba7da651051873261VwjlfPQQ2akxiviU[] = {
/* columns rows colors chars-per-pixel */
"60 60 41 1 ",
"  c #362B22",
". c #392E25",
"X c #3B3027",
"o c #3E3229",
"O c #41362C",
"+ c #44392F",
"@ c #463B31",
"# c #4A3E33",
"$ c #4D4136",
"% c #4F4338",
"& c #52453B",
"* c #56493E",
"= c #584B3F",
"- c #574A40",
"; c #5A4D42",
": c #5E5145",
"> c #615346",
", c #645549",
"< c #67584C",
"1 c #6A5B4E",
"2 c #6D5E51",
"3 c #705F54",
"4 c #6F6053",
"5 c #726255",
"6 c #766659",
"7 c #78675A",
"8 c #77685A",
"9 c #7B6B5D",
"0 c #7F6E60",
"q c #7F7061",
"w c #806E5F",
"e c #806F61",
"r c #847364",
"t c #887667",
"y c #877668",
"u c #897768",
"i c #8C7B6C",
"p c #907E6F",
"a c #8F7E70",
"s c #917F70",
"d c #938172",
/* pixels */
";5r7<$OO$=dduttr95,$o%42,,<=$%$%qqqqryidi*..O .OO;w>*&==;-;-",
">77>+.O.$>4554444<=++%=2,==$=4$$9q6qriidi$+@O@<5>#21====-===",
">,*O.#@O&:::==::**&o&6==>=%&tr4%48<:<1464$$O&>7ww,&<:=======",
"*#.O>>@#===*====*&$X&=$$==$5prw::6::;-*;$@$*>>9977*&>=====&=",
".O@<5>#******==**$o*<<>%*#=uptw2$4::=*&$O+%>:<ttw7>O$;==&==#",
" +&&#@#=*******&&+$rudyq*O7ppptw$;::&%%+oO=::1iduw3$.#&===@O",
"O@$$OX#=***&*&&&$o8ddyrr5#wurtit<@:=&%+XoO:>>1rdpiw<O O$##O.",
"*,35=O@&*&**&*&#o=ddyrqrw#53:>19q=$$$o$ooo,2<>>9ppt9=O###O.O",
"75776$O#**&**&@O*ridueerr#<<****28:Xo;44&o&4:;;;,7tw1:3>@+=3",
"w7wwe>OO#&&&#OO&0iddde0ew#&1=***=4q$:899r*+,:;;-**;12#>&&177",
"wwwwr9+#O++O.O$,0tudit999$O<;***=:4%499qd9o;::;-==&@+O.#1337",
"wtttur=&&XXO$##>,:<45679w=X>>**&*-:%8qdddi$o::;-=$OX+=O&><<3",
"<3wiit,O#&19t7#>:*==;;>13;.&,;;===*%8q964q:o$&%@O.O.*e&&<>;;",
"==>5ti5o.,erui>=,*==;;;>>&.O>:;-*&$$<<:<:<1oXoX .*1<$:;&<>==",
"====,97O &667w1#:;==-;;=&OX.#:;&oX $:::::::%X. .=7rrw=#&<:==",
"====*=-+ O111<>X==*&&*&OO.#@.O++%+Xo+&:::-%$o..-9tutt3O#,:==",
"&***%$oo.X&4::&Xo%$$oo$oX&54&o$:<--:-o%-%#ooXo-6e9r9ty$o::**",
"&%%&$oX  o+&:&#ooo. %6q1%;482*-=$;5,;-oooXo$$&587777yd:.&:-&",
"$$@oX  X&84;&@$%$o&2qdqq8*$*&$&$#65,::,-o#85-188669rud2.o%$#",
"     o*4qqqd;X+$:9ydyyqqq4%X o@o,04,<<4,#o<--4462566226:oooX",
" XXo%:8q88yd8#Xo5ddqqqqqq5;.X X&884<<<4<#o-Xo,,:>>>;:;:1*X. ",
" .$444888qydy:oo*qdqqqq8q6%o$Xo6q64<<<22#,0:o---;;;;--*$&@..",
"4$X*:4558qdq98&oo1qdyqqqq4%<4$1yq844<<<<#<qq:#--;;;**&*%@XX<",
"q6:o%458qqd5;<4$o%:1445qq1484-qiqq8844:-o-qq<o#-*;*&%$$$o ;t",
"444&.-69qqq:--::oo-----24*4821iyqqyqqq<-oo--@oo#***&%$@o o29",
"1:;:@o4qqq:---&--Xo---<1%$-::;qiyddyq8;%#Xooo-4-+$%%$$@X.;11",
";---*o-8qq:--==*-oo@#---5qq0:o-qqqqq4-%%#ooo-qqq>#@$$$o O<<<",
"---&&$o;48:-==-=-#ooXX@6ydddq&o:4;;%-%%%-ooo4qqqr5$O$o X:2>:",
"&&--%oo$o-&%$&----oo%:5qqiaa0-o$:&$%&&--@ooo8dqddy8%oo.&55>*",
"$$$%oX:q4-$&&-&----,:6qqqyiq:-%X--&&--%$o@$#qdddqqdq&X$586<$",
"ooo@oo1qq::54<:-oo-:2qyqyii0%--o#;---&@o@;-@qdq46iydq%$888<$",
"ooo$oo$:--0085:$o@-:8iyiqqq2-%-$X&;-%OXX%-@o:<;;8dddq-X-58>@",
"oo:51;#OO+3w73$+$%@@-86<:;:4:&&#++-:>-@+@##@@-;4ryr0:*oo#-%o",
"o:qq753:+O@;:&>7>%ooo$-%***-;#&-@+3322002,:%o-:6q6:-%*#o@$Oo",
":0yqww331=OOO=tpy4*o$qy:O##@@##&&#<2<uit061%X@-<<>;*&%*64*oX",
"uyrrw75311;+,ippir8-&q0::<>:#O#--&OO-uau07-%$@@#%;:;*@:yq4%;",
"ateer93555<+>79rrtr,@#-309003&O@##@OO-772&#::%o#+O$;$O<94;1u",
"itrre75655:o&>::,50*X-9e000003OO#:1:-#@@;<,<:#:09=ooX@11-4id",
"r097w66w71$O*:::,22@;e9<5teee3##532<::-&&;###<asdi:O+@#$>9qq",
";;;>,1175>oO&:::<<#@73:*;7tet9@,01::----#o.+>iiaddt=*=+$,<::",
";=**==,41$X+&:=:-#.o,,**--3ip3O2e71>;:,,#.#3uuuuipde=$$>1,==",
"*=*&==:<:+O+%&+OO+o.O--&&&-70#O39rr937e1o+2rtrrrtipd9%$>1>==",
"***&&*:,**$+@OX@<2:+.#-&#--,#+@<79eee1-&o->2133699tpp7=1,===",
"**&&*==&@=&Oo.$9t002OX**--;#+###>7771#:3>%>>,,1<125tp6*><===",
"&%%&*=%+O%$X.$0ittee,O+;--#O#-#@O>3>#<770:->>,,>>>209@%=====",
"*&*:*+Xo,8,+o9diiuttr>O#-##13003-+#$307733#-,:::=:<5% +*==**",
"*;::$.X,te92$0diiue9e3#O+-9rettru,.,uee003,+-;:;==>:$$X$&&&*",
"o@$o.X=tdy09&8dy93<,,:#O:rreriiia7O,iiu0,:1#o-;-&=&%9w%XXOXO",
"%*#O.+9pduye=:e6,,><>=O$6e0etsaiat@#tse,;=;&*#@&&&#&t3@O+++$",
"465#X@5e6422:+>2<,,,:$X>62:,17uuii;.7i3;;-;&<:OO@@.=<@#:,112",
"8993OX,5>>:=*O+,<,>,*o$26>=*-;37eu3.<w--;;*&-2w2*O @O$<12454",
"r999= &4>==**$X+*:=*$+%25,::;;<23e<O;w>;;&@#1psie3@ @<134244",
"ww775+O<>=*&$OO.X+$$O=*=1,::>>,,,w*1313>>#+<pdsiit&O:1112229",
"w7777>.$>;&$OO*$o:e9,%%$*=::>::,,%&e7#-1>+=rreeer7+;12<1<<4r",
"w77775+X&&@O#<w5**w6>%=4=o%,,::,%@>*&@+$#@75,,,2w&$1111<<<ed",
"wwwwwr=#&O.$7rw74*&=%<tde&X>52<&+#&:>,-@.;4>:>,3>@132132<2rd",
"irttpp3=7@=tutww92$X,uduu8$$<4=$@#ww7073-->>;:,*+>532664<<5u",
"7tpdddw%4>tpttrw94=O5ddddr<%=%,4;3w37760e-::--@.$7779941>==<",
"=1wpppt&<>piutrw95>+=wrrrw9=%>911ew7777rp<#>-+  =ww791>=====",
"=>9twt5%*:putwrw96,$@255545,$&==7eew7eeup:+-O   $ww5,====:=="
};
